<svg width="260" height="40" viewBox="0 0 260 40" fill="none" xmlns="http://www.w3.org/2000/svg">
<g clip-path="url(#clip0)">
<path d="M25.7504 11.334H6.25041C5.05379 11.334 4.08374 12.304 4.08374 13.5007V26.5006C4.08374 27.6973 5.05379 28.6673 6.25041 28.6673H25.7504C26.947 28.6673 27.9171 27.6973 27.9171 26.5006V13.5007C27.9171 12.304 26.947 11.334 25.7504 11.334Z" stroke="#ED1B2F" stroke-width="2.31416" stroke-linecap="round" stroke-linejoin="round"/>
<path d="M4.08374 17.8335H27.9171" stroke="#ED1B2F" stroke-width="2.31416" stroke-linecap="round" stroke-linejoin="round"/>
</g>
<path d="M48.078 14.613C48.1807 14.613 48.2717 14.6527 48.351 14.732L49.093 15.537C48.6823 16.0457 48.176 16.4353 47.574 16.706C46.9767 16.9767 46.258 17.112 45.418 17.112C44.6667 17.112 43.99 16.9837 43.388 16.727C42.7907 16.4703 42.2797 16.1133 41.855 15.656C41.4303 15.1987 41.1037 14.6527 40.875 14.018C40.651 13.3833 40.539 12.6903 40.539 11.939C40.539 11.1783 40.6603 10.483 40.903 9.853C41.1457 9.21833 41.4863 8.67233 41.925 8.215C42.3683 7.75767 42.8957 7.403 43.507 7.151C44.1183 6.89433 44.795 6.766 45.537 6.766C46.2743 6.766 46.9277 6.88733 47.497 7.13C48.071 7.37267 48.5587 7.69 48.96 8.082L48.33 8.957C48.2927 9.013 48.2437 9.062 48.183 9.104C48.127 9.146 48.0477 9.167 47.945 9.167C47.875 9.167 47.8027 9.14833 47.728 9.111C47.6533 9.069 47.5717 9.02 47.483 8.964C47.3943 8.90333 47.2917 8.838 47.175 8.768C47.0583 8.698 46.923 8.635 46.769 8.579C46.615 8.51833 46.4353 8.46933 46.23 8.432C46.0293 8.39 45.796 8.369 45.53 8.369C45.0773 8.369 44.662 8.45067 44.284 8.614C43.9107 8.77267 43.5887 9.006 43.318 9.314C43.0473 9.61733 42.8373 9.99067 42.688 10.434C42.5387 10.8727 42.464 11.3743 42.464 11.939C42.464 12.5083 42.5433 13.0147 42.702 13.458C42.8653 13.9013 43.0847 14.2747 43.36 14.578C43.6353 14.8813 43.9597 15.1147 44.333 15.278C44.7063 15.4367 45.1077 15.516 45.537 15.516C45.7937 15.516 46.0247 15.502 46.23 15.474C46.44 15.446 46.6313 15.4017 46.804 15.341C46.9813 15.2803 47.147 15.2033 47.301 15.11C47.4597 15.012 47.616 14.893 47.77 14.753C47.8167 14.711 47.8657 14.6783 47.917 14.655C47.9683 14.627 48.022 14.613 48.078 14.613ZM53.9039 13.934C53.4045 13.9573 52.9845 14.0017 52.6439 14.067C52.3032 14.1277 52.0302 14.207 51.8249 14.305C51.6195 14.403 51.4725 14.5173 51.3839 14.648C51.2952 14.7787 51.2509 14.921 51.2509 15.075C51.2509 15.3783 51.3395 15.5953 51.5169 15.726C51.6989 15.8567 51.9345 15.922 52.2239 15.922C52.5785 15.922 52.8842 15.859 53.1409 15.733C53.4022 15.6023 53.6565 15.4063 53.9039 15.145V13.934ZM49.9419 10.819C50.7679 10.063 51.7619 9.685 52.9239 9.685C53.3439 9.685 53.7195 9.755 54.0509 9.895C54.3822 10.0303 54.6622 10.2217 54.8909 10.469C55.1195 10.7117 55.2922 11.0033 55.4089 11.344C55.5302 11.6847 55.5909 12.058 55.5909 12.464V17H54.8069C54.6435 17 54.5175 16.9767 54.4289 16.93C54.3402 16.8787 54.2702 16.7783 54.2189 16.629L54.0649 16.111C53.8829 16.2743 53.7055 16.419 53.5329 16.545C53.3602 16.6663 53.1805 16.769 52.9939 16.853C52.8072 16.937 52.6065 17 52.3919 17.042C52.1819 17.0887 51.9485 17.112 51.6919 17.112C51.3885 17.112 51.1085 17.0723 50.8519 16.993C50.5952 16.909 50.3735 16.7853 50.1869 16.622C50.0002 16.4587 49.8555 16.2557 49.7529 16.013C49.6502 15.7703 49.5989 15.488 49.5989 15.166C49.5989 14.984 49.6292 14.8043 49.6899 14.627C49.7505 14.445 49.8485 14.2723 49.9839 14.109C50.1239 13.9457 50.3035 13.7917 50.5229 13.647C50.7422 13.5023 51.0105 13.3763 51.3279 13.269C51.6499 13.1617 52.0232 13.0753 52.4479 13.01C52.8725 12.94 53.3579 12.898 53.9039 12.884V12.464C53.9039 11.9833 53.8012 11.6287 53.5959 11.4C53.3905 11.1667 53.0942 11.05 52.7069 11.05C52.4269 11.05 52.1935 11.0827 52.0069 11.148C51.8249 11.2133 51.6639 11.288 51.5239 11.372C51.3839 11.4513 51.2555 11.5237 51.1389 11.589C51.0269 11.6543 50.9009 11.687 50.7609 11.687C50.6395 11.687 50.5369 11.6567 50.4529 11.596C50.3689 11.5307 50.3012 11.456 50.2499 11.372L49.9419 10.819ZM58.8502 11.064C59.0742 10.6347 59.3402 10.2987 59.6482 10.056C59.9562 9.80867 60.3202 9.685 60.7402 9.685C61.0716 9.685 61.3376 9.75733 61.5382 9.902L61.4262 11.197C61.4029 11.281 61.3679 11.3417 61.3212 11.379C61.2792 11.4117 61.2209 11.428 61.1462 11.428C61.0762 11.428 60.9712 11.4163 60.8312 11.393C60.6959 11.3697 60.5629 11.358 60.4322 11.358C60.2409 11.358 60.0706 11.386 59.9212 11.442C59.7719 11.498 59.6366 11.5797 59.5152 11.687C59.3986 11.7897 59.2936 11.9157 59.2002 12.065C59.1116 12.2143 59.0276 12.3847 58.9482 12.576V17H57.2192V9.818H58.2342C58.4116 9.818 58.5352 9.85067 58.6052 9.916C58.6752 9.97667 58.7219 10.0887 58.7452 10.252L58.8502 11.064ZM64.8359 17.112C64.2106 17.112 63.7299 16.937 63.3939 16.587C63.0626 16.2323 62.8969 15.7447 62.8969 15.124V11.113H62.1619C62.0686 11.113 61.9892 11.0827 61.9239 11.022C61.8586 10.9613 61.8259 10.8703 61.8259 10.749V10.063L62.9809 9.874L63.3449 7.914C63.3682 7.82067 63.4126 7.74833 63.4779 7.697C63.5432 7.64567 63.6272 7.62 63.7299 7.62H64.6259V9.881H66.5439V11.113H64.6259V15.005C64.6259 15.229 64.6796 15.404 64.7869 15.53C64.8989 15.656 65.0506 15.719 65.2419 15.719C65.3492 15.719 65.4379 15.7073 65.5079 15.684C65.5826 15.656 65.6456 15.628 65.6969 15.6C65.7529 15.572 65.8019 15.5463 65.8439 15.523C65.8859 15.495 65.9279 15.481 65.9699 15.481C66.0212 15.481 66.0632 15.495 66.0959 15.523C66.1286 15.5463 66.1636 15.5837 66.2009 15.635L66.7189 16.475C66.4669 16.685 66.1776 16.8437 65.8509 16.951C65.5242 17.0583 65.1859 17.112 64.8359 17.112ZM71.4449 13.934C70.9455 13.9573 70.5255 14.0017 70.1849 14.067C69.8442 14.1277 69.5712 14.207 69.3659 14.305C69.1605 14.403 69.0135 14.5173 68.9249 14.648C68.8362 14.7787 68.7919 14.921 68.7919 15.075C68.7919 15.3783 68.8805 15.5953 69.0579 15.726C69.2399 15.8567 69.4755 15.922 69.7649 15.922C70.1195 15.922 70.4252 15.859 70.6819 15.733C70.9432 15.6023 71.1975 15.4063 71.4449 15.145V13.934ZM67.4829 10.819C68.3089 10.063 69.3029 9.685 70.4649 9.685C70.8849 9.685 71.2605 9.755 71.5919 9.895C71.9232 10.0303 72.2032 10.2217 72.4319 10.469C72.6605 10.7117 72.8332 11.0033 72.9499 11.344C73.0712 11.6847 73.1319 12.058 73.1319 12.464V17H72.3479C72.1845 17 72.0585 16.9767 71.9699 16.93C71.8812 16.8787 71.8112 16.7783 71.7599 16.629L71.6059 16.111C71.4239 16.2743 71.2465 16.419 71.0739 16.545C70.9012 16.6663 70.7215 16.769 70.5349 16.853C70.3482 16.937 70.1475 17 69.9329 17.042C69.7229 17.0887 69.4895 17.112 69.2329 17.112C68.9295 17.112 68.6495 17.0723 68.3929 16.993C68.1362 16.909 67.9145 16.7853 67.7279 16.622C67.5412 16.4587 67.3965 16.2557 67.2939 16.013C67.1912 15.7703 67.1399 15.488 67.1399 15.166C67.1399 14.984 67.1702 14.8043 67.2309 14.627C67.2915 14.445 67.3895 14.2723 67.5249 14.109C67.6649 13.9457 67.8445 13.7917 68.0639 13.647C68.2832 13.5023 68.5515 13.3763 68.8689 13.269C69.1909 13.1617 69.5642 13.0753 69.9889 13.01C70.4135 12.94 70.8989 12.898 71.4449 12.884V12.464C71.4449 11.9833 71.3422 11.6287 71.1369 11.4C70.9315 11.1667 70.6352 11.05 70.2479 11.05C69.9679 11.05 69.7345 11.0827 69.5479 11.148C69.3659 11.2133 69.2049 11.288 69.0649 11.372C68.9249 11.4513 68.7965 11.5237 68.6799 11.589C68.5679 11.6543 68.4419 11.687 68.3019 11.687C68.1805 11.687 68.0779 11.6567 67.9939 11.596C67.9099 11.5307 67.8422 11.456 67.7909 11.372L67.4829 10.819ZM71.0529 7.487C71.1929 7.487 71.3025 7.44967 71.3819 7.375C71.4612 7.29567 71.5009 7.15567 71.5009 6.955H72.5509C72.5509 7.21633 72.5135 7.45433 72.4389 7.669C72.3689 7.879 72.2709 8.061 72.1449 8.215C72.0189 8.36433 71.8672 8.481 71.6899 8.565C71.5172 8.64433 71.3259 8.684 71.1159 8.684C70.9479 8.684 70.7915 8.65367 70.6469 8.593C70.5022 8.53233 70.3669 8.467 70.2409 8.397C70.1149 8.327 69.9959 8.26167 69.8839 8.201C69.7765 8.14033 69.6762 8.11 69.5829 8.11C69.4475 8.11 69.3402 8.152 69.2609 8.236C69.1862 8.31533 69.1489 8.453 69.1489 8.649H68.0779C68.0779 8.38767 68.1129 8.152 68.1829 7.942C68.2575 7.72733 68.3602 7.54533 68.4909 7.396C68.6215 7.242 68.7732 7.123 68.9459 7.039C69.1232 6.955 69.3145 6.913 69.5199 6.913C69.6879 6.913 69.8442 6.94333 69.9889 7.004C70.1382 7.06467 70.2759 7.13 70.4019 7.2C70.5279 7.27 70.6445 7.33533 70.7519 7.396C70.8592 7.45667 70.9595 7.487 71.0529 7.487ZM77.9383 9.706C78.4703 9.706 78.9533 9.79233 79.3873 9.965C79.8259 10.1377 80.1993 10.3827 80.5073 10.7C80.8199 11.0173 81.0602 11.4047 81.2283 11.862C81.3963 12.3193 81.4803 12.8303 81.4803 13.395C81.4803 13.9643 81.3963 14.4777 81.2283 14.935C81.0602 15.3923 80.8199 15.782 80.5073 16.104C80.1993 16.426 79.8259 16.6733 79.3873 16.846C78.9533 17.0187 78.4703 17.105 77.9383 17.105C77.4016 17.105 76.9139 17.0187 76.4753 16.846C76.0366 16.6733 75.6609 16.426 75.3483 16.104C75.0403 15.782 74.7999 15.3923 74.6273 14.935C74.4593 14.4777 74.3753 13.9643 74.3753 13.395C74.3753 12.8303 74.4593 12.3193 74.6273 11.862C74.7999 11.4047 75.0403 11.0173 75.3483 10.7C75.6609 10.3827 76.0366 10.1377 76.4753 9.965C76.9139 9.79233 77.4016 9.706 77.9383 9.706ZM77.9383 15.775C78.5356 15.775 78.9766 15.5743 79.2613 15.173C79.5506 14.7717 79.6953 14.1837 79.6953 13.409C79.6953 12.6343 79.5506 12.044 79.2613 11.638C78.9766 11.232 78.5356 11.029 77.9383 11.029C77.3316 11.029 76.8813 11.2343 76.5873 11.645C76.2979 12.051 76.1533 12.639 76.1533 13.409C76.1533 14.179 76.2979 14.767 76.5873 15.173C76.8813 15.5743 77.3316 15.775 77.9383 15.775ZM92.4056 15.446V17H86.4766V6.878H88.3596V15.446H92.4056ZM97.7349 12.583C97.7349 12.359 97.7022 12.149 97.6369 11.953C97.5762 11.7523 97.4829 11.5773 97.3569 11.428C97.2309 11.2787 97.0699 11.162 96.8739 11.078C96.6826 10.9893 96.4586 10.945 96.2019 10.945C95.7026 10.945 95.3082 11.0873 95.0189 11.372C94.7342 11.6567 94.5522 12.0603 94.4729 12.583H97.7349ZM94.4379 13.626C94.4659 13.9947 94.5312 14.3143 94.6339 14.585C94.7366 14.851 94.8719 15.0727 95.0399 15.25C95.2079 15.4227 95.4062 15.5533 95.6349 15.642C95.8682 15.726 96.1249 15.768 96.4049 15.768C96.6849 15.768 96.9252 15.7353 97.1259 15.67C97.3312 15.6047 97.5086 15.5323 97.6579 15.453C97.8119 15.3737 97.9449 15.3013 98.0569 15.236C98.1736 15.1707 98.2856 15.138 98.3929 15.138C98.5376 15.138 98.6449 15.1917 98.7149 15.299L99.2119 15.929C99.0206 16.153 98.8059 16.342 98.5679 16.496C98.3299 16.6453 98.0802 16.7667 97.8189 16.86C97.5622 16.9487 97.2986 17.0117 97.0279 17.049C96.7619 17.0863 96.5029 17.105 96.2509 17.105C95.7516 17.105 95.2872 17.0233 94.8579 16.86C94.4286 16.692 94.0552 16.447 93.7379 16.125C93.4206 15.7983 93.1709 15.397 92.9889 14.921C92.8069 14.4403 92.7159 13.885 92.7159 13.255C92.7159 12.765 92.7952 12.3053 92.9539 11.876C93.1126 11.442 93.3389 11.0663 93.6329 10.749C93.9316 10.427 94.2932 10.1727 94.7179 9.986C95.1472 9.79933 95.6302 9.706 96.1669 9.706C96.6196 9.706 97.0372 9.77833 97.4199 9.923C97.8026 10.0677 98.1316 10.28 98.4069 10.56C98.6822 10.8353 98.8969 11.176 99.0509 11.582C99.2096 11.9833 99.2889 12.443 99.2889 12.961C99.2889 13.2223 99.2609 13.3997 99.2049 13.493C99.1489 13.5817 99.0416 13.626 98.8829 13.626H94.4379ZM108.051 15.53C108.401 15.53 108.695 15.488 108.933 15.404C109.171 15.32 109.36 15.208 109.5 15.068C109.644 14.928 109.747 14.7647 109.808 14.578C109.873 14.3913 109.906 14.193 109.906 13.983C109.906 13.7637 109.871 13.5677 109.801 13.395C109.731 13.2177 109.621 13.0683 109.472 12.947C109.322 12.821 109.129 12.7253 108.891 12.66C108.657 12.5947 108.375 12.562 108.044 12.562H106.147V15.53H108.051ZM106.147 8.334V11.26H107.645C108.289 11.26 108.774 11.1433 109.101 10.91C109.432 10.6767 109.598 10.3057 109.598 9.797C109.598 9.26967 109.448 8.894 109.15 8.67C108.851 8.446 108.384 8.334 107.75 8.334H106.147ZM107.75 6.878C108.412 6.878 108.979 6.941 109.451 7.067C109.922 7.193 110.307 7.37267 110.606 7.606C110.909 7.83933 111.131 8.12167 111.271 8.453C111.411 8.78433 111.481 9.15767 111.481 9.573C111.481 9.811 111.446 10.0397 111.376 10.259C111.306 10.4737 111.196 10.6767 111.047 10.868C110.902 11.0547 110.715 11.225 110.487 11.379C110.263 11.533 109.994 11.6637 109.682 11.771C111.072 12.0837 111.768 12.835 111.768 14.025C111.768 14.4543 111.686 14.851 111.523 15.215C111.359 15.579 111.121 15.894 110.809 16.16C110.496 16.4213 110.111 16.6267 109.654 16.776C109.196 16.9253 108.674 17 108.086 17H104.264V6.878H107.75ZM114.875 9.818V17H113.139V9.818H114.875ZM115.113 7.725C115.113 7.87433 115.082 8.01433 115.022 8.145C114.961 8.27567 114.879 8.39 114.777 8.488C114.679 8.586 114.562 8.66533 114.427 8.726C114.291 8.782 114.147 8.81 113.993 8.81C113.843 8.81 113.701 8.782 113.566 8.726C113.435 8.66533 113.321 8.586 113.223 8.488C113.125 8.39 113.045 8.27567 112.985 8.145C112.929 8.01433 112.901 7.87433 112.901 7.725C112.901 7.571 112.929 7.42633 112.985 7.291C113.045 7.15567 113.125 7.039 113.223 6.941C113.321 6.843 113.435 6.766 113.566 6.71C113.701 6.64933 113.843 6.619 113.993 6.619C114.147 6.619 114.291 6.64933 114.427 6.71C114.562 6.766 114.679 6.843 114.777 6.941C114.879 7.039 114.961 7.15567 115.022 7.291C115.082 7.42633 115.113 7.571 115.113 7.725ZM121.019 11.218C120.973 11.2927 120.924 11.3463 120.872 11.379C120.821 11.407 120.756 11.421 120.676 11.421C120.592 11.421 120.501 11.3977 120.403 11.351C120.31 11.3043 120.2 11.253 120.074 11.197C119.948 11.1363 119.804 11.0827 119.64 11.036C119.482 10.9893 119.293 10.966 119.073 10.966C118.733 10.966 118.464 11.0383 118.268 11.183C118.077 11.3277 117.981 11.5167 117.981 11.75C117.981 11.904 118.03 12.0347 118.128 12.142C118.231 12.2447 118.364 12.3357 118.527 12.415C118.695 12.4943 118.884 12.5667 119.094 12.632C119.304 12.6927 119.517 12.7603 119.731 12.835C119.951 12.9097 120.165 12.996 120.375 13.094C120.585 13.1873 120.772 13.3087 120.935 13.458C121.103 13.6027 121.236 13.7777 121.334 13.983C121.437 14.1883 121.488 14.4357 121.488 14.725C121.488 15.0703 121.425 15.39 121.299 15.684C121.178 15.9733 120.996 16.2253 120.753 16.44C120.511 16.65 120.21 16.8157 119.85 16.937C119.496 17.0537 119.085 17.112 118.618 17.112C118.371 17.112 118.128 17.0887 117.89 17.042C117.657 17 117.431 16.9393 117.211 16.86C116.997 16.7807 116.796 16.6873 116.609 16.58C116.427 16.4727 116.266 16.356 116.126 16.23L116.525 15.572C116.577 15.4927 116.637 15.432 116.707 15.39C116.777 15.348 116.866 15.327 116.973 15.327C117.081 15.327 117.181 15.3573 117.274 15.418C117.372 15.4787 117.484 15.544 117.61 15.614C117.736 15.684 117.883 15.7493 118.051 15.81C118.224 15.8707 118.441 15.901 118.702 15.901C118.908 15.901 119.083 15.8777 119.227 15.831C119.377 15.7797 119.498 15.7143 119.591 15.635C119.689 15.5557 119.759 15.4647 119.801 15.362C119.848 15.2547 119.871 15.145 119.871 15.033C119.871 14.865 119.82 14.7273 119.717 14.62C119.619 14.5127 119.486 14.4193 119.318 14.34C119.155 14.2607 118.966 14.1907 118.751 14.13C118.541 14.0647 118.324 13.9947 118.1 13.92C117.881 13.8453 117.664 13.759 117.449 13.661C117.239 13.5583 117.05 13.43 116.882 13.276C116.719 13.122 116.586 12.933 116.483 12.709C116.385 12.485 116.336 12.2143 116.336 11.897C116.336 11.603 116.395 11.323 116.511 11.057C116.628 10.791 116.798 10.56 117.022 10.364C117.251 10.1633 117.533 10.0047 117.869 9.888C118.21 9.76667 118.602 9.706 119.045 9.706C119.54 9.706 119.99 9.78767 120.396 9.951C120.802 10.1143 121.141 10.329 121.411 10.595L121.019 11.218ZM127.935 11.337C127.883 11.4023 127.832 11.4537 127.781 11.491C127.734 11.5283 127.664 11.547 127.571 11.547C127.482 11.547 127.396 11.5213 127.312 11.47C127.228 11.414 127.127 11.3533 127.011 11.288C126.894 11.218 126.754 11.1573 126.591 11.106C126.432 11.05 126.234 11.022 125.996 11.022C125.692 11.022 125.426 11.078 125.198 11.19C124.969 11.2973 124.778 11.4537 124.624 11.659C124.474 11.8643 124.362 12.114 124.288 12.408C124.213 12.6973 124.176 13.0263 124.176 13.395C124.176 13.7777 124.215 14.1183 124.295 14.417C124.379 14.7157 124.498 14.9677 124.652 15.173C124.806 15.3737 124.992 15.5277 125.212 15.635C125.431 15.7377 125.678 15.789 125.954 15.789C126.229 15.789 126.451 15.7563 126.619 15.691C126.791 15.621 126.936 15.5463 127.053 15.467C127.169 15.383 127.27 15.3083 127.354 15.243C127.442 15.173 127.54 15.138 127.648 15.138C127.788 15.138 127.893 15.1917 127.963 15.299L128.46 15.929C128.268 16.153 128.061 16.342 127.837 16.496C127.613 16.6453 127.379 16.7667 127.137 16.86C126.899 16.9487 126.651 17.0117 126.395 17.049C126.143 17.0863 125.891 17.105 125.639 17.105C125.195 17.105 124.778 17.0233 124.386 16.86C123.994 16.692 123.651 16.4493 123.357 16.132C123.063 15.8147 122.829 15.4273 122.657 14.97C122.489 14.508 122.405 13.983 122.405 13.395C122.405 12.8677 122.479 12.38 122.629 11.932C122.783 11.4793 123.007 11.0897 123.301 10.763C123.595 10.4317 123.959 10.1727 124.393 9.986C124.827 9.79933 125.326 9.706 125.891 9.706C126.427 9.706 126.896 9.79233 127.298 9.965C127.704 10.1377 128.068 10.385 128.39 10.707L127.935 11.337ZM135.731 9.818V17H134.674C134.446 17 134.301 16.895 134.24 16.685L134.121 16.111C133.827 16.4097 133.503 16.6523 133.148 16.839C132.794 17.021 132.376 17.112 131.895 17.112C131.503 17.112 131.156 17.0467 130.852 16.916C130.554 16.7807 130.302 16.5917 130.096 16.349C129.891 16.1063 129.735 15.8193 129.627 15.488C129.525 15.152 129.473 14.7833 129.473 14.382V9.818H131.202V14.382C131.202 14.8207 131.303 15.1613 131.503 15.404C131.709 15.642 132.014 15.761 132.42 15.761C132.719 15.761 132.999 15.6957 133.26 15.565C133.522 15.4297 133.769 15.2453 134.002 15.012V9.818H135.731ZM139.238 9.818V17H137.502V9.818H139.238ZM139.476 7.725C139.476 7.87433 139.445 8.01433 139.385 8.145C139.324 8.27567 139.242 8.39 139.14 8.488C139.042 8.586 138.925 8.66533 138.79 8.726C138.654 8.782 138.51 8.81 138.356 8.81C138.206 8.81 138.064 8.782 137.929 8.726C137.798 8.66533 137.684 8.586 137.586 8.488C137.488 8.39 137.408 8.27567 137.348 8.145C137.292 8.01433 137.264 7.87433 137.264 7.725C137.264 7.571 137.292 7.42633 137.348 7.291C137.408 7.15567 137.488 7.039 137.586 6.941C137.684 6.843 137.798 6.766 137.929 6.71C138.064 6.64933 138.206 6.619 138.356 6.619C138.51 6.619 138.654 6.64933 138.79 6.71C138.925 6.766 139.042 6.843 139.14 6.941C139.242 7.039 139.324 7.15567 139.385 7.291C139.445 7.42633 139.476 7.571 139.476 7.725ZM143.394 17.112C142.769 17.112 142.288 16.937 141.952 16.587C141.621 16.2323 141.455 15.7447 141.455 15.124V11.113H140.72C140.627 11.113 140.548 11.0827 140.482 11.022C140.417 10.9613 140.384 10.8703 140.384 10.749V10.063L141.539 9.874L141.903 7.914C141.927 7.82067 141.971 7.74833 142.036 7.697C142.102 7.64567 142.186 7.62 142.288 7.62H143.184V9.881H145.102V11.113H143.184V15.005C143.184 15.229 143.238 15.404 143.345 15.53C143.457 15.656 143.609 15.719 143.8 15.719C143.908 15.719 143.996 15.7073 144.066 15.684C144.141 15.656 144.204 15.628 144.255 15.6C144.311 15.572 144.36 15.5463 144.402 15.523C144.444 15.495 144.486 15.481 144.528 15.481C144.58 15.481 144.622 15.495 144.654 15.523C144.687 15.5463 144.722 15.5837 144.759 15.635L145.277 16.475C145.025 16.685 144.736 16.8437 144.409 16.951C144.083 17.0583 143.744 17.112 143.394 17.112ZM44.14 31.264C43.648 31.28 43.228 31.32 42.88 31.384C42.536 31.444 42.254 31.524 42.034 31.624C41.818 31.724 41.66 31.842 41.56 31.978C41.464 32.114 41.416 32.266 41.416 32.434C41.416 32.594 41.442 32.732 41.494 32.848C41.546 32.964 41.616 33.06 41.704 33.136C41.796 33.208 41.902 33.262 42.022 33.298C42.146 33.33 42.278 33.346 42.418 33.346C42.606 33.346 42.778 33.328 42.934 33.292C43.09 33.252 43.236 33.196 43.372 33.124C43.512 33.052 43.644 32.966 43.768 32.866C43.896 32.766 44.02 32.652 44.14 32.524V31.264ZM40.69 28.78C41.026 28.456 41.388 28.214 41.776 28.054C42.164 27.894 42.594 27.814 43.066 27.814C43.406 27.814 43.708 27.87 43.972 27.982C44.236 28.094 44.458 28.25 44.638 28.45C44.818 28.65 44.954 28.892 45.046 29.176C45.138 29.46 45.184 29.772 45.184 30.112V34H44.71C44.606 34 44.526 33.984 44.47 33.952C44.414 33.916 44.37 33.848 44.338 33.748L44.218 33.172C44.058 33.32 43.902 33.452 43.75 33.568C43.598 33.68 43.438 33.776 43.27 33.856C43.102 33.932 42.922 33.99 42.73 34.03C42.542 34.074 42.332 34.096 42.1 34.096C41.864 34.096 41.642 34.064 41.434 34C41.226 33.932 41.044 33.832 40.888 33.7C40.736 33.568 40.614 33.402 40.522 33.202C40.434 32.998 40.39 32.758 40.39 32.482C40.39 32.242 40.456 32.012 40.588 31.792C40.72 31.568 40.934 31.37 41.23 31.198C41.526 31.026 41.912 30.886 42.388 30.778C42.864 30.666 43.448 30.602 44.14 30.586V30.112C44.14 29.64 44.038 29.284 43.834 29.044C43.63 28.8 43.332 28.678 42.94 28.678C42.676 28.678 42.454 28.712 42.274 28.78C42.098 28.844 41.944 28.918 41.812 29.002C41.684 29.082 41.572 29.156 41.476 29.224C41.384 29.288 41.292 29.32 41.2 29.32C41.128 29.32 41.066 29.302 41.014 29.266C40.962 29.226 40.918 29.178 40.882 29.122L40.69 28.78ZM48.5948 34.096C48.1148 34.096 47.7448 33.962 47.4848 33.694C47.2288 33.426 47.1008 33.04 47.1008 32.536V28.816H46.3688C46.3048 28.816 46.2508 28.798 46.2068 28.762C46.1628 28.722 46.1408 28.662 46.1408 28.582V28.156L47.1368 28.03L47.3828 26.152C47.3948 26.092 47.4208 26.044 47.4608 26.008C47.5048 25.968 47.5608 25.948 47.6288 25.948H48.1688V28.042H49.9268V28.816H48.1688V32.464C48.1688 32.72 48.2308 32.91 48.3548 33.034C48.4788 33.158 48.6388 33.22 48.8348 33.22C48.9468 33.22 49.0428 33.206 49.1228 33.178C49.2068 33.146 49.2788 33.112 49.3388 33.076C49.3988 33.04 49.4488 33.008 49.4888 32.98C49.5328 32.948 49.5708 32.932 49.6028 32.932C49.6588 32.932 49.7088 32.966 49.7528 33.034L50.0648 33.544C49.8808 33.716 49.6588 33.852 49.3988 33.952C49.1388 34.048 48.8708 34.096 48.5948 34.096ZM55.0624 30.298C55.0624 30.05 55.0264 29.824 54.9544 29.62C54.8864 29.412 54.7844 29.234 54.6484 29.086C54.5164 28.934 54.3544 28.818 54.1624 28.738C53.9704 28.654 53.7524 28.612 53.5084 28.612C52.9964 28.612 52.5904 28.762 52.2904 29.062C51.9944 29.358 51.8104 29.77 51.7384 30.298H55.0624ZM55.9264 33.148C55.7944 33.308 55.6364 33.448 55.4524 33.568C55.2684 33.684 55.0704 33.78 54.8584 33.856C54.6504 33.932 54.4344 33.988 54.2104 34.024C53.9864 34.064 53.7644 34.084 53.5444 34.084C53.1244 34.084 52.7364 34.014 52.3804 33.874C52.0284 33.73 51.7224 33.522 51.4624 33.25C51.2064 32.974 51.0064 32.634 50.8624 32.23C50.7184 31.826 50.6464 31.362 50.6464 30.838C50.6464 30.414 50.7104 30.018 50.8384 29.65C50.9704 29.282 51.1584 28.964 51.4024 28.696C51.6464 28.424 51.9444 28.212 52.2964 28.06C52.6484 27.904 53.0444 27.826 53.4844 27.826C53.8484 27.826 54.1844 27.888 54.4924 28.012C54.8044 28.132 55.0724 28.308 55.2964 28.54C55.5244 28.768 55.7024 29.052 55.8304 29.392C55.9584 29.728 56.0224 30.112 56.0224 30.544C56.0224 30.712 56.0044 30.824 55.9684 30.88C55.9324 30.936 55.8644 30.964 55.7644 30.964H51.7024C51.7144 31.348 51.7664 31.682 51.8584 31.966C51.9544 32.25 52.0864 32.488 52.2544 32.68C52.4224 32.868 52.6224 33.01 52.8544 33.106C53.0864 33.198 53.3464 33.244 53.6344 33.244C53.9024 33.244 54.1324 33.214 54.3244 33.154C54.5204 33.09 54.6884 33.022 54.8284 32.95C54.9684 32.878 55.0844 32.812 55.1764 32.752C55.2724 32.688 55.3544 32.656 55.4224 32.656C55.5104 32.656 55.5784 32.69 55.6264 32.758L55.9264 33.148ZM55.2544 25.306L53.8564 26.854C53.8004 26.914 53.7444 26.958 53.6884 26.986C53.6364 27.01 53.5684 27.022 53.4844 27.022H52.8484L53.7364 25.57C53.7924 25.478 53.8524 25.412 53.9164 25.372C53.9844 25.328 54.0824 25.306 54.2104 25.306H55.2544ZM65.6666 33.184V34H61.0586V33.184H62.9006V27.322C62.9006 27.146 62.9066 26.968 62.9186 26.788L61.3886 28.102C61.3366 28.146 61.2846 28.174 61.2326 28.186C61.1806 28.194 61.1326 28.194 61.0886 28.186C61.0446 28.178 61.0026 28.162 60.9626 28.138C60.9266 28.114 60.8986 28.088 60.8786 28.06L60.5426 27.598L63.1046 25.384H63.9746V33.184H65.6666ZM72.4415 32.986C72.5575 32.986 72.6495 33.02 72.7175 33.088C72.7855 33.156 72.8195 33.244 72.8195 33.352V34H67.0835V33.634C67.0835 33.558 67.0995 33.48 67.1315 33.4C67.1635 33.32 67.2135 33.246 67.2815 33.178L70.0355 30.412C70.2635 30.18 70.4715 29.958 70.6595 29.746C70.8475 29.53 71.0075 29.314 71.1395 29.098C71.2715 28.882 71.3735 28.664 71.4455 28.444C71.5175 28.22 71.5535 27.982 71.5535 27.73C71.5535 27.478 71.5135 27.258 71.4335 27.07C71.3535 26.878 71.2435 26.72 71.1035 26.596C70.9675 26.472 70.8055 26.38 70.6175 26.32C70.4295 26.256 70.2275 26.224 70.0115 26.224C69.7915 26.224 69.5895 26.256 69.4055 26.32C69.2215 26.384 69.0575 26.474 68.9135 26.59C68.7735 26.702 68.6555 26.836 68.5595 26.992C68.4635 27.148 68.3955 27.32 68.3555 27.508C68.3075 27.648 68.2415 27.742 68.1575 27.79C68.0775 27.834 67.9635 27.846 67.8155 27.826L67.2575 27.73C67.3135 27.338 67.4215 26.992 67.5815 26.692C67.7455 26.388 67.9495 26.134 68.1935 25.93C68.4415 25.726 68.7235 25.572 69.0395 25.468C69.3555 25.36 69.6975 25.306 70.0655 25.306C70.4295 25.306 70.7695 25.36 71.0855 25.468C71.4015 25.576 71.6755 25.734 71.9075 25.942C72.1395 26.146 72.3215 26.396 72.4535 26.692C72.5855 26.988 72.6515 27.324 72.6515 27.7C72.6515 28.02 72.6035 28.318 72.5075 28.594C72.4115 28.866 72.2815 29.126 72.1175 29.374C71.9535 29.622 71.7635 29.864 71.5475 30.1C71.3355 30.336 71.1095 30.574 70.8695 30.814L68.6015 33.13C68.7615 33.086 68.9235 33.052 69.0875 33.028C69.2515 33 69.4095 32.986 69.5615 32.986H72.4415ZM79.3185 34H78.2925C78.2045 34 78.1345 33.978 78.0825 33.934C78.0345 33.886 77.9945 33.834 77.9625 33.778L76.4325 31.396C76.4165 31.452 76.3985 31.508 76.3785 31.564C76.3625 31.616 76.3385 31.664 76.3065 31.708L74.8905 33.778C74.8505 33.834 74.8065 33.886 74.7585 33.934C74.7145 33.978 74.6525 34 74.5725 34H73.6185L75.7485 30.88L73.7025 27.922H74.7285C74.8165 27.922 74.8805 27.936 74.9205 27.964C74.9605 27.992 74.9965 28.032 75.0285 28.084L76.5225 30.364C76.5545 30.248 76.6045 30.136 76.6725 30.028L77.9805 28.108C78.0165 28.052 78.0545 28.008 78.0945 27.976C78.1385 27.94 78.1905 27.922 78.2505 27.922H79.2345L77.1885 30.826L79.3185 34ZM86.9133 28.924C86.8653 29.012 86.7913 29.056 86.6913 29.056C86.6313 29.056 86.5633 29.034 86.4873 28.99C86.4113 28.946 86.3173 28.898 86.2053 28.846C86.0973 28.79 85.9673 28.74 85.8153 28.696C85.6633 28.648 85.4833 28.624 85.2753 28.624C85.0953 28.624 84.9333 28.648 84.7893 28.696C84.6453 28.74 84.5213 28.802 84.4173 28.882C84.3173 28.962 84.2393 29.056 84.1833 29.164C84.1313 29.268 84.1053 29.382 84.1053 29.506C84.1053 29.662 84.1493 29.792 84.2373 29.896C84.3293 30 84.4493 30.09 84.5973 30.166C84.7453 30.242 84.9133 30.31 85.1013 30.37C85.2893 30.426 85.4813 30.488 85.6773 30.556C85.8773 30.62 86.0713 30.692 86.2593 30.772C86.4473 30.852 86.6153 30.952 86.7633 31.072C86.9113 31.192 87.0293 31.34 87.1173 31.516C87.2093 31.688 87.2553 31.896 87.2553 32.14C87.2553 32.42 87.2053 32.68 87.1053 32.92C87.0053 33.156 86.8573 33.362 86.6613 33.538C86.4653 33.71 86.2253 33.846 85.9413 33.946C85.6573 34.046 85.3293 34.096 84.9573 34.096C84.5333 34.096 84.1493 34.028 83.8053 33.892C83.4613 33.752 83.1693 33.574 82.9293 33.358L83.1813 32.95C83.2133 32.898 83.2513 32.858 83.2953 32.83C83.3393 32.802 83.3953 32.788 83.4633 32.788C83.5353 32.788 83.6113 32.816 83.6913 32.872C83.7713 32.928 83.8673 32.99 83.9793 33.058C84.0953 33.126 84.2353 33.188 84.3993 33.244C84.5633 33.3 84.7673 33.328 85.0113 33.328C85.2193 33.328 85.4013 33.302 85.5573 33.25C85.7133 33.194 85.8433 33.12 85.9473 33.028C86.0513 32.936 86.1273 32.83 86.1753 32.71C86.2273 32.59 86.2533 32.462 86.2533 32.326C86.2533 32.158 86.2073 32.02 86.1153 31.912C86.0273 31.8 85.9093 31.706 85.7613 31.63C85.6133 31.55 85.4433 31.482 85.2513 31.426C85.0633 31.366 84.8693 31.304 84.6693 31.24C84.4733 31.176 84.2793 31.104 84.0873 31.024C83.8993 30.94 83.7313 30.836 83.5833 30.712C83.4353 30.588 83.3153 30.436 83.2233 30.256C83.1353 30.072 83.0913 29.85 83.0913 29.59C83.0913 29.358 83.1393 29.136 83.2353 28.924C83.3313 28.708 83.4713 28.52 83.6553 28.36C83.8393 28.196 84.0653 28.066 84.3333 27.97C84.6013 27.874 84.9073 27.826 85.2513 27.826C85.6513 27.826 86.0093 27.89 86.3253 28.018C86.6453 28.142 86.9213 28.314 87.1533 28.534L86.9133 28.924ZM92.6328 30.298C92.6328 30.05 92.5968 29.824 92.5248 29.62C92.4568 29.412 92.3548 29.234 92.2188 29.086C92.0868 28.934 91.9248 28.818 91.7328 28.738C91.5408 28.654 91.3228 28.612 91.0788 28.612C90.5668 28.612 90.1608 28.762 89.8608 29.062C89.5648 29.358 89.3808 29.77 89.3088 30.298H92.6328ZM93.4968 33.148C93.3648 33.308 93.2068 33.448 93.0228 33.568C92.8388 33.684 92.6408 33.78 92.4288 33.856C92.2208 33.932 92.0048 33.988 91.7808 34.024C91.5568 34.064 91.3348 34.084 91.1148 34.084C90.6948 34.084 90.3068 34.014 89.9508 33.874C89.5988 33.73 89.2928 33.522 89.0328 33.25C88.7768 32.974 88.5768 32.634 88.4328 32.23C88.2888 31.826 88.2168 31.362 88.2168 30.838C88.2168 30.414 88.2808 30.018 88.4088 29.65C88.5408 29.282 88.7288 28.964 88.9728 28.696C89.2168 28.424 89.5148 28.212 89.8668 28.06C90.2188 27.904 90.6148 27.826 91.0548 27.826C91.4188 27.826 91.7548 27.888 92.0628 28.012C92.3748 28.132 92.6428 28.308 92.8668 28.54C93.0948 28.768 93.2728 29.052 93.4008 29.392C93.5288 29.728 93.5928 30.112 93.5928 30.544C93.5928 30.712 93.5748 30.824 93.5388 30.88C93.5028 30.936 93.4348 30.964 93.3348 30.964H89.2728C89.2848 31.348 89.3368 31.682 89.4288 31.966C89.5248 32.25 89.6568 32.488 89.8248 32.68C89.9928 32.868 90.1928 33.01 90.4248 33.106C90.6568 33.198 90.9168 33.244 91.2048 33.244C91.4728 33.244 91.7028 33.214 91.8948 33.154C92.0908 33.09 92.2588 33.022 92.3988 32.95C92.5388 32.878 92.6548 32.812 92.7468 32.752C92.8428 32.688 92.9248 32.656 92.9928 32.656C93.0808 32.656 93.1488 32.69 93.1968 32.758L93.4968 33.148ZM94.9046 34V27.922H95.5466C95.6986 27.922 95.7926 27.996 95.8286 28.144L95.9066 28.768C96.1306 28.492 96.3826 28.266 96.6626 28.09C96.9426 27.914 97.2666 27.826 97.6346 27.826C98.0426 27.826 98.3726 27.94 98.6246 28.168C98.8806 28.396 99.0646 28.704 99.1766 29.092C99.2646 28.872 99.3766 28.682 99.5126 28.522C99.6526 28.362 99.8086 28.23 99.9806 28.126C100.153 28.022 100.335 27.946 100.527 27.898C100.723 27.85 100.921 27.826 101.121 27.826C101.441 27.826 101.725 27.878 101.973 27.982C102.225 28.082 102.437 28.23 102.609 28.426C102.785 28.622 102.919 28.864 103.011 29.152C103.103 29.436 103.149 29.762 103.149 30.13V34H102.075V30.13C102.075 29.654 101.971 29.294 101.763 29.05C101.555 28.802 101.255 28.678 100.863 28.678C100.687 28.678 100.519 28.71 100.359 28.774C100.203 28.834 100.065 28.924 99.9446 29.044C99.8246 29.164 99.7286 29.316 99.6566 29.5C99.5886 29.68 99.5546 29.89 99.5546 30.13V34H98.4806V30.13C98.4806 29.642 98.3826 29.278 98.1866 29.038C97.9906 28.798 97.7046 28.678 97.3286 28.678C97.0646 28.678 96.8206 28.75 96.5966 28.894C96.3726 29.034 96.1666 29.226 95.9786 29.47V34H94.9046ZM108.97 27.922V34.45C108.97 34.694 108.938 34.92 108.874 35.128C108.81 35.34 108.708 35.524 108.568 35.68C108.428 35.836 108.248 35.958 108.028 36.046C107.812 36.138 107.552 36.184 107.248 36.184C107.12 36.184 107.002 36.174 106.894 36.154C106.786 36.134 106.678 36.104 106.57 36.064L106.612 35.488C106.62 35.452 106.634 35.424 106.654 35.404C106.67 35.388 106.694 35.378 106.726 35.374C106.758 35.37 106.8 35.368 106.852 35.368C106.9 35.372 106.962 35.374 107.038 35.374C107.35 35.374 107.572 35.3 107.704 35.152C107.836 35.008 107.902 34.774 107.902 34.45V27.922H108.97ZM109.192 26.014C109.192 26.118 109.17 26.216 109.126 26.308C109.086 26.396 109.03 26.476 108.958 26.548C108.89 26.616 108.81 26.67 108.718 26.71C108.626 26.75 108.528 26.77 108.424 26.77C108.32 26.77 108.222 26.75 108.13 26.71C108.042 26.67 107.964 26.616 107.896 26.548C107.828 26.476 107.774 26.396 107.734 26.308C107.694 26.216 107.674 26.118 107.674 26.014C107.674 25.91 107.694 25.812 107.734 25.72C107.774 25.624 107.828 25.542 107.896 25.474C107.964 25.402 108.042 25.346 108.13 25.306C108.222 25.266 108.32 25.246 108.424 25.246C108.528 25.246 108.626 25.266 108.718 25.306C108.81 25.346 108.89 25.402 108.958 25.474C109.03 25.542 109.086 25.624 109.126 25.72C109.17 25.812 109.192 25.91 109.192 26.014ZM115.723 27.922V34H115.087C114.935 34 114.839 33.926 114.799 33.778L114.715 33.124C114.451 33.416 114.155 33.652 113.827 33.832C113.499 34.008 113.123 34.096 112.699 34.096C112.367 34.096 112.073 34.042 111.817 33.934C111.565 33.822 111.353 33.666 111.181 33.466C111.009 33.266 110.879 33.024 110.791 32.74C110.707 32.456 110.665 32.142 110.665 31.798V27.922H111.733V31.798C111.733 32.258 111.837 32.614 112.045 32.866C112.257 33.118 112.579 33.244 113.011 33.244C113.327 33.244 113.621 33.17 113.893 33.022C114.169 32.87 114.423 32.662 114.655 32.398V27.922H115.723ZM118.43 29.14C118.622 28.724 118.858 28.4 119.138 28.168C119.418 27.932 119.76 27.814 120.164 27.814C120.292 27.814 120.414 27.828 120.53 27.856C120.65 27.884 120.756 27.928 120.848 27.988L120.77 28.786C120.746 28.886 120.686 28.936 120.59 28.936C120.534 28.936 120.452 28.924 120.344 28.9C120.236 28.876 120.114 28.864 119.978 28.864C119.786 28.864 119.614 28.892 119.462 28.948C119.314 29.004 119.18 29.088 119.06 29.2C118.944 29.308 118.838 29.444 118.742 29.608C118.65 29.768 118.566 29.952 118.49 30.16V34H117.416V27.922H118.028C118.144 27.922 118.224 27.944 118.268 27.988C118.312 28.032 118.342 28.108 118.358 28.216L118.43 29.14ZM124.103 27.826C124.547 27.826 124.947 27.9 125.303 28.048C125.659 28.196 125.963 28.406 126.215 28.678C126.467 28.95 126.659 29.28 126.791 29.668C126.927 30.052 126.995 30.482 126.995 30.958C126.995 31.438 126.927 31.87 126.791 32.254C126.659 32.638 126.467 32.966 126.215 33.238C125.963 33.51 125.659 33.72 125.303 33.868C124.947 34.012 124.547 34.084 124.103 34.084C123.655 34.084 123.251 34.012 122.891 33.868C122.535 33.72 122.231 33.51 121.979 33.238C121.727 32.966 121.533 32.638 121.397 32.254C121.265 31.87 121.199 31.438 121.199 30.958C121.199 30.482 121.265 30.052 121.397 29.668C121.533 29.28 121.727 28.95 121.979 28.678C122.231 28.406 122.535 28.196 122.891 28.048C123.251 27.9 123.655 27.826 124.103 27.826ZM124.103 33.25C124.703 33.25 125.151 33.05 125.447 32.65C125.743 32.246 125.891 31.684 125.891 30.964C125.891 30.24 125.743 29.676 125.447 29.272C125.151 28.868 124.703 28.666 124.103 28.666C123.799 28.666 123.533 28.718 123.305 28.822C123.081 28.926 122.893 29.076 122.741 29.272C122.593 29.468 122.481 29.71 122.405 29.998C122.333 30.282 122.297 30.604 122.297 30.964C122.297 31.684 122.445 32.246 122.741 32.65C123.041 33.05 123.495 33.25 124.103 33.25ZM131.89 28.924C131.842 29.012 131.768 29.056 131.668 29.056C131.608 29.056 131.54 29.034 131.464 28.99C131.388 28.946 131.294 28.898 131.182 28.846C131.074 28.79 130.944 28.74 130.792 28.696C130.64 28.648 130.46 28.624 130.252 28.624C130.072 28.624 129.91 28.648 129.766 28.696C129.622 28.74 129.498 28.802 129.394 28.882C129.294 28.962 129.216 29.056 129.16 29.164C129.108 29.268 129.082 29.382 129.082 29.506C129.082 29.662 129.126 29.792 129.214 29.896C129.306 30 129.426 30.09 129.574 30.166C129.722 30.242 129.89 30.31 130.078 30.37C130.266 30.426 130.458 30.488 130.654 30.556C130.854 30.62 131.048 30.692 131.236 30.772C131.424 30.852 131.592 30.952 131.74 31.072C131.888 31.192 132.006 31.34 132.094 31.516C132.186 31.688 132.232 31.896 132.232 32.14C132.232 32.42 132.182 32.68 132.082 32.92C131.982 33.156 131.834 33.362 131.638 33.538C131.442 33.71 131.202 33.846 130.918 33.946C130.634 34.046 130.306 34.096 129.934 34.096C129.51 34.096 129.126 34.028 128.782 33.892C128.438 33.752 128.146 33.574 127.906 33.358L128.158 32.95C128.19 32.898 128.228 32.858 128.272 32.83C128.316 32.802 128.372 32.788 128.44 32.788C128.512 32.788 128.588 32.816 128.668 32.872C128.748 32.928 128.844 32.99 128.956 33.058C129.072 33.126 129.212 33.188 129.376 33.244C129.54 33.3 129.744 33.328 129.988 33.328C130.196 33.328 130.378 33.302 130.534 33.25C130.69 33.194 130.82 33.12 130.924 33.028C131.028 32.936 131.104 32.83 131.152 32.71C131.204 32.59 131.23 32.462 131.23 32.326C131.23 32.158 131.184 32.02 131.092 31.912C131.004 31.8 130.886 31.706 130.738 31.63C130.59 31.55 130.42 31.482 130.228 31.426C130.04 31.366 129.846 31.304 129.646 31.24C129.45 31.176 129.256 31.104 129.064 31.024C128.876 30.94 128.708 30.836 128.56 30.712C128.412 30.588 128.292 30.436 128.2 30.256C128.112 30.072 128.068 29.85 128.068 29.59C128.068 29.358 128.116 29.136 128.212 28.924C128.308 28.708 128.448 28.52 128.632 28.36C128.816 28.196 129.042 28.066 129.31 27.97C129.578 27.874 129.884 27.826 130.228 27.826C130.628 27.826 130.986 27.89 131.302 28.018C131.622 28.142 131.898 28.314 132.13 28.534L131.89 28.924ZM140.68 30.298C140.68 30.05 140.644 29.824 140.572 29.62C140.504 29.412 140.402 29.234 140.266 29.086C140.134 28.934 139.972 28.818 139.78 28.738C139.588 28.654 139.37 28.612 139.126 28.612C138.614 28.612 138.208 28.762 137.908 29.062C137.612 29.358 137.428 29.77 137.356 30.298H140.68ZM141.544 33.148C141.412 33.308 141.254 33.448 141.07 33.568C140.886 33.684 140.688 33.78 140.476 33.856C140.268 33.932 140.052 33.988 139.828 34.024C139.604 34.064 139.382 34.084 139.162 34.084C138.742 34.084 138.354 34.014 137.998 33.874C137.646 33.73 137.34 33.522 137.08 33.25C136.824 32.974 136.624 32.634 136.48 32.23C136.336 31.826 136.264 31.362 136.264 30.838C136.264 30.414 136.328 30.018 136.456 29.65C136.588 29.282 136.776 28.964 137.02 28.696C137.264 28.424 137.562 28.212 137.914 28.06C138.266 27.904 138.662 27.826 139.102 27.826C139.466 27.826 139.802 27.888 140.11 28.012C140.422 28.132 140.69 28.308 140.914 28.54C141.142 28.768 141.32 29.052 141.448 29.392C141.576 29.728 141.64 30.112 141.64 30.544C141.64 30.712 141.622 30.824 141.586 30.88C141.55 30.936 141.482 30.964 141.382 30.964H137.32C137.332 31.348 137.384 31.682 137.476 31.966C137.572 32.25 137.704 32.488 137.872 32.68C138.04 32.868 138.24 33.01 138.472 33.106C138.704 33.198 138.964 33.244 139.252 33.244C139.52 33.244 139.75 33.214 139.942 33.154C140.138 33.09 140.306 33.022 140.446 32.95C140.586 32.878 140.702 32.812 140.794 32.752C140.89 32.688 140.972 32.656 141.04 32.656C141.128 32.656 141.196 32.69 141.244 32.758L141.544 33.148ZM151.284 33.184V34H146.676V33.184H148.518V27.322C148.518 27.146 148.524 26.968 148.536 26.788L147.006 28.102C146.954 28.146 146.902 28.174 146.85 28.186C146.798 28.194 146.75 28.194 146.706 28.186C146.662 28.178 146.62 28.162 146.58 28.138C146.544 28.114 146.516 28.088 146.496 28.06L146.16 27.598L148.722 25.384H149.592V33.184H151.284ZM158.737 29.704C158.737 30.456 158.655 31.108 158.491 31.66C158.331 32.208 158.111 32.662 157.831 33.022C157.551 33.382 157.219 33.65 156.835 33.826C156.455 34.002 156.047 34.09 155.611 34.09C155.171 34.09 154.761 34.002 154.381 33.826C154.005 33.65 153.677 33.382 153.397 33.022C153.117 32.662 152.897 32.208 152.737 31.66C152.577 31.108 152.497 30.456 152.497 29.704C152.497 28.952 152.577 28.3 152.737 27.748C152.897 27.196 153.117 26.74 153.397 26.38C153.677 26.016 154.005 25.746 154.381 25.57C154.761 25.394 155.171 25.306 155.611 25.306C156.047 25.306 156.455 25.394 156.835 25.57C157.219 25.746 157.551 26.016 157.831 26.38C158.111 26.74 158.331 27.196 158.491 27.748C158.655 28.3 158.737 28.952 158.737 29.704ZM157.627 29.704C157.627 29.048 157.571 28.498 157.459 28.054C157.351 27.606 157.203 27.246 157.015 26.974C156.831 26.702 156.617 26.508 156.373 26.392C156.129 26.272 155.875 26.212 155.611 26.212C155.347 26.212 155.093 26.272 154.849 26.392C154.605 26.508 154.391 26.702 154.207 26.974C154.023 27.246 153.875 27.606 153.763 28.054C153.655 28.498 153.601 29.048 153.601 29.704C153.601 30.36 153.655 30.91 153.763 31.354C153.875 31.798 154.023 32.156 154.207 32.428C154.391 32.7 154.605 32.896 154.849 33.016C155.093 33.132 155.347 33.19 155.611 33.19C155.875 33.19 156.129 33.132 156.373 33.016C156.617 32.896 156.831 32.7 157.015 32.428C157.203 32.156 157.351 31.798 157.459 31.354C157.571 30.91 157.627 30.36 157.627 29.704ZM163.43 27.478C163.43 27.814 163.378 28.116 163.274 28.384C163.17 28.648 163.03 28.872 162.854 29.056C162.682 29.236 162.48 29.374 162.248 29.47C162.02 29.566 161.778 29.614 161.522 29.614C161.254 29.614 161.004 29.566 160.772 29.47C160.54 29.374 160.338 29.236 160.166 29.056C159.998 28.872 159.866 28.648 159.77 28.384C159.674 28.116 159.626 27.814 159.626 27.478C159.626 27.134 159.674 26.828 159.77 26.56C159.866 26.292 159.998 26.066 160.166 25.882C160.338 25.698 160.54 25.558 160.772 25.462C161.004 25.366 161.254 25.318 161.522 25.318C161.794 25.318 162.046 25.366 162.278 25.462C162.51 25.558 162.712 25.698 162.884 25.882C163.056 26.066 163.19 26.292 163.286 26.56C163.382 26.828 163.43 27.134 163.43 27.478ZM162.602 27.478C162.602 27.214 162.574 26.99 162.518 26.806C162.462 26.622 162.384 26.472 162.284 26.356C162.188 26.236 162.074 26.15 161.942 26.098C161.81 26.046 161.67 26.02 161.522 26.02C161.374 26.02 161.236 26.046 161.108 26.098C160.98 26.15 160.868 26.236 160.772 26.356C160.676 26.472 160.6 26.622 160.544 26.806C160.488 26.99 160.46 27.214 160.46 27.478C160.46 27.738 160.488 27.96 160.544 28.144C160.6 28.324 160.676 28.472 160.772 28.588C160.868 28.7 160.98 28.782 161.108 28.834C161.236 28.882 161.374 28.906 161.522 28.906C161.67 28.906 161.81 28.882 161.942 28.834C162.074 28.782 162.188 28.7 162.284 28.588C162.384 28.472 162.462 28.324 162.518 28.144C162.574 27.96 162.602 27.738 162.602 27.478ZM166.472 25.582C166.512 25.534 166.558 25.492 166.61 25.456C166.666 25.42 166.74 25.402 166.832 25.402H167.606L161.318 33.826C161.282 33.878 161.236 33.92 161.18 33.952C161.124 33.984 161.056 34 160.976 34H160.19L166.472 25.582ZM168.188 31.972C168.188 32.308 168.136 32.608 168.032 32.872C167.928 33.136 167.788 33.36 167.612 33.544C167.44 33.724 167.238 33.862 167.006 33.958C166.778 34.054 166.536 34.102 166.28 34.102C166.008 34.102 165.756 34.054 165.524 33.958C165.296 33.862 165.096 33.724 164.924 33.544C164.756 33.36 164.624 33.136 164.528 32.872C164.432 32.608 164.384 32.308 164.384 31.972C164.384 31.628 164.432 31.322 164.528 31.054C164.624 30.782 164.756 30.554 164.924 30.37C165.096 30.186 165.296 30.046 165.524 29.95C165.756 29.854 166.008 29.806 166.28 29.806C166.548 29.806 166.798 29.854 167.03 29.95C167.266 30.046 167.468 30.186 167.636 30.37C167.808 30.554 167.942 30.782 168.038 31.054C168.138 31.322 168.188 31.628 168.188 31.972ZM167.36 31.972C167.36 31.708 167.332 31.484 167.276 31.3C167.22 31.112 167.142 30.96 167.042 30.844C166.946 30.728 166.832 30.644 166.7 30.592C166.568 30.54 166.428 30.514 166.28 30.514C166.132 30.514 165.992 30.54 165.86 30.592C165.732 30.644 165.62 30.728 165.524 30.844C165.428 30.96 165.352 31.112 165.296 31.3C165.244 31.484 165.218 31.708 165.218 31.972C165.218 32.232 165.244 32.452 165.296 32.632C165.352 32.812 165.428 32.96 165.524 33.076C165.62 33.188 165.732 33.27 165.86 33.322C165.992 33.37 166.132 33.394 166.28 33.394C166.428 33.394 166.568 33.37 166.7 33.322C166.832 33.27 166.946 33.188 167.042 33.076C167.142 32.96 167.22 32.812 167.276 32.632C167.332 32.452 167.36 32.232 167.36 31.972ZM176.595 29.368C176.395 29.1 176.179 28.914 175.947 28.81C175.715 28.702 175.455 28.648 175.167 28.648C174.603 28.648 174.169 28.85 173.865 29.254C173.561 29.658 173.409 30.234 173.409 30.982C173.409 31.378 173.443 31.718 173.511 32.002C173.579 32.282 173.679 32.514 173.811 32.698C173.943 32.878 174.105 33.01 174.297 33.094C174.489 33.178 174.707 33.22 174.951 33.22C175.303 33.22 175.609 33.14 175.869 32.98C176.133 32.82 176.375 32.594 176.595 32.302V29.368ZM177.663 25.162V34H177.027C176.875 34 176.779 33.926 176.739 33.778L176.643 33.04C176.383 33.352 176.087 33.604 175.755 33.796C175.423 33.988 175.039 34.084 174.603 34.084C174.255 34.084 173.939 34.018 173.655 33.886C173.371 33.75 173.129 33.552 172.929 33.292C172.729 33.032 172.575 32.708 172.467 32.32C172.359 31.932 172.305 31.486 172.305 30.982C172.305 30.534 172.365 30.118 172.485 29.734C172.605 29.346 172.777 29.01 173.001 28.726C173.225 28.442 173.499 28.22 173.823 28.06C174.151 27.896 174.519 27.814 174.927 27.814C175.299 27.814 175.617 27.878 175.881 28.006C176.149 28.13 176.387 28.304 176.595 28.528V25.162H177.663ZM183.418 30.298C183.418 30.05 183.382 29.824 183.31 29.62C183.242 29.412 183.14 29.234 183.004 29.086C182.872 28.934 182.71 28.818 182.518 28.738C182.326 28.654 182.108 28.612 181.864 28.612C181.352 28.612 180.946 28.762 180.646 29.062C180.35 29.358 180.166 29.77 180.094 30.298H183.418ZM184.282 33.148C184.15 33.308 183.992 33.448 183.808 33.568C183.624 33.684 183.426 33.78 183.214 33.856C183.006 33.932 182.79 33.988 182.566 34.024C182.342 34.064 182.12 34.084 181.9 34.084C181.48 34.084 181.092 34.014 180.736 33.874C180.384 33.73 180.078 33.522 179.818 33.25C179.562 32.974 179.362 32.634 179.218 32.23C179.074 31.826 179.002 31.362 179.002 30.838C179.002 30.414 179.066 30.018 179.194 29.65C179.326 29.282 179.514 28.964 179.758 28.696C180.002 28.424 180.3 28.212 180.652 28.06C181.004 27.904 181.4 27.826 181.84 27.826C182.204 27.826 182.54 27.888 182.848 28.012C183.16 28.132 183.428 28.308 183.652 28.54C183.88 28.768 184.058 29.052 184.186 29.392C184.314 29.728 184.378 30.112 184.378 30.544C184.378 30.712 184.36 30.824 184.324 30.88C184.288 30.936 184.22 30.964 184.12 30.964H180.058C180.07 31.348 180.122 31.682 180.214 31.966C180.31 32.25 180.442 32.488 180.61 32.68C180.778 32.868 180.978 33.01 181.21 33.106C181.442 33.198 181.702 33.244 181.99 33.244C182.258 33.244 182.488 33.214 182.68 33.154C182.876 33.09 183.044 33.022 183.184 32.95C183.324 32.878 183.44 32.812 183.532 32.752C183.628 32.688 183.71 32.656 183.778 32.656C183.866 32.656 183.934 32.69 183.982 32.758L184.282 33.148ZM192.72 29.368C192.52 29.1 192.304 28.914 192.072 28.81C191.84 28.702 191.58 28.648 191.292 28.648C190.728 28.648 190.294 28.85 189.99 29.254C189.686 29.658 189.534 30.234 189.534 30.982C189.534 31.378 189.568 31.718 189.636 32.002C189.704 32.282 189.804 32.514 189.936 32.698C190.068 32.878 190.23 33.01 190.422 33.094C190.614 33.178 190.832 33.22 191.076 33.22C191.428 33.22 191.734 33.14 191.994 32.98C192.258 32.82 192.5 32.594 192.72 32.302V29.368ZM193.788 25.162V34H193.152C193 34 192.904 33.926 192.864 33.778L192.768 33.04C192.508 33.352 192.212 33.604 191.88 33.796C191.548 33.988 191.164 34.084 190.728 34.084C190.38 34.084 190.064 34.018 189.78 33.886C189.496 33.75 189.254 33.552 189.054 33.292C188.854 33.032 188.7 32.708 188.592 32.32C188.484 31.932 188.43 31.486 188.43 30.982C188.43 30.534 188.49 30.118 188.61 29.734C188.73 29.346 188.902 29.01 189.126 28.726C189.35 28.442 189.624 28.22 189.948 28.06C190.276 27.896 190.644 27.814 191.052 27.814C191.424 27.814 191.742 27.878 192.006 28.006C192.274 28.13 192.512 28.304 192.72 28.528V25.162H193.788ZM199.543 30.298C199.543 30.05 199.507 29.824 199.435 29.62C199.367 29.412 199.265 29.234 199.129 29.086C198.997 28.934 198.835 28.818 198.643 28.738C198.451 28.654 198.233 28.612 197.989 28.612C197.477 28.612 197.071 28.762 196.771 29.062C196.475 29.358 196.291 29.77 196.219 30.298H199.543ZM200.407 33.148C200.275 33.308 200.117 33.448 199.933 33.568C199.749 33.684 199.551 33.78 199.339 33.856C199.131 33.932 198.915 33.988 198.691 34.024C198.467 34.064 198.245 34.084 198.025 34.084C197.605 34.084 197.217 34.014 196.861 33.874C196.509 33.73 196.203 33.522 195.943 33.25C195.687 32.974 195.487 32.634 195.343 32.23C195.199 31.826 195.127 31.362 195.127 30.838C195.127 30.414 195.191 30.018 195.319 29.65C195.451 29.282 195.639 28.964 195.883 28.696C196.127 28.424 196.425 28.212 196.777 28.06C197.129 27.904 197.525 27.826 197.965 27.826C198.329 27.826 198.665 27.888 198.973 28.012C199.285 28.132 199.553 28.308 199.777 28.54C200.005 28.768 200.183 29.052 200.311 29.392C200.439 29.728 200.503 30.112 200.503 30.544C200.503 30.712 200.485 30.824 200.449 30.88C200.413 30.936 200.345 30.964 200.245 30.964H196.183C196.195 31.348 196.247 31.682 196.339 31.966C196.435 32.25 196.567 32.488 196.735 32.68C196.903 32.868 197.103 33.01 197.335 33.106C197.567 33.198 197.827 33.244 198.115 33.244C198.383 33.244 198.613 33.214 198.805 33.154C199.001 33.09 199.169 33.022 199.309 32.95C199.449 32.878 199.565 32.812 199.657 32.752C199.753 32.688 199.835 32.656 199.903 32.656C199.991 32.656 200.059 32.69 200.107 32.758L200.407 33.148ZM205.355 28.924C205.307 29.012 205.233 29.056 205.133 29.056C205.073 29.056 205.005 29.034 204.929 28.99C204.853 28.946 204.759 28.898 204.647 28.846C204.539 28.79 204.409 28.74 204.257 28.696C204.105 28.648 203.925 28.624 203.717 28.624C203.537 28.624 203.375 28.648 203.231 28.696C203.087 28.74 202.963 28.802 202.859 28.882C202.759 28.962 202.681 29.056 202.625 29.164C202.573 29.268 202.547 29.382 202.547 29.506C202.547 29.662 202.591 29.792 202.679 29.896C202.771 30 202.891 30.09 203.039 30.166C203.187 30.242 203.355 30.31 203.543 30.37C203.731 30.426 203.923 30.488 204.119 30.556C204.319 30.62 204.513 30.692 204.701 30.772C204.889 30.852 205.057 30.952 205.205 31.072C205.353 31.192 205.471 31.34 205.559 31.516C205.651 31.688 205.697 31.896 205.697 32.14C205.697 32.42 205.647 32.68 205.547 32.92C205.447 33.156 205.299 33.362 205.103 33.538C204.907 33.71 204.667 33.846 204.383 33.946C204.099 34.046 203.771 34.096 203.399 34.096C202.975 34.096 202.591 34.028 202.247 33.892C201.903 33.752 201.611 33.574 201.371 33.358L201.623 32.95C201.655 32.898 201.693 32.858 201.737 32.83C201.781 32.802 201.837 32.788 201.905 32.788C201.977 32.788 202.053 32.816 202.133 32.872C202.213 32.928 202.309 32.99 202.421 33.058C202.537 33.126 202.677 33.188 202.841 33.244C203.005 33.3 203.209 33.328 203.453 33.328C203.661 33.328 203.843 33.302 203.999 33.25C204.155 33.194 204.285 33.12 204.389 33.028C204.493 32.936 204.569 32.83 204.617 32.71C204.669 32.59 204.695 32.462 204.695 32.326C204.695 32.158 204.649 32.02 204.557 31.912C204.469 31.8 204.351 31.706 204.203 31.63C204.055 31.55 203.885 31.482 203.693 31.426C203.505 31.366 203.311 31.304 203.111 31.24C202.915 31.176 202.721 31.104 202.529 31.024C202.341 30.94 202.173 30.836 202.025 30.712C201.877 30.588 201.757 30.436 201.665 30.256C201.577 30.072 201.533 29.85 201.533 29.59C201.533 29.358 201.581 29.136 201.677 28.924C201.773 28.708 201.913 28.52 202.097 28.36C202.281 28.196 202.507 28.066 202.775 27.97C203.043 27.874 203.349 27.826 203.693 27.826C204.093 27.826 204.451 27.89 204.767 28.018C205.087 28.142 205.363 28.314 205.595 28.534L205.355 28.924ZM211.236 29.002C211.204 29.046 211.172 29.08 211.14 29.104C211.108 29.128 211.064 29.14 211.008 29.14C210.948 29.14 210.882 29.116 210.81 29.068C210.738 29.016 210.648 28.96 210.54 28.9C210.436 28.84 210.306 28.786 210.15 28.738C209.998 28.686 209.81 28.66 209.586 28.66C209.286 28.66 209.022 28.714 208.794 28.822C208.566 28.926 208.374 29.078 208.218 29.278C208.066 29.478 207.95 29.72 207.87 30.004C207.794 30.288 207.756 30.606 207.756 30.958C207.756 31.326 207.798 31.654 207.882 31.942C207.966 32.226 208.084 32.466 208.236 32.662C208.392 32.854 208.578 33.002 208.794 33.106C209.014 33.206 209.26 33.256 209.532 33.256C209.792 33.256 210.006 33.226 210.174 33.166C210.342 33.102 210.48 33.032 210.588 32.956C210.7 32.88 210.792 32.812 210.864 32.752C210.94 32.688 211.014 32.656 211.086 32.656C211.174 32.656 211.242 32.69 211.29 32.758L211.59 33.148C211.458 33.312 211.308 33.452 211.14 33.568C210.972 33.684 210.79 33.782 210.594 33.862C210.402 33.938 210.2 33.994 209.988 34.03C209.776 34.066 209.56 34.084 209.34 34.084C208.96 34.084 208.606 34.014 208.278 33.874C207.954 33.734 207.672 33.532 207.432 33.268C207.192 33 207.004 32.672 206.868 32.284C206.732 31.896 206.664 31.454 206.664 30.958C206.664 30.506 206.726 30.088 206.85 29.704C206.978 29.32 207.162 28.99 207.402 28.714C207.646 28.434 207.944 28.216 208.296 28.06C208.652 27.904 209.06 27.826 209.52 27.826C209.948 27.826 210.324 27.896 210.648 28.036C210.976 28.172 211.266 28.366 211.518 28.618L211.236 29.002ZM215.193 27.826C215.637 27.826 216.037 27.9 216.393 28.048C216.749 28.196 217.053 28.406 217.305 28.678C217.557 28.95 217.749 29.28 217.881 29.668C218.017 30.052 218.085 30.482 218.085 30.958C218.085 31.438 218.017 31.87 217.881 32.254C217.749 32.638 217.557 32.966 217.305 33.238C217.053 33.51 216.749 33.72 216.393 33.868C216.037 34.012 215.637 34.084 215.193 34.084C214.745 34.084 214.341 34.012 213.981 33.868C213.625 33.72 213.321 33.51 213.069 33.238C212.817 32.966 212.623 32.638 212.487 32.254C212.355 31.87 212.289 31.438 212.289 30.958C212.289 30.482 212.355 30.052 212.487 29.668C212.623 29.28 212.817 28.95 213.069 28.678C213.321 28.406 213.625 28.196 213.981 28.048C214.341 27.9 214.745 27.826 215.193 27.826ZM215.193 33.25C215.793 33.25 216.241 33.05 216.537 32.65C216.833 32.246 216.981 31.684 216.981 30.964C216.981 30.24 216.833 29.676 216.537 29.272C216.241 28.868 215.793 28.666 215.193 28.666C214.889 28.666 214.623 28.718 214.395 28.822C214.171 28.926 213.983 29.076 213.831 29.272C213.683 29.468 213.571 29.71 213.495 29.998C213.423 30.282 213.387 30.604 213.387 30.964C213.387 31.684 213.535 32.246 213.831 32.65C214.131 33.05 214.585 33.25 215.193 33.25ZM220.448 28.804C220.58 28.656 220.72 28.522 220.868 28.402C221.016 28.282 221.172 28.18 221.336 28.096C221.504 28.008 221.68 27.942 221.864 27.898C222.052 27.85 222.254 27.826 222.47 27.826C222.802 27.826 223.094 27.882 223.346 27.994C223.602 28.102 223.814 28.258 223.982 28.462C224.154 28.662 224.284 28.904 224.372 29.188C224.46 29.472 224.504 29.786 224.504 30.13V34H223.43V30.13C223.43 29.67 223.324 29.314 223.112 29.062C222.904 28.806 222.586 28.678 222.158 28.678C221.842 28.678 221.546 28.754 221.27 28.906C220.998 29.058 220.746 29.264 220.514 29.524V34H219.44V27.922H220.082C220.234 27.922 220.328 27.996 220.364 28.144L220.448 28.804ZM227.915 34.096C227.435 34.096 227.065 33.962 226.805 33.694C226.549 33.426 226.421 33.04 226.421 32.536V28.816H225.689C225.625 28.816 225.571 28.798 225.527 28.762C225.483 28.722 225.461 28.662 225.461 28.582V28.156L226.457 28.03L226.703 26.152C226.715 26.092 226.741 26.044 226.781 26.008C226.825 25.968 226.881 25.948 226.949 25.948H227.489V28.042H229.247V28.816H227.489V32.464C227.489 32.72 227.551 32.91 227.675 33.034C227.799 33.158 227.959 33.22 228.155 33.22C228.267 33.22 228.363 33.206 228.443 33.178C228.527 33.146 228.599 33.112 228.659 33.076C228.719 33.04 228.769 33.008 228.809 32.98C228.853 32.948 228.891 32.932 228.923 32.932C228.979 32.932 229.029 32.966 229.073 33.034L229.385 33.544C229.201 33.716 228.979 33.852 228.719 33.952C228.459 34.048 228.191 34.096 227.915 34.096ZM232.877 27.826C233.321 27.826 233.721 27.9 234.077 28.048C234.433 28.196 234.737 28.406 234.989 28.678C235.241 28.95 235.433 29.28 235.565 29.668C235.701 30.052 235.769 30.482 235.769 30.958C235.769 31.438 235.701 31.87 235.565 32.254C235.433 32.638 235.241 32.966 234.989 33.238C234.737 33.51 234.433 33.72 234.077 33.868C233.721 34.012 233.321 34.084 232.877 34.084C232.429 34.084 232.025 34.012 231.665 33.868C231.309 33.72 231.005 33.51 230.753 33.238C230.501 32.966 230.307 32.638 230.171 32.254C230.039 31.87 229.973 31.438 229.973 30.958C229.973 30.482 230.039 30.052 230.171 29.668C230.307 29.28 230.501 28.95 230.753 28.678C231.005 28.406 231.309 28.196 231.665 28.048C232.025 27.9 232.429 27.826 232.877 27.826ZM232.877 33.25C233.477 33.25 233.925 33.05 234.221 32.65C234.517 32.246 234.665 31.684 234.665 30.964C234.665 30.24 234.517 29.676 234.221 29.272C233.925 28.868 233.477 28.666 232.877 28.666C232.573 28.666 232.307 28.718 232.079 28.822C231.855 28.926 231.667 29.076 231.515 29.272C231.367 29.468 231.255 29.71 231.179 29.998C231.107 30.282 231.071 30.604 231.071 30.964C231.071 31.684 231.219 32.246 231.515 32.65C231.815 33.05 232.269 33.25 232.877 33.25Z" fill="#444444"/>
<defs>
<clipPath id="clip0">
<rect width="26" height="26" fill="white" transform="translate(3 7)"/>
</clipPath>
</defs>
</svg>
