<svg width="96" height="131" viewBox="0 0 96 131" fill="none" xmlns="http://www.w3.org/2000/svg">
<path d="M17.1002 101.276L15.5252 97.195C15.4785 97.0737 15.4295 96.9337 15.3782 96.775C15.3269 96.6117 15.2779 96.439 15.2312 96.257C15.1332 96.635 15.0329 96.95 14.9302 97.202L13.3552 101.276H17.1002ZM19.9282 105H18.8782C18.7569 105 18.6589 104.97 18.5842 104.909C18.5095 104.848 18.4535 104.771 18.4162 104.678L17.4782 102.256H12.9772L12.0392 104.678C12.0112 104.762 11.9575 104.837 11.8782 104.902C11.7989 104.967 11.7009 105 11.5842 105H10.5342L14.5452 94.969H15.9172L19.9282 105ZM22.1095 99.33C22.3335 98.8447 22.6088 98.4667 22.9355 98.196C23.2621 97.9207 23.6611 97.783 24.1325 97.783C24.2818 97.783 24.4241 97.7993 24.5595 97.832C24.6995 97.8647 24.8231 97.916 24.9305 97.986L24.8395 98.917C24.8115 99.0337 24.7415 99.092 24.6295 99.092C24.5641 99.092 24.4685 99.078 24.3425 99.05C24.2165 99.022 24.0741 99.008 23.9155 99.008C23.6915 99.008 23.4908 99.0407 23.3135 99.106C23.1408 99.1713 22.9845 99.2693 22.8445 99.4C22.7091 99.526 22.5855 99.6847 22.4735 99.876C22.3661 100.063 22.2681 100.277 22.1795 100.52V105H20.9265V97.909H21.6405C21.7758 97.909 21.8691 97.9347 21.9205 97.986C21.9718 98.0373 22.0068 98.126 22.0255 98.252L22.1095 99.33ZM26.0261 105V97.909H26.7751C26.9524 97.909 27.0621 97.9953 27.1041 98.168L27.1951 98.896C27.4564 98.574 27.7504 98.3103 28.0771 98.105C28.4037 97.8997 28.7817 97.797 29.2111 97.797C29.6871 97.797 30.0721 97.93 30.3661 98.196C30.6647 98.462 30.8794 98.8213 31.0101 99.274C31.1127 99.0173 31.2434 98.7957 31.4021 98.609C31.5654 98.4223 31.7474 98.2683 31.9481 98.147C32.1487 98.0257 32.3611 97.937 32.5851 97.881C32.8137 97.825 33.0447 97.797 33.2781 97.797C33.6514 97.797 33.9827 97.8577 34.2721 97.979C34.5661 98.0957 34.8134 98.2683 35.0141 98.497C35.2194 98.7257 35.3757 99.008 35.4831 99.344C35.5904 99.6753 35.6441 100.056 35.6441 100.485V105H34.3911V100.485C34.3911 99.9297 34.2697 99.5097 34.0271 99.225C33.7844 98.9357 33.4344 98.791 32.9771 98.791C32.7717 98.791 32.5757 98.8283 32.3891 98.903C32.2071 98.973 32.0461 99.078 31.9061 99.218C31.7661 99.358 31.6541 99.5353 31.5701 99.75C31.4907 99.96 31.4511 100.205 31.4511 100.485V105H30.1981V100.485C30.1981 99.9157 30.0837 99.491 29.8551 99.211C29.6264 98.931 29.2927 98.791 28.8541 98.791C28.5461 98.791 28.2614 98.875 28.0001 99.043C27.7387 99.2063 27.4984 99.4303 27.2791 99.715V105H26.0261ZM41.3808 101.808C40.8068 101.827 40.3168 101.873 39.9108 101.948C39.5094 102.018 39.1804 102.111 38.9238 102.228C38.6718 102.345 38.4874 102.482 38.3708 102.641C38.2588 102.8 38.2028 102.977 38.2028 103.173C38.2028 103.36 38.2331 103.521 38.2938 103.656C38.3544 103.791 38.4361 103.903 38.5388 103.992C38.6461 104.076 38.7698 104.139 38.9098 104.181C39.0544 104.218 39.2084 104.237 39.3718 104.237C39.5911 104.237 39.7918 104.216 39.9738 104.174C40.1558 104.127 40.3261 104.062 40.4848 103.978C40.6481 103.894 40.8021 103.794 40.9468 103.677C41.0961 103.56 41.2408 103.427 41.3808 103.278V101.808ZM37.3558 98.91C37.7478 98.532 38.1701 98.2497 38.6228 98.063C39.0754 97.8763 39.5771 97.783 40.1278 97.783C40.5244 97.783 40.8768 97.8483 41.1848 97.979C41.4928 98.1097 41.7518 98.2917 41.9618 98.525C42.1718 98.7583 42.3304 99.0407 42.4378 99.372C42.5451 99.7033 42.5988 100.067 42.5988 100.464V105H42.0458C41.9244 105 41.8311 104.981 41.7658 104.944C41.7004 104.902 41.6491 104.823 41.6118 104.706L41.4718 104.034C41.2851 104.207 41.1031 104.361 40.9258 104.496C40.7484 104.627 40.5618 104.739 40.3658 104.832C40.1698 104.921 39.9598 104.988 39.7358 105.035C39.5164 105.086 39.2714 105.112 39.0008 105.112C38.7254 105.112 38.4664 105.075 38.2238 105C37.9811 104.921 37.7688 104.804 37.5868 104.65C37.4094 104.496 37.2671 104.302 37.1598 104.069C37.0571 103.831 37.0058 103.551 37.0058 103.229C37.0058 102.949 37.0828 102.681 37.2368 102.424C37.3908 102.163 37.6404 101.932 37.9858 101.731C38.3311 101.53 38.7814 101.367 39.3368 101.241C39.8921 101.11 40.5734 101.036 41.3808 101.017V100.464C41.3808 99.9133 41.2618 99.498 41.0238 99.218C40.7858 98.9333 40.4381 98.791 39.9808 98.791C39.6728 98.791 39.4138 98.8307 39.2038 98.91C38.9984 98.9847 38.8188 99.071 38.6648 99.169C38.5154 99.2623 38.3848 99.3487 38.2728 99.428C38.1654 99.5027 38.0581 99.54 37.9508 99.54C37.8668 99.54 37.7944 99.519 37.7338 99.477C37.6731 99.4303 37.6218 99.3743 37.5798 99.309L37.3558 98.91ZM45.6798 99.33C45.9038 98.8447 46.1791 98.4667 46.5058 98.196C46.8324 97.9207 47.2314 97.783 47.7028 97.783C47.8521 97.783 47.9944 97.7993 48.1298 97.832C48.2698 97.8647 48.3934 97.916 48.5008 97.986L48.4098 98.917C48.3818 99.0337 48.3118 99.092 48.1998 99.092C48.1344 99.092 48.0388 99.078 47.9128 99.05C47.7868 99.022 47.6444 99.008 47.4858 99.008C47.2618 99.008 47.0611 99.0407 46.8838 99.106C46.7111 99.1713 46.5548 99.2693 46.4148 99.4C46.2794 99.526 46.1558 99.6847 46.0438 99.876C45.9364 100.063 45.8384 100.277 45.7498 100.52V105H44.4968V97.909H45.2108C45.3461 97.909 45.4394 97.9347 45.4908 97.986C45.5421 98.0373 45.5771 98.126 45.5958 98.252L45.6798 99.33ZM50.9124 97.909V105H49.6664V97.909H50.9124ZM51.1784 95.683C51.1784 95.8043 51.1527 95.9187 51.1014 96.026C51.0547 96.1287 50.9894 96.222 50.9054 96.306C50.826 96.3853 50.7304 96.4483 50.6184 96.495C50.511 96.5417 50.3967 96.565 50.2754 96.565C50.154 96.565 50.0397 96.5417 49.9324 96.495C49.8297 96.4483 49.7387 96.3853 49.6594 96.306C49.58 96.222 49.517 96.1287 49.4704 96.026C49.4237 95.9187 49.4004 95.8043 49.4004 95.683C49.4004 95.5617 49.4237 95.4473 49.4704 95.34C49.517 95.228 49.58 95.1323 49.6594 95.053C49.7387 94.969 49.8297 94.9037 49.9324 94.857C50.0397 94.8103 50.154 94.787 50.2754 94.787C50.3967 94.787 50.511 94.8103 50.6184 94.857C50.7304 94.9037 50.826 94.969 50.9054 95.053C50.9894 95.1323 51.0547 95.228 51.1014 95.34C51.1527 95.4473 51.1784 95.5617 51.1784 95.683ZM54.1357 98.938C54.2897 98.7653 54.453 98.609 54.6257 98.469C54.7983 98.329 54.9803 98.21 55.1717 98.112C55.3677 98.0093 55.573 97.9323 55.7877 97.881C56.007 97.825 56.2427 97.797 56.4947 97.797C56.882 97.797 57.2227 97.8623 57.5167 97.993C57.8153 98.119 58.0627 98.301 58.2587 98.539C58.4593 98.7723 58.611 99.0547 58.7137 99.386C58.8163 99.7173 58.8677 100.084 58.8677 100.485V105H57.6147V100.485C57.6147 99.9483 57.491 99.533 57.2437 99.239C57.001 98.9403 56.63 98.791 56.1307 98.791C55.762 98.791 55.4167 98.8797 55.0947 99.057C54.7773 99.2343 54.4833 99.4747 54.2127 99.778V105H52.9597V97.909H53.7087C53.886 97.909 53.9957 97.9953 54.0377 98.168L54.1357 98.938ZM62.0193 98.854C62.3226 98.532 62.6586 98.2753 63.0273 98.084C63.396 97.8927 63.8206 97.797 64.3013 97.797C64.6886 97.797 65.0293 97.8623 65.3233 97.993C65.622 98.119 65.8693 98.301 66.0653 98.539C66.266 98.7723 66.4176 99.0547 66.5203 99.386C66.623 99.7173 66.6743 100.084 66.6743 100.485V105H65.4213V100.485C65.4213 99.9483 65.2976 99.533 65.0503 99.239C64.8076 98.9403 64.4366 98.791 63.9373 98.791C63.5686 98.791 63.2233 98.8797 62.9013 99.057C62.584 99.2343 62.29 99.4747 62.0193 99.778V105H60.7663V94.689H62.0193V98.854ZM71.5619 97.797C72.0799 97.797 72.5466 97.8833 72.9619 98.056C73.3773 98.2287 73.7319 98.4737 74.0259 98.791C74.3199 99.1083 74.5439 99.4933 74.6979 99.946C74.8566 100.394 74.9359 100.896 74.9359 101.451C74.9359 102.011 74.8566 102.515 74.6979 102.963C74.5439 103.411 74.3199 103.794 74.0259 104.111C73.7319 104.428 73.3773 104.673 72.9619 104.846C72.5466 105.014 72.0799 105.098 71.5619 105.098C71.0393 105.098 70.5679 105.014 70.1479 104.846C69.7326 104.673 69.3779 104.428 69.0839 104.111C68.7899 103.794 68.5636 103.411 68.4049 102.963C68.2509 102.515 68.1739 102.011 68.1739 101.451C68.1739 100.896 68.2509 100.394 68.4049 99.946C68.5636 99.4933 68.7899 99.1083 69.0839 98.791C69.3779 98.4737 69.7326 98.2287 70.1479 98.056C70.5679 97.8833 71.0393 97.797 71.5619 97.797ZM71.5619 104.125C72.2619 104.125 72.7846 103.892 73.1299 103.425C73.4753 102.954 73.6479 102.298 73.6479 101.458C73.6479 100.613 73.4753 99.9553 73.1299 99.484C72.7846 99.0127 72.2619 98.777 71.5619 98.777C71.2073 98.777 70.8969 98.8377 70.6309 98.959C70.3696 99.0803 70.1503 99.2553 69.9729 99.484C69.8003 99.7127 69.6696 99.995 69.5809 100.331C69.4969 100.662 69.4549 101.038 69.4549 101.458C69.4549 102.298 69.6276 102.954 69.9729 103.425C70.3229 103.892 70.8526 104.125 71.5619 104.125ZM84.8443 100.681C84.8443 100.392 84.8023 100.128 84.7183 99.89C84.639 99.6473 84.52 99.4397 84.3613 99.267C84.2073 99.0897 84.0183 98.9543 83.7943 98.861C83.5703 98.763 83.316 98.714 83.0313 98.714C82.434 98.714 81.9603 98.889 81.6103 99.239C81.265 99.5843 81.0503 100.065 80.9663 100.681H84.8443ZM85.8523 104.006C85.6983 104.193 85.514 104.356 85.2993 104.496C85.0847 104.631 84.8537 104.743 84.6063 104.832C84.3637 104.921 84.1117 104.986 83.8503 105.028C83.589 105.075 83.33 105.098 83.0733 105.098C82.5833 105.098 82.1307 105.016 81.7153 104.853C81.3047 104.685 80.9477 104.442 80.6443 104.125C80.3457 103.803 80.1123 103.406 79.9443 102.935C79.7763 102.464 79.6923 101.922 79.6923 101.311C79.6923 100.816 79.767 100.354 79.9163 99.925C80.0703 99.4957 80.2897 99.1247 80.5743 98.812C80.859 98.4947 81.2067 98.2473 81.6173 98.07C82.028 97.888 82.49 97.797 83.0033 97.797C83.428 97.797 83.82 97.8693 84.1793 98.014C84.5433 98.154 84.856 98.3593 85.1173 98.63C85.3833 98.896 85.591 99.2273 85.7403 99.624C85.8897 100.016 85.9643 100.464 85.9643 100.968C85.9643 101.164 85.9433 101.295 85.9013 101.36C85.8593 101.425 85.78 101.458 85.6633 101.458H80.9243C80.9383 101.906 80.999 102.296 81.1063 102.627C81.2183 102.958 81.3723 103.236 81.5683 103.46C81.7643 103.679 81.9977 103.845 82.2683 103.957C82.539 104.064 82.8423 104.118 83.1783 104.118C83.491 104.118 83.7593 104.083 83.9833 104.013C84.212 103.938 84.408 103.859 84.5713 103.775C84.7347 103.691 84.87 103.614 84.9773 103.544C85.0893 103.469 85.185 103.432 85.2643 103.432C85.367 103.432 85.4463 103.472 85.5023 103.551L85.8523 104.006ZM21.3453 121.276L19.7703 117.195C19.7236 117.074 19.6746 116.934 19.6233 116.775C19.572 116.612 19.523 116.439 19.4763 116.257C19.3783 116.635 19.278 116.95 19.1753 117.202L17.6003 121.276H21.3453ZM24.1733 125H23.1233C23.002 125 22.904 124.97 22.8293 124.909C22.7546 124.848 22.6986 124.771 22.6613 124.678L21.7233 122.256H17.2223L16.2843 124.678C16.2563 124.762 16.2026 124.837 16.1233 124.902C16.044 124.967 15.946 125 15.8293 125H14.7793L18.7903 114.969H20.1623L24.1733 125ZM26.3546 119.33C26.5786 118.845 26.8539 118.467 27.1806 118.196C27.5072 117.921 27.9062 117.783 28.3776 117.783C28.5269 117.783 28.6692 117.799 28.8046 117.832C28.9446 117.865 29.0682 117.916 29.1756 117.986L29.0846 118.917C29.0566 119.034 28.9866 119.092 28.8746 119.092C28.8092 119.092 28.7136 119.078 28.5876 119.05C28.4616 119.022 28.3192 119.008 28.1606 119.008C27.9366 119.008 27.7359 119.041 27.5586 119.106C27.3859 119.171 27.2296 119.269 27.0896 119.4C26.9542 119.526 26.8306 119.685 26.7186 119.876C26.6112 120.063 26.5132 120.277 26.4246 120.52V125H25.1716V117.909H25.8856C26.0209 117.909 26.1142 117.935 26.1656 117.986C26.2169 118.037 26.2519 118.126 26.2706 118.252L26.3546 119.33ZM32.4482 125.112C31.8882 125.112 31.4565 124.956 31.1532 124.643C30.8545 124.33 30.7052 123.88 30.7052 123.292V118.952H29.8512C29.7765 118.952 29.7135 118.931 29.6622 118.889C29.6108 118.842 29.5852 118.772 29.5852 118.679V118.182L30.7472 118.035L31.0342 115.844C31.0482 115.774 31.0785 115.718 31.1252 115.676C31.1765 115.629 31.2418 115.606 31.3212 115.606H31.9512V118.049H34.0022V118.952H31.9512V123.208C31.9512 123.507 32.0235 123.728 32.1682 123.873C32.3128 124.018 32.4995 124.09 32.7282 124.09C32.8588 124.09 32.9708 124.074 33.0642 124.041C33.1622 124.004 33.2462 123.964 33.3162 123.922C33.3862 123.88 33.4445 123.843 33.4912 123.81C33.5425 123.773 33.5868 123.754 33.6242 123.754C33.6895 123.754 33.7478 123.794 33.7992 123.873L34.1632 124.468C33.9485 124.669 33.6895 124.827 33.3862 124.944C33.0828 125.056 32.7702 125.112 32.4482 125.112ZM39.9937 120.681C39.9937 120.392 39.9517 120.128 39.8677 119.89C39.7884 119.647 39.6694 119.44 39.5107 119.267C39.3567 119.09 39.1677 118.954 38.9437 118.861C38.7197 118.763 38.4654 118.714 38.1807 118.714C37.5834 118.714 37.1097 118.889 36.7597 119.239C36.4144 119.584 36.1997 120.065 36.1157 120.681H39.9937ZM41.0017 124.006C40.8477 124.193 40.6634 124.356 40.4487 124.496C40.2341 124.631 40.0031 124.743 39.7557 124.832C39.5131 124.921 39.2611 124.986 38.9997 125.028C38.7384 125.075 38.4794 125.098 38.2227 125.098C37.7327 125.098 37.2801 125.016 36.8647 124.853C36.4541 124.685 36.0971 124.442 35.7937 124.125C35.4951 123.803 35.2617 123.406 35.0937 122.935C34.9257 122.464 34.8417 121.922 34.8417 121.311C34.8417 120.816 34.9164 120.354 35.0657 119.925C35.2197 119.496 35.4391 119.125 35.7237 118.812C36.0084 118.495 36.3561 118.247 36.7667 118.07C37.1774 117.888 37.6394 117.797 38.1527 117.797C38.5774 117.797 38.9694 117.869 39.3287 118.014C39.6927 118.154 40.0054 118.359 40.2667 118.63C40.5327 118.896 40.7404 119.227 40.8897 119.624C41.0391 120.016 41.1137 120.464 41.1137 120.968C41.1137 121.164 41.0927 121.295 41.0507 121.36C41.0087 121.425 40.9294 121.458 40.8127 121.458H36.0737C36.0877 121.906 36.1484 122.296 36.2557 122.627C36.3677 122.958 36.5217 123.236 36.7177 123.46C36.9137 123.679 37.1471 123.845 37.4177 123.957C37.6884 124.064 37.9917 124.118 38.3277 124.118C38.6404 124.118 38.9087 124.083 39.1327 124.013C39.3614 123.938 39.5574 123.859 39.7207 123.775C39.8841 123.691 40.0194 123.614 40.1267 123.544C40.2387 123.469 40.3344 123.432 40.4137 123.432C40.5164 123.432 40.5957 123.472 40.6517 123.551L41.0017 124.006ZM46.7742 119.078C46.7182 119.181 46.6319 119.232 46.5152 119.232C46.4452 119.232 46.3659 119.206 46.2772 119.155C46.1886 119.104 46.0789 119.048 45.9482 118.987C45.8222 118.922 45.6706 118.863 45.4932 118.812C45.3159 118.756 45.1059 118.728 44.8632 118.728C44.6532 118.728 44.4642 118.756 44.2962 118.812C44.1282 118.863 43.9836 118.936 43.8622 119.029C43.7456 119.122 43.6546 119.232 43.5892 119.358C43.5286 119.479 43.4982 119.612 43.4982 119.757C43.4982 119.939 43.5496 120.091 43.6522 120.212C43.7596 120.333 43.8996 120.438 44.0722 120.527C44.2449 120.616 44.4409 120.695 44.6602 120.765C44.8796 120.83 45.1036 120.903 45.3322 120.982C45.5656 121.057 45.7919 121.141 46.0112 121.234C46.2306 121.327 46.4266 121.444 46.5992 121.584C46.7719 121.724 46.9096 121.897 47.0122 122.102C47.1196 122.303 47.1732 122.545 47.1732 122.83C47.1732 123.157 47.1149 123.46 46.9982 123.74C46.8816 124.015 46.7089 124.256 46.4802 124.461C46.2516 124.662 45.9716 124.82 45.6402 124.937C45.3089 125.054 44.9262 125.112 44.4922 125.112C43.9976 125.112 43.5496 125.033 43.1482 124.874C42.7469 124.711 42.4062 124.503 42.1262 124.251L42.4202 123.775C42.4576 123.714 42.5019 123.668 42.5532 123.635C42.6046 123.602 42.6699 123.586 42.7492 123.586C42.8332 123.586 42.9219 123.619 43.0152 123.684C43.1086 123.749 43.2206 123.822 43.3512 123.901C43.4866 123.98 43.6499 124.053 43.8412 124.118C44.0326 124.183 44.2706 124.216 44.5552 124.216C44.7979 124.216 45.0102 124.186 45.1922 124.125C45.3742 124.06 45.5259 123.973 45.6472 123.866C45.7686 123.759 45.8572 123.635 45.9132 123.495C45.9739 123.355 46.0042 123.206 46.0042 123.047C46.0042 122.851 45.9506 122.69 45.8432 122.564C45.7406 122.433 45.6029 122.324 45.4302 122.235C45.2576 122.142 45.0592 122.062 44.8352 121.997C44.6159 121.927 44.3896 121.855 44.1562 121.78C43.9276 121.705 43.7012 121.621 43.4772 121.528C43.2579 121.43 43.0619 121.309 42.8892 121.164C42.7166 121.019 42.5766 120.842 42.4692 120.632C42.3666 120.417 42.3152 120.158 42.3152 119.855C42.3152 119.584 42.3712 119.325 42.4832 119.078C42.5952 118.826 42.7586 118.607 42.9732 118.42C43.1879 118.229 43.4516 118.077 43.7642 117.965C44.0769 117.853 44.4339 117.797 44.8352 117.797C45.3019 117.797 45.7196 117.872 46.0882 118.021C46.4616 118.166 46.7836 118.366 47.0542 118.623L46.7742 119.078ZM52.5439 121.808C51.9699 121.827 51.4799 121.873 51.0739 121.948C50.6725 122.018 50.3435 122.111 50.0869 122.228C49.8349 122.345 49.6505 122.482 49.5339 122.641C49.4219 122.8 49.3659 122.977 49.3659 123.173C49.3659 123.36 49.3962 123.521 49.4569 123.656C49.5175 123.791 49.5992 123.903 49.7019 123.992C49.8092 124.076 49.9329 124.139 50.0729 124.181C50.2175 124.218 50.3715 124.237 50.5349 124.237C50.7542 124.237 50.9549 124.216 51.1369 124.174C51.3189 124.127 51.4892 124.062 51.6479 123.978C51.8112 123.894 51.9652 123.794 52.1099 123.677C52.2592 123.56 52.4039 123.427 52.5439 123.278V121.808ZM48.5189 118.91C48.9109 118.532 49.3332 118.25 49.7859 118.063C50.2385 117.876 50.7402 117.783 51.2909 117.783C51.6875 117.783 52.0399 117.848 52.3479 117.979C52.6559 118.11 52.9149 118.292 53.1249 118.525C53.3349 118.758 53.4935 119.041 53.6009 119.372C53.7082 119.703 53.7619 120.067 53.7619 120.464V125H53.2089C53.0875 125 52.9942 124.981 52.9289 124.944C52.8635 124.902 52.8122 124.823 52.7749 124.706L52.6349 124.034C52.4482 124.207 52.2662 124.361 52.0889 124.496C51.9115 124.627 51.7249 124.739 51.5289 124.832C51.3329 124.921 51.1229 124.988 50.8989 125.035C50.6795 125.086 50.4345 125.112 50.1639 125.112C49.8885 125.112 49.6295 125.075 49.3869 125C49.1442 124.921 48.9319 124.804 48.7499 124.65C48.5725 124.496 48.4302 124.302 48.3229 124.069C48.2202 123.831 48.1689 123.551 48.1689 123.229C48.1689 122.949 48.2459 122.681 48.3999 122.424C48.5539 122.163 48.8035 121.932 49.1489 121.731C49.4942 121.53 49.9445 121.367 50.4999 121.241C51.0552 121.11 51.7365 121.036 52.5439 121.017V120.464C52.5439 119.913 52.4249 119.498 52.1869 119.218C51.9489 118.933 51.6012 118.791 51.1439 118.791C50.8359 118.791 50.5769 118.831 50.3669 118.91C50.1615 118.985 49.9819 119.071 49.8279 119.169C49.6785 119.262 49.5479 119.349 49.4359 119.428C49.3285 119.503 49.2212 119.54 49.1139 119.54C49.0299 119.54 48.9575 119.519 48.8969 119.477C48.8362 119.43 48.7849 119.374 48.7429 119.309L48.5189 118.91ZM56.8359 118.938C56.9899 118.765 57.1532 118.609 57.3259 118.469C57.4985 118.329 57.6805 118.21 57.8719 118.112C58.0679 118.009 58.2732 117.932 58.4879 117.881C58.7072 117.825 58.9429 117.797 59.1949 117.797C59.5822 117.797 59.9229 117.862 60.2169 117.993C60.5155 118.119 60.7629 118.301 60.9589 118.539C61.1595 118.772 61.3112 119.055 61.4139 119.386C61.5165 119.717 61.5679 120.084 61.5679 120.485V125H60.3149V120.485C60.3149 119.948 60.1912 119.533 59.9439 119.239C59.7012 118.94 59.3302 118.791 58.8309 118.791C58.4622 118.791 58.1169 118.88 57.7949 119.057C57.4775 119.234 57.1835 119.475 56.9129 119.778V125H55.6599V117.909H56.4089C56.5862 117.909 56.6959 117.995 56.7379 118.168L56.8359 118.938ZM67.3095 121.808C66.7355 121.827 66.2455 121.873 65.8395 121.948C65.4382 122.018 65.1092 122.111 64.8525 122.228C64.6005 122.345 64.4162 122.482 64.2995 122.641C64.1875 122.8 64.1315 122.977 64.1315 123.173C64.1315 123.36 64.1618 123.521 64.2225 123.656C64.2832 123.791 64.3648 123.903 64.4675 123.992C64.5748 124.076 64.6985 124.139 64.8385 124.181C64.9832 124.218 65.1372 124.237 65.3005 124.237C65.5198 124.237 65.7205 124.216 65.9025 124.174C66.0845 124.127 66.2548 124.062 66.4135 123.978C66.5768 123.894 66.7308 123.794 66.8755 123.677C67.0248 123.56 67.1695 123.427 67.3095 123.278V121.808ZM63.2845 118.91C63.6765 118.532 64.0988 118.25 64.5515 118.063C65.0042 117.876 65.5058 117.783 66.0565 117.783C66.4532 117.783 66.8055 117.848 67.1135 117.979C67.4215 118.11 67.6805 118.292 67.8905 118.525C68.1005 118.758 68.2592 119.041 68.3665 119.372C68.4738 119.703 68.5275 120.067 68.5275 120.464V125H67.9745C67.8532 125 67.7598 124.981 67.6945 124.944C67.6292 124.902 67.5778 124.823 67.5405 124.706L67.4005 124.034C67.2138 124.207 67.0318 124.361 66.8545 124.496C66.6772 124.627 66.4905 124.739 66.2945 124.832C66.0985 124.921 65.8885 124.988 65.6645 125.035C65.4452 125.086 65.2002 125.112 64.9295 125.112C64.6542 125.112 64.3952 125.075 64.1525 125C63.9098 124.921 63.6975 124.804 63.5155 124.65C63.3382 124.496 63.1958 124.302 63.0885 124.069C62.9858 123.831 62.9345 123.551 62.9345 123.229C62.9345 122.949 63.0115 122.681 63.1655 122.424C63.3195 122.163 63.5692 121.932 63.9145 121.731C64.2598 121.53 64.7102 121.367 65.2655 121.241C65.8208 121.11 66.5022 121.036 67.3095 121.017V120.464C67.3095 119.913 67.1905 119.498 66.9525 119.218C66.7145 118.933 66.3668 118.791 65.9095 118.791C65.6015 118.791 65.3425 118.831 65.1325 118.91C64.9272 118.985 64.7475 119.071 64.5935 119.169C64.4442 119.262 64.3135 119.349 64.2015 119.428C64.0942 119.503 63.9868 119.54 63.8795 119.54C63.7955 119.54 63.7232 119.519 63.6625 119.477C63.6018 119.43 63.5505 119.374 63.5085 119.309L63.2845 118.91ZM72.5068 125.112C71.9468 125.112 71.5151 124.956 71.2118 124.643C70.9131 124.33 70.7638 123.88 70.7638 123.292V118.952H69.9098C69.8351 118.952 69.7721 118.931 69.7208 118.889C69.6694 118.842 69.6438 118.772 69.6438 118.679V118.182L70.8058 118.035L71.0928 115.844C71.1068 115.774 71.1371 115.718 71.1838 115.676C71.2351 115.629 71.3004 115.606 71.3798 115.606H72.0098V118.049H74.0608V118.952H72.0098V123.208C72.0098 123.507 72.0821 123.728 72.2268 123.873C72.3714 124.018 72.5581 124.09 72.7868 124.09C72.9174 124.09 73.0294 124.074 73.1228 124.041C73.2208 124.004 73.3048 123.964 73.3748 123.922C73.4448 123.88 73.5031 123.843 73.5498 123.81C73.6011 123.773 73.6454 123.754 73.6828 123.754C73.7481 123.754 73.8064 123.794 73.8578 123.873L74.2218 124.468C74.0071 124.669 73.7481 124.827 73.4448 124.944C73.1414 125.056 72.8288 125.112 72.5068 125.112ZM78.2953 117.797C78.8133 117.797 79.28 117.883 79.6953 118.056C80.1107 118.229 80.4653 118.474 80.7593 118.791C81.0533 119.108 81.2773 119.493 81.4313 119.946C81.59 120.394 81.6693 120.896 81.6693 121.451C81.6693 122.011 81.59 122.515 81.4313 122.963C81.2773 123.411 81.0533 123.794 80.7593 124.111C80.4653 124.428 80.1107 124.673 79.6953 124.846C79.28 125.014 78.8133 125.098 78.2953 125.098C77.7727 125.098 77.3013 125.014 76.8813 124.846C76.466 124.673 76.1113 124.428 75.8173 124.111C75.5233 123.794 75.297 123.411 75.1383 122.963C74.9843 122.515 74.9073 122.011 74.9073 121.451C74.9073 120.896 74.9843 120.394 75.1383 119.946C75.297 119.493 75.5233 119.108 75.8173 118.791C76.1113 118.474 76.466 118.229 76.8813 118.056C77.3013 117.883 77.7727 117.797 78.2953 117.797ZM78.2953 124.125C78.9953 124.125 79.518 123.892 79.8633 123.425C80.2087 122.954 80.3813 122.298 80.3813 121.458C80.3813 120.613 80.2087 119.955 79.8633 119.484C79.518 119.013 78.9953 118.777 78.2953 118.777C77.9407 118.777 77.6303 118.838 77.3643 118.959C77.103 119.08 76.8837 119.255 76.7063 119.484C76.5337 119.713 76.403 119.995 76.3143 120.331C76.2303 120.662 76.1883 121.038 76.1883 121.458C76.1883 122.298 76.361 122.954 76.7063 123.425C77.0563 123.892 77.586 124.125 78.2953 124.125Z" fill="#444444"/>
<path d="M90.8715 47.9526C90.8734 56.2356 88.4188 64.333 83.8183 71.2209C79.2177 78.1087 72.6777 83.4774 65.0256 86.6481C57.3735 89.8187 48.953 90.6488 40.8291 89.0333C32.7052 87.4179 25.2429 83.4294 19.3859 77.5725C13.529 71.7156 9.54054 64.2532 7.92508 56.1293C6.30962 48.0054 7.1397 39.5849 10.3103 31.9328C13.481 24.2807 18.8497 17.7407 25.7376 13.1402C32.6254 8.53958 40.7229 6.08501 49.0058 6.08692C60.1093 6.08692 70.758 10.4977 78.6093 18.3491C86.4607 26.2004 90.8715 36.8491 90.8715 47.9526Z" fill="white"/>
<path d="M33.6079 33.8627C33.9734 34.8245 34.8101 37.075 37.051 37.075H59.566C61.8165 37.075 62.6532 34.8245 63.0091 33.8627L63.163 33.4684C63.6823 32.1027 64.269 30.5831 63.4996 29.4482C63.1761 29.0656 62.7619 28.7701 62.2949 28.5887C61.8279 28.4072 61.3228 28.3456 60.8259 28.4095H35.7623C35.2653 28.3456 34.7603 28.4072 34.2933 28.5887C33.8262 28.7701 33.4121 29.0656 33.0886 29.4482C32.3191 30.5638 32.9058 32.1027 33.4348 33.4684L33.6079 33.8627ZM34.4639 30.3715C34.5312 30.2753 34.8005 30.0349 35.7911 30.0349H60.797C61.7588 30.0349 62.0569 30.2753 62.1243 30.3715C62.4128 30.785 61.9512 31.9969 61.6049 32.8817L61.451 33.2952C60.874 34.8437 60.3354 35.44 59.5275 35.44H37.051C36.2528 35.44 35.7142 34.8437 35.1275 33.2952L34.9832 32.8528C34.6466 31.968 34.185 30.7562 34.4639 30.3426" fill="#444444"/>
<path d="M63.0091 62.0425C62.6918 61.0807 61.8069 58.8206 59.566 58.8206H37.0511C34.8006 58.8206 33.9638 61.0615 33.608 62.0232L33.4541 62.4272C32.9347 63.7833 32.348 65.3125 33.1175 66.4377C33.4382 66.8159 33.8476 67.1087 34.3091 67.29C34.7707 67.4713 35.27 67.5353 35.7623 67.4764H60.7682C61.2659 67.5383 61.7712 67.4748 62.2382 67.2917C62.7051 67.1086 63.1189 66.8118 63.4419 66.4281C64.2114 65.3125 63.6151 63.7736 63.1053 62.4079L63.0091 62.0425ZM62.1532 65.5529C62.0858 65.6587 61.8166 65.8895 60.8259 65.8895H35.7623C34.8006 65.8895 34.5024 65.6587 34.4351 65.5529C34.1466 65.1394 34.6082 63.9275 34.9544 63.0427L35.1083 62.6291C35.6854 61.0903 36.224 60.4844 37.0318 60.4844H59.566C60.3643 60.4844 60.9029 61.0903 61.4896 62.6291L61.6434 63.0427C61.9801 63.9275 62.4417 65.1394 62.1628 65.5529" fill="#444444"/>
<path d="M71.9343 60.3787C71.6304 60.3056 71.3365 60.1958 71.0591 60.0517C69.9526 59.5568 68.953 58.8512 68.1161 57.9743C67.7507 57.6384 67.4659 57.2244 67.2827 56.7631C67.0995 56.3019 67.0228 55.8052 67.0582 55.3102C67.1064 54.9759 67.207 54.6513 67.3563 54.3484C68.0986 52.7831 68.4767 51.07 68.4624 49.3376C68.455 47.912 68.012 46.5227 67.1928 45.3559C66.3953 44.2722 65.3275 43.4166 64.096 42.8745C62.4526 42.1666 60.6709 41.8379 58.8832 41.9128H37.9167C37.8098 41.9115 37.7037 41.9315 37.6046 41.9715C37.5054 42.0115 37.4152 42.0708 37.3392 42.146C37.2632 42.2211 37.2028 42.3106 37.1616 42.4093C37.1204 42.5079 37.0992 42.6138 37.0992 42.7207C37.0992 42.828 37.1203 42.9343 37.1614 43.0335C37.2025 43.1327 37.2627 43.2228 37.3386 43.2987C37.4145 43.3746 37.5047 43.4348 37.6038 43.4759C37.703 43.517 37.8093 43.5382 37.9167 43.5382H58.9409C60.4771 43.4596 62.0107 43.736 63.4227 44.346C64.3909 44.763 65.2331 45.4262 65.8656 46.2696C66.4939 47.1799 66.8294 48.2603 66.8274 49.3665C66.8351 50.8413 66.5061 52.2985 65.8656 53.6271C65.6512 54.0901 65.5085 54.583 65.4424 55.089C65.3781 55.8187 65.4767 56.5537 65.7312 57.2406C65.9857 57.9276 66.3897 58.5494 66.9139 59.0611C67.9025 60.1019 69.081 60.9441 70.3859 61.5424C70.8109 61.7505 71.2599 61.9056 71.7228 62.0041H71.8285C72.033 61.9996 72.2284 61.9186 72.3761 61.7771C72.5238 61.6357 72.6131 61.444 72.6264 61.2399C72.6397 61.0358 72.576 60.8341 72.4478 60.6747C72.3197 60.5153 72.1365 60.4096 71.9343 60.3787Z" fill="#444444"/>
<path d="M37.9167 38.5176C37.6999 38.5176 37.4919 38.6037 37.3386 38.757C37.1853 38.9103 37.0992 39.1183 37.0992 39.3351C37.0992 39.5519 37.1853 39.7598 37.3386 39.9131C37.4919 40.0665 37.6999 40.1526 37.9167 40.1526H58.6908C58.9076 40.1526 59.1156 40.0665 59.2689 39.9131C59.4222 39.7598 59.5083 39.5519 59.5083 39.3351C59.5083 39.1183 59.4222 38.9103 59.2689 38.757C59.1156 38.6037 58.9076 38.5176 58.6908 38.5176H37.9167Z" fill="#444444"/>
<path d="M58.6908 45.2983H37.9167C37.8025 45.2858 37.687 45.2976 37.5777 45.3328C37.4684 45.3679 37.3677 45.4257 37.2823 45.5024C37.1968 45.5791 37.1284 45.6729 37.0816 45.7777C37.0348 45.8826 37.0106 45.9961 37.0106 46.111C37.0106 46.2258 37.0348 46.3393 37.0816 46.4442C37.1284 46.549 37.1968 46.6428 37.2823 46.7195C37.3677 46.7962 37.4684 46.854 37.5777 46.8892C37.687 46.9243 37.8025 46.9361 37.9167 46.9237H58.6908C58.805 46.9361 58.9204 46.9243 59.0297 46.8892C59.1391 46.854 59.2397 46.7962 59.3252 46.7195C59.4107 46.6428 59.479 46.549 59.5258 46.4442C59.5727 46.3393 59.5968 46.2258 59.5968 46.111C59.5968 45.9961 59.5727 45.8826 59.5258 45.7777C59.479 45.6729 59.4107 45.5791 59.3252 45.5024C59.2397 45.4257 59.1391 45.3679 59.0297 45.3328C58.9204 45.2976 58.805 45.2858 58.6908 45.2983Z" fill="#444444"/>
<path d="M58.6908 48.6835H37.9167C37.8025 48.6711 37.687 48.6828 37.5777 48.718C37.4684 48.7532 37.3677 48.811 37.2823 48.8877C37.1968 48.9643 37.1284 49.0581 37.0816 49.163C37.0348 49.2679 37.0106 49.3814 37.0106 49.4962C37.0106 49.611 37.0348 49.7246 37.0816 49.8294C37.1284 49.9343 37.1968 50.0281 37.2823 50.1048C37.3677 50.1814 37.4684 50.2393 37.5777 50.2744C37.687 50.3096 37.8025 50.3213 37.9167 50.3089H58.6908C58.805 50.3213 58.9204 50.3096 59.0297 50.2744C59.1391 50.2393 59.2397 50.1814 59.3252 50.1048C59.4107 50.0281 59.479 49.9343 59.5258 49.8294C59.5727 49.7246 59.5968 49.611 59.5968 49.4962C59.5968 49.3814 59.5727 49.2679 59.5258 49.163C59.479 49.0581 59.4107 48.9643 59.3252 48.8877C59.2397 48.811 59.1391 48.7532 59.0297 48.718C58.9204 48.6828 58.805 48.6711 58.6908 48.6835Z" fill="#444444"/>
<path d="M58.6908 52.0883H37.9167C37.8025 52.0759 37.687 52.0876 37.5777 52.1228C37.4684 52.158 37.3677 52.2158 37.2823 52.2924C37.1968 52.3691 37.1284 52.4629 37.0816 52.5678C37.0348 52.6726 37.0106 52.7862 37.0106 52.901C37.0106 53.0158 37.0348 53.1294 37.0816 53.2342C37.1284 53.3391 37.1968 53.4329 37.2823 53.5096C37.3677 53.5862 37.4684 53.644 37.5777 53.6792C37.687 53.7144 37.8025 53.7261 37.9167 53.7137H58.6908C58.805 53.7261 58.9204 53.7144 59.0297 53.6792C59.1391 53.644 59.2397 53.5862 59.3252 53.5096C59.4107 53.4329 59.479 53.3391 59.5258 53.2342C59.5727 53.1294 59.5968 53.0158 59.5968 52.901C59.5968 52.7862 59.5727 52.6726 59.5258 52.5678C59.479 52.4629 59.4107 52.3691 59.3252 52.2924C59.2397 52.2158 59.1391 52.158 59.0297 52.1228C58.9204 52.0876 58.805 52.0759 58.6908 52.0883Z" fill="#444444"/>
<path d="M58.6908 55.4545H37.9167C37.8025 55.4421 37.687 55.4538 37.5777 55.489C37.4684 55.5242 37.3677 55.582 37.2823 55.6586C37.1968 55.7353 37.1284 55.8291 37.0816 55.934C37.0348 56.0388 37.0106 56.1524 37.0106 56.2672C37.0106 56.382 37.0348 56.4956 37.0816 56.6004C37.1284 56.7053 37.1968 56.7991 37.2823 56.8758C37.3677 56.9524 37.4684 57.0102 37.5777 57.0454C37.687 57.0806 37.8025 57.0923 37.9167 57.0799H58.6908C58.805 57.0923 58.9204 57.0806 59.0297 57.0454C59.1391 57.0102 59.2397 56.9524 59.3252 56.8758C59.4107 56.7991 59.479 56.7053 59.5258 56.6004C59.5727 56.4956 59.5968 56.382 59.5968 56.2672C59.5968 56.1524 59.5727 56.0388 59.5258 55.934C59.479 55.8291 59.4107 55.7353 59.3252 55.6586C59.2397 55.582 59.1391 55.5242 59.0297 55.489C58.9204 55.4538 58.805 55.4421 58.6908 55.4545Z" fill="#444444"/>
</svg>
