<svg width="96" height="131" viewBox="0 0 96 131" fill="none" xmlns="http://www.w3.org/2000/svg">
<path d="M37.5178 103.922C37.9052 103.922 38.2388 103.878 38.5188 103.789C38.7988 103.7 39.0275 103.577 39.2048 103.418C39.3868 103.255 39.5198 103.063 39.6038 102.844C39.6878 102.62 39.7298 102.375 39.7298 102.109C39.7298 101.591 39.5455 101.183 39.1768 100.884C38.8082 100.581 38.2552 100.429 37.5178 100.429H35.3478V103.922H37.5178ZM35.3478 96.04V99.463H37.1398C37.5225 99.463 37.8538 99.421 38.1338 99.337C38.4185 99.253 38.6518 99.1363 38.8338 98.987C39.0205 98.8377 39.1582 98.658 39.2468 98.448C39.3355 98.2333 39.3798 98 39.3798 97.748C39.3798 97.1553 39.2025 96.7237 38.8478 96.453C38.4932 96.1777 37.9425 96.04 37.1958 96.04H35.3478ZM37.1958 94.969C37.8118 94.969 38.3415 95.0297 38.7848 95.151C39.2328 95.2723 39.5992 95.445 39.8838 95.669C40.1732 95.893 40.3855 96.1683 40.5208 96.495C40.6562 96.817 40.7238 97.181 40.7238 97.587C40.7238 97.8343 40.6842 98.0723 40.6048 98.301C40.5302 98.525 40.4158 98.735 40.2618 98.931C40.1078 99.127 39.9118 99.3043 39.6738 99.463C39.4405 99.617 39.1652 99.743 38.8478 99.841C39.5852 99.981 40.1382 100.245 40.5068 100.632C40.8802 101.015 41.0668 101.519 41.0668 102.144C41.0668 102.569 40.9875 102.956 40.8288 103.306C40.6748 103.656 40.4462 103.957 40.1428 104.209C39.8442 104.461 39.4755 104.657 39.0368 104.797C38.5982 104.932 38.0988 105 37.5388 105H33.9968V94.969H37.1958ZM47.3902 100.681C47.3902 100.392 47.3482 100.128 47.2642 99.89C47.1849 99.6473 47.0659 99.4397 46.9072 99.267C46.7532 99.0897 46.5642 98.9543 46.3402 98.861C46.1162 98.763 45.8619 98.714 45.5772 98.714C44.9799 98.714 44.5062 98.889 44.1562 99.239C43.8109 99.5843 43.5962 100.065 43.5122 100.681H47.3902ZM48.3982 104.006C48.2442 104.193 48.0599 104.356 47.8452 104.496C47.6306 104.631 47.3996 104.743 47.1522 104.832C46.9096 104.921 46.6576 104.986 46.3962 105.028C46.1349 105.075 45.8759 105.098 45.6192 105.098C45.1292 105.098 44.6766 105.016 44.2612 104.853C43.8506 104.685 43.4936 104.442 43.1902 104.125C42.8916 103.803 42.6582 103.406 42.4902 102.935C42.3222 102.464 42.2382 101.922 42.2382 101.311C42.2382 100.816 42.3129 100.354 42.4622 99.925C42.6162 99.4957 42.8356 99.1247 43.1202 98.812C43.4049 98.4947 43.7526 98.2473 44.1632 98.07C44.5739 97.888 45.0359 97.797 45.5492 97.797C45.9739 97.797 46.3659 97.8693 46.7252 98.014C47.0892 98.154 47.4019 98.3593 47.6632 98.63C47.9292 98.896 48.1369 99.2273 48.2862 99.624C48.4356 100.016 48.5102 100.464 48.5102 100.968C48.5102 101.164 48.4892 101.295 48.4472 101.36C48.4052 101.425 48.3259 101.458 48.2092 101.458H43.4702C43.4842 101.906 43.5449 102.296 43.6522 102.627C43.7642 102.958 43.9182 103.236 44.1142 103.46C44.3102 103.679 44.5436 103.845 44.8142 103.957C45.0849 104.064 45.3882 104.118 45.7242 104.118C46.0369 104.118 46.3052 104.083 46.5292 104.013C46.7579 103.938 46.9539 103.859 47.1172 103.775C47.2806 103.691 47.4159 103.614 47.5232 103.544C47.6352 103.469 47.7309 103.432 47.8102 103.432C47.9129 103.432 47.9922 103.472 48.0482 103.551L48.3982 104.006ZM51.2937 103.292C51.5224 103.6 51.772 103.817 52.0427 103.943C52.318 104.069 52.619 104.132 52.9457 104.132C53.613 104.132 54.124 103.896 54.4787 103.425C54.8334 102.954 55.0107 102.251 55.0107 101.318C55.0107 100.45 54.852 99.813 54.5347 99.407C54.222 98.9963 53.774 98.791 53.1907 98.791C52.7847 98.791 52.43 98.8843 52.1267 99.071C51.828 99.2577 51.5504 99.5213 51.2937 99.862V103.292ZM51.2937 98.931C51.5924 98.5857 51.9284 98.3103 52.3017 98.105C52.6797 97.8997 53.1137 97.797 53.6037 97.797C54.019 97.797 54.3924 97.8763 54.7237 98.035C55.0597 98.1937 55.3444 98.4247 55.5777 98.728C55.811 99.0267 55.9884 99.3907 56.1097 99.82C56.2357 100.249 56.2987 100.732 56.2987 101.269C56.2987 101.843 56.2287 102.366 56.0887 102.837C55.9487 103.308 55.7457 103.712 55.4797 104.048C55.2184 104.379 54.8987 104.638 54.5207 104.825C54.1427 105.007 53.718 105.098 53.2467 105.098C52.78 105.098 52.3857 105.012 52.0637 104.839C51.7464 104.662 51.4687 104.412 51.2307 104.09L51.1677 104.734C51.1304 104.911 51.023 105 50.8457 105H50.0407V94.689H51.2937V98.931ZM62.6207 100.681C62.6207 100.392 62.5787 100.128 62.4947 99.89C62.4154 99.6473 62.2964 99.4397 62.1377 99.267C61.9837 99.0897 61.7947 98.9543 61.5707 98.861C61.3467 98.763 61.0924 98.714 60.8077 98.714C60.2104 98.714 59.7367 98.889 59.3867 99.239C59.0414 99.5843 58.8267 100.065 58.7427 100.681H62.6207ZM63.6287 104.006C63.4747 104.193 63.2904 104.356 63.0757 104.496C62.861 104.631 62.63 104.743 62.3827 104.832C62.14 104.921 61.888 104.986 61.6267 105.028C61.3654 105.075 61.1064 105.098 60.8497 105.098C60.3597 105.098 59.907 105.016 59.4917 104.853C59.081 104.685 58.724 104.442 58.4207 104.125C58.122 103.803 57.8887 103.406 57.7207 102.935C57.5527 102.464 57.4687 101.922 57.4687 101.311C57.4687 100.816 57.5434 100.354 57.6927 99.925C57.8467 99.4957 58.066 99.1247 58.3507 98.812C58.6354 98.4947 58.983 98.2473 59.3937 98.07C59.8044 97.888 60.2664 97.797 60.7797 97.797C61.2044 97.797 61.5964 97.8693 61.9557 98.014C62.3197 98.154 62.6324 98.3593 62.8937 98.63C63.1597 98.896 63.3674 99.2273 63.5167 99.624C63.666 100.016 63.7407 100.464 63.7407 100.968C63.7407 101.164 63.7197 101.295 63.6777 101.36C63.6357 101.425 63.5564 101.458 63.4397 101.458H58.7007C58.7147 101.906 58.7754 102.296 58.8827 102.627C58.9947 102.958 59.1487 103.236 59.3447 103.46C59.5407 103.679 59.774 103.845 60.0447 103.957C60.3154 104.064 60.6187 104.118 60.9547 104.118C61.2674 104.118 61.5357 104.083 61.7597 104.013C61.9884 103.938 62.1844 103.859 62.3477 103.775C62.511 103.691 62.6464 103.614 62.7537 103.544C62.8657 103.469 62.9614 103.432 63.0407 103.432C63.1434 103.432 63.2227 103.472 63.2787 103.551L63.6287 104.006ZM62.9497 96.817H62.1167C62.0654 96.817 62.0117 96.8077 61.9557 96.789C61.9044 96.7703 61.853 96.7353 61.8017 96.684L60.9407 95.76C60.8987 95.7227 60.8614 95.6783 60.8287 95.627C60.8054 95.6503 60.7844 95.6737 60.7657 95.697C60.747 95.7203 60.7284 95.7413 60.7097 95.76L59.8417 96.684C59.7437 96.7727 59.6387 96.817 59.5267 96.817H58.6657L60.2267 94.969H61.3887L62.9497 96.817Z" fill="#444444"/>
<path d="M90.8715 47.9526C90.8734 56.2356 88.4188 64.333 83.8183 71.2209C79.2177 78.1087 72.6777 83.4774 65.0256 86.6481C57.3735 89.8187 48.953 90.6488 40.8291 89.0333C32.7052 87.4179 25.2429 83.4294 19.3859 77.5725C13.529 71.7156 9.54054 64.2532 7.92508 56.1293C6.30962 48.0054 7.1397 39.5849 10.3103 31.9328C13.481 24.2807 18.8497 17.7407 25.7376 13.1402C32.6254 8.53958 40.7229 6.08501 49.0058 6.08692C60.1093 6.08692 70.758 10.4977 78.6093 18.3491C86.4607 26.2004 90.8715 36.8491 90.8715 47.9526Z" fill="white"/>
<path d="M33.6079 33.8627C33.9734 34.8245 34.8101 37.075 37.051 37.075H59.566C61.8165 37.075 62.6532 34.8245 63.0091 33.8627L63.163 33.4684C63.6823 32.1027 64.269 30.5831 63.4996 29.4482C63.1761 29.0656 62.7619 28.7701 62.2949 28.5887C61.8279 28.4072 61.3228 28.3456 60.8259 28.4095H35.7623C35.2653 28.3456 34.7603 28.4072 34.2933 28.5887C33.8262 28.7701 33.4121 29.0656 33.0886 29.4482C32.3191 30.5638 32.9058 32.1027 33.4348 33.4684L33.6079 33.8627ZM34.4639 30.3715C34.5312 30.2753 34.8005 30.0349 35.7911 30.0349H60.797C61.7588 30.0349 62.0569 30.2753 62.1243 30.3715C62.4128 30.785 61.9512 31.9969 61.6049 32.8817L61.451 33.2952C60.874 34.8437 60.3354 35.44 59.5275 35.44H37.051C36.2528 35.44 35.7142 34.8437 35.1275 33.2952L34.9832 32.8528C34.6466 31.968 34.185 30.7562 34.4639 30.3426" fill="#444444"/>
<path d="M63.0091 62.0425C62.6918 61.0807 61.8069 58.8206 59.566 58.8206H37.0511C34.8006 58.8206 33.9638 61.0615 33.608 62.0232L33.4541 62.4272C32.9347 63.7833 32.348 65.3125 33.1175 66.4377C33.4382 66.8159 33.8476 67.1087 34.3091 67.29C34.7707 67.4713 35.27 67.5353 35.7623 67.4764H60.7682C61.2659 67.5383 61.7712 67.4748 62.2382 67.2917C62.7051 67.1086 63.1189 66.8118 63.4419 66.4281C64.2114 65.3125 63.6151 63.7736 63.1053 62.4079L63.0091 62.0425ZM62.1532 65.5529C62.0858 65.6587 61.8166 65.8895 60.8259 65.8895H35.7623C34.8006 65.8895 34.5024 65.6587 34.4351 65.5529C34.1466 65.1394 34.6082 63.9275 34.9544 63.0427L35.1083 62.6291C35.6854 61.0903 36.224 60.4844 37.0318 60.4844H59.566C60.3643 60.4844 60.9029 61.0903 61.4896 62.6291L61.6434 63.0427C61.9801 63.9275 62.4417 65.1394 62.1628 65.5529" fill="#444444"/>
<path d="M71.9343 60.3787C71.6304 60.3056 71.3365 60.1958 71.0591 60.0517C69.9526 59.5568 68.953 58.8512 68.1161 57.9743C67.7507 57.6384 67.4659 57.2244 67.2827 56.7631C67.0995 56.3019 67.0228 55.8052 67.0582 55.3102C67.1064 54.9759 67.207 54.6513 67.3563 54.3484C68.0986 52.7831 68.4767 51.07 68.4624 49.3376C68.455 47.912 68.012 46.5227 67.1928 45.3559C66.3953 44.2722 65.3275 43.4166 64.096 42.8745C62.4526 42.1666 60.6709 41.8379 58.8832 41.9128H37.9167C37.8098 41.9115 37.7037 41.9315 37.6046 41.9715C37.5054 42.0115 37.4152 42.0708 37.3392 42.146C37.2632 42.2211 37.2028 42.3106 37.1616 42.4093C37.1204 42.5079 37.0992 42.6138 37.0992 42.7207C37.0992 42.828 37.1203 42.9343 37.1614 43.0335C37.2025 43.1327 37.2627 43.2228 37.3386 43.2987C37.4145 43.3746 37.5047 43.4348 37.6038 43.4759C37.703 43.517 37.8093 43.5382 37.9167 43.5382H58.9409C60.4771 43.4596 62.0107 43.736 63.4227 44.346C64.3909 44.763 65.2331 45.4262 65.8656 46.2696C66.4939 47.1799 66.8294 48.2603 66.8274 49.3665C66.8351 50.8413 66.5061 52.2985 65.8656 53.6271C65.6512 54.0901 65.5085 54.583 65.4424 55.089C65.3781 55.8187 65.4767 56.5537 65.7312 57.2406C65.9857 57.9276 66.3897 58.5494 66.9139 59.0611C67.9025 60.1019 69.081 60.9441 70.3859 61.5424C70.8109 61.7505 71.2599 61.9056 71.7228 62.0041H71.8285C72.033 61.9996 72.2284 61.9186 72.3761 61.7771C72.5238 61.6357 72.6131 61.444 72.6264 61.2399C72.6397 61.0358 72.576 60.8341 72.4478 60.6747C72.3197 60.5153 72.1365 60.4096 71.9343 60.3787Z" fill="#444444"/>
<path d="M37.9167 38.5176C37.6999 38.5176 37.4919 38.6037 37.3386 38.757C37.1853 38.9103 37.0992 39.1183 37.0992 39.3351C37.0992 39.5519 37.1853 39.7598 37.3386 39.9131C37.4919 40.0665 37.6999 40.1526 37.9167 40.1526H58.6908C58.9076 40.1526 59.1156 40.0665 59.2689 39.9131C59.4222 39.7598 59.5083 39.5519 59.5083 39.3351C59.5083 39.1183 59.4222 38.9103 59.2689 38.757C59.1156 38.6037 58.9076 38.5176 58.6908 38.5176H37.9167Z" fill="#444444"/>
<path d="M58.6908 45.2983H37.9167C37.8025 45.2858 37.687 45.2976 37.5777 45.3328C37.4684 45.3679 37.3677 45.4257 37.2823 45.5024C37.1968 45.5791 37.1284 45.6729 37.0816 45.7777C37.0348 45.8826 37.0106 45.9961 37.0106 46.111C37.0106 46.2258 37.0348 46.3393 37.0816 46.4442C37.1284 46.549 37.1968 46.6428 37.2823 46.7195C37.3677 46.7962 37.4684 46.854 37.5777 46.8892C37.687 46.9243 37.8025 46.9361 37.9167 46.9237H58.6908C58.805 46.9361 58.9204 46.9243 59.0297 46.8892C59.1391 46.854 59.2397 46.7962 59.3252 46.7195C59.4107 46.6428 59.479 46.549 59.5258 46.4442C59.5727 46.3393 59.5968 46.2258 59.5968 46.111C59.5968 45.9961 59.5727 45.8826 59.5258 45.7777C59.479 45.6729 59.4107 45.5791 59.3252 45.5024C59.2397 45.4257 59.1391 45.3679 59.0297 45.3328C58.9204 45.2976 58.805 45.2858 58.6908 45.2983Z" fill="#444444"/>
<path d="M58.6908 48.6835H37.9167C37.8025 48.6711 37.687 48.6828 37.5777 48.718C37.4684 48.7532 37.3677 48.811 37.2823 48.8877C37.1968 48.9643 37.1284 49.0581 37.0816 49.163C37.0348 49.2679 37.0106 49.3814 37.0106 49.4962C37.0106 49.611 37.0348 49.7246 37.0816 49.8294C37.1284 49.9343 37.1968 50.0281 37.2823 50.1048C37.3677 50.1814 37.4684 50.2393 37.5777 50.2744C37.687 50.3096 37.8025 50.3213 37.9167 50.3089H58.6908C58.805 50.3213 58.9204 50.3096 59.0297 50.2744C59.1391 50.2393 59.2397 50.1814 59.3252 50.1048C59.4107 50.0281 59.479 49.9343 59.5258 49.8294C59.5727 49.7246 59.5968 49.611 59.5968 49.4962C59.5968 49.3814 59.5727 49.2679 59.5258 49.163C59.479 49.0581 59.4107 48.9643 59.3252 48.8877C59.2397 48.811 59.1391 48.7532 59.0297 48.718C58.9204 48.6828 58.805 48.6711 58.6908 48.6835Z" fill="#444444"/>
<path d="M58.6908 52.0883H37.9167C37.8025 52.0759 37.687 52.0876 37.5777 52.1228C37.4684 52.158 37.3677 52.2158 37.2823 52.2924C37.1968 52.3691 37.1284 52.4629 37.0816 52.5678C37.0348 52.6726 37.0106 52.7862 37.0106 52.901C37.0106 53.0158 37.0348 53.1294 37.0816 53.2342C37.1284 53.3391 37.1968 53.4329 37.2823 53.5096C37.3677 53.5862 37.4684 53.644 37.5777 53.6792C37.687 53.7144 37.8025 53.7261 37.9167 53.7137H58.6908C58.805 53.7261 58.9204 53.7144 59.0297 53.6792C59.1391 53.644 59.2397 53.5862 59.3252 53.5096C59.4107 53.4329 59.479 53.3391 59.5258 53.2342C59.5727 53.1294 59.5968 53.0158 59.5968 52.901C59.5968 52.7862 59.5727 52.6726 59.5258 52.5678C59.479 52.4629 59.4107 52.3691 59.3252 52.2924C59.2397 52.2158 59.1391 52.158 59.0297 52.1228C58.9204 52.0876 58.805 52.0759 58.6908 52.0883Z" fill="#444444"/>
<path d="M58.6908 55.4545H37.9167C37.8025 55.4421 37.687 55.4538 37.5777 55.489C37.4684 55.5242 37.3677 55.582 37.2823 55.6586C37.1968 55.7353 37.1284 55.8291 37.0816 55.934C37.0348 56.0388 37.0106 56.1524 37.0106 56.2672C37.0106 56.382 37.0348 56.4956 37.0816 56.6004C37.1284 56.7053 37.1968 56.7991 37.2823 56.8758C37.3677 56.9524 37.4684 57.0102 37.5777 57.0454C37.687 57.0806 37.8025 57.0923 37.9167 57.0799H58.6908C58.805 57.0923 58.9204 57.0806 59.0297 57.0454C59.1391 57.0102 59.2397 56.9524 59.3252 56.8758C59.4107 56.7991 59.479 56.7053 59.5258 56.6004C59.5727 56.4956 59.5968 56.382 59.5968 56.2672C59.5968 56.1524 59.5727 56.0388 59.5258 55.934C59.479 55.8291 59.4107 55.7353 59.3252 55.6586C59.2397 55.582 59.1391 55.5242 59.0297 55.489C58.9204 55.4538 58.805 55.4421 58.6908 55.4545Z" fill="#444444"/>
<path d="M90.8715 47.9526C90.8734 56.2356 88.4188 64.333 83.8183 71.2209C79.2177 78.1087 72.6777 83.4774 65.0256 86.6481C57.3735 89.8187 48.953 90.6488 40.8291 89.0333C32.7052 87.4179 25.2429 83.4294 19.3859 77.5725C13.529 71.7156 9.54054 64.2532 7.92508 56.1293C6.30962 48.0054 7.1397 39.5849 10.3103 31.9328C13.481 24.2807 18.8497 17.7407 25.7376 13.1402C32.6254 8.53958 40.7229 6.08501 49.0058 6.08692C60.1093 6.08692 70.758 10.4977 78.6093 18.3491C86.4607 26.2004 90.8715 36.8491 90.8715 47.9526Z" fill="white"/>
<path d="M59.9507 37.7678C60.3471 37.4312 60.8402 37.2293 61.3589 37.1913C61.8775 37.1533 62.3948 37.2811 62.836 37.5563C63.5042 37.996 64.2867 38.2301 65.0866 38.2295C66.025 38.2305 66.9314 37.8884 67.6352 37.2677C67.8012 37.1229 67.9034 36.9185 67.9196 36.6988C67.9358 36.4792 67.8647 36.262 67.7218 36.0944C67.5753 35.9278 67.3693 35.8254 67.148 35.8092C66.9268 35.793 66.708 35.8643 66.5388 36.0078C66.1546 36.3385 65.6718 36.5329 65.1656 36.5607C64.6594 36.5885 64.1583 36.4482 63.7401 36.1617C62.9842 35.6806 62.0915 35.4606 61.1986 35.5353C60.3058 35.61 59.462 35.9753 58.7966 36.5752C58.7154 36.6516 58.6502 36.7434 58.6049 36.8453C58.5596 36.9472 58.5352 37.0571 58.533 37.1686C58.5308 37.2801 58.5509 37.3909 58.5922 37.4945C58.6334 37.5981 58.6949 37.6924 58.7731 37.7719C58.8513 37.8513 58.9446 37.9144 59.0475 37.9573C59.1504 38.0002 59.2609 38.0221 59.3724 38.0218C59.4839 38.0214 59.5942 37.9987 59.6968 37.9551C59.7994 37.9115 59.8923 37.8478 59.97 37.7678" fill="#444444"/>
<path d="M56.5556 34.5553C55.315 34.286 53.4395 33.7763 51.4583 33.2377C46.8418 31.9778 41.6098 30.564 39.1284 30.564C36.973 30.5603 34.8717 31.2387 33.1253 32.5019C31.3788 33.7651 30.0767 35.5484 29.4054 37.5966C28.734 39.6448 28.7278 41.8528 29.3877 43.9048C30.0475 45.9567 31.3396 47.7473 33.0789 49.0203C33.0649 49.0998 33.0649 49.1812 33.0789 49.2607C33.454 50.6937 32.4442 55.4064 31.569 57.9166C30.7707 60.1768 31.04 63.5045 32.5884 64.5624C33.454 65.1587 35.4737 65.3799 37.5031 65.3799C39.281 65.4124 41.0565 65.2348 42.7928 64.8509C42.9119 64.8247 43.028 64.786 43.139 64.7355C43.2592 64.6828 43.3657 64.6035 43.4507 64.5035C43.5357 64.4035 43.5968 64.2855 43.6295 64.1585C43.9508 62.659 43.7506 61.0949 43.0621 59.7247C42.2638 57.6858 41.4367 55.5795 44.5143 50.1551C46.6975 49.6454 49.1404 48.9818 51.4294 48.3566C53.4107 47.8181 55.2765 47.3083 56.5268 47.039C56.7125 46.9975 56.8785 46.8938 56.9974 46.7452C57.1163 46.5966 57.181 46.4119 57.1808 46.2215V35.3728C57.181 35.1825 57.1163 34.9978 56.9974 34.8491C56.8785 34.7005 56.7125 34.5969 56.5268 34.5553H56.5556ZM41.5329 60.3114C41.9994 61.2286 42.1993 62.2582 42.1099 63.2832C40.1864 63.7738 34.6274 63.8988 33.5502 63.1582C32.9154 62.7254 32.4826 60.3883 33.1655 58.4456C34.0968 55.741 34.6597 52.9234 34.839 50.0686C36.1794 50.6945 37.6395 51.0226 39.1188 51.0304C40.2223 50.9915 41.3199 50.8531 42.3985 50.6168C39.7728 55.8392 40.7442 58.3109 41.5329 60.3403V60.3114ZM55.5458 45.5291C54.334 45.8176 52.7759 46.2408 51.0159 46.7216C46.7264 47.8854 41.3982 49.3376 39.1284 49.3376C36.9092 49.2632 34.8057 48.3293 33.2621 46.7331C31.7185 45.1369 30.8556 43.0032 30.8556 40.7827C30.8556 38.5622 31.7185 36.4286 33.2621 34.8324C34.8057 33.2362 36.9092 32.3023 39.1284 32.2278C41.3886 32.2278 46.7264 33.6801 51.0159 34.8438C52.7759 35.3247 54.334 35.7479 55.5458 36.0364V45.5291Z" fill="#444444"/>
<path d="M39.1284 35.1804C38.019 35.1785 36.934 35.5058 36.0107 36.1207C35.0873 36.7357 34.3672 37.6107 33.9413 38.6351C33.5154 39.6595 33.403 40.7872 33.6183 41.8755C33.8336 42.9638 34.3668 43.9638 35.1506 44.7489C35.9344 45.5341 36.9335 46.069 38.0214 46.2862C39.1093 46.5033 40.2372 46.3928 41.2623 45.9687C42.2875 45.5446 43.1637 44.8259 43.7803 43.9037C44.3968 42.9814 44.7259 41.8969 44.7259 40.7875C44.7259 39.3021 44.1365 37.8774 43.087 36.8261C42.0376 35.7748 40.6139 35.183 39.1284 35.1804ZM39.1284 44.7211C38.3504 44.7211 37.5899 44.4904 36.943 44.0582C36.2961 43.626 35.792 43.0116 35.4942 42.2929C35.1965 41.5741 35.1186 40.7832 35.2704 40.0201C35.4222 39.2571 35.7968 38.5562 36.3469 38.006C36.8971 37.4559 37.598 37.0813 38.361 36.9295C39.1241 36.7777 39.915 36.8556 40.6338 37.1533C41.3525 37.4511 41.9669 37.9552 42.3991 38.6021C42.8314 39.249 43.0621 40.0095 43.0621 40.7875C43.0621 41.8308 42.6476 42.8313 41.9099 43.569C41.1722 44.3067 40.1717 44.7211 39.1284 44.7211Z" fill="#444444"/>
<path d="M68.8567 39.768C68.6985 39.6135 68.4862 39.527 68.2652 39.527C68.0441 39.527 67.8318 39.6135 67.6737 39.768C67.2589 40.2366 66.6766 40.5234 66.0523 40.5666C65.428 40.6098 64.8117 40.4059 64.3364 39.9989C63.4944 39.3475 62.4358 39.0416 61.3761 39.1435C60.3165 39.2453 59.3356 39.7473 58.6331 40.5471C58.4902 40.7147 58.4191 40.9319 58.4353 41.1515C58.4515 41.3712 58.5537 41.5756 58.7196 41.7204C58.8888 41.8639 59.1076 41.9352 59.3288 41.919C59.5501 41.9029 59.7561 41.8005 59.9026 41.6339C60.3315 41.1672 60.919 40.8771 61.5503 40.8202C62.1816 40.7633 62.8114 40.9437 63.3169 41.3261C64.0625 41.9202 64.98 42.2575 65.9329 42.2879C66.4843 42.2816 67.0287 42.1632 67.5329 41.94C68.0372 41.7168 68.4908 41.3934 68.8663 40.9895C69.0208 40.8314 69.1073 40.6191 69.1073 40.398C69.1073 40.1769 69.0208 39.9646 68.8663 39.8065" fill="#444444"/>
<path d="M66.5389 44.0287C66.1558 44.3608 65.6735 44.557 65.1674 44.5865C64.6612 44.6161 64.1594 44.4775 63.7402 44.1922C62.9854 43.708 62.092 43.4861 61.1983 43.5608C60.3047 43.6356 59.4606 44.0029 58.7967 44.6058C58.7193 44.6826 58.658 44.774 58.6161 44.8747C58.5742 44.9754 58.5526 45.0834 58.5526 45.1924C58.5526 45.3015 58.5742 45.4095 58.6161 45.5102C58.658 45.6108 58.7193 45.7022 58.7967 45.7791C58.9536 45.9359 59.1663 46.024 59.3882 46.024C59.61 46.024 59.8228 45.9359 59.9797 45.7791C60.375 45.4398 60.8692 45.2369 61.3889 45.2006C61.9086 45.1642 62.4262 45.2962 62.865 45.5771C63.5399 46.0088 64.324 46.239 65.1251 46.2408C66.0602 46.2394 66.9628 45.8975 67.6642 45.279C67.83 45.1298 67.9297 44.9208 67.9414 44.6981C67.9532 44.4753 67.8759 44.257 67.7267 44.0912C67.5775 43.9254 67.3685 43.8257 67.1457 43.814C66.923 43.8022 66.7047 43.8795 66.5389 44.0287Z" fill="#444444"/>
<path d="M90.8715 47.9526C90.8734 56.2356 88.4188 64.333 83.8183 71.2209C79.2177 78.1087 72.6777 83.4774 65.0256 86.6481C57.3735 89.8187 48.953 90.6488 40.8291 89.0333C32.7052 87.4179 25.2429 83.4294 19.3859 77.5725C13.529 71.7156 9.54054 64.2532 7.92508 56.1293C6.30962 48.0054 7.1397 39.5849 10.3103 31.9328C13.481 24.2807 18.8497 17.7407 25.7376 13.1402C32.6254 8.53958 40.7229 6.08501 49.0058 6.08692C60.1093 6.08692 70.758 10.4977 78.6093 18.3491C86.4607 26.2004 90.8715 36.8491 90.8715 47.9526Z" fill="white"/>
<path d="M44.2162 59.6765C43.706 59.6746 43.2067 59.8242 42.7816 60.1062C42.3564 60.3883 42.0246 60.7902 41.828 61.261C41.6314 61.7318 41.579 62.2504 41.6774 62.751C41.7758 63.2516 42.0205 63.7118 42.3806 64.0732C42.7407 64.4347 43.1999 64.6811 43.7002 64.7813C44.2004 64.8816 44.7192 64.8311 45.1907 64.6363C45.6622 64.4415 46.0654 64.1111 46.349 63.6871C46.6327 63.263 46.7841 62.7643 46.7841 62.2541C46.7841 61.5721 46.5139 60.918 46.0326 60.4349C45.5512 59.9518 44.8981 59.6791 44.2162 59.6765ZM44.2162 63.187C44.026 63.187 43.84 63.1306 43.6818 63.0249C43.5237 62.9192 43.4004 62.769 43.3276 62.5933C43.2548 62.4175 43.2358 62.2241 43.2729 62.0376C43.31 61.851 43.4016 61.6796 43.5361 61.5451C43.6706 61.4106 43.842 61.319 44.0285 61.2819C44.2151 61.2448 44.4085 61.2639 44.5842 61.3367C44.76 61.4095 44.9102 61.5327 45.0159 61.6909C45.1215 61.849 45.1779 62.035 45.1779 62.2252C45.1779 62.4803 45.0766 62.7249 44.8962 62.9053C44.7159 63.0857 44.4713 63.187 44.2162 63.187Z" fill="#444444"/>
<path d="M62.4224 64.822C62.9326 64.8239 63.4319 64.6744 63.857 64.3923C64.2821 64.1103 64.614 63.7084 64.8106 63.2376C65.0071 62.7668 65.0596 62.2482 64.9612 61.7476C64.8628 61.247 64.6181 60.7868 64.258 60.4253C63.8979 60.0639 63.4387 59.8175 62.9384 59.7172C62.4382 59.617 61.9194 59.6675 61.4479 59.8623C60.9763 60.0571 60.5732 60.3874 60.2896 60.8115C60.0059 61.2356 59.8545 61.7343 59.8545 62.2445C59.8545 62.9265 60.1247 63.5806 60.606 64.0637C61.0873 64.5468 61.7405 64.8195 62.4224 64.822ZM62.4224 61.3116C62.6126 61.3116 62.7986 61.368 62.9567 61.4737C63.1149 61.5794 63.2382 61.7296 63.311 61.9053C63.3838 62.0811 63.4028 62.2744 63.3657 62.461C63.3286 62.6476 63.237 62.8189 63.1025 62.9534C62.968 63.0879 62.7966 63.1795 62.61 63.2166C62.4235 63.2538 62.2301 63.2347 62.0544 63.1619C61.8786 63.0891 61.7284 62.9659 61.6227 62.8077C61.517 62.6495 61.4606 62.4636 61.4606 62.2734C61.4606 62.0183 61.562 61.7737 61.7423 61.5933C61.9227 61.4129 62.1673 61.3116 62.4224 61.3116Z" fill="#444444"/>
<path d="M68.924 44.6057C68.9479 44.4948 68.9479 44.38 68.924 44.2691C68.948 44.1614 68.948 44.0498 68.924 43.9421C68.3565 36.1037 63.0668 29.6695 56.0555 28.2846C55.8468 28.2439 55.6305 28.2851 55.4514 28.3997C55.2723 28.5144 55.1442 28.6936 55.0938 28.9001L51.6891 43.7209H39.1862C39.1551 42.0151 38.5522 40.3691 37.4742 39.0467C36.575 38.1231 35.4007 37.5157 34.1273 37.3156C34.0225 36.7123 33.7064 36.166 33.2356 35.7745C32.7648 35.383 32.17 35.172 31.5577 35.1791C30.9454 35.1862 30.3557 35.4111 29.8941 35.8134C29.4325 36.2158 29.1293 36.7693 29.0386 37.3749C28.948 37.9804 29.0758 38.5985 29.3994 39.1183C29.7229 39.6382 30.2209 40.0259 30.8043 40.212C31.3876 40.3981 32.0182 40.3705 32.583 40.1341C33.1478 39.8977 33.61 39.4679 33.8868 38.9217C34.7905 39.0682 35.625 39.4955 36.272 40.1431C37.2548 41.3951 37.7564 42.9579 37.6858 44.548V44.7981C37.6713 44.8711 37.6713 44.9463 37.6858 45.0193C37.9495 47.5389 38.823 49.9564 40.2306 52.0628C41.6382 54.1692 43.5376 55.9011 45.7646 57.1087C44.4803 56.7219 43.0974 56.8328 41.8911 57.4193C40.6848 58.0059 39.7436 59.0251 39.2547 60.2742C38.7658 61.5233 38.7651 62.9106 39.2527 64.1602C39.7403 65.4098 40.6806 66.43 41.8863 67.0177C43.092 67.6055 44.4748 67.7178 45.7595 67.3323C47.0443 66.9467 48.1368 66.0916 48.8196 64.9371C49.5025 63.7826 49.7256 62.4133 49.4447 61.1017C49.1638 59.7901 48.3993 58.6324 47.3035 57.8589C49.1935 58.6297 51.2156 59.025 53.2568 59.0226C55.5192 59.0257 57.7547 58.5332 59.8064 57.58C58.6748 58.215 57.8132 59.2405 57.3829 60.4647C56.9526 61.6889 56.9829 63.028 57.4683 64.2314C57.9536 65.4349 58.8608 66.4203 60.02 67.0034C61.1792 67.5865 62.5112 67.7274 63.7668 67.3996C65.0224 67.0719 66.1155 66.298 66.8419 65.2227C67.5682 64.1474 67.878 62.8443 67.7132 61.5572C67.5485 60.27 66.9205 59.087 65.9467 58.2293C64.9729 57.3716 63.7201 56.898 62.4224 56.8971C61.764 56.8968 61.1114 57.0208 60.4989 57.2626C62.8465 56.0349 64.8466 54.2351 66.3142 52.0295C67.7818 49.8239 68.6695 47.2838 68.8951 44.6442L68.924 44.6057ZM31.6555 38.7005C31.4653 38.7005 31.2794 38.6441 31.1212 38.5384C30.963 38.4327 30.8398 38.2825 30.767 38.1068C30.6942 37.931 30.6751 37.7377 30.7123 37.5511C30.7494 37.3645 30.841 37.1932 30.9755 37.0587C31.11 36.9242 31.2813 36.8326 31.4679 36.7954C31.6545 36.7583 31.8479 36.7774 32.0236 36.8502C32.1993 36.923 32.3495 37.0462 32.4552 37.2044C32.5609 37.3626 32.6173 37.5485 32.6173 37.7387C32.6173 37.9938 32.516 38.2384 32.3356 38.4188C32.1552 38.5992 31.9106 38.7005 31.6555 38.7005ZM56.5076 30.0446C62.2782 31.5642 66.6446 37.0463 67.2601 43.7017H53.3626L56.5076 30.0446ZM47.9767 62.2445C47.9786 62.9887 47.7597 63.7167 47.3476 64.3364C46.9356 64.956 46.3489 65.4395 45.662 65.7256C44.975 66.0117 44.2186 66.0876 43.4885 65.9436C42.7584 65.7995 42.0874 65.4422 41.5605 64.9166C41.0337 64.3911 40.6746 63.721 40.5287 62.9913C40.3828 62.2616 40.4567 61.505 40.741 60.8173C41.0254 60.1296 41.5074 59.5417 42.126 59.1281C42.7446 58.7144 43.472 58.4936 44.2162 58.4936C45.2111 58.4962 46.1647 58.8918 46.8691 59.5945C47.5735 60.2971 47.9716 61.2496 47.9767 62.2445ZM62.4032 58.4936C63.1474 58.4936 63.8748 58.7144 64.4934 59.1281C65.112 59.5417 65.594 60.1296 65.8784 60.8173C66.1627 61.505 66.2366 62.2616 66.0907 62.9913C65.9448 63.721 65.5857 64.3911 65.0589 64.9166C64.532 65.4422 63.861 65.7995 63.1309 65.9436C62.4008 66.0876 61.6444 66.0117 60.9574 65.7256C60.2705 65.4395 59.6838 64.956 59.2718 64.3364C58.8597 63.7167 58.6408 62.9887 58.6427 62.2445C58.6452 61.2488 59.0426 60.2948 59.7475 59.5917C60.4525 58.8885 61.4075 58.4936 62.4032 58.4936ZM53.2568 57.3972C49.8767 57.407 46.6072 56.1931 44.0526 53.9797C41.498 51.7663 39.8309 48.703 39.3593 45.3559H67.1928C66.6942 48.6946 65.0166 51.7444 62.4638 53.9532C59.911 56.162 56.6517 57.3837 53.276 57.3972" fill="#444444"/>
<path d="M90.8715 47.9526C90.8734 56.2356 88.4188 64.333 83.8182 71.2209C79.2177 78.1087 72.6777 83.4774 65.0256 86.6481C57.3735 89.8187 48.953 90.6488 40.8291 89.0333C32.7052 87.4179 25.2429 83.4294 19.3859 77.5725C13.529 71.7156 9.54054 64.2532 7.92508 56.1293C6.30962 48.0054 7.1397 39.5849 10.3103 31.9328C13.481 24.2807 18.8497 17.7407 25.7375 13.1402C32.6254 8.53958 40.7229 6.08501 49.0058 6.08692C60.1093 6.08692 70.758 10.4977 78.6093 18.3491C86.4607 26.2004 90.8715 36.8491 90.8715 47.9526Z" fill="white"/>
<path d="M44.2162 59.6765C43.706 59.6746 43.2067 59.8242 42.7816 60.1062C42.3564 60.3883 42.0246 60.7902 41.828 61.261C41.6314 61.7318 41.579 62.2504 41.6774 62.751C41.7758 63.2516 42.0205 63.7118 42.3806 64.0732C42.7407 64.4347 43.1999 64.6811 43.7002 64.7813C44.2004 64.8816 44.7192 64.8311 45.1907 64.6363C45.6622 64.4415 46.0654 64.1111 46.349 63.6871C46.6327 63.263 46.7841 62.7643 46.7841 62.2541C46.7841 61.5721 46.5139 60.918 46.0325 60.4349C45.5512 59.9518 44.8981 59.6791 44.2162 59.6765ZM44.2162 63.187C44.026 63.187 43.84 63.1306 43.6818 63.0249C43.5237 62.9192 43.4004 62.769 43.3276 62.5933C43.2548 62.4175 43.2358 62.2241 43.2729 62.0376C43.31 61.851 43.4016 61.6796 43.5361 61.5451C43.6706 61.4106 43.842 61.319 44.0285 61.2819C44.2151 61.2448 44.4085 61.2639 44.5842 61.3367C44.76 61.4095 44.9102 61.5327 45.0159 61.6909C45.1215 61.849 45.1779 62.035 45.1779 62.2252C45.1779 62.4803 45.0766 62.7249 44.8962 62.9053C44.7159 63.0857 44.4713 63.187 44.2162 63.187Z" fill="#444444"/>
<path d="M62.4224 64.822C62.9326 64.8239 63.4319 64.6744 63.857 64.3923C64.2822 64.1103 64.614 63.7084 64.8106 63.2376C65.0071 62.7668 65.0596 62.2482 64.9612 61.7476C64.8628 61.247 64.6181 60.7868 64.258 60.4253C63.8979 60.0639 63.4387 59.8175 62.9384 59.7172C62.4382 59.617 61.9194 59.6675 61.4479 59.8623C60.9763 60.0571 60.5732 60.3874 60.2896 60.8115C60.0059 61.2356 59.8545 61.7343 59.8545 62.2445C59.8545 62.9265 60.1247 63.5806 60.606 64.0637C61.0873 64.5468 61.7405 64.8195 62.4224 64.822ZM62.4224 61.3116C62.6126 61.3116 62.7986 61.368 62.9567 61.4737C63.1149 61.5794 63.2382 61.7296 63.311 61.9053C63.3838 62.0811 63.4028 62.2744 63.3657 62.461C63.3286 62.6476 63.237 62.8189 63.1025 62.9534C62.968 63.0879 62.7966 63.1795 62.61 63.2166C62.4235 63.2538 62.2301 63.2347 62.0544 63.1619C61.8786 63.0891 61.7284 62.9659 61.6227 62.8077C61.517 62.6495 61.4606 62.4636 61.4606 62.2734C61.4606 62.0183 61.562 61.7737 61.7423 61.5933C61.9227 61.4129 62.1673 61.3116 62.4224 61.3116Z" fill="#444444"/>
<path d="M68.924 44.6057C68.9479 44.4948 68.9479 44.3801 68.924 44.2691C68.948 44.1614 68.948 44.0498 68.924 43.9421C68.3565 36.1037 63.0668 29.6695 56.0555 28.2846C55.8468 28.2439 55.6305 28.2851 55.4514 28.3997C55.2723 28.5144 55.1442 28.6936 55.0938 28.9001L51.6891 43.7209H39.1862C39.1551 42.0151 38.5522 40.3691 37.4742 39.0467C36.575 38.1231 35.4007 37.5157 34.1273 37.3156C34.0225 36.7123 33.7064 36.166 33.2356 35.7745C32.7648 35.383 32.17 35.172 31.5577 35.1791C30.9454 35.1862 30.3557 35.4111 29.8941 35.8134C29.4325 36.2158 29.1293 36.7693 29.0386 37.3749C28.948 37.9804 29.0758 38.5985 29.3994 39.1183C29.7229 39.6382 30.2209 40.0259 30.8043 40.212C31.3876 40.3981 32.0182 40.3705 32.583 40.1341C33.1478 39.8977 33.61 39.4679 33.8868 38.9217C34.7905 39.0682 35.625 39.4955 36.272 40.1431C37.2548 41.3951 37.7564 42.9579 37.6858 44.548V44.7981C37.6713 44.8711 37.6713 44.9463 37.6858 45.0193C37.9495 47.5389 38.823 49.9564 40.2306 52.0628C41.6382 54.1692 43.5376 55.9011 45.7646 57.1087C44.4803 56.7219 43.0974 56.8328 41.8911 57.4193C40.6848 58.0059 39.7435 59.0251 39.2547 60.2742C38.7658 61.5233 38.7651 62.9106 39.2527 64.1602C39.7403 65.4098 40.6805 66.43 41.8863 67.0177C43.092 67.6055 44.4748 67.7178 45.7595 67.3323C47.0442 66.9467 48.1367 66.0916 48.8196 64.9371C49.5025 63.7826 49.7256 62.4133 49.4447 61.1017C49.1638 59.7901 48.3993 58.6324 47.3035 57.8589C49.1935 58.6297 51.2156 59.025 53.2568 59.0226C55.5191 59.0257 57.7547 58.5332 59.8064 57.58C58.6748 58.215 57.8132 59.2405 57.3829 60.4647C56.9526 61.6889 56.9829 63.028 57.4683 64.2314C57.9536 65.4349 58.8608 66.4203 60.02 67.0034C61.1792 67.5865 62.5112 67.7274 63.7668 67.3997C65.0223 67.0719 66.1155 66.298 66.8419 65.2227C67.5682 64.1474 67.878 62.8443 67.7132 61.5572C67.5485 60.2701 66.9205 59.087 65.9467 58.2293C64.9729 57.3716 63.7201 56.898 62.4224 56.8971C61.764 56.8968 61.1114 57.0208 60.4989 57.2626C62.8465 56.0349 64.8466 54.2351 66.3142 52.0295C67.7818 49.8239 68.6695 47.2838 68.8951 44.6442L68.924 44.6057ZM31.6555 38.7005C31.4653 38.7005 31.2794 38.6441 31.1212 38.5384C30.963 38.4327 30.8398 38.2825 30.767 38.1068C30.6942 37.931 30.6751 37.7377 30.7123 37.5511C30.7494 37.3645 30.841 37.1932 30.9755 37.0587C31.11 36.9242 31.2813 36.8326 31.4679 36.7954C31.6545 36.7583 31.8478 36.7774 32.0236 36.8502C32.1993 36.923 32.3495 37.0462 32.4552 37.2044C32.5609 37.3626 32.6173 37.5485 32.6173 37.7387C32.6173 37.9938 32.516 38.2384 32.3356 38.4188C32.1552 38.5992 31.9106 38.7005 31.6555 38.7005ZM56.5076 30.0446C62.2782 31.5642 66.6446 37.0463 67.2601 43.7017H53.3626L56.5076 30.0446ZM47.9767 62.2445C47.9786 62.9887 47.7597 63.7167 47.3476 64.3364C46.9356 64.956 46.3489 65.4395 45.662 65.7256C44.975 66.0117 44.2186 66.0876 43.4885 65.9436C42.7584 65.7995 42.0874 65.4422 41.5605 64.9166C41.0337 64.3911 40.6745 63.7211 40.5287 62.9913C40.3828 62.2616 40.4567 61.505 40.741 60.8173C41.0254 60.1296 41.5074 59.5417 42.126 59.1281C42.7446 58.7144 43.472 58.4936 44.2162 58.4936C45.2111 58.4962 46.1647 58.8918 46.8691 59.5945C47.5735 60.2971 47.9716 61.2496 47.9767 62.2445ZM62.4032 58.4936C63.1474 58.4936 63.8748 58.7144 64.4934 59.1281C65.112 59.5417 65.594 60.1296 65.8784 60.8173C66.1627 61.505 66.2366 62.2616 66.0907 62.9913C65.9448 63.7211 65.5857 64.3911 65.0588 64.9166C64.532 65.4422 63.861 65.7995 63.1309 65.9436C62.4008 66.0876 61.6444 66.0117 60.9574 65.7256C60.2705 65.4395 59.6838 64.956 59.2718 64.3364C58.8597 63.7167 58.6408 62.9887 58.6427 62.2445C58.6452 61.2488 59.0426 60.2948 59.7475 59.5917C60.4525 58.8885 61.4075 58.4936 62.4032 58.4936ZM53.2568 57.3972C49.8767 57.4071 46.6072 56.1931 44.0526 53.9797C41.498 51.7663 39.8309 48.703 39.3593 45.3559H67.1928C66.6942 48.6946 65.0166 51.7444 62.4638 53.9532C59.911 56.162 56.6517 57.3837 53.276 57.3972" fill="#444444"/>
</svg>
