<svg width="81" height="108" viewBox="0 0 81 108" fill="none" xmlns="http://www.w3.org/2000/svg">
<path d="M78.2763 40.0001C78.2781 47.5381 76.0442 54.9074 71.8574 61.1758C67.6705 67.4442 61.7187 72.3302 54.7548 75.2156C47.7909 78.1011 40.1276 78.8566 32.7343 77.3864C25.341 75.9162 18.5497 72.2865 13.2195 66.9562C7.88928 61.626 4.25953 54.8348 2.78935 47.4415C1.31917 40.0481 2.0746 32.3849 4.96009 25.4209C7.84559 18.457 12.7315 12.5052 18.9999 8.31836C25.2683 4.13151 32.6376 1.89768 40.1757 1.89942C50.2806 1.89942 59.9716 5.91358 67.1169 13.0588C74.2622 20.2041 78.2763 29.8951 78.2763 40.0001Z" fill="white"/>
<path d="M40.1929 41.3316C43.8603 41.3316 46.845 39.1434 46.845 36.4563C46.827 35.8464 46.6749 35.2479 46.3996 34.7033C46.1243 34.1587 45.7325 33.6815 45.252 33.3053C45.4828 33.0535 45.6163 32.7277 45.6284 32.3863C45.6222 32.0401 45.4933 31.7073 45.2646 31.4472C45.036 31.1872 44.7224 31.0167 44.3798 30.9663C44.0372 30.9159 43.6879 30.9887 43.394 31.1718C43.1001 31.3549 42.8807 31.6364 42.775 31.9662C41.1141 31.4642 39.3418 31.4642 37.6809 31.9662C37.5806 31.6318 37.3633 31.3448 37.0688 31.1575C36.7743 30.9703 36.4222 30.8953 36.0769 30.9463C35.7316 30.9973 35.4163 31.1708 35.1885 31.4353C34.9606 31.6997 34.8356 32.0373 34.8363 32.3863C34.8455 32.7071 34.9627 33.0155 35.1689 33.2616C34.6884 33.6377 34.2966 34.115 34.0213 34.6595C33.746 35.2041 33.5939 35.8026 33.5759 36.4125C33.5759 39.0996 36.5606 41.2878 40.2279 41.2878L40.1929 41.3316ZM40.2279 33.034C43.0288 33.034 45.4008 34.5832 45.4008 36.4125C45.4008 38.0843 43.4314 39.5023 40.9719 39.7473V36.8589C41.961 36.7451 42.8275 36.36 42.8275 35.5635C42.8275 34.5745 41.4796 34.2244 40.2017 34.2244C38.9238 34.2244 37.5759 34.5745 37.5759 35.5635C37.5759 36.36 38.4511 36.7451 39.4227 36.8589V39.7473C36.9632 39.5023 35.0463 38.0843 35.0463 36.4125C35.0463 34.5832 37.4096 33.034 40.2104 33.034" fill="#444444"/>
<path d="M55.4928 47.4572C54.7423 46.8468 53.8295 46.4695 52.867 46.3719C53.0296 45.663 53.0055 44.9241 52.797 44.2274C52.4321 42.9409 51.7965 41.7472 50.9326 40.7263C50.5775 40.3012 50.185 39.9086 49.7598 39.5535C51.4004 37.6765 52.3107 35.2717 52.3243 32.7789C52.3256 32.2603 52.2876 31.7424 52.2105 31.2296C52.9544 31.132 53.662 30.8499 54.2691 30.409C54.8761 29.9681 55.3632 29.3824 55.6861 28.7052C56.009 28.028 56.1574 27.2808 56.1178 26.5317C56.0783 25.7825 55.852 25.0551 55.4595 24.4156C55.0671 23.7762 54.521 23.2451 53.8709 22.8706C53.2208 22.4961 52.4874 22.2902 51.7374 22.2714C50.9874 22.2527 50.2446 22.4219 49.5766 22.7635C48.9087 23.1051 48.3368 23.6084 47.913 24.2274C45.6796 22.5957 42.9852 21.7163 40.2193 21.7163C37.4533 21.7163 34.759 22.5957 32.5256 24.2274C32.1018 23.6084 31.5299 23.1051 30.862 22.7635C30.194 22.4219 29.4512 22.2527 28.7012 22.2714C27.9512 22.2902 27.2178 22.4961 26.5677 22.8706C25.9176 23.2451 25.3715 23.7762 24.9791 24.4156C24.5866 25.0551 24.3603 25.7825 24.3207 26.5317C24.2812 27.2808 24.4296 28.028 24.7525 28.7052C25.0754 29.3824 25.5625 29.9681 26.1695 30.409C26.7765 30.8499 27.4842 31.132 28.228 31.2296C28.1517 31.7571 28.1166 32.2897 28.123 32.8226C28.1367 35.3155 29.047 37.7202 30.6876 39.5972C30.2645 39.9547 29.8721 40.347 29.5147 40.7701C28.6542 41.7932 28.0189 42.9862 27.6504 44.2712C27.4377 44.9828 27.4196 45.7384 27.5979 46.4594C26.5655 46.5477 25.5878 46.9614 24.8057 47.641C24.3522 48.0569 23.9926 48.5649 23.7511 49.1309C23.5096 49.697 23.3917 50.308 23.4053 50.9233C23.4622 51.9088 23.7253 52.8715 24.1776 53.749C24.6299 54.6265 25.2614 55.3993 26.0311 56.0174C27.5657 57.3895 29.5398 58.1686 31.5979 58.2143C32.6315 58.2328 33.6498 57.963 34.5388 57.4353C35.9655 58.1355 38.3112 58.2406 40.228 58.2406C42.1449 58.2406 44.5081 58.1443 45.9436 57.4441C46.8244 57.9943 47.8461 58.2771 48.8845 58.2581C51.0063 58.2093 53.0342 57.3732 54.5738 55.9123C55.3214 55.263 55.9242 54.4639 56.3434 53.5668C56.7626 52.6696 56.9886 51.6945 57.007 50.7045C57.0013 50.089 56.8658 49.4817 56.6094 48.9221C56.353 48.3626 55.9815 47.8634 55.5191 47.4572H55.4928ZM49.7948 41.7242C50.5081 42.5762 51.0331 43.5695 51.3353 44.6388C51.4526 44.9179 51.5071 45.2194 51.495 45.5219C51.4829 45.8244 51.4045 46.1205 51.2652 46.3894C50.4338 46.4928 49.6225 46.7199 48.8582 47.0633C48.7182 46.5294 48.5519 45.9167 48.4819 45.6979C48.268 45.0246 48.0017 44.369 47.6854 43.7373C47.4098 43.18 47.0969 42.642 46.7488 42.1268C47.4495 41.7196 48.1065 41.2415 48.7094 40.7001C49.0995 41.017 49.4572 41.3717 49.7773 41.7592L49.7948 41.7242ZM29.5672 32.8226C29.5671 32.1171 29.6553 31.4143 29.8298 30.7307C29.8565 30.6166 29.8561 30.4978 29.8287 30.3838C29.8014 30.2699 29.7478 30.1639 29.6722 30.0743C29.6015 29.9926 29.5141 29.927 29.416 29.8817C29.318 29.8365 29.2114 29.8126 29.1033 29.8117H29.0421C28.4862 29.853 27.9297 29.7392 27.4347 29.483C26.9397 29.2267 26.5255 28.8381 26.2383 28.3604C25.9511 27.8827 25.8021 27.3346 25.808 26.7772C25.8139 26.2198 25.9744 25.675 26.2717 25.2035C26.5689 24.7319 26.9912 24.3521 27.4915 24.1064C27.9919 23.8607 28.5506 23.7587 29.1055 23.8118C29.6604 23.8648 30.1896 24.0709 30.6343 24.407C31.079 24.7431 31.4216 25.1961 31.6241 25.7154C31.6678 25.8269 31.7374 25.9263 31.8272 26.0055C31.9171 26.0846 32.0245 26.1412 32.1405 26.1705C32.2567 26.1968 32.3774 26.1954 32.4929 26.1665C32.6084 26.1376 32.7156 26.082 32.8057 26.0042C34.8815 24.2365 37.519 23.2656 40.2456 23.2656C42.9721 23.2656 45.6096 24.2365 47.6854 26.0042C47.7755 26.082 47.8827 26.1376 47.9982 26.1665C48.1137 26.1954 48.2344 26.1968 48.3506 26.1705C48.4667 26.1412 48.5741 26.0846 48.6639 26.0055C48.7537 25.9263 48.8233 25.8269 48.867 25.7154C49.1282 25.0671 49.6062 24.5294 50.2195 24.1941C50.8328 23.8588 51.5434 23.7467 52.2301 23.8768C52.9169 24.0069 53.5372 24.3712 53.9854 24.9076C54.4335 25.444 54.6817 26.1193 54.6876 26.8182C54.6816 27.2345 54.5905 27.6451 54.4197 28.0248C54.2488 28.4044 54.002 28.745 53.6944 29.0255C53.3868 29.306 53.025 29.5205 52.6313 29.6557C52.2376 29.7909 51.8203 29.844 51.4053 29.8117C51.2871 29.8041 51.1688 29.8238 51.0595 29.8693C50.9502 29.9149 50.8529 29.985 50.7751 30.0743C50.7004 30.1643 50.6481 30.2706 50.6222 30.3847C50.5964 30.4988 50.5978 30.6173 50.6263 30.7307C50.7936 31.4155 50.8788 32.1177 50.8801 32.8226C50.8801 38.0743 46.1099 42.3719 40.2543 42.3719C34.3987 42.3719 29.5672 38.0918 29.5672 32.8226ZM29.0508 44.6388C29.3642 43.5766 29.8981 42.5924 30.6175 41.7504C30.9399 41.3651 31.2974 41.0105 31.6854 40.6913C32.2901 41.2305 32.9469 41.7085 33.646 42.118C33.298 42.6332 32.9851 43.1713 32.7094 43.7285C32.3969 44.3619 32.1307 45.0172 31.913 45.6891C31.8429 45.8992 31.6766 46.5644 31.5366 47.0633C30.7799 46.7243 29.9779 46.4973 29.1558 46.3894C29.1558 46.3894 29.1558 46.3894 29.1558 46.3368C29.0166 46.068 28.9381 45.7719 28.926 45.4694C28.9139 45.1669 28.9685 44.8654 29.0858 44.5863L29.0508 44.6388ZM34.1624 55.7986C32.5081 57.2953 29.2871 56.8576 26.9852 54.8358C26.3811 54.3498 25.8836 53.7446 25.5237 53.0579C25.1638 52.3712 24.9492 51.6178 24.8933 50.8445C24.8734 50.4409 24.9414 50.0378 25.0925 49.663C25.2436 49.2883 25.4742 48.9508 25.7685 48.6738C26.49 48.0704 27.4109 47.7582 28.3506 47.7986C30.05 47.8508 31.6756 48.5053 32.937 49.6454C33.54 50.133 34.0372 50.7384 34.3984 51.4247C34.7596 52.1109 34.9771 52.8635 35.0377 53.6366C35.0531 54.041 34.9831 54.4441 34.8323 54.8196C34.6815 55.1952 34.4532 55.5347 34.1624 55.8161V55.7986ZM40.2368 56.6913C38.7222 56.7391 37.2076 56.595 35.7291 56.2624C36.2786 55.4984 36.5671 54.5776 36.5519 53.6366C36.495 52.6511 36.2319 51.6884 35.7796 50.8109C35.3273 49.9334 34.6958 49.1607 33.9261 48.5425C33.6012 48.2581 33.256 47.9977 32.8933 47.7635C33.0421 47.1859 33.2609 46.3281 33.3309 46.118C33.5281 45.5181 33.7679 44.9331 34.0486 44.3675C34.3203 43.8137 34.6333 43.2812 34.9852 42.7745C36.6296 43.4962 38.4059 43.8689 40.2018 43.8689C41.9976 43.8689 43.774 43.4962 45.4184 42.7745C45.7664 43.2836 46.0793 43.8158 46.355 44.3675C46.6356 44.9331 46.8755 45.5181 47.0727 46.118C47.1427 46.3281 47.3615 47.1859 47.5103 47.7635C47.1112 48.0247 46.7337 48.3174 46.3812 48.6388C45.6252 49.2778 45.0117 50.0685 44.5805 50.9595C44.1493 51.8506 43.9099 52.8223 43.8779 53.8117C43.8897 54.693 44.1673 55.5503 44.6744 56.2712C43.1993 56.6067 41.6876 56.7538 40.1755 56.7088L40.2368 56.6913ZM53.5059 54.7832C51.2565 56.8664 48.053 57.4091 46.3637 55.9386C46.0556 55.6714 45.8092 55.3405 45.6415 54.9687C45.4737 54.597 45.3887 54.1932 45.3922 53.7854C45.4285 53.0112 45.6236 52.2527 45.9654 51.5571C46.3072 50.8615 46.7884 50.2435 47.379 49.7417C48.6423 48.5323 50.3054 47.8285 52.053 47.7635C52.9482 47.7302 53.8251 48.0225 54.5213 48.5863C54.8337 48.8556 55.0828 49.1906 55.2507 49.5674C55.4187 49.9441 55.5014 50.3533 55.4928 50.7657C55.4514 51.5351 55.2539 52.2881 54.9124 52.9787C54.5708 53.6694 54.0923 54.2833 53.5059 54.7832Z" fill="#444444"/>
<path d="M9.47265 101.922C9.85999 101.922 10.1937 101.878 10.4737 101.789C10.7537 101.7 10.9823 101.577 11.1597 101.418C11.3417 101.255 11.4747 101.063 11.5587 100.844C11.6427 100.62 11.6847 100.375 11.6847 100.109C11.6847 99.591 11.5003 99.1827 11.1317 98.884C10.763 98.5807 10.21 98.429 9.47265 98.429H7.30265V101.922H9.47265ZM7.30265 94.04V97.463H9.09465C9.47732 97.463 9.80865 97.421 10.0887 97.337C10.3733 97.253 10.6067 97.1363 10.7887 96.987C10.9753 96.8377 11.113 96.658 11.2017 96.448C11.2903 96.2333 11.3347 96 11.3347 95.748C11.3347 95.1553 11.1573 94.7237 10.8027 94.453C10.448 94.1777 9.89732 94.04 9.15065 94.04H7.30265ZM9.15065 92.969C9.76665 92.969 10.2963 93.0297 10.7397 93.151C11.1877 93.2723 11.554 93.445 11.8387 93.669C12.128 93.893 12.3403 94.1683 12.4757 94.495C12.611 94.817 12.6787 95.181 12.6787 95.587C12.6787 95.8343 12.639 96.0723 12.5597 96.301C12.485 96.525 12.3707 96.735 12.2167 96.931C12.0627 97.127 11.8667 97.3043 11.6287 97.463C11.3953 97.617 11.12 97.743 10.8027 97.841C11.54 97.981 12.093 98.2447 12.4617 98.632C12.835 99.0147 13.0217 99.5187 13.0217 100.144C13.0217 100.569 12.9423 100.956 12.7837 101.306C12.6297 101.656 12.401 101.957 12.0977 102.209C11.799 102.461 11.4303 102.657 10.9917 102.797C10.553 102.932 10.0537 103 9.49365 103H5.95165V92.969H9.15065ZM15.741 97.33C15.965 96.8447 16.2404 96.4667 16.567 96.196C16.8937 95.9207 17.2927 95.783 17.764 95.783C17.9134 95.783 18.0557 95.7993 18.191 95.832C18.331 95.8647 18.4547 95.916 18.562 95.986L18.471 96.917C18.443 97.0337 18.373 97.092 18.261 97.092C18.1957 97.092 18.1 97.078 17.974 97.05C17.848 97.022 17.7057 97.008 17.547 97.008C17.323 97.008 17.1224 97.0407 16.945 97.106C16.7724 97.1713 16.616 97.2693 16.476 97.4C16.3407 97.526 16.217 97.6847 16.105 97.876C15.9977 98.0627 15.8997 98.2773 15.811 98.52V103H14.558V95.909H15.272C15.4074 95.909 15.5007 95.9347 15.552 95.986C15.6034 96.0373 15.6384 96.126 15.657 96.252L15.741 97.33ZM20.9737 95.909V103H19.7277V95.909H20.9737ZM21.2397 93.683C21.2397 93.8043 21.214 93.9187 21.1627 94.026C21.116 94.1287 21.0507 94.222 20.9667 94.306C20.8873 94.3853 20.7917 94.4483 20.6797 94.495C20.5723 94.5417 20.458 94.565 20.3367 94.565C20.2153 94.565 20.101 94.5417 19.9937 94.495C19.891 94.4483 19.8 94.3853 19.7207 94.306C19.6413 94.222 19.5783 94.1287 19.5317 94.026C19.485 93.9187 19.4617 93.8043 19.4617 93.683C19.4617 93.5617 19.485 93.4473 19.5317 93.34C19.5783 93.228 19.6413 93.1323 19.7207 93.053C19.8 92.969 19.891 92.9037 19.9937 92.857C20.101 92.8103 20.2153 92.787 20.3367 92.787C20.458 92.787 20.5723 92.8103 20.6797 92.857C20.7917 92.9037 20.8873 92.969 20.9667 93.053C21.0507 93.1323 21.116 93.228 21.1627 93.34C21.214 93.4473 21.2397 93.5617 21.2397 93.683ZM24.1969 96.938C24.3509 96.7653 24.5143 96.609 24.6869 96.469C24.8596 96.329 25.0416 96.21 25.2329 96.112C25.4289 96.0093 25.6343 95.9323 25.8489 95.881C26.0683 95.825 26.3039 95.797 26.5559 95.797C26.9433 95.797 27.2839 95.8623 27.5779 95.993C27.8766 96.119 28.1239 96.301 28.3199 96.539C28.5206 96.7723 28.6723 97.0547 28.7749 97.386C28.8776 97.7173 28.9289 98.0837 28.9289 98.485V103H27.6759V98.485C27.6759 97.9483 27.5523 97.533 27.3049 97.239C27.0623 96.9403 26.6913 96.791 26.1919 96.791C25.8233 96.791 25.4779 96.8797 25.1559 97.057C24.8386 97.2343 24.5446 97.4747 24.2739 97.778V103H23.0209V95.909H23.7699C23.9473 95.909 24.0569 95.9953 24.0989 96.168L24.1969 96.938ZM35.4476 97.589C35.2236 97.2903 34.9739 97.078 34.6986 96.952C34.4232 96.8213 34.1176 96.756 33.7816 96.756C33.1236 96.756 32.6172 96.9917 32.2626 97.463C31.9079 97.9343 31.7306 98.6063 31.7306 99.479C31.7306 99.941 31.7702 100.338 31.8496 100.669C31.9289 100.996 32.0456 101.266 32.1996 101.481C32.3536 101.691 32.5426 101.845 32.7666 101.943C32.9906 102.041 33.2449 102.09 33.5296 102.09C33.9402 102.09 34.2972 101.997 34.6006 101.81C34.9086 101.623 35.1909 101.36 35.4476 101.019V97.589ZM36.6936 95.909V105.401H35.4476V101.943C35.1536 102.288 34.8152 102.568 34.4326 102.783C34.0499 102.993 33.6136 103.098 33.1236 103.098C32.7176 103.098 32.3489 103.021 32.0176 102.867C31.6862 102.708 31.4039 102.477 31.1706 102.174C30.9372 101.871 30.7576 101.493 30.6316 101.04C30.5056 100.587 30.4426 100.067 30.4426 99.479C30.4426 98.9563 30.5126 98.471 30.6526 98.023C30.7926 97.5703 30.9932 97.1783 31.2546 96.847C31.5159 96.5157 31.8356 96.2567 32.2136 96.07C32.5962 95.8787 33.0256 95.783 33.5016 95.783C33.9636 95.783 34.3556 95.8647 34.6776 96.028C34.9996 96.1913 35.2842 96.42 35.5316 96.714L35.6156 96.168C35.6622 95.9953 35.7742 95.909 35.9516 95.909H36.6936ZM44.4926 95.909V103H43.7506C43.5732 103 43.4612 102.914 43.4146 102.741L43.3166 101.978C43.0086 102.319 42.6632 102.594 42.2806 102.804C41.8979 103.009 41.4592 103.112 40.9646 103.112C40.5772 103.112 40.2342 103.049 39.9356 102.923C39.6416 102.792 39.3942 102.61 39.1936 102.377C38.9929 102.144 38.8412 101.861 38.7386 101.53C38.6406 101.199 38.5916 100.832 38.5916 100.431V95.909H39.8376V100.431C39.8376 100.968 39.9589 101.383 40.2016 101.677C40.4489 101.971 40.8246 102.118 41.3286 102.118C41.6972 102.118 42.0402 102.032 42.3576 101.859C42.6796 101.682 42.9759 101.439 43.2466 101.131V95.909H44.4926ZM51.2142 98.681C51.2142 98.3917 51.1722 98.128 51.0882 97.89C51.0089 97.6473 50.8899 97.4397 50.7312 97.267C50.5772 97.0897 50.3882 96.9543 50.1642 96.861C49.9402 96.763 49.6859 96.714 49.4012 96.714C48.8039 96.714 48.3302 96.889 47.9802 97.239C47.6349 97.5843 47.4202 98.065 47.3362 98.681H51.2142ZM52.2222 102.006C52.0682 102.193 51.8839 102.356 51.6692 102.496C51.4545 102.631 51.2235 102.743 50.9762 102.832C50.7335 102.921 50.4815 102.986 50.2202 103.028C49.9589 103.075 49.6999 103.098 49.4432 103.098C48.9532 103.098 48.5005 103.016 48.0852 102.853C47.6745 102.685 47.3175 102.442 47.0142 102.125C46.7155 101.803 46.4822 101.406 46.3142 100.935C46.1462 100.464 46.0622 99.9223 46.0622 99.311C46.0622 98.8163 46.1369 98.3543 46.2862 97.925C46.4402 97.4957 46.6595 97.1247 46.9442 96.812C47.2289 96.4947 47.5765 96.2473 47.9872 96.07C48.3979 95.888 48.8599 95.797 49.3732 95.797C49.7979 95.797 50.1899 95.8693 50.5492 96.014C50.9132 96.154 51.2259 96.3593 51.4872 96.63C51.7532 96.896 51.9609 97.2273 52.1102 97.624C52.2595 98.016 52.3342 98.464 52.3342 98.968C52.3342 99.164 52.3132 99.2947 52.2712 99.36C52.2292 99.4253 52.1499 99.458 52.0332 99.458H47.2942C47.3082 99.906 47.3689 100.296 47.4762 100.627C47.5882 100.958 47.7422 101.236 47.9382 101.46C48.1342 101.679 48.3675 101.845 48.6382 101.957C48.9089 102.064 49.2122 102.118 49.5482 102.118C49.8609 102.118 50.1292 102.083 50.3532 102.013C50.5819 101.938 50.7779 101.859 50.9412 101.775C51.1045 101.691 51.2399 101.614 51.3472 101.544C51.4592 101.469 51.5549 101.432 51.6342 101.432C51.7369 101.432 51.8162 101.472 51.8722 101.551L52.2222 102.006ZM58.4847 97.596C58.2514 97.2833 57.9994 97.0663 57.7287 96.945C57.458 96.819 57.1547 96.756 56.8187 96.756C56.1607 96.756 55.6544 96.9917 55.2997 97.463C54.945 97.9343 54.7677 98.6063 54.7677 99.479C54.7677 99.941 54.8074 100.338 54.8867 100.669C54.966 100.996 55.0827 101.266 55.2367 101.481C55.3907 101.691 55.5797 101.845 55.8037 101.943C56.0277 102.041 56.282 102.09 56.5667 102.09C56.9774 102.09 57.3344 101.997 57.6377 101.81C57.9457 101.623 58.228 101.36 58.4847 101.019V97.596ZM59.7307 92.689V103H58.9887C58.8114 103 58.6994 102.914 58.6527 102.741L58.5407 101.88C58.2374 102.244 57.892 102.538 57.5047 102.762C57.1174 102.986 56.6694 103.098 56.1607 103.098C55.7547 103.098 55.386 103.021 55.0547 102.867C54.7234 102.708 54.441 102.477 54.2077 102.174C53.9744 101.871 53.7947 101.493 53.6687 101.04C53.5427 100.587 53.4797 100.067 53.4797 99.479C53.4797 98.9563 53.5497 98.471 53.6897 98.023C53.8297 97.5703 54.0304 97.1783 54.2917 96.847C54.553 96.5157 54.8727 96.2567 55.2507 96.07C55.6334 95.8787 56.0627 95.783 56.5387 95.783C56.9727 95.783 57.3437 95.8577 57.6517 96.007C57.9644 96.1517 58.242 96.3547 58.4847 96.616V92.689H59.7307ZM64.6877 95.797C65.2057 95.797 65.6723 95.8833 66.0877 96.056C66.503 96.2287 66.8577 96.4737 67.1517 96.791C67.4457 97.1083 67.6697 97.4933 67.8237 97.946C67.9823 98.394 68.0617 98.8957 68.0617 99.451C68.0617 100.011 67.9823 100.515 67.8237 100.963C67.6697 101.411 67.4457 101.794 67.1517 102.111C66.8577 102.428 66.503 102.673 66.0877 102.846C65.6723 103.014 65.2057 103.098 64.6877 103.098C64.165 103.098 63.6937 103.014 63.2737 102.846C62.8583 102.673 62.5037 102.428 62.2097 102.111C61.9157 101.794 61.6893 101.411 61.5307 100.963C61.3767 100.515 61.2997 100.011 61.2997 99.451C61.2997 98.8957 61.3767 98.394 61.5307 97.946C61.6893 97.4933 61.9157 97.1083 62.2097 96.791C62.5037 96.4737 62.8583 96.2287 63.2737 96.056C63.6937 95.8833 64.165 95.797 64.6877 95.797ZM64.6877 102.125C65.3877 102.125 65.9103 101.892 66.2557 101.425C66.601 100.954 66.7737 100.298 66.7737 99.458C66.7737 98.6133 66.601 97.9553 66.2557 97.484C65.9103 97.0127 65.3877 96.777 64.6877 96.777C64.333 96.777 64.0227 96.8377 63.7567 96.959C63.4953 97.0803 63.276 97.2553 63.0987 97.484C62.926 97.7127 62.7953 97.995 62.7067 98.331C62.6227 98.6623 62.5807 99.038 62.5807 99.458C62.5807 100.298 62.7533 100.954 63.0987 101.425C63.4487 101.892 63.9783 102.125 64.6877 102.125ZM73.772 97.078C73.716 97.1807 73.6297 97.232 73.513 97.232C73.443 97.232 73.3637 97.2063 73.275 97.155C73.1864 97.1037 73.0767 97.0477 72.946 96.987C72.82 96.9217 72.6684 96.8633 72.491 96.812C72.3137 96.756 72.1037 96.728 71.861 96.728C71.651 96.728 71.462 96.756 71.294 96.812C71.126 96.8633 70.9814 96.9357 70.86 97.029C70.7434 97.1223 70.6524 97.232 70.587 97.358C70.5264 97.4793 70.496 97.6123 70.496 97.757C70.496 97.939 70.5474 98.0907 70.65 98.212C70.7574 98.3333 70.8974 98.4383 71.07 98.527C71.2427 98.6157 71.4387 98.695 71.658 98.765C71.8774 98.8303 72.1014 98.9027 72.33 98.982C72.5634 99.0567 72.7897 99.1407 73.009 99.234C73.2284 99.3273 73.4244 99.444 73.597 99.584C73.7697 99.724 73.9074 99.8967 74.01 100.102C74.1174 100.303 74.171 100.545 74.171 100.83C74.171 101.157 74.1127 101.46 73.996 101.74C73.8794 102.015 73.7067 102.256 73.478 102.461C73.2494 102.662 72.9694 102.82 72.638 102.937C72.3067 103.054 71.924 103.112 71.49 103.112C70.9954 103.112 70.5474 103.033 70.146 102.874C69.7447 102.711 69.404 102.503 69.124 102.251L69.418 101.775C69.4554 101.714 69.4997 101.668 69.551 101.635C69.6024 101.602 69.6677 101.586 69.747 101.586C69.831 101.586 69.9197 101.619 70.013 101.684C70.1064 101.749 70.2184 101.822 70.349 101.901C70.4844 101.98 70.6477 102.053 70.839 102.118C71.0304 102.183 71.2684 102.216 71.553 102.216C71.7957 102.216 72.008 102.186 72.19 102.125C72.372 102.06 72.5237 101.973 72.645 101.866C72.7664 101.759 72.855 101.635 72.911 101.495C72.9717 101.355 73.002 101.206 73.002 101.047C73.002 100.851 72.9484 100.69 72.841 100.564C72.7384 100.433 72.6007 100.324 72.428 100.235C72.2554 100.142 72.057 100.062 71.833 99.997C71.6137 99.927 71.3874 99.8547 71.154 99.78C70.9254 99.7053 70.699 99.6213 70.475 99.528C70.2557 99.43 70.0597 99.3087 69.887 99.164C69.7144 99.0193 69.5744 98.842 69.467 98.632C69.3644 98.4173 69.313 98.1583 69.313 97.855C69.313 97.5843 69.369 97.3253 69.481 97.078C69.593 96.826 69.7564 96.6067 69.971 96.42C70.1857 96.2287 70.4494 96.077 70.762 95.965C71.0747 95.853 71.4317 95.797 71.833 95.797C72.2997 95.797 72.7174 95.8717 73.086 96.021C73.4594 96.1657 73.7814 96.3663 74.052 96.623L73.772 97.078Z" fill="#444444"/>
</svg>
