<svg width="96" height="131" viewBox="0 0 96 131" fill="none" xmlns="http://www.w3.org/2000/svg">
<path d="M12.9773 102.928C13.052 102.928 13.1173 102.958 13.1733 103.019L13.7123 103.6C13.3016 104.076 12.8023 104.447 12.2143 104.713C11.631 104.979 10.924 105.112 10.0933 105.112C9.37463 105.112 8.7213 104.988 8.1333 104.741C7.5453 104.489 7.04363 104.139 6.6283 103.691C6.21296 103.238 5.89096 102.697 5.6623 102.067C5.43363 101.437 5.3193 100.744 5.3193 99.988C5.3193 99.232 5.4383 98.539 5.6763 97.909C5.9143 97.279 6.24796 96.7377 6.6773 96.285C7.1113 95.8323 7.6293 95.4823 8.2313 95.235C8.8333 94.983 9.4983 94.857 10.2263 94.857C10.9403 94.857 11.5703 94.9713 12.1163 95.2C12.6623 95.4287 13.143 95.739 13.5583 96.131L13.1103 96.754C13.0823 96.8007 13.045 96.8403 12.9983 96.873C12.9563 96.901 12.898 96.915 12.8233 96.915C12.7393 96.915 12.6366 96.8707 12.5153 96.782C12.394 96.6887 12.2353 96.586 12.0393 96.474C11.8433 96.362 11.5983 96.2617 11.3043 96.173C11.0103 96.0797 10.6486 96.033 10.2193 96.033C9.7013 96.033 9.22763 96.124 8.7983 96.306C8.36896 96.4833 7.99796 96.7423 7.6853 97.083C7.3773 97.4237 7.13696 97.839 6.9643 98.329C6.79163 98.819 6.7053 99.372 6.7053 99.988C6.7053 100.613 6.79396 101.171 6.9713 101.661C7.1533 102.151 7.3983 102.566 7.7063 102.907C8.01896 103.243 8.3853 103.5 8.8053 103.677C9.22996 103.854 9.6873 103.943 10.1773 103.943C10.476 103.943 10.7443 103.927 10.9823 103.894C11.225 103.857 11.4466 103.801 11.6473 103.726C11.8526 103.651 12.0416 103.558 12.2143 103.446C12.3916 103.329 12.5666 103.192 12.7393 103.033C12.8186 102.963 12.898 102.928 12.9773 102.928ZM18.8359 101.808C18.2619 101.827 17.7719 101.873 17.3659 101.948C16.9645 102.018 16.6355 102.111 16.3789 102.228C16.1269 102.345 15.9425 102.482 15.8259 102.641C15.7139 102.8 15.6579 102.977 15.6579 103.173C15.6579 103.36 15.6882 103.521 15.7489 103.656C15.8095 103.791 15.8912 103.903 15.9939 103.992C16.1012 104.076 16.2249 104.139 16.3649 104.181C16.5095 104.218 16.6635 104.237 16.8269 104.237C17.0462 104.237 17.2469 104.216 17.4289 104.174C17.6109 104.127 17.7812 104.062 17.9399 103.978C18.1032 103.894 18.2572 103.794 18.4019 103.677C18.5512 103.56 18.6959 103.427 18.8359 103.278V101.808ZM14.8109 98.91C15.2029 98.532 15.6252 98.2497 16.0779 98.063C16.5305 97.8763 17.0322 97.783 17.5829 97.783C17.9795 97.783 18.3319 97.8483 18.6399 97.979C18.9479 98.1097 19.2069 98.2917 19.4169 98.525C19.6269 98.7583 19.7855 99.0407 19.8929 99.372C20.0002 99.7033 20.0539 100.067 20.0539 100.464V105H19.5009C19.3795 105 19.2862 104.981 19.2209 104.944C19.1555 104.902 19.1042 104.823 19.0669 104.706L18.9269 104.034C18.7402 104.207 18.5582 104.361 18.3809 104.496C18.2035 104.627 18.0169 104.739 17.8209 104.832C17.6249 104.921 17.4149 104.988 17.1909 105.035C16.9715 105.086 16.7265 105.112 16.4559 105.112C16.1805 105.112 15.9215 105.075 15.6789 105C15.4362 104.921 15.2239 104.804 15.0419 104.65C14.8645 104.496 14.7222 104.302 14.6149 104.069C14.5122 103.831 14.4609 103.551 14.4609 103.229C14.4609 102.949 14.5379 102.681 14.6919 102.424C14.8459 102.163 15.0955 101.932 15.4409 101.731C15.7862 101.53 16.2365 101.367 16.7919 101.241C17.3472 101.11 18.0285 101.036 18.8359 101.017V100.464C18.8359 99.9133 18.7169 99.498 18.4789 99.218C18.2409 98.9333 17.8932 98.791 17.4359 98.791C17.1279 98.791 16.8689 98.8307 16.6589 98.91C16.4535 98.9847 16.2739 99.071 16.1199 99.169C15.9705 99.2623 15.8399 99.3487 15.7279 99.428C15.6205 99.5027 15.5132 99.54 15.4059 99.54C15.3219 99.54 15.2495 99.519 15.1889 99.477C15.1282 99.4303 15.0769 99.3743 15.0349 99.309L14.8109 98.91ZM21.9518 105V97.909H22.7008C22.8782 97.909 22.9878 97.9953 23.0298 98.168L23.1208 98.896C23.3822 98.574 23.6762 98.3103 24.0028 98.105C24.3295 97.8997 24.7075 97.797 25.1368 97.797C25.6128 97.797 25.9978 97.93 26.2918 98.196C26.5905 98.462 26.8052 98.8213 26.9358 99.274C27.0385 99.0173 27.1692 98.7957 27.3278 98.609C27.4912 98.4223 27.6732 98.2683 27.8738 98.147C28.0745 98.0257 28.2868 97.937 28.5108 97.881C28.7395 97.825 28.9705 97.797 29.2038 97.797C29.5772 97.797 29.9085 97.8577 30.1978 97.979C30.4918 98.0957 30.7392 98.2683 30.9398 98.497C31.1452 98.7257 31.3015 99.008 31.4088 99.344C31.5162 99.6753 31.5698 100.056 31.5698 100.485V105H30.3168V100.485C30.3168 99.9297 30.1955 99.5097 29.9528 99.225C29.7102 98.9357 29.3602 98.791 28.9028 98.791C28.6975 98.791 28.5015 98.8283 28.3148 98.903C28.1328 98.973 27.9718 99.078 27.8318 99.218C27.6918 99.358 27.5798 99.5353 27.4958 99.75C27.4165 99.96 27.3768 100.205 27.3768 100.485V105H26.1238V100.485C26.1238 99.9157 26.0095 99.491 25.7808 99.211C25.5522 98.931 25.2185 98.791 24.7798 98.791C24.4718 98.791 24.1872 98.875 23.9258 99.043C23.6645 99.2063 23.4242 99.4303 23.2048 99.715V105H21.9518ZM37.3066 101.808C36.7326 101.827 36.2426 101.873 35.8366 101.948C35.4352 102.018 35.1062 102.111 34.8496 102.228C34.5976 102.345 34.4132 102.482 34.2966 102.641C34.1846 102.8 34.1286 102.977 34.1286 103.173C34.1286 103.36 34.1589 103.521 34.2196 103.656C34.2802 103.791 34.3619 103.903 34.4646 103.992C34.5719 104.076 34.6956 104.139 34.8356 104.181C34.9802 104.218 35.1342 104.237 35.2976 104.237C35.5169 104.237 35.7176 104.216 35.8996 104.174C36.0816 104.127 36.2519 104.062 36.4106 103.978C36.5739 103.894 36.7279 103.794 36.8726 103.677C37.0219 103.56 37.1666 103.427 37.3066 103.278V101.808ZM33.2816 98.91C33.6736 98.532 34.0959 98.2497 34.5486 98.063C35.0012 97.8763 35.5029 97.783 36.0536 97.783C36.4502 97.783 36.8026 97.8483 37.1106 97.979C37.4186 98.1097 37.6776 98.2917 37.8876 98.525C38.0976 98.7583 38.2562 99.0407 38.3636 99.372C38.4709 99.7033 38.5246 100.067 38.5246 100.464V105H37.9716C37.8502 105 37.7569 104.981 37.6916 104.944C37.6262 104.902 37.5749 104.823 37.5376 104.706L37.3976 104.034C37.2109 104.207 37.0289 104.361 36.8516 104.496C36.6742 104.627 36.4876 104.739 36.2916 104.832C36.0956 104.921 35.8856 104.988 35.6616 105.035C35.4422 105.086 35.1972 105.112 34.9266 105.112C34.6512 105.112 34.3922 105.075 34.1496 105C33.9069 104.921 33.6946 104.804 33.5126 104.65C33.3352 104.496 33.1929 104.302 33.0856 104.069C32.9829 103.831 32.9316 103.551 32.9316 103.229C32.9316 102.949 33.0086 102.681 33.1626 102.424C33.3166 102.163 33.5662 101.932 33.9116 101.731C34.2569 101.53 34.7072 101.367 35.2626 101.241C35.8179 101.11 36.4992 101.036 37.3066 101.017V100.464C37.3066 99.9133 37.1876 99.498 36.9496 99.218C36.7116 98.9333 36.3639 98.791 35.9066 98.791C35.5986 98.791 35.3396 98.8307 35.1296 98.91C34.9242 98.9847 34.7446 99.071 34.5906 99.169C34.4412 99.2623 34.3106 99.3487 34.1986 99.428C34.0912 99.5027 33.9839 99.54 33.8766 99.54C33.7926 99.54 33.7202 99.519 33.6596 99.477C33.5989 99.4303 33.5476 99.3743 33.5056 99.309L33.2816 98.91ZM48.7506 100.681C48.7506 100.392 48.7086 100.128 48.6246 99.89C48.5452 99.6473 48.4262 99.4397 48.2676 99.267C48.1136 99.0897 47.9246 98.9543 47.7006 98.861C47.4766 98.763 47.2222 98.714 46.9376 98.714C46.3402 98.714 45.8666 98.889 45.5166 99.239C45.1712 99.5843 44.9566 100.065 44.8726 100.681H48.7506ZM49.7586 104.006C49.6046 104.193 49.4202 104.356 49.2056 104.496C48.9909 104.631 48.7599 104.743 48.5126 104.832C48.2699 104.921 48.0179 104.986 47.7566 105.028C47.4952 105.075 47.2362 105.098 46.9796 105.098C46.4896 105.098 46.0369 105.016 45.6216 104.853C45.2109 104.685 44.8539 104.442 44.5506 104.125C44.2519 103.803 44.0186 103.406 43.8506 102.935C43.6826 102.464 43.5986 101.922 43.5986 101.311C43.5986 100.816 43.6732 100.354 43.8226 99.925C43.9766 99.4957 44.1959 99.1247 44.4806 98.812C44.7652 98.4947 45.1129 98.2473 45.5236 98.07C45.9342 97.888 46.3962 97.797 46.9096 97.797C47.3342 97.797 47.7262 97.8693 48.0856 98.014C48.4496 98.154 48.7622 98.3593 49.0236 98.63C49.2896 98.896 49.4972 99.2273 49.6466 99.624C49.7959 100.016 49.8706 100.464 49.8706 100.968C49.8706 101.164 49.8496 101.295 49.8076 101.36C49.7656 101.425 49.6862 101.458 49.5696 101.458H44.8306C44.8446 101.906 44.9052 102.296 45.0126 102.627C45.1246 102.958 45.2786 103.236 45.4746 103.46C45.6706 103.679 45.9039 103.845 46.1746 103.957C46.4452 104.064 46.7486 104.118 47.0846 104.118C47.3972 104.118 47.6656 104.083 47.8896 104.013C48.1182 103.938 48.3142 103.859 48.4776 103.775C48.6409 103.691 48.7762 103.614 48.8836 103.544C48.9956 103.469 49.0912 103.432 49.1706 103.432C49.2732 103.432 49.3526 103.472 49.4086 103.551L49.7586 104.006ZM56.2361 103.292C56.4648 103.6 56.7144 103.817 56.9851 103.943C57.2604 104.069 57.5614 104.132 57.8881 104.132C58.5554 104.132 59.0664 103.896 59.4211 103.425C59.7758 102.954 59.9531 102.251 59.9531 101.318C59.9531 100.45 59.7944 99.813 59.4771 99.407C59.1644 98.9963 58.7164 98.791 58.1331 98.791C57.7271 98.791 57.3724 98.8843 57.0691 99.071C56.7704 99.2577 56.4928 99.5213 56.2361 99.862V103.292ZM56.2361 98.931C56.5348 98.5857 56.8708 98.3103 57.2441 98.105C57.6221 97.8997 58.0561 97.797 58.5461 97.797C58.9614 97.797 59.3348 97.8763 59.6661 98.035C60.0021 98.1937 60.2868 98.4247 60.5201 98.728C60.7534 99.0267 60.9308 99.3907 61.0521 99.82C61.1781 100.249 61.2411 100.732 61.2411 101.269C61.2411 101.843 61.1711 102.366 61.0311 102.837C60.8911 103.308 60.6881 103.712 60.4221 104.048C60.1608 104.379 59.8411 104.638 59.4631 104.825C59.0851 105.007 58.6604 105.098 58.1891 105.098C57.7224 105.098 57.3281 105.012 57.0061 104.839C56.6888 104.662 56.4111 104.412 56.1731 104.09L56.1101 104.734C56.0728 104.911 55.9654 105 55.7881 105H54.9831V94.689H56.2361V98.931ZM66.6601 101.808C66.0861 101.827 65.5961 101.873 65.1901 101.948C64.7887 102.018 64.4597 102.111 64.2031 102.228C63.9511 102.345 63.7667 102.482 63.6501 102.641C63.5381 102.8 63.4821 102.977 63.4821 103.173C63.4821 103.36 63.5124 103.521 63.5731 103.656C63.6337 103.791 63.7154 103.903 63.8181 103.992C63.9254 104.076 64.0491 104.139 64.1891 104.181C64.3337 104.218 64.4877 104.237 64.6511 104.237C64.8704 104.237 65.0711 104.216 65.2531 104.174C65.4351 104.127 65.6054 104.062 65.7641 103.978C65.9274 103.894 66.0814 103.794 66.2261 103.677C66.3754 103.56 66.5201 103.427 66.6601 103.278V101.808ZM62.6351 98.91C63.0271 98.532 63.4494 98.2497 63.9021 98.063C64.3547 97.8763 64.8564 97.783 65.4071 97.783C65.8037 97.783 66.1561 97.8483 66.4641 97.979C66.7721 98.1097 67.0311 98.2917 67.2411 98.525C67.4511 98.7583 67.6097 99.0407 67.7171 99.372C67.8244 99.7033 67.8781 100.067 67.8781 100.464V105H67.3251C67.2037 105 67.1104 104.981 67.0451 104.944C66.9797 104.902 66.9284 104.823 66.8911 104.706L66.7511 104.034C66.5644 104.207 66.3824 104.361 66.2051 104.496C66.0277 104.627 65.8411 104.739 65.6451 104.832C65.4491 104.921 65.2391 104.988 65.0151 105.035C64.7957 105.086 64.5507 105.112 64.2801 105.112C64.0047 105.112 63.7457 105.075 63.5031 105C63.2604 104.921 63.0481 104.804 62.8661 104.65C62.6887 104.496 62.5464 104.302 62.4391 104.069C62.3364 103.831 62.2851 103.551 62.2851 103.229C62.2851 102.949 62.3621 102.681 62.5161 102.424C62.6701 102.163 62.9197 101.932 63.2651 101.731C63.6104 101.53 64.0607 101.367 64.6161 101.241C65.1714 101.11 65.8527 101.036 66.6601 101.017V100.464C66.6601 99.9133 66.5411 99.498 66.3031 99.218C66.0651 98.9333 65.7174 98.791 65.2601 98.791C64.9521 98.791 64.6931 98.8307 64.4831 98.91C64.2777 98.9847 64.0981 99.071 63.9441 99.169C63.7947 99.2623 63.6641 99.3487 63.5521 99.428C63.4447 99.5027 63.3374 99.54 63.2301 99.54C63.1461 99.54 63.0737 99.519 63.0131 99.477C62.9524 99.4303 62.9011 99.3743 62.8591 99.309L62.6351 98.91ZM70.9521 98.938C71.1061 98.7653 71.2694 98.609 71.4421 98.469C71.6147 98.329 71.7967 98.21 71.9881 98.112C72.1841 98.0093 72.3894 97.9323 72.6041 97.881C72.8234 97.825 73.0591 97.797 73.3111 97.797C73.6984 97.797 74.0391 97.8623 74.3331 97.993C74.6317 98.119 74.8791 98.301 75.0751 98.539C75.2757 98.7723 75.4274 99.0547 75.5301 99.386C75.6327 99.7173 75.6841 100.084 75.6841 100.485V105H74.4311V100.485C74.4311 99.9483 74.3074 99.533 74.0601 99.239C73.8174 98.9403 73.4464 98.791 72.9471 98.791C72.5784 98.791 72.2331 98.8797 71.9111 99.057C71.5937 99.2343 71.2997 99.4747 71.0291 99.778V105H69.7761V97.909H70.5251C70.7024 97.909 70.8121 97.9953 70.8541 98.168L70.9521 98.938ZM78.8357 98.854C79.139 98.532 79.475 98.2753 79.8437 98.084C80.2124 97.8927 80.637 97.797 81.1177 97.797C81.505 97.797 81.8457 97.8623 82.1397 97.993C82.4384 98.119 82.6857 98.301 82.8817 98.539C83.0824 98.7723 83.234 99.0547 83.3367 99.386C83.4394 99.7173 83.4907 100.084 83.4907 100.485V105H82.2377V100.485C82.2377 99.9483 82.114 99.533 81.8667 99.239C81.624 98.9403 81.253 98.791 80.7537 98.791C80.385 98.791 80.0397 98.8797 79.7177 99.057C79.4004 99.2343 79.1064 99.4747 78.8357 99.778V105H77.5827V94.689H78.8357V98.854ZM88.3783 97.797C88.8963 97.797 89.363 97.8833 89.7783 98.056C90.1937 98.2287 90.5483 98.4737 90.8423 98.791C91.1363 99.1083 91.3603 99.4933 91.5143 99.946C91.673 100.394 91.7523 100.896 91.7523 101.451C91.7523 102.011 91.673 102.515 91.5143 102.963C91.3603 103.411 91.1363 103.794 90.8423 104.111C90.5483 104.428 90.1937 104.673 89.7783 104.846C89.363 105.014 88.8963 105.098 88.3783 105.098C87.8557 105.098 87.3843 105.014 86.9643 104.846C86.549 104.673 86.1943 104.428 85.9003 104.111C85.6063 103.794 85.38 103.411 85.2213 102.963C85.0673 102.515 84.9903 102.011 84.9903 101.451C84.9903 100.896 85.0673 100.394 85.2213 99.946C85.38 99.4933 85.6063 99.1083 85.9003 98.791C86.1943 98.4737 86.549 98.2287 86.9643 98.056C87.3843 97.8833 87.8557 97.797 88.3783 97.797ZM88.3783 104.125C89.0783 104.125 89.601 103.892 89.9463 103.425C90.2917 102.954 90.4643 102.298 90.4643 101.458C90.4643 100.613 90.2917 99.9553 89.9463 99.484C89.601 99.0127 89.0783 98.777 88.3783 98.777C88.0237 98.777 87.7133 98.8377 87.4473 98.959C87.186 99.0803 86.9667 99.2553 86.7893 99.484C86.6167 99.7127 86.486 99.995 86.3973 100.331C86.3133 100.662 86.2713 101.038 86.2713 101.458C86.2713 102.298 86.444 102.954 86.7893 103.425C87.1393 103.892 87.669 104.125 88.3783 104.125Z" fill="#444444"/>
<path d="M90.8715 47.9526C90.8734 56.2356 88.4188 64.333 83.8183 71.2209C79.2177 78.1087 72.6777 83.4774 65.0256 86.6481C57.3735 89.8187 48.953 90.6488 40.8291 89.0333C32.7052 87.4179 25.2429 83.4294 19.3859 77.5725C13.529 71.7156 9.54054 64.2532 7.92508 56.1293C6.30962 48.0054 7.1397 39.5849 10.3103 31.9328C13.481 24.2807 18.8497 17.7407 25.7376 13.1402C32.6254 8.53958 40.7229 6.08501 49.0058 6.08692C60.1093 6.08692 70.758 10.4977 78.6093 18.3491C86.4607 26.2004 90.8715 36.8491 90.8715 47.9526Z" fill="white"/>
<path d="M33.6079 33.8627C33.9734 34.8245 34.8101 37.075 37.051 37.075H59.566C61.8165 37.075 62.6532 34.8245 63.0091 33.8627L63.163 33.4684C63.6823 32.1027 64.269 30.5831 63.4996 29.4482C63.1761 29.0656 62.7619 28.7701 62.2949 28.5887C61.8279 28.4072 61.3228 28.3456 60.8259 28.4095H35.7623C35.2653 28.3456 34.7603 28.4072 34.2933 28.5887C33.8262 28.7701 33.4121 29.0656 33.0886 29.4482C32.3191 30.5638 32.9058 32.1027 33.4348 33.4684L33.6079 33.8627ZM34.4639 30.3715C34.5312 30.2753 34.8005 30.0349 35.7911 30.0349H60.797C61.7588 30.0349 62.0569 30.2753 62.1243 30.3715C62.4128 30.785 61.9512 31.9969 61.6049 32.8817L61.451 33.2952C60.874 34.8437 60.3354 35.44 59.5275 35.44H37.051C36.2528 35.44 35.7142 34.8437 35.1275 33.2952L34.9832 32.8528C34.6466 31.968 34.185 30.7562 34.4639 30.3426" fill="#444444"/>
<path d="M63.0091 62.0425C62.6918 61.0807 61.8069 58.8206 59.566 58.8206H37.0511C34.8006 58.8206 33.9638 61.0615 33.608 62.0232L33.4541 62.4272C32.9347 63.7833 32.348 65.3125 33.1175 66.4377C33.4382 66.8159 33.8476 67.1087 34.3091 67.29C34.7707 67.4713 35.27 67.5353 35.7623 67.4764H60.7682C61.2659 67.5383 61.7712 67.4748 62.2382 67.2917C62.7051 67.1086 63.1189 66.8118 63.4419 66.4281C64.2114 65.3125 63.6151 63.7736 63.1053 62.4079L63.0091 62.0425ZM62.1532 65.5529C62.0858 65.6587 61.8166 65.8895 60.8259 65.8895H35.7623C34.8006 65.8895 34.5024 65.6587 34.4351 65.5529C34.1466 65.1394 34.6082 63.9275 34.9544 63.0427L35.1083 62.6291C35.6854 61.0903 36.224 60.4844 37.0318 60.4844H59.566C60.3643 60.4844 60.9029 61.0903 61.4896 62.6291L61.6434 63.0427C61.9801 63.9275 62.4417 65.1394 62.1628 65.5529" fill="#444444"/>
<path d="M71.9343 60.3787C71.6304 60.3056 71.3365 60.1958 71.0591 60.0517C69.9526 59.5568 68.953 58.8512 68.1161 57.9743C67.7507 57.6384 67.4659 57.2244 67.2827 56.7631C67.0995 56.3019 67.0228 55.8052 67.0582 55.3102C67.1064 54.9759 67.207 54.6513 67.3563 54.3484C68.0986 52.7831 68.4767 51.07 68.4624 49.3376C68.455 47.912 68.012 46.5227 67.1928 45.3559C66.3953 44.2722 65.3275 43.4166 64.096 42.8745C62.4526 42.1666 60.6709 41.8379 58.8832 41.9128H37.9167C37.8098 41.9115 37.7037 41.9315 37.6046 41.9715C37.5054 42.0115 37.4152 42.0708 37.3392 42.146C37.2632 42.2211 37.2028 42.3106 37.1616 42.4093C37.1204 42.5079 37.0992 42.6138 37.0992 42.7207C37.0992 42.828 37.1203 42.9343 37.1614 43.0335C37.2025 43.1327 37.2627 43.2228 37.3386 43.2987C37.4145 43.3746 37.5047 43.4348 37.6038 43.4759C37.703 43.517 37.8093 43.5382 37.9167 43.5382H58.9409C60.4771 43.4596 62.0107 43.736 63.4227 44.346C64.3909 44.763 65.2331 45.4262 65.8656 46.2696C66.4939 47.1799 66.8294 48.2603 66.8274 49.3665C66.8351 50.8413 66.5061 52.2985 65.8656 53.6271C65.6512 54.0901 65.5085 54.583 65.4424 55.089C65.3781 55.8187 65.4767 56.5537 65.7312 57.2406C65.9857 57.9276 66.3897 58.5494 66.9139 59.0611C67.9025 60.1019 69.081 60.9441 70.3859 61.5424C70.8109 61.7505 71.2599 61.9056 71.7228 62.0041H71.8285C72.033 61.9996 72.2284 61.9186 72.3761 61.7771C72.5238 61.6357 72.6131 61.444 72.6264 61.2399C72.6397 61.0358 72.576 60.8341 72.4478 60.6747C72.3197 60.5153 72.1365 60.4096 71.9343 60.3787Z" fill="#444444"/>
<path d="M37.9167 38.5176C37.6999 38.5176 37.4919 38.6037 37.3386 38.757C37.1853 38.9103 37.0992 39.1183 37.0992 39.3351C37.0992 39.5519 37.1853 39.7598 37.3386 39.9131C37.4919 40.0665 37.6999 40.1526 37.9167 40.1526H58.6908C58.9076 40.1526 59.1156 40.0665 59.2689 39.9131C59.4222 39.7598 59.5083 39.5519 59.5083 39.3351C59.5083 39.1183 59.4222 38.9103 59.2689 38.757C59.1156 38.6037 58.9076 38.5176 58.6908 38.5176H37.9167Z" fill="#444444"/>
<path d="M58.6908 45.2983H37.9167C37.8025 45.2858 37.687 45.2976 37.5777 45.3328C37.4684 45.3679 37.3677 45.4257 37.2823 45.5024C37.1968 45.5791 37.1284 45.6729 37.0816 45.7777C37.0348 45.8826 37.0106 45.9961 37.0106 46.111C37.0106 46.2258 37.0348 46.3393 37.0816 46.4442C37.1284 46.549 37.1968 46.6428 37.2823 46.7195C37.3677 46.7962 37.4684 46.854 37.5777 46.8892C37.687 46.9243 37.8025 46.9361 37.9167 46.9237H58.6908C58.805 46.9361 58.9204 46.9243 59.0297 46.8892C59.1391 46.854 59.2397 46.7962 59.3252 46.7195C59.4107 46.6428 59.479 46.549 59.5258 46.4442C59.5727 46.3393 59.5968 46.2258 59.5968 46.111C59.5968 45.9961 59.5727 45.8826 59.5258 45.7777C59.479 45.6729 59.4107 45.5791 59.3252 45.5024C59.2397 45.4257 59.1391 45.3679 59.0297 45.3328C58.9204 45.2976 58.805 45.2858 58.6908 45.2983Z" fill="#444444"/>
<path d="M58.6908 48.6835H37.9167C37.8025 48.6711 37.687 48.6828 37.5777 48.718C37.4684 48.7532 37.3677 48.811 37.2823 48.8877C37.1968 48.9643 37.1284 49.0581 37.0816 49.163C37.0348 49.2679 37.0106 49.3814 37.0106 49.4962C37.0106 49.611 37.0348 49.7246 37.0816 49.8294C37.1284 49.9343 37.1968 50.0281 37.2823 50.1048C37.3677 50.1814 37.4684 50.2393 37.5777 50.2744C37.687 50.3096 37.8025 50.3213 37.9167 50.3089H58.6908C58.805 50.3213 58.9204 50.3096 59.0297 50.2744C59.1391 50.2393 59.2397 50.1814 59.3252 50.1048C59.4107 50.0281 59.479 49.9343 59.5258 49.8294C59.5727 49.7246 59.5968 49.611 59.5968 49.4962C59.5968 49.3814 59.5727 49.2679 59.5258 49.163C59.479 49.0581 59.4107 48.9643 59.3252 48.8877C59.2397 48.811 59.1391 48.7532 59.0297 48.718C58.9204 48.6828 58.805 48.6711 58.6908 48.6835Z" fill="#444444"/>
<path d="M58.6908 52.0883H37.9167C37.8025 52.0759 37.687 52.0876 37.5777 52.1228C37.4684 52.158 37.3677 52.2158 37.2823 52.2924C37.1968 52.3691 37.1284 52.4629 37.0816 52.5678C37.0348 52.6726 37.0106 52.7862 37.0106 52.901C37.0106 53.0158 37.0348 53.1294 37.0816 53.2342C37.1284 53.3391 37.1968 53.4329 37.2823 53.5096C37.3677 53.5862 37.4684 53.644 37.5777 53.6792C37.687 53.7144 37.8025 53.7261 37.9167 53.7137H58.6908C58.805 53.7261 58.9204 53.7144 59.0297 53.6792C59.1391 53.644 59.2397 53.5862 59.3252 53.5096C59.4107 53.4329 59.479 53.3391 59.5258 53.2342C59.5727 53.1294 59.5968 53.0158 59.5968 52.901C59.5968 52.7862 59.5727 52.6726 59.5258 52.5678C59.479 52.4629 59.4107 52.3691 59.3252 52.2924C59.2397 52.2158 59.1391 52.158 59.0297 52.1228C58.9204 52.0876 58.805 52.0759 58.6908 52.0883Z" fill="#444444"/>
<path d="M58.6908 55.4545H37.9167C37.8025 55.4421 37.687 55.4538 37.5777 55.489C37.4684 55.5242 37.3677 55.582 37.2823 55.6586C37.1968 55.7353 37.1284 55.8291 37.0816 55.934C37.0348 56.0388 37.0106 56.1524 37.0106 56.2672C37.0106 56.382 37.0348 56.4956 37.0816 56.6004C37.1284 56.7053 37.1968 56.7991 37.2823 56.8758C37.3677 56.9524 37.4684 57.0102 37.5777 57.0454C37.687 57.0806 37.8025 57.0923 37.9167 57.0799H58.6908C58.805 57.0923 58.9204 57.0806 59.0297 57.0454C59.1391 57.0102 59.2397 56.9524 59.3252 56.8758C59.4107 56.7991 59.479 56.7053 59.5258 56.6004C59.5727 56.4956 59.5968 56.382 59.5968 56.2672C59.5968 56.1524 59.5727 56.0388 59.5258 55.934C59.479 55.8291 59.4107 55.7353 59.3252 55.6586C59.2397 55.582 59.1391 55.5242 59.0297 55.489C58.9204 55.4538 58.805 55.4421 58.6908 55.4545Z" fill="#444444"/>
<path d="M90.8715 47.9526C90.8734 56.2356 88.4188 64.333 83.8183 71.2209C79.2177 78.1087 72.6777 83.4774 65.0256 86.6481C57.3735 89.8187 48.953 90.6488 40.8291 89.0333C32.7052 87.4179 25.2429 83.4294 19.3859 77.5725C13.529 71.7156 9.54054 64.2532 7.92508 56.1293C6.30962 48.0054 7.1397 39.5849 10.3103 31.9328C13.481 24.2807 18.8497 17.7407 25.7376 13.1402C32.6254 8.53958 40.7229 6.08501 49.0058 6.08692C60.1093 6.08692 70.758 10.4977 78.6093 18.3491C86.4607 26.2004 90.8715 36.8491 90.8715 47.9526Z" fill="white"/>
<path d="M59.9507 37.7678C60.3471 37.4312 60.8402 37.2293 61.3589 37.1913C61.8775 37.1533 62.3948 37.2811 62.836 37.5563C63.5042 37.996 64.2867 38.2301 65.0866 38.2295C66.025 38.2305 66.9314 37.8884 67.6352 37.2677C67.8012 37.1229 67.9034 36.9185 67.9196 36.6988C67.9358 36.4792 67.8647 36.262 67.7218 36.0944C67.5753 35.9278 67.3693 35.8254 67.148 35.8092C66.9268 35.793 66.708 35.8643 66.5388 36.0078C66.1546 36.3385 65.6718 36.5329 65.1656 36.5607C64.6594 36.5885 64.1583 36.4482 63.7401 36.1617C62.9842 35.6806 62.0915 35.4606 61.1986 35.5353C60.3058 35.61 59.462 35.9753 58.7966 36.5752C58.7154 36.6516 58.6502 36.7434 58.6049 36.8453C58.5596 36.9472 58.5352 37.0571 58.533 37.1686C58.5308 37.2801 58.5509 37.3909 58.5922 37.4945C58.6334 37.5981 58.6949 37.6924 58.7731 37.7719C58.8513 37.8513 58.9446 37.9144 59.0475 37.9573C59.1504 38.0002 59.2609 38.0221 59.3724 38.0218C59.4839 38.0214 59.5942 37.9987 59.6968 37.9551C59.7994 37.9115 59.8923 37.8478 59.97 37.7678" fill="#444444"/>
<path d="M56.5556 34.5553C55.315 34.286 53.4395 33.7763 51.4583 33.2377C46.8418 31.9778 41.6098 30.564 39.1284 30.564C36.973 30.5603 34.8717 31.2387 33.1253 32.5019C31.3788 33.7651 30.0767 35.5484 29.4054 37.5966C28.734 39.6448 28.7278 41.8528 29.3877 43.9048C30.0475 45.9567 31.3396 47.7473 33.0789 49.0203C33.0649 49.0998 33.0649 49.1812 33.0789 49.2607C33.454 50.6937 32.4442 55.4064 31.569 57.9166C30.7707 60.1768 31.04 63.5045 32.5884 64.5624C33.454 65.1587 35.4737 65.3799 37.5031 65.3799C39.281 65.4124 41.0565 65.2348 42.7928 64.8509C42.9119 64.8247 43.028 64.786 43.139 64.7355C43.2592 64.6828 43.3657 64.6035 43.4507 64.5035C43.5357 64.4035 43.5968 64.2855 43.6295 64.1585C43.9508 62.659 43.7506 61.0949 43.0621 59.7247C42.2638 57.6858 41.4367 55.5795 44.5143 50.1551C46.6975 49.6454 49.1404 48.9818 51.4294 48.3566C53.4107 47.8181 55.2765 47.3083 56.5268 47.039C56.7125 46.9975 56.8785 46.8938 56.9974 46.7452C57.1163 46.5966 57.181 46.4119 57.1808 46.2215V35.3728C57.181 35.1825 57.1163 34.9978 56.9974 34.8491C56.8785 34.7005 56.7125 34.5969 56.5268 34.5553H56.5556ZM41.5329 60.3114C41.9994 61.2286 42.1993 62.2582 42.1099 63.2832C40.1864 63.7738 34.6274 63.8988 33.5502 63.1582C32.9154 62.7254 32.4826 60.3883 33.1655 58.4456C34.0968 55.741 34.6597 52.9234 34.839 50.0686C36.1794 50.6945 37.6395 51.0226 39.1188 51.0304C40.2223 50.9915 41.3199 50.8531 42.3985 50.6168C39.7728 55.8392 40.7442 58.3109 41.5329 60.3403V60.3114ZM55.5458 45.5291C54.334 45.8176 52.7759 46.2408 51.0159 46.7216C46.7264 47.8854 41.3982 49.3376 39.1284 49.3376C36.9092 49.2632 34.8057 48.3293 33.2621 46.7331C31.7185 45.1369 30.8556 43.0032 30.8556 40.7827C30.8556 38.5622 31.7185 36.4286 33.2621 34.8324C34.8057 33.2362 36.9092 32.3023 39.1284 32.2278C41.3886 32.2278 46.7264 33.6801 51.0159 34.8438C52.7759 35.3247 54.334 35.7479 55.5458 36.0364V45.5291Z" fill="#444444"/>
<path d="M39.1284 35.1804C38.019 35.1785 36.934 35.5058 36.0107 36.1207C35.0873 36.7357 34.3672 37.6107 33.9413 38.6351C33.5154 39.6595 33.403 40.7872 33.6183 41.8755C33.8336 42.9638 34.3668 43.9638 35.1506 44.7489C35.9344 45.5341 36.9335 46.069 38.0214 46.2862C39.1093 46.5033 40.2372 46.3928 41.2623 45.9687C42.2875 45.5446 43.1637 44.8259 43.7803 43.9037C44.3968 42.9814 44.7259 41.8969 44.7259 40.7875C44.7259 39.3021 44.1365 37.8774 43.087 36.8261C42.0376 35.7748 40.6139 35.183 39.1284 35.1804ZM39.1284 44.7211C38.3504 44.7211 37.5899 44.4904 36.943 44.0582C36.2961 43.626 35.792 43.0116 35.4942 42.2929C35.1965 41.5741 35.1186 40.7832 35.2704 40.0201C35.4222 39.2571 35.7968 38.5562 36.3469 38.006C36.8971 37.4559 37.598 37.0813 38.361 36.9295C39.1241 36.7777 39.915 36.8556 40.6338 37.1533C41.3525 37.4511 41.9669 37.9552 42.3991 38.6021C42.8314 39.249 43.0621 40.0095 43.0621 40.7875C43.0621 41.8308 42.6476 42.8313 41.9099 43.569C41.1722 44.3067 40.1717 44.7211 39.1284 44.7211Z" fill="#444444"/>
<path d="M68.8567 39.768C68.6985 39.6135 68.4862 39.527 68.2652 39.527C68.0441 39.527 67.8318 39.6135 67.6737 39.768C67.2589 40.2366 66.6766 40.5234 66.0523 40.5666C65.428 40.6098 64.8117 40.4059 64.3364 39.9989C63.4944 39.3475 62.4358 39.0416 61.3761 39.1435C60.3165 39.2453 59.3356 39.7473 58.6331 40.5471C58.4902 40.7147 58.4191 40.9319 58.4353 41.1515C58.4515 41.3712 58.5537 41.5756 58.7196 41.7204C58.8888 41.8639 59.1076 41.9352 59.3288 41.919C59.5501 41.9029 59.7561 41.8005 59.9026 41.6339C60.3315 41.1672 60.919 40.8771 61.5503 40.8202C62.1816 40.7633 62.8114 40.9437 63.3169 41.3261C64.0625 41.9202 64.98 42.2575 65.9329 42.2879C66.4843 42.2816 67.0287 42.1632 67.5329 41.94C68.0372 41.7168 68.4908 41.3934 68.8663 40.9895C69.0208 40.8314 69.1073 40.6191 69.1073 40.398C69.1073 40.1769 69.0208 39.9646 68.8663 39.8065" fill="#444444"/>
<path d="M66.5389 44.0287C66.1558 44.3608 65.6735 44.557 65.1674 44.5865C64.6612 44.6161 64.1594 44.4775 63.7402 44.1922C62.9854 43.708 62.092 43.4861 61.1983 43.5608C60.3047 43.6356 59.4606 44.0029 58.7967 44.6058C58.7193 44.6826 58.658 44.774 58.6161 44.8747C58.5742 44.9754 58.5526 45.0834 58.5526 45.1924C58.5526 45.3015 58.5742 45.4095 58.6161 45.5102C58.658 45.6108 58.7193 45.7022 58.7967 45.7791C58.9536 45.9359 59.1663 46.024 59.3882 46.024C59.61 46.024 59.8228 45.9359 59.9797 45.7791C60.375 45.4398 60.8692 45.2369 61.3889 45.2006C61.9086 45.1642 62.4262 45.2962 62.865 45.5771C63.5399 46.0088 64.324 46.239 65.1251 46.2408C66.0602 46.2394 66.9628 45.8975 67.6642 45.279C67.83 45.1298 67.9297 44.9208 67.9414 44.6981C67.9532 44.4753 67.8759 44.257 67.7267 44.0912C67.5775 43.9254 67.3685 43.8257 67.1457 43.814C66.923 43.8022 66.7047 43.8795 66.5389 44.0287Z" fill="#444444"/>
<path d="M90.8715 47.9526C90.8734 56.2356 88.4188 64.333 83.8183 71.2209C79.2177 78.1087 72.6777 83.4774 65.0256 86.6481C57.3735 89.8187 48.953 90.6488 40.8291 89.0333C32.7052 87.4179 25.2429 83.4294 19.3859 77.5725C13.529 71.7156 9.54054 64.2532 7.92508 56.1293C6.30962 48.0054 7.1397 39.5849 10.3103 31.9328C13.481 24.2807 18.8497 17.7407 25.7376 13.1402C32.6254 8.53958 40.7229 6.08501 49.0058 6.08692C60.1093 6.08692 70.758 10.4977 78.6093 18.3491C86.4607 26.2004 90.8715 36.8491 90.8715 47.9526Z" fill="white"/>
<path d="M44.2162 59.6765C43.706 59.6746 43.2067 59.8242 42.7816 60.1062C42.3564 60.3883 42.0246 60.7902 41.828 61.261C41.6314 61.7318 41.579 62.2504 41.6774 62.751C41.7758 63.2516 42.0205 63.7118 42.3806 64.0732C42.7407 64.4347 43.1999 64.6811 43.7002 64.7813C44.2004 64.8816 44.7192 64.8311 45.1907 64.6363C45.6622 64.4415 46.0654 64.1111 46.349 63.6871C46.6327 63.263 46.7841 62.7643 46.7841 62.2541C46.7841 61.5721 46.5139 60.918 46.0326 60.4349C45.5512 59.9518 44.8981 59.6791 44.2162 59.6765ZM44.2162 63.187C44.026 63.187 43.84 63.1306 43.6818 63.0249C43.5237 62.9192 43.4004 62.769 43.3276 62.5933C43.2548 62.4175 43.2358 62.2241 43.2729 62.0376C43.31 61.851 43.4016 61.6796 43.5361 61.5451C43.6706 61.4106 43.842 61.319 44.0285 61.2819C44.2151 61.2448 44.4085 61.2639 44.5842 61.3367C44.76 61.4095 44.9102 61.5327 45.0159 61.6909C45.1215 61.849 45.1779 62.035 45.1779 62.2252C45.1779 62.4803 45.0766 62.7249 44.8962 62.9053C44.7159 63.0857 44.4713 63.187 44.2162 63.187Z" fill="#444444"/>
<path d="M62.4224 64.822C62.9326 64.8239 63.4319 64.6744 63.857 64.3923C64.2821 64.1103 64.614 63.7084 64.8106 63.2376C65.0071 62.7668 65.0596 62.2482 64.9612 61.7476C64.8628 61.247 64.6181 60.7868 64.258 60.4253C63.8979 60.0639 63.4387 59.8175 62.9384 59.7172C62.4382 59.617 61.9194 59.6675 61.4479 59.8623C60.9763 60.0571 60.5732 60.3874 60.2896 60.8115C60.0059 61.2356 59.8545 61.7343 59.8545 62.2445C59.8545 62.9265 60.1247 63.5806 60.606 64.0637C61.0873 64.5468 61.7405 64.8195 62.4224 64.822ZM62.4224 61.3116C62.6126 61.3116 62.7986 61.368 62.9567 61.4737C63.1149 61.5794 63.2382 61.7296 63.311 61.9053C63.3838 62.0811 63.4028 62.2744 63.3657 62.461C63.3286 62.6476 63.237 62.8189 63.1025 62.9534C62.968 63.0879 62.7966 63.1795 62.61 63.2166C62.4235 63.2538 62.2301 63.2347 62.0544 63.1619C61.8786 63.0891 61.7284 62.9659 61.6227 62.8077C61.517 62.6495 61.4606 62.4636 61.4606 62.2734C61.4606 62.0183 61.562 61.7737 61.7423 61.5933C61.9227 61.4129 62.1673 61.3116 62.4224 61.3116Z" fill="#444444"/>
<path d="M68.924 44.6057C68.9479 44.4948 68.9479 44.38 68.924 44.2691C68.948 44.1614 68.948 44.0498 68.924 43.9421C68.3565 36.1037 63.0668 29.6695 56.0555 28.2846C55.8468 28.2439 55.6305 28.2851 55.4514 28.3997C55.2723 28.5144 55.1442 28.6936 55.0938 28.9001L51.6891 43.7209H39.1862C39.1551 42.0151 38.5522 40.3691 37.4742 39.0467C36.575 38.1231 35.4007 37.5157 34.1273 37.3156C34.0225 36.7123 33.7064 36.166 33.2356 35.7745C32.7648 35.383 32.17 35.172 31.5577 35.1791C30.9454 35.1862 30.3557 35.4111 29.8941 35.8134C29.4325 36.2158 29.1293 36.7693 29.0386 37.3749C28.948 37.9804 29.0758 38.5985 29.3994 39.1183C29.7229 39.6382 30.2209 40.0259 30.8043 40.212C31.3876 40.3981 32.0182 40.3705 32.583 40.1341C33.1478 39.8977 33.61 39.4679 33.8868 38.9217C34.7905 39.0682 35.625 39.4955 36.272 40.1431C37.2548 41.3951 37.7564 42.9579 37.6858 44.548V44.7981C37.6713 44.8711 37.6713 44.9463 37.6858 45.0193C37.9495 47.5389 38.823 49.9564 40.2306 52.0628C41.6382 54.1692 43.5376 55.9011 45.7646 57.1087C44.4803 56.7219 43.0974 56.8328 41.8911 57.4193C40.6848 58.0059 39.7436 59.0251 39.2547 60.2742C38.7658 61.5233 38.7651 62.9106 39.2527 64.1602C39.7403 65.4098 40.6806 66.43 41.8863 67.0177C43.092 67.6055 44.4748 67.7178 45.7595 67.3323C47.0443 66.9467 48.1368 66.0916 48.8196 64.9371C49.5025 63.7826 49.7256 62.4133 49.4447 61.1017C49.1638 59.7901 48.3993 58.6324 47.3035 57.8589C49.1935 58.6297 51.2156 59.025 53.2568 59.0226C55.5192 59.0257 57.7547 58.5332 59.8064 57.58C58.6748 58.215 57.8132 59.2405 57.3829 60.4647C56.9526 61.6889 56.9829 63.028 57.4683 64.2314C57.9536 65.4349 58.8608 66.4203 60.02 67.0034C61.1792 67.5865 62.5112 67.7274 63.7668 67.3996C65.0224 67.0719 66.1155 66.298 66.8419 65.2227C67.5682 64.1474 67.878 62.8443 67.7132 61.5572C67.5485 60.27 66.9205 59.087 65.9467 58.2293C64.9729 57.3716 63.7201 56.898 62.4224 56.8971C61.764 56.8968 61.1114 57.0208 60.4989 57.2626C62.8465 56.0349 64.8466 54.2351 66.3142 52.0295C67.7818 49.8239 68.6695 47.2838 68.8951 44.6442L68.924 44.6057ZM31.6555 38.7005C31.4653 38.7005 31.2794 38.6441 31.1212 38.5384C30.963 38.4327 30.8398 38.2825 30.767 38.1068C30.6942 37.931 30.6751 37.7377 30.7123 37.5511C30.7494 37.3645 30.841 37.1932 30.9755 37.0587C31.11 36.9242 31.2813 36.8326 31.4679 36.7954C31.6545 36.7583 31.8479 36.7774 32.0236 36.8502C32.1993 36.923 32.3495 37.0462 32.4552 37.2044C32.5609 37.3626 32.6173 37.5485 32.6173 37.7387C32.6173 37.9938 32.516 38.2384 32.3356 38.4188C32.1552 38.5992 31.9106 38.7005 31.6555 38.7005ZM56.5076 30.0446C62.2782 31.5642 66.6446 37.0463 67.2601 43.7017H53.3626L56.5076 30.0446ZM47.9767 62.2445C47.9786 62.9887 47.7597 63.7167 47.3476 64.3364C46.9356 64.956 46.3489 65.4395 45.662 65.7256C44.975 66.0117 44.2186 66.0876 43.4885 65.9436C42.7584 65.7995 42.0874 65.4422 41.5605 64.9166C41.0337 64.3911 40.6746 63.721 40.5287 62.9913C40.3828 62.2616 40.4567 61.505 40.741 60.8173C41.0254 60.1296 41.5074 59.5417 42.126 59.1281C42.7446 58.7144 43.472 58.4936 44.2162 58.4936C45.2111 58.4962 46.1647 58.8918 46.8691 59.5945C47.5735 60.2971 47.9716 61.2496 47.9767 62.2445ZM62.4032 58.4936C63.1474 58.4936 63.8748 58.7144 64.4934 59.1281C65.112 59.5417 65.594 60.1296 65.8784 60.8173C66.1627 61.505 66.2366 62.2616 66.0907 62.9913C65.9448 63.721 65.5857 64.3911 65.0589 64.9166C64.532 65.4422 63.861 65.7995 63.1309 65.9436C62.4008 66.0876 61.6444 66.0117 60.9574 65.7256C60.2705 65.4395 59.6838 64.956 59.2718 64.3364C58.8597 63.7167 58.6408 62.9887 58.6427 62.2445C58.6452 61.2488 59.0426 60.2948 59.7475 59.5917C60.4525 58.8885 61.4075 58.4936 62.4032 58.4936ZM53.2568 57.3972C49.8767 57.407 46.6072 56.1931 44.0526 53.9797C41.498 51.7663 39.8309 48.703 39.3593 45.3559H67.1928C66.6942 48.6946 65.0166 51.7444 62.4638 53.9532C59.911 56.162 56.6517 57.3837 53.276 57.3972" fill="#444444"/>
<path d="M90.8715 47.9526C90.8734 56.2356 88.4188 64.333 83.8183 71.2209C79.2177 78.1087 72.6777 83.4774 65.0256 86.6481C57.3735 89.8187 48.953 90.6488 40.8291 89.0333C32.7052 87.4179 25.2429 83.4294 19.3859 77.5725C13.529 71.7156 9.54054 64.2532 7.92508 56.1293C6.30962 48.0054 7.1397 39.5849 10.3103 31.9328C13.481 24.2807 18.8497 17.7407 25.7376 13.1402C32.6254 8.53958 40.7229 6.08501 49.0058 6.08692C60.1093 6.08692 70.758 10.4977 78.6093 18.3491C86.4607 26.2004 90.8715 36.8491 90.8715 47.9526Z" fill="white"/>
<path d="M70.0108 57.7243L65.7405 44.1441C65.6934 43.996 65.6029 43.8654 65.4809 43.769C65.6 43.626 65.6648 43.4455 65.6636 43.2593V31.093C65.6765 30.1763 65.3253 29.292 64.687 28.6339C64.0488 27.9758 63.1756 27.5977 62.259 27.5825H35.7623C34.8457 27.5977 33.9725 27.9758 33.3343 28.6339C32.696 29.292 32.3448 30.1763 32.3577 31.093V43.2593C32.3559 43.4623 32.4316 43.6583 32.5692 43.8075C32.4704 43.8992 32.3975 44.0153 32.3577 44.1441L28.0009 57.7243C27.9342 57.9309 27.9515 58.1554 28.049 58.3494C28.039 58.4325 28.039 58.5164 28.049 58.5995V67.4766C28.049 67.6934 28.1351 67.9013 28.2884 68.0546C28.4417 68.2079 28.6496 68.2941 28.8665 68.2941H34.5697C34.7865 68.2941 34.9945 68.2079 35.1478 68.0546C35.3011 67.9013 35.3872 67.6934 35.3872 67.4766V63.8122H62.6917V67.4766C62.6917 67.6934 62.7779 67.9013 62.9312 68.0546C63.0845 68.2079 63.2924 68.2941 63.5092 68.2941H69.2125C69.4293 68.2941 69.6373 68.2079 69.7906 68.0546C69.9439 67.9013 70.03 67.6934 70.03 67.4766V58.5995C70.04 58.5164 70.04 58.4325 70.03 58.3494C70.1259 58.1553 70.1465 57.9326 70.0877 57.7243H70.0108ZM34.0504 43.2978V31.093C34.0388 30.8501 34.0755 30.6074 34.1584 30.3788C34.2413 30.1503 34.3687 29.9404 34.5334 29.7615C34.698 29.5826 34.8965 29.4381 35.1173 29.3365C35.3382 29.2348 35.577 29.1781 35.82 29.1694H62.259C62.5019 29.1781 62.7408 29.2348 62.9616 29.3365C63.1825 29.4381 63.381 29.5826 63.5456 29.7615C63.7102 29.9404 63.8377 30.1503 63.9206 30.3788C64.0035 30.6074 64.0402 30.8501 64.0286 31.093V43.2593C64.0286 43.2593 64.0286 43.3266 64.0286 43.3651C63.4515 43.2497 62.8264 43.1535 62.1532 43.0573C62.1677 42.9746 62.1677 42.89 62.1532 42.8073V40.3932C62.166 39.4043 61.7868 38.4504 61.0983 37.7403C60.4098 37.0302 59.4681 36.6216 58.4792 36.6039H52.0546C51.4447 36.6062 50.8452 36.7614 50.3108 37.0555C49.7765 37.3495 49.3245 37.773 48.9962 38.287C48.6708 37.7725 48.2207 37.3485 47.6878 37.0543C47.1548 36.76 46.5562 36.6051 45.9474 36.6039H39.4747C38.9818 36.6076 38.4944 36.7088 38.0407 36.9015C37.587 37.0942 37.1758 37.3747 36.8308 37.7268C36.4858 38.079 36.2138 38.4958 36.0305 38.9534C35.8471 39.411 35.756 39.9003 35.7623 40.3932V42.8073C35.7627 42.93 35.7889 43.0512 35.8393 43.1631C35.1853 43.2401 34.5409 43.3362 33.9157 43.4324C33.9205 43.3748 33.9205 43.3169 33.9157 43.2593L34.0504 43.2978ZM60.5182 42.865C57.5078 42.5476 53.7858 42.3649 49.9387 42.3552C49.9438 42.3041 49.9438 42.2525 49.9387 42.2014V40.3932C49.9308 39.8367 50.1404 39.299 50.5231 38.8948C50.9058 38.4906 51.4311 38.2518 51.9873 38.2293H58.46C59.0178 38.2469 59.5461 38.4842 59.9298 38.8895C60.3135 39.2948 60.5215 39.8353 60.5085 40.3932V42.865H60.5182ZM47.9383 42.3649C44.3893 42.3649 40.7346 42.6149 37.3588 42.9804C37.3683 42.9231 37.3683 42.8646 37.3588 42.8073V40.3932C37.3459 39.8353 37.5539 39.2948 37.9376 38.8895C38.3213 38.4842 38.8496 38.2469 39.4074 38.2293H45.8801C46.4379 38.2469 46.9662 38.4842 47.3499 38.8895C47.7336 39.2948 47.9416 39.8353 47.9286 40.3932V42.2014C47.9235 42.2557 47.9235 42.3105 47.9286 42.3649H47.9383ZM33.7426 45.1155C43.6873 43.4997 58.1907 43.769 64.3268 45.1155L68.1161 57.1857H29.8859L33.7426 45.1155ZM68.3662 66.6975H64.2883V62.9947C64.2883 62.7779 64.2022 62.57 64.0488 62.4167C63.8955 62.2634 63.6876 62.1772 63.4708 62.1772H34.5313C34.3144 62.1772 34.1065 62.2634 33.9532 62.4167C33.7999 62.57 33.7138 62.7779 33.7138 62.9947V66.6975H29.6455V58.8207H68.3565L68.3662 66.6975Z" fill="#444444"/>
</svg>
