<svg width="101" height="116" viewBox="0 0 101 116" fill="none" xmlns="http://www.w3.org/2000/svg">
<path d="M9.6897 107.494C9.76437 107.494 9.8297 107.524 9.8857 107.585L10.4247 108.166C10.014 108.642 9.5147 109.013 8.9267 109.279C8.34337 109.545 7.63637 109.678 6.8057 109.678C6.08703 109.678 5.4337 109.554 4.8457 109.307C4.2577 109.055 3.75603 108.705 3.3407 108.257C2.92537 107.804 2.60337 107.263 2.3747 106.633C2.14603 106.003 2.0317 105.31 2.0317 104.554C2.0317 103.798 2.1507 103.105 2.3887 102.475C2.6267 101.845 2.96037 101.303 3.3897 100.851C3.8237 100.398 4.3417 100.048 4.9437 99.8007C5.5457 99.5487 6.2107 99.4227 6.9387 99.4227C7.6527 99.4227 8.2827 99.537 8.8287 99.7657C9.3747 99.9943 9.85537 100.305 10.2707 100.697L9.8227 101.32C9.7947 101.366 9.75737 101.406 9.7107 101.439C9.6687 101.467 9.61037 101.481 9.5357 101.481C9.4517 101.481 9.34903 101.436 9.2277 101.348C9.10637 101.254 8.9477 101.152 8.7517 101.04C8.5557 100.928 8.3107 100.827 8.0167 100.739C7.7227 100.645 7.36103 100.599 6.9317 100.599C6.4137 100.599 5.94003 100.69 5.5107 100.872C5.08137 101.049 4.71037 101.308 4.3977 101.649C4.0897 101.989 3.84937 102.405 3.6767 102.895C3.50403 103.385 3.4177 103.938 3.4177 104.554C3.4177 105.179 3.50637 105.737 3.6837 106.227C3.8657 106.717 4.1107 107.132 4.4187 107.473C4.73137 107.809 5.0977 108.065 5.5177 108.243C5.94237 108.42 6.3997 108.509 6.8897 108.509C7.18837 108.509 7.4567 108.492 7.6947 108.46C7.93737 108.422 8.15903 108.366 8.3597 108.292C8.56503 108.217 8.75403 108.124 8.9267 108.012C9.10403 107.895 9.27903 107.757 9.4517 107.599C9.53103 107.529 9.61037 107.494 9.6897 107.494ZM15.5483 106.374C14.9743 106.392 14.4843 106.439 14.0783 106.514C13.6769 106.584 13.3479 106.677 13.0913 106.794C12.8393 106.91 12.6549 107.048 12.5383 107.207C12.4263 107.365 12.3703 107.543 12.3703 107.739C12.3703 107.925 12.4006 108.086 12.4613 108.222C12.5219 108.357 12.6036 108.469 12.7063 108.558C12.8136 108.642 12.9373 108.705 13.0773 108.747C13.2219 108.784 13.3759 108.803 13.5393 108.803C13.7586 108.803 13.9593 108.782 14.1413 108.74C14.3233 108.693 14.4936 108.628 14.6523 108.544C14.8156 108.46 14.9696 108.359 15.1143 108.243C15.2636 108.126 15.4083 107.993 15.5483 107.844V106.374ZM11.5233 103.476C11.9153 103.098 12.3376 102.815 12.7903 102.629C13.2429 102.442 13.7446 102.349 14.2953 102.349C14.6919 102.349 15.0443 102.414 15.3523 102.545C15.6603 102.675 15.9193 102.857 16.1293 103.091C16.3393 103.324 16.4979 103.606 16.6053 103.938C16.7126 104.269 16.7663 104.633 16.7663 105.03V109.566H16.2133C16.0919 109.566 15.9986 109.547 15.9333 109.51C15.8679 109.468 15.8166 109.388 15.7793 109.272L15.6393 108.6C15.4526 108.772 15.2706 108.926 15.0933 109.062C14.9159 109.192 14.7293 109.304 14.5333 109.398C14.3373 109.486 14.1273 109.554 13.9033 109.601C13.6839 109.652 13.4389 109.678 13.1683 109.678C12.8929 109.678 12.6339 109.64 12.3913 109.566C12.1486 109.486 11.9363 109.37 11.7543 109.216C11.5769 109.062 11.4346 108.868 11.3273 108.635C11.2246 108.397 11.1733 108.117 11.1733 107.795C11.1733 107.515 11.2503 107.246 11.4043 106.99C11.5583 106.728 11.8079 106.497 12.1533 106.297C12.4986 106.096 12.9489 105.933 13.5043 105.807C14.0596 105.676 14.7409 105.601 15.5483 105.583V105.03C15.5483 104.479 15.4293 104.064 15.1913 103.784C14.9533 103.499 14.6056 103.357 14.1483 103.357C13.8403 103.357 13.5813 103.396 13.3713 103.476C13.1659 103.55 12.9863 103.637 12.8323 103.735C12.6829 103.828 12.5523 103.914 12.4403 103.994C12.3329 104.068 12.2256 104.106 12.1183 104.106C12.0343 104.106 11.9619 104.085 11.9013 104.043C11.8406 103.996 11.7893 103.94 11.7473 103.875L11.5233 103.476ZM22.7942 103.644C22.7382 103.746 22.6519 103.798 22.5352 103.798C22.4652 103.798 22.3859 103.772 22.2972 103.721C22.2086 103.669 22.0989 103.613 21.9682 103.553C21.8422 103.487 21.6906 103.429 21.5132 103.378C21.3359 103.322 21.1259 103.294 20.8832 103.294C20.6732 103.294 20.4842 103.322 20.3162 103.378C20.1482 103.429 20.0036 103.501 19.8822 103.595C19.7656 103.688 19.6746 103.798 19.6092 103.924C19.5486 104.045 19.5182 104.178 19.5182 104.323C19.5182 104.505 19.5696 104.656 19.6722 104.778C19.7796 104.899 19.9196 105.004 20.0922 105.093C20.2649 105.181 20.4609 105.261 20.6802 105.331C20.8996 105.396 21.1236 105.468 21.3522 105.548C21.5856 105.622 21.8119 105.706 22.0312 105.8C22.2506 105.893 22.4466 106.01 22.6192 106.15C22.7919 106.29 22.9296 106.462 23.0322 106.668C23.1396 106.868 23.1932 107.111 23.1932 107.396C23.1932 107.722 23.1349 108.026 23.0182 108.306C22.9016 108.581 22.7289 108.821 22.5002 109.027C22.2716 109.227 21.9916 109.386 21.6602 109.503C21.3289 109.619 20.9462 109.678 20.5122 109.678C20.0176 109.678 19.5696 109.598 19.1682 109.44C18.7669 109.276 18.4262 109.069 18.1462 108.817L18.4402 108.341C18.4776 108.28 18.5219 108.233 18.5732 108.201C18.6246 108.168 18.6899 108.152 18.7692 108.152C18.8532 108.152 18.9419 108.184 19.0352 108.25C19.1286 108.315 19.2406 108.387 19.3712 108.467C19.5066 108.546 19.6699 108.618 19.8612 108.684C20.0526 108.749 20.2906 108.782 20.5752 108.782C20.8179 108.782 21.0302 108.751 21.2122 108.691C21.3942 108.625 21.5459 108.539 21.6672 108.432C21.7886 108.324 21.8772 108.201 21.9332 108.061C21.9939 107.921 22.0242 107.771 22.0242 107.613C22.0242 107.417 21.9706 107.256 21.8632 107.13C21.7606 106.999 21.6229 106.889 21.4502 106.801C21.2776 106.707 21.0792 106.628 20.8552 106.563C20.6359 106.493 20.4096 106.42 20.1762 106.346C19.9476 106.271 19.7212 106.187 19.4972 106.094C19.2779 105.996 19.0819 105.874 18.9092 105.73C18.7366 105.585 18.5966 105.408 18.4892 105.198C18.3866 104.983 18.3352 104.724 18.3352 104.421C18.3352 104.15 18.3912 103.891 18.5032 103.644C18.6152 103.392 18.7786 103.172 18.9932 102.986C19.2079 102.794 19.4716 102.643 19.7842 102.531C20.0969 102.419 20.4539 102.363 20.8552 102.363C21.3219 102.363 21.7396 102.437 22.1082 102.587C22.4816 102.731 22.8036 102.932 23.0742 103.189L22.7942 103.644ZM28.5639 106.374C27.9899 106.392 27.4999 106.439 27.0939 106.514C26.6926 106.584 26.3636 106.677 26.1069 106.794C25.8549 106.91 25.6706 107.048 25.5539 107.207C25.4419 107.365 25.3859 107.543 25.3859 107.739C25.3859 107.925 25.4162 108.086 25.4769 108.222C25.5376 108.357 25.6192 108.469 25.7219 108.558C25.8292 108.642 25.9529 108.705 26.0929 108.747C26.2376 108.784 26.3916 108.803 26.5549 108.803C26.7742 108.803 26.9749 108.782 27.1569 108.74C27.3389 108.693 27.5092 108.628 27.6679 108.544C27.8312 108.46 27.9852 108.359 28.1299 108.243C28.2792 108.126 28.4239 107.993 28.5639 107.844V106.374ZM24.5389 103.476C24.9309 103.098 25.3532 102.815 25.8059 102.629C26.2586 102.442 26.7602 102.349 27.3109 102.349C27.7076 102.349 28.0599 102.414 28.3679 102.545C28.6759 102.675 28.9349 102.857 29.1449 103.091C29.3549 103.324 29.5136 103.606 29.6209 103.938C29.7282 104.269 29.7819 104.633 29.7819 105.03V109.566H29.2289C29.1076 109.566 29.0142 109.547 28.9489 109.51C28.8836 109.468 28.8322 109.388 28.7949 109.272L28.6549 108.6C28.4682 108.772 28.2862 108.926 28.1089 109.062C27.9316 109.192 27.7449 109.304 27.5489 109.398C27.3529 109.486 27.1429 109.554 26.9189 109.601C26.6996 109.652 26.4546 109.678 26.1839 109.678C25.9086 109.678 25.6496 109.64 25.4069 109.566C25.1642 109.486 24.9519 109.37 24.7699 109.216C24.5926 109.062 24.4502 108.868 24.3429 108.635C24.2402 108.397 24.1889 108.117 24.1889 107.795C24.1889 107.515 24.2659 107.246 24.4199 106.99C24.5739 106.728 24.8236 106.497 25.1689 106.297C25.5142 106.096 25.9646 105.933 26.5199 105.807C27.0752 105.676 27.7566 105.601 28.5639 105.583V105.03C28.5639 104.479 28.4449 104.064 28.2069 103.784C27.9689 103.499 27.6212 103.357 27.1639 103.357C26.8559 103.357 26.5969 103.396 26.3869 103.476C26.1816 103.55 26.0019 103.637 25.8479 103.735C25.6986 103.828 25.5679 103.914 25.4559 103.994C25.3486 104.068 25.2412 104.106 25.1339 104.106C25.0499 104.106 24.9776 104.085 24.9169 104.043C24.8562 103.996 24.8049 103.94 24.7629 103.875L24.5389 103.476ZM36.5779 102.475V109.566H35.3319V102.475H36.5779ZM36.8439 100.249C36.8439 100.37 36.8182 100.484 36.7669 100.592C36.7202 100.694 36.6549 100.788 36.5709 100.872C36.4916 100.951 36.3959 101.014 36.2839 101.061C36.1766 101.107 36.0622 101.131 35.9409 101.131C35.8196 101.131 35.7052 101.107 35.5979 101.061C35.4952 101.014 35.4042 100.951 35.3249 100.872C35.2456 100.788 35.1826 100.694 35.1359 100.592C35.0892 100.484 35.0659 100.37 35.0659 100.249C35.0659 100.127 35.0892 100.013 35.1359 99.9057C35.1826 99.7937 35.2456 99.698 35.3249 99.6187C35.4042 99.5347 35.4952 99.4693 35.5979 99.4227C35.7052 99.376 35.8196 99.3527 35.9409 99.3527C36.0622 99.3527 36.1766 99.376 36.2839 99.4227C36.3959 99.4693 36.4916 99.5347 36.5709 99.6187C36.6549 99.698 36.7202 99.7937 36.7669 99.9057C36.8182 100.013 36.8439 100.127 36.8439 100.249ZM39.8012 103.504C39.9552 103.331 40.1185 103.175 40.2912 103.035C40.4639 102.895 40.6459 102.776 40.8372 102.678C41.0332 102.575 41.2385 102.498 41.4532 102.447C41.6725 102.391 41.9082 102.363 42.1602 102.363C42.5475 102.363 42.8882 102.428 43.1822 102.559C43.4809 102.685 43.7282 102.867 43.9242 103.105C44.1249 103.338 44.2765 103.62 44.3792 103.952C44.4819 104.283 44.5332 104.649 44.5332 105.051V109.566H43.2802V105.051C43.2802 104.514 43.1565 104.099 42.9092 103.805C42.6665 103.506 42.2955 103.357 41.7962 103.357C41.4275 103.357 41.0822 103.445 40.7602 103.623C40.4429 103.8 40.1489 104.04 39.8782 104.344V109.566H38.6252V102.475H39.3742C39.5515 102.475 39.6612 102.561 39.7032 102.734L39.8012 103.504ZM48.5131 109.678C47.9531 109.678 47.5215 109.521 47.2181 109.209C46.9195 108.896 46.7701 108.446 46.7701 107.858V103.518H45.9161C45.8415 103.518 45.7785 103.497 45.7271 103.455C45.6758 103.408 45.6501 103.338 45.6501 103.245V102.748L46.8121 102.601L47.0991 100.41C47.1131 100.34 47.1435 100.284 47.1901 100.242C47.2415 100.195 47.3068 100.172 47.3861 100.172H48.0161V102.615H50.0671V103.518H48.0161V107.774C48.0161 108.072 48.0885 108.294 48.2331 108.439C48.3778 108.583 48.5645 108.656 48.7931 108.656C48.9238 108.656 49.0358 108.639 49.1291 108.607C49.2271 108.569 49.3111 108.53 49.3811 108.488C49.4511 108.446 49.5095 108.408 49.5561 108.376C49.6075 108.338 49.6518 108.32 49.6891 108.32C49.7545 108.32 49.8128 108.359 49.8641 108.439L50.2281 109.034C50.0135 109.234 49.7545 109.393 49.4511 109.51C49.1478 109.622 48.8351 109.678 48.5131 109.678ZM56.0587 105.247C56.0587 104.957 56.0167 104.694 55.9327 104.456C55.8534 104.213 55.7344 104.005 55.5757 103.833C55.4217 103.655 55.2327 103.52 55.0087 103.427C54.7847 103.329 54.5304 103.28 54.2457 103.28C53.6484 103.28 53.1747 103.455 52.8247 103.805C52.4794 104.15 52.2647 104.631 52.1807 105.247H56.0587ZM57.0667 108.572C56.9127 108.758 56.7284 108.922 56.5137 109.062C56.299 109.197 56.068 109.309 55.8207 109.398C55.578 109.486 55.326 109.552 55.0647 109.594C54.8034 109.64 54.5444 109.664 54.2877 109.664C53.7977 109.664 53.345 109.582 52.9297 109.419C52.519 109.251 52.162 109.008 51.8587 108.691C51.56 108.369 51.3267 107.972 51.1587 107.501C50.9907 107.029 50.9067 106.488 50.9067 105.877C50.9067 105.382 50.9814 104.92 51.1307 104.491C51.2847 104.061 51.504 103.69 51.7887 103.378C52.0734 103.06 52.421 102.813 52.8317 102.636C53.2424 102.454 53.7044 102.363 54.2177 102.363C54.6424 102.363 55.0344 102.435 55.3937 102.58C55.7577 102.72 56.0704 102.925 56.3317 103.196C56.5977 103.462 56.8054 103.793 56.9547 104.19C57.104 104.582 57.1787 105.03 57.1787 105.534C57.1787 105.73 57.1577 105.86 57.1157 105.926C57.0737 105.991 56.9944 106.024 56.8777 106.024H52.1387C52.1527 106.472 52.2134 106.861 52.3207 107.193C52.4327 107.524 52.5867 107.802 52.7827 108.026C52.9787 108.245 53.212 108.411 53.4827 108.523C53.7534 108.63 54.0567 108.684 54.3927 108.684C54.7054 108.684 54.9737 108.649 55.1977 108.579C55.4264 108.504 55.6224 108.425 55.7857 108.341C55.949 108.257 56.0844 108.18 56.1917 108.11C56.3037 108.035 56.3994 107.998 56.4787 107.998C56.5814 107.998 56.6607 108.037 56.7167 108.117L57.0667 108.572ZM59.9972 99.2547V109.566H58.7512V99.2547H59.9972ZM63.3338 102.475V109.566H62.0878V102.475H63.3338ZM63.5998 100.249C63.5998 100.37 63.5741 100.484 63.5228 100.592C63.4761 100.694 63.4108 100.788 63.3268 100.872C63.2474 100.951 63.1518 101.014 63.0398 101.061C62.9324 101.107 62.8181 101.131 62.6968 101.131C62.5754 101.131 62.4611 101.107 62.3538 101.061C62.2511 101.014 62.1601 100.951 62.0808 100.872C62.0014 100.788 61.9384 100.694 61.8918 100.592C61.8451 100.484 61.8218 100.37 61.8218 100.249C61.8218 100.127 61.8451 100.013 61.8918 99.9057C61.9384 99.7937 62.0014 99.698 62.0808 99.6187C62.1601 99.5347 62.2511 99.4693 62.3538 99.4227C62.4611 99.376 62.5754 99.3527 62.6968 99.3527C62.8181 99.3527 62.9324 99.376 63.0398 99.4227C63.1518 99.4693 63.2474 99.5347 63.3268 99.6187C63.4108 99.698 63.4761 99.7937 63.5228 99.9057C63.5741 100.013 63.5998 100.127 63.5998 100.249ZM67.852 106.101C68.104 106.101 68.3257 106.066 68.517 105.996C68.7084 105.926 68.8694 105.828 69 105.702C69.1307 105.576 69.2287 105.426 69.294 105.254C69.3594 105.076 69.392 104.883 69.392 104.673C69.392 104.239 69.259 103.893 68.993 103.637C68.7317 103.38 68.3514 103.252 67.852 103.252C67.348 103.252 66.963 103.38 66.697 103.637C66.4357 103.893 66.305 104.239 66.305 104.673C66.305 104.883 66.3377 105.076 66.403 105.254C66.473 105.426 66.5734 105.576 66.704 105.702C66.8347 105.828 66.9957 105.926 67.187 105.996C67.3784 106.066 67.6 106.101 67.852 106.101ZM70.099 109.951C70.099 109.778 70.05 109.638 69.952 109.531C69.854 109.423 69.721 109.339 69.553 109.279C69.3897 109.218 69.1984 109.176 68.979 109.153C68.7597 109.125 68.5264 109.104 68.279 109.09C68.0364 109.076 67.789 109.062 67.537 109.048C67.285 109.034 67.0424 109.01 66.809 108.978C66.5477 109.099 66.333 109.253 66.165 109.44C66.0017 109.622 65.92 109.836 65.92 110.084C65.92 110.242 65.9597 110.389 66.039 110.525C66.123 110.665 66.249 110.784 66.417 110.882C66.585 110.984 66.795 111.064 67.047 111.12C67.3037 111.18 67.6047 111.211 67.95 111.211C68.286 111.211 68.587 111.18 68.853 111.12C69.119 111.059 69.343 110.973 69.525 110.861C69.7117 110.749 69.854 110.616 69.952 110.462C70.05 110.308 70.099 110.137 70.099 109.951ZM71.366 102.755V103.217C71.366 103.371 71.268 103.469 71.072 103.511L70.267 103.616C70.4257 103.924 70.505 104.264 70.505 104.638C70.505 104.983 70.4374 105.298 70.302 105.583C70.1714 105.863 69.9894 106.103 69.756 106.304C69.5227 106.504 69.2427 106.658 68.916 106.766C68.5894 106.873 68.2347 106.927 67.852 106.927C67.5207 106.927 67.208 106.887 66.914 106.808C66.7647 106.901 66.6504 107.001 66.571 107.109C66.4917 107.211 66.452 107.316 66.452 107.424C66.452 107.592 66.5197 107.72 66.655 107.809C66.795 107.893 66.977 107.953 67.201 107.991C67.425 108.028 67.6794 108.051 67.964 108.061C68.2534 108.07 68.5474 108.086 68.846 108.11C69.1494 108.128 69.4434 108.163 69.728 108.215C70.0174 108.266 70.274 108.35 70.498 108.467C70.722 108.583 70.9017 108.744 71.037 108.95C71.177 109.155 71.247 109.421 71.247 109.748C71.247 110.051 71.17 110.345 71.016 110.63C70.8667 110.914 70.6497 111.166 70.365 111.386C70.0804 111.61 69.7304 111.787 69.315 111.918C68.9044 112.053 68.44 112.121 67.922 112.121C67.404 112.121 66.9514 112.069 66.564 111.967C66.1767 111.864 65.8547 111.726 65.598 111.554C65.3414 111.381 65.1477 111.18 65.017 110.952C64.891 110.728 64.828 110.492 64.828 110.245C64.828 109.895 64.9377 109.598 65.157 109.356C65.3764 109.113 65.6774 108.919 66.06 108.775C65.85 108.681 65.682 108.558 65.556 108.404C65.4347 108.245 65.374 108.033 65.374 107.767C65.374 107.664 65.3927 107.559 65.43 107.452C65.4674 107.34 65.5234 107.23 65.598 107.123C65.6774 107.011 65.773 106.906 65.885 106.808C65.997 106.71 66.1277 106.623 66.277 106.549C65.927 106.353 65.654 106.094 65.458 105.772C65.262 105.445 65.164 105.067 65.164 104.638C65.164 104.292 65.2294 103.98 65.36 103.7C65.4954 103.415 65.682 103.175 65.92 102.979C66.158 102.778 66.4404 102.624 66.767 102.517C67.0984 102.409 67.46 102.356 67.852 102.356C68.16 102.356 68.447 102.391 68.713 102.461C68.979 102.526 69.2217 102.624 69.441 102.755H71.366ZM77.2911 105.247C77.2911 104.957 77.2491 104.694 77.1651 104.456C77.0858 104.213 76.9668 104.005 76.8081 103.833C76.6541 103.655 76.4651 103.52 76.2411 103.427C76.0171 103.329 75.7628 103.28 75.4781 103.28C74.8808 103.28 74.4071 103.455 74.0571 103.805C73.7118 104.15 73.4971 104.631 73.4131 105.247H77.2911ZM78.2991 108.572C78.1451 108.758 77.9608 108.922 77.7461 109.062C77.5314 109.197 77.3004 109.309 77.0531 109.398C76.8104 109.486 76.5584 109.552 76.2971 109.594C76.0358 109.64 75.7768 109.664 75.5201 109.664C75.0301 109.664 74.5774 109.582 74.1621 109.419C73.7514 109.251 73.3944 109.008 73.0911 108.691C72.7924 108.369 72.5591 107.972 72.3911 107.501C72.2231 107.029 72.1391 106.488 72.1391 105.877C72.1391 105.382 72.2138 104.92 72.3631 104.491C72.5171 104.061 72.7364 103.69 73.0211 103.378C73.3058 103.06 73.6534 102.813 74.0641 102.636C74.4748 102.454 74.9368 102.363 75.4501 102.363C75.8748 102.363 76.2668 102.435 76.6261 102.58C76.9901 102.72 77.3028 102.925 77.5641 103.196C77.8301 103.462 78.0378 103.793 78.1871 104.19C78.3364 104.582 78.4111 105.03 78.4111 105.534C78.4111 105.73 78.3901 105.86 78.3481 105.926C78.3061 105.991 78.2268 106.024 78.1101 106.024H73.3711C73.3851 106.472 73.4458 106.861 73.5531 107.193C73.6651 107.524 73.8191 107.802 74.0151 108.026C74.2111 108.245 74.4444 108.411 74.7151 108.523C74.9858 108.63 75.2891 108.684 75.6251 108.684C75.9378 108.684 76.2061 108.649 76.4301 108.579C76.6588 108.504 76.8548 108.425 77.0181 108.341C77.1814 108.257 77.3168 108.18 77.4241 108.11C77.5361 108.035 77.6318 107.998 77.7111 107.998C77.8138 107.998 77.8931 108.037 77.9491 108.117L78.2991 108.572ZM81.1176 103.504C81.2716 103.331 81.4349 103.175 81.6076 103.035C81.7803 102.895 81.9623 102.776 82.1536 102.678C82.3496 102.575 82.5549 102.498 82.7696 102.447C82.9889 102.391 83.2246 102.363 83.4766 102.363C83.8639 102.363 84.2046 102.428 84.4986 102.559C84.7973 102.685 85.0446 102.867 85.2406 103.105C85.4413 103.338 85.5929 103.62 85.6956 103.952C85.7983 104.283 85.8496 104.649 85.8496 105.051V109.566H84.5966V105.051C84.5966 104.514 84.4729 104.099 84.2256 103.805C83.9829 103.506 83.6119 103.357 83.1126 103.357C82.7439 103.357 82.3986 103.445 82.0766 103.623C81.7593 103.8 81.4653 104.04 81.1946 104.344V109.566H79.9416V102.475H80.6906C80.8679 102.475 80.9776 102.561 81.0196 102.734L81.1176 103.504ZM89.8295 109.678C89.2695 109.678 88.8379 109.521 88.5345 109.209C88.2359 108.896 88.0865 108.446 88.0865 107.858V103.518H87.2325C87.1579 103.518 87.0949 103.497 87.0435 103.455C86.9922 103.408 86.9665 103.338 86.9665 103.245V102.748L88.1285 102.601L88.4155 100.41C88.4295 100.34 88.4599 100.284 88.5065 100.242C88.5579 100.195 88.6232 100.172 88.7025 100.172H89.3325V102.615H91.3835V103.518H89.3325V107.774C89.3325 108.072 89.4049 108.294 89.5495 108.439C89.6942 108.583 89.8809 108.656 90.1095 108.656C90.2402 108.656 90.3522 108.639 90.4455 108.607C90.5435 108.569 90.6275 108.53 90.6975 108.488C90.7675 108.446 90.8259 108.408 90.8725 108.376C90.9239 108.338 90.9682 108.32 91.0055 108.32C91.0709 108.32 91.1292 108.359 91.1805 108.439L91.5445 109.034C91.3299 109.234 91.0709 109.393 90.7675 109.51C90.4642 109.622 90.1515 109.678 89.8295 109.678ZM97.3751 105.247C97.3751 104.957 97.3331 104.694 97.2491 104.456C97.1698 104.213 97.0508 104.005 96.8921 103.833C96.7381 103.655 96.5491 103.52 96.3251 103.427C96.1011 103.329 95.8468 103.28 95.5621 103.28C94.9648 103.28 94.4911 103.455 94.1411 103.805C93.7958 104.15 93.5811 104.631 93.4971 105.247H97.3751ZM98.3831 108.572C98.2291 108.758 98.0448 108.922 97.8301 109.062C97.6154 109.197 97.3844 109.309 97.1371 109.398C96.8944 109.486 96.6424 109.552 96.3811 109.594C96.1198 109.64 95.8608 109.664 95.6041 109.664C95.1141 109.664 94.6614 109.582 94.2461 109.419C93.8354 109.251 93.4784 109.008 93.1751 108.691C92.8764 108.369 92.6431 107.972 92.4751 107.501C92.3071 107.029 92.2231 106.488 92.2231 105.877C92.2231 105.382 92.2978 104.92 92.4471 104.491C92.6011 104.061 92.8204 103.69 93.1051 103.378C93.3898 103.06 93.7374 102.813 94.1481 102.636C94.5588 102.454 95.0208 102.363 95.5341 102.363C95.9588 102.363 96.3508 102.435 96.7101 102.58C97.0741 102.72 97.3868 102.925 97.6481 103.196C97.9141 103.462 98.1218 103.793 98.2711 104.19C98.4204 104.582 98.4951 105.03 98.4951 105.534C98.4951 105.73 98.4741 105.86 98.4321 105.926C98.3901 105.991 98.3108 106.024 98.1941 106.024H93.4551C93.4691 106.472 93.5298 106.861 93.6371 107.193C93.7491 107.524 93.9031 107.802 94.0991 108.026C94.2951 108.245 94.5284 108.411 94.7991 108.523C95.0698 108.63 95.3731 108.684 95.7091 108.684C96.0218 108.684 96.2901 108.649 96.5141 108.579C96.7428 108.504 96.9388 108.425 97.1021 108.341C97.2654 108.257 97.4008 108.18 97.5081 108.11C97.6201 108.035 97.7158 107.998 97.7951 107.998C97.8978 107.998 97.9771 108.037 98.0331 108.117L98.3831 108.572Z" fill="#444444"/>
<path d="M94.6771 44.3216C94.6791 52.9915 92.0953 61.4673 87.2526 68.6769C82.4099 75.8865 75.5257 81.5061 67.4709 84.8248C59.416 88.1436 50.5523 89.0125 42.0009 87.3215C33.4494 85.6306 25.5943 81.4558 19.4291 75.3253C13.2639 69.1947 9.06554 61.3837 7.36505 52.8803C5.66457 44.3768 6.53834 35.5629 9.87584 27.5533C13.2134 19.5437 18.8647 12.6983 26.115 7.88277C33.3654 3.06725 41.889 0.49801 50.6079 0.500001C62.2958 0.500001 73.505 5.1169 81.7695 13.335C90.0341 21.5532 94.6771 32.6994 94.6771 44.3216" fill="white"/>
<rect x="36.3481" y="53.0461" width="13.6056" height="1.52939" rx="0.764693" fill="#333333"/>
<rect x="56.2417" y="53.0461" width="4.89065" height="1.53" rx="0.765" fill="#333333"/>
<rect x="47.3491" y="59.7803" width="1.53" height="7.29221" rx="0.765" fill="#333333"/>
<rect x="60.1287" y="33.3044" width="1.53" height="6.5383" rx="0.765" transform="rotate(-180 60.1287 33.3044)" fill="#333333"/>
<rect x="48.8789" y="65.5425" width="1.53" height="17.313" rx="0.765" transform="rotate(90 48.8789 65.5425)" fill="#333333"/>
<rect x="58.7319" y="28.2961" width="1.53" height="13.2618" rx="0.765" transform="rotate(-90 58.7319 28.2961)" fill="#333333"/>
<rect x="36.7905" y="35.2942" width="1.53" height="5.91738" rx="0.765" transform="rotate(-180 36.7905 35.2942)" fill="#333333"/>
<circle cx="30.0428" cy="66.3074" r="1.78" stroke="#333333" stroke-width="1.3"/>
<circle cx="49.0035" cy="46.5675" r="1.05135" fill="#333333"/>
<circle cx="73.5399" cy="27.1241" r="1.77814" transform="rotate(-180 73.5399 27.1241)" stroke="#333333" stroke-width="1.3"/>
<circle cx="36.0261" cy="27.6627" r="1.78" transform="rotate(90 36.0261 27.6627)" stroke="#333333" stroke-width="1.3"/>
<path d="M49.5542 59.7798H36.8693C36.8141 59.7798 36.7693 59.735 36.7693 59.6798V42.784C36.7693 42.7287 36.7245 42.684 36.6693 42.684H31.6659C31.6107 42.684 31.5659 42.6392 31.5659 42.584V38.1259C31.5659 38.0943 31.5809 38.0645 31.6062 38.0456L49.5542 24.696M48.4494 59.7798H61.1343C61.1895 59.7798 61.2343 59.735 61.2343 59.6798V42.784C61.2343 42.7287 61.2791 42.684 61.3343 42.684H66.3377C66.3929 42.684 66.4377 42.6392 66.4377 42.584V38.1259C66.4377 38.0943 66.4227 38.0645 66.3974 38.0456L48.4494 24.696" stroke="#333333" stroke-width="1.3"/>
<path d="M42.5229 39.8367C44.6065 37.6006 50.1153 34.4702 55.4818 39.8367" stroke="#333333" stroke-width="1.5" stroke-linecap="round"/>
<path d="M44.4849 41.9017C45.9379 40.3423 49.7797 38.1591 53.5222 41.9017" stroke="#333333" stroke-width="1.5" stroke-linecap="round"/>
<path d="M45.7959 44.4416C46.8276 43.3344 49.5553 41.7843 52.2126 44.4416" stroke="#333333" stroke-width="1.5" stroke-linecap="round"/>
</svg>
