<svg width="96" height="131" viewBox="0 0 96 131" fill="none" xmlns="http://www.w3.org/2000/svg">
<path d="M25.4779 99.988C25.4779 100.739 25.3589 101.423 25.1209 102.039C24.8829 102.655 24.5469 103.182 24.1129 103.621C23.6789 104.06 23.1563 104.4 22.5449 104.643C21.9383 104.881 21.2663 105 20.5289 105H16.7839V94.969H20.5289C21.2663 94.969 21.9383 95.0903 22.5449 95.333C23.1563 95.571 23.6789 95.9117 24.1129 96.355C24.5469 96.7937 24.8829 97.321 25.1209 97.937C25.3589 98.553 25.4779 99.2367 25.4779 99.988ZM24.0849 99.988C24.0849 99.372 24.0009 98.8213 23.8329 98.336C23.6649 97.8507 23.4269 97.44 23.1189 97.104C22.8109 96.768 22.4376 96.5113 21.9989 96.334C21.5603 96.1567 21.0703 96.068 20.5289 96.068H18.1419V103.901H20.5289C21.0703 103.901 21.5603 103.812 21.9989 103.635C22.4376 103.458 22.8109 103.203 23.1189 102.872C23.4269 102.536 23.6649 102.125 23.8329 101.64C24.0009 101.155 24.0849 100.604 24.0849 99.988ZM31.7906 100.681C31.7906 100.392 31.7486 100.128 31.6646 99.89C31.5853 99.6473 31.4663 99.4397 31.3076 99.267C31.1536 99.0897 30.9646 98.9543 30.7406 98.861C30.5166 98.763 30.2623 98.714 29.9776 98.714C29.3803 98.714 28.9066 98.889 28.5566 99.239C28.2113 99.5843 27.9966 100.065 27.9126 100.681H31.7906ZM32.7986 104.006C32.6446 104.193 32.4603 104.356 32.2456 104.496C32.031 104.631 31.8 104.743 31.5526 104.832C31.31 104.921 31.058 104.986 30.7966 105.028C30.5353 105.075 30.2763 105.098 30.0196 105.098C29.5296 105.098 29.077 105.016 28.6616 104.853C28.251 104.685 27.894 104.442 27.5906 104.125C27.292 103.803 27.0586 103.406 26.8906 102.935C26.7226 102.464 26.6386 101.922 26.6386 101.311C26.6386 100.816 26.7133 100.354 26.8626 99.925C27.0166 99.4957 27.236 99.1247 27.5206 98.812C27.8053 98.4947 28.153 98.2473 28.5636 98.07C28.9743 97.888 29.4363 97.797 29.9496 97.797C30.3743 97.797 30.7663 97.8693 31.1256 98.014C31.4896 98.154 31.8023 98.3593 32.0636 98.63C32.3296 98.896 32.5373 99.2273 32.6866 99.624C32.836 100.016 32.9106 100.464 32.9106 100.968C32.9106 101.164 32.8896 101.295 32.8476 101.36C32.8056 101.425 32.7263 101.458 32.6096 101.458H27.8706C27.8846 101.906 27.9453 102.296 28.0526 102.627C28.1646 102.958 28.3186 103.236 28.5146 103.46C28.7106 103.679 28.944 103.845 29.2146 103.957C29.4853 104.064 29.7886 104.118 30.1246 104.118C30.4373 104.118 30.7056 104.083 30.9296 104.013C31.1583 103.938 31.3543 103.859 31.5176 103.775C31.681 103.691 31.8163 103.614 31.9236 103.544C32.0356 103.469 32.1313 103.432 32.2106 103.432C32.3133 103.432 32.3926 103.472 32.4486 103.551L32.7986 104.006ZM39.3761 99.169C39.3388 99.2203 39.3014 99.26 39.2641 99.288C39.2268 99.316 39.1754 99.33 39.1101 99.33C39.0401 99.33 38.9631 99.302 38.8791 99.246C38.7951 99.1853 38.6901 99.12 38.5641 99.05C38.4428 98.98 38.2911 98.917 38.1091 98.861C37.9318 98.8003 37.7124 98.77 37.4511 98.77C37.1011 98.77 36.7931 98.833 36.5271 98.959C36.2611 99.0803 36.0371 99.2577 35.8551 99.491C35.6778 99.7243 35.5424 100.007 35.4491 100.338C35.3604 100.669 35.3161 101.04 35.3161 101.451C35.3161 101.88 35.3651 102.263 35.4631 102.599C35.5611 102.93 35.6988 103.21 35.8761 103.439C36.0581 103.663 36.2751 103.836 36.5271 103.957C36.7838 104.074 37.0708 104.132 37.3881 104.132C37.6914 104.132 37.9411 104.097 38.1371 104.027C38.3331 103.952 38.4941 103.871 38.6201 103.782C38.7508 103.693 38.8581 103.614 38.9421 103.544C39.0308 103.469 39.1171 103.432 39.2011 103.432C39.3038 103.432 39.3831 103.472 39.4391 103.551L39.7891 104.006C39.6351 104.197 39.4601 104.361 39.2641 104.496C39.0681 104.631 38.8558 104.746 38.6271 104.839C38.4031 104.928 38.1674 104.993 37.9201 105.035C37.6728 105.077 37.4208 105.098 37.1641 105.098C36.7208 105.098 36.3078 105.016 35.9251 104.853C35.5471 104.69 35.2181 104.454 34.9381 104.146C34.6581 103.833 34.4388 103.451 34.2801 102.998C34.1214 102.545 34.0421 102.03 34.0421 101.451C34.0421 100.924 34.1144 100.436 34.2591 99.988C34.4084 99.54 34.6231 99.155 34.9031 98.833C35.1878 98.5063 35.5354 98.252 35.9461 98.07C36.3614 97.888 36.8374 97.797 37.3741 97.797C37.8734 97.797 38.3121 97.8787 38.6901 98.042C39.0728 98.2007 39.4111 98.427 39.7051 98.721L39.3761 99.169ZM43.9926 97.797C44.5106 97.797 44.9773 97.8833 45.3926 98.056C45.8079 98.2287 46.1626 98.4737 46.4566 98.791C46.7506 99.1083 46.9746 99.4933 47.1286 99.946C47.2873 100.394 47.3666 100.896 47.3666 101.451C47.3666 102.011 47.2873 102.515 47.1286 102.963C46.9746 103.411 46.7506 103.794 46.4566 104.111C46.1626 104.428 45.8079 104.673 45.3926 104.846C44.9773 105.014 44.5106 105.098 43.9926 105.098C43.4699 105.098 42.9986 105.014 42.5786 104.846C42.1633 104.673 41.8086 104.428 41.5146 104.111C41.2206 103.794 40.9943 103.411 40.8356 102.963C40.6816 102.515 40.6046 102.011 40.6046 101.451C40.6046 100.896 40.6816 100.394 40.8356 99.946C40.9943 99.4933 41.2206 99.1083 41.5146 98.791C41.8086 98.4737 42.1633 98.2287 42.5786 98.056C42.9986 97.8833 43.4699 97.797 43.9926 97.797ZM43.9926 104.125C44.6926 104.125 45.2153 103.892 45.5606 103.425C45.9059 102.954 46.0786 102.298 46.0786 101.458C46.0786 100.613 45.9059 99.9553 45.5606 99.484C45.2153 99.0127 44.6926 98.777 43.9926 98.777C43.6379 98.777 43.3276 98.8377 43.0616 98.959C42.8003 99.0803 42.5809 99.2553 42.4036 99.484C42.2309 99.7127 42.1003 99.995 42.0116 100.331C41.9276 100.662 41.8856 101.038 41.8856 101.458C41.8856 102.298 42.0583 102.954 42.4036 103.425C42.7536 103.892 43.2833 104.125 43.9926 104.125ZM50.13 99.33C50.354 98.8447 50.6293 98.4667 50.956 98.196C51.2826 97.9207 51.6816 97.783 52.153 97.783C52.3023 97.783 52.4446 97.7993 52.58 97.832C52.72 97.8647 52.8436 97.916 52.951 97.986L52.86 98.917C52.832 99.0337 52.762 99.092 52.65 99.092C52.5846 99.092 52.489 99.078 52.363 99.05C52.237 99.022 52.0946 99.008 51.936 99.008C51.712 99.008 51.5113 99.0407 51.334 99.106C51.1613 99.1713 51.005 99.2693 50.865 99.4C50.7296 99.526 50.606 99.6847 50.494 99.876C50.3866 100.063 50.2886 100.277 50.2 100.52V105H48.947V97.909H49.661C49.7963 97.909 49.8896 97.9347 49.941 97.986C49.9923 98.0373 50.0273 98.126 50.046 98.252L50.13 99.33ZM57.7802 101.808C57.2062 101.827 56.7162 101.873 56.3102 101.948C55.9089 102.018 55.5799 102.111 55.3232 102.228C55.0712 102.345 54.8869 102.482 54.7702 102.641C54.6582 102.8 54.6022 102.977 54.6022 103.173C54.6022 103.36 54.6325 103.521 54.6932 103.656C54.7539 103.791 54.8355 103.903 54.9382 103.992C55.0455 104.076 55.1692 104.139 55.3092 104.181C55.4539 104.218 55.6079 104.237 55.7712 104.237C55.9905 104.237 56.1912 104.216 56.3732 104.174C56.5552 104.127 56.7255 104.062 56.8842 103.978C57.0475 103.894 57.2015 103.794 57.3462 103.677C57.4955 103.56 57.6402 103.427 57.7802 103.278V101.808ZM53.7552 98.91C54.1472 98.532 54.5695 98.2497 55.0222 98.063C55.4749 97.8763 55.9765 97.783 56.5272 97.783C56.9239 97.783 57.2762 97.8483 57.5842 97.979C57.8922 98.1097 58.1512 98.2917 58.3612 98.525C58.5712 98.7583 58.7299 99.0407 58.8372 99.372C58.9445 99.7033 58.9982 100.067 58.9982 100.464V105H58.4452C58.3239 105 58.2305 104.981 58.1652 104.944C58.0999 104.902 58.0485 104.823 58.0112 104.706L57.8712 104.034C57.6845 104.207 57.5025 104.361 57.3252 104.496C57.1479 104.627 56.9612 104.739 56.7652 104.832C56.5692 104.921 56.3592 104.988 56.1352 105.035C55.9159 105.086 55.6709 105.112 55.4002 105.112C55.1249 105.112 54.8659 105.075 54.6232 105C54.3805 104.921 54.1682 104.804 53.9862 104.65C53.8089 104.496 53.6665 104.302 53.5592 104.069C53.4565 103.831 53.4052 103.551 53.4052 103.229C53.4052 102.949 53.4822 102.681 53.6362 102.424C53.7902 102.163 54.0399 101.932 54.3852 101.731C54.7305 101.53 55.1809 101.367 55.7362 101.241C56.2915 101.11 56.9729 101.036 57.7802 101.017V100.464C57.7802 99.9133 57.6612 99.498 57.4232 99.218C57.1852 98.9333 56.8375 98.791 56.3802 98.791C56.0722 98.791 55.8132 98.8307 55.6032 98.91C55.3979 98.9847 55.2182 99.071 55.0642 99.169C54.9149 99.2623 54.7842 99.3487 54.6722 99.428C54.5649 99.5027 54.4575 99.54 54.3502 99.54C54.2662 99.54 54.1939 99.519 54.1332 99.477C54.0725 99.4303 54.0212 99.3743 53.9792 99.309L53.7552 98.91ZM66.2442 104.006C65.9782 104.337 65.6515 104.589 65.2642 104.762C64.8768 104.935 64.4638 105.04 64.0252 105.077L63.8992 105.525C64.3332 105.614 64.6458 105.74 64.8372 105.903C65.0285 106.066 65.1242 106.274 65.1242 106.526C65.1242 106.675 65.0868 106.811 65.0122 106.932C64.9375 107.053 64.8325 107.156 64.6972 107.24C64.5665 107.324 64.4078 107.387 64.2212 107.429C64.0392 107.476 63.8362 107.499 63.6122 107.499C63.4208 107.499 63.2365 107.478 63.0592 107.436C62.8865 107.399 62.7302 107.347 62.5902 107.282L62.7022 106.897C62.7302 106.813 62.7838 106.771 62.8632 106.771C62.8912 106.771 62.9238 106.778 62.9612 106.792C62.9985 106.811 63.0428 106.829 63.0942 106.848C63.1502 106.871 63.2132 106.89 63.2832 106.904C63.3578 106.923 63.4465 106.932 63.5492 106.932C63.7452 106.932 63.8922 106.892 63.9902 106.813C64.0882 106.734 64.1372 106.633 64.1372 106.512C64.1372 106.335 64.0392 106.209 63.8432 106.134C63.6472 106.064 63.3718 106.006 63.0172 105.959L63.3042 105.084C62.8982 105.047 62.5225 104.939 62.1772 104.762C61.8365 104.58 61.5402 104.335 61.2882 104.027C61.0408 103.714 60.8472 103.343 60.7072 102.914C60.5672 102.48 60.4972 101.992 60.4972 101.451C60.4972 100.924 60.5695 100.436 60.7142 99.988C60.8635 99.54 61.0782 99.155 61.3582 98.833C61.6428 98.5063 61.9905 98.252 62.4012 98.07C62.8165 97.888 63.2925 97.797 63.8292 97.797C64.3285 97.797 64.7672 97.8787 65.1452 98.042C65.5278 98.2007 65.8662 98.427 66.1602 98.721L65.8312 99.169C65.7938 99.2203 65.7565 99.26 65.7192 99.288C65.6818 99.316 65.6305 99.33 65.5652 99.33C65.4952 99.33 65.4182 99.302 65.3342 99.246C65.2502 99.1853 65.1452 99.12 65.0192 99.05C64.8978 98.98 64.7462 98.917 64.5642 98.861C64.3868 98.8003 64.1675 98.77 63.9062 98.77C63.5562 98.77 63.2482 98.833 62.9822 98.959C62.7162 99.0803 62.4922 99.2577 62.3102 99.491C62.1328 99.7243 61.9975 100.007 61.9042 100.338C61.8155 100.669 61.7712 101.04 61.7712 101.451C61.7712 101.88 61.8202 102.263 61.9182 102.599C62.0162 102.93 62.1538 103.21 62.3312 103.439C62.5132 103.663 62.7302 103.836 62.9822 103.957C63.2388 104.074 63.5258 104.132 63.8432 104.132C64.1465 104.132 64.3962 104.097 64.5922 104.027C64.7882 103.952 64.9492 103.871 65.0752 103.782C65.2058 103.693 65.3132 103.614 65.3972 103.544C65.4858 103.469 65.5722 103.432 65.6562 103.432C65.7588 103.432 65.8382 103.472 65.8942 103.551L66.2442 104.006ZM71.4247 101.808C70.8507 101.827 70.3607 101.873 69.9547 101.948C69.5534 102.018 69.2244 102.111 68.9677 102.228C68.7157 102.345 68.5314 102.482 68.4147 102.641C68.3027 102.8 68.2467 102.977 68.2467 103.173C68.2467 103.36 68.2771 103.521 68.3377 103.656C68.3984 103.791 68.4801 103.903 68.5827 103.992C68.6901 104.076 68.8137 104.139 68.9537 104.181C69.0984 104.218 69.2524 104.237 69.4157 104.237C69.6351 104.237 69.8357 104.216 70.0177 104.174C70.1997 104.127 70.3701 104.062 70.5287 103.978C70.6921 103.894 70.8461 103.794 70.9907 103.677C71.1401 103.56 71.2847 103.427 71.4247 103.278V101.808ZM67.3997 98.91C67.7917 98.532 68.2141 98.2497 68.6667 98.063C69.1194 97.8763 69.6211 97.783 70.1717 97.783C70.5684 97.783 70.9207 97.8483 71.2287 97.979C71.5367 98.1097 71.7957 98.2917 72.0057 98.525C72.2157 98.7583 72.3744 99.0407 72.4817 99.372C72.5891 99.7033 72.6427 100.067 72.6427 100.464V105H72.0897C71.9684 105 71.8751 104.981 71.8097 104.944C71.7444 104.902 71.6931 104.823 71.6557 104.706L71.5157 104.034C71.3291 104.207 71.1471 104.361 70.9697 104.496C70.7924 104.627 70.6057 104.739 70.4097 104.832C70.2137 104.921 70.0037 104.988 69.7797 105.035C69.5604 105.086 69.3154 105.112 69.0447 105.112C68.7694 105.112 68.5104 105.075 68.2677 105C68.0251 104.921 67.8127 104.804 67.6307 104.65C67.4534 104.496 67.3111 104.302 67.2037 104.069C67.1011 103.831 67.0497 103.551 67.0497 103.229C67.0497 102.949 67.1267 102.681 67.2807 102.424C67.4347 102.163 67.6844 101.932 68.0297 101.731C68.3751 101.53 68.8254 101.367 69.3807 101.241C69.9361 101.11 70.6174 101.036 71.4247 101.017V100.464C71.4247 99.9133 71.3057 99.498 71.0677 99.218C70.8297 98.9333 70.4821 98.791 70.0247 98.791C69.7167 98.791 69.4577 98.8307 69.2477 98.91C69.0424 98.9847 68.8627 99.071 68.7087 99.169C68.5594 99.2623 68.4287 99.3487 68.3167 99.428C68.2094 99.5027 68.1021 99.54 67.9947 99.54C67.9107 99.54 67.8384 99.519 67.7777 99.477C67.7171 99.4303 67.6657 99.3743 67.6237 99.309L67.3997 98.91ZM70.7877 95.725C70.9557 95.725 71.0841 95.676 71.1727 95.578C71.2661 95.48 71.3151 95.3283 71.3197 95.123H72.0757C72.0757 95.3423 72.0454 95.5453 71.9847 95.732C71.9287 95.914 71.8447 96.0703 71.7327 96.201C71.6254 96.3317 71.4947 96.4343 71.3407 96.509C71.1914 96.579 71.0234 96.614 70.8367 96.614C70.6734 96.614 70.5194 96.5813 70.3747 96.516C70.2347 96.446 70.1017 96.3713 69.9757 96.292C69.8497 96.2127 69.7307 96.1403 69.6187 96.075C69.5067 96.005 69.3971 95.97 69.2897 95.97C68.9537 95.97 68.7811 96.1753 68.7717 96.586H67.9947C67.9947 96.362 68.0251 96.159 68.0857 95.977C68.1464 95.7903 68.2327 95.6317 68.3447 95.501C68.4567 95.3657 68.5897 95.263 68.7437 95.193C68.8977 95.1183 69.0657 95.081 69.2477 95.081C69.4111 95.081 69.5627 95.116 69.7027 95.186C69.8474 95.2513 69.9827 95.3237 70.1087 95.403C70.2347 95.4823 70.3514 95.557 70.4587 95.627C70.5707 95.6923 70.6804 95.725 70.7877 95.725ZM77.5297 97.797C78.0477 97.797 78.5144 97.8833 78.9297 98.056C79.345 98.2287 79.6997 98.4737 79.9937 98.791C80.2877 99.1083 80.5117 99.4933 80.6657 99.946C80.8244 100.394 80.9037 100.896 80.9037 101.451C80.9037 102.011 80.8244 102.515 80.6657 102.963C80.5117 103.411 80.2877 103.794 79.9937 104.111C79.6997 104.428 79.345 104.673 78.9297 104.846C78.5144 105.014 78.0477 105.098 77.5297 105.098C77.007 105.098 76.5357 105.014 76.1157 104.846C75.7004 104.673 75.3457 104.428 75.0517 104.111C74.7577 103.794 74.5314 103.411 74.3727 102.963C74.2187 102.515 74.1417 102.011 74.1417 101.451C74.1417 100.896 74.2187 100.394 74.3727 99.946C74.5314 99.4933 74.7577 99.1083 75.0517 98.791C75.3457 98.4737 75.7004 98.2287 76.1157 98.056C76.5357 97.8833 77.007 97.797 77.5297 97.797ZM77.5297 104.125C78.2297 104.125 78.7524 103.892 79.0977 103.425C79.443 102.954 79.6157 102.298 79.6157 101.458C79.6157 100.613 79.443 99.9553 79.0977 99.484C78.7524 99.0127 78.2297 98.777 77.5297 98.777C77.175 98.777 76.8647 98.8377 76.5987 98.959C76.3374 99.0803 76.118 99.2553 75.9407 99.484C75.768 99.7127 75.6374 99.995 75.5487 100.331C75.4647 100.662 75.4227 101.038 75.4227 101.458C75.4227 102.298 75.5954 102.954 75.9407 103.425C76.2907 103.892 76.8204 104.125 77.5297 104.125Z" fill="#444444"/>
<path d="M90.8714 47.9526C90.8734 56.2356 88.4188 64.333 83.8182 71.2209C79.2176 78.1087 72.6777 83.4774 65.0256 86.6481C57.3735 89.8187 48.953 90.6488 40.829 89.0333C32.7051 87.4179 25.2428 83.4294 19.3859 77.5725C13.5289 71.7156 9.54048 64.2532 7.92502 56.1293C6.30956 48.0054 7.13964 39.5849 10.3103 31.9328C13.4809 24.2807 18.8497 17.7407 25.7375 13.1402C32.6253 8.53958 40.7228 6.08501 49.0058 6.08692C60.1092 6.08692 70.7579 10.4977 78.6093 18.3491C86.4606 26.2004 90.8714 36.8491 90.8714 47.9526Z" fill="white"/>
<path d="M33.6078 33.8627C33.9733 34.8245 34.81 37.075 37.0509 37.075H59.5659C61.8164 37.075 62.6531 34.8245 63.009 33.8627L63.1629 33.4684C63.6822 32.1027 64.2689 30.5831 63.4995 29.4482C63.176 29.0656 62.7618 28.7701 62.2948 28.5887C61.8277 28.4072 61.3227 28.3456 60.8258 28.4095H35.7621C35.2652 28.3456 34.7602 28.4072 34.2931 28.5887C33.8261 28.7701 33.412 29.0656 33.0884 29.4482C32.319 30.5638 32.9057 32.1027 33.4347 33.4684L33.6078 33.8627ZM34.4638 30.3715C34.5311 30.2753 34.8004 30.0349 35.791 30.0349H60.7969C61.7587 30.0349 62.0568 30.2753 62.1241 30.3715C62.4127 30.785 61.951 31.9969 61.6048 32.8817L61.4509 33.2952C60.8739 34.8437 60.3353 35.44 59.5274 35.44H37.0509C36.2526 35.44 35.7141 34.8437 35.1274 33.2952L34.9831 32.8528C34.6465 31.968 34.1849 30.7562 34.4638 30.3426" fill="#444444"/>
<path d="M63.0091 62.0425C62.6917 61.0807 61.8069 58.8206 59.566 58.8206H37.051C34.8005 58.8206 33.9638 61.0615 33.6079 62.0232L33.454 62.4272C32.9347 63.7833 32.348 65.3125 33.1174 66.4377C33.4381 66.8159 33.8475 67.1087 34.3091 67.29C34.7706 67.4713 35.2699 67.5353 35.7623 67.4764H60.7682C61.2659 67.5383 61.7712 67.4748 62.2381 67.2917C62.705 67.1086 63.1188 66.8118 63.4419 66.4281C64.2113 65.3125 63.615 63.7736 63.1053 62.4079L63.0091 62.0425ZM62.1531 65.5529C62.0858 65.6587 61.8165 65.8895 60.8259 65.8895H35.7623C34.8005 65.8895 34.5023 65.6587 34.435 65.5529C34.1465 65.1394 34.6081 63.9275 34.9544 63.0427L35.1083 62.6291C35.6853 61.0903 36.2239 60.4844 37.0318 60.4844H59.566C60.3642 60.4844 60.9028 61.0903 61.4895 62.6291L61.6434 63.0427C61.98 63.9275 62.4416 65.1394 62.1627 65.5529" fill="#444444"/>
<path d="M71.9342 60.3787C71.6302 60.3056 71.3363 60.1958 71.0589 60.0517C69.9524 59.5568 68.9528 58.8512 68.1159 57.9743C67.7506 57.6384 67.4657 57.2244 67.2825 56.7631C67.0993 56.3019 67.0226 55.8052 67.058 55.3102C67.1062 54.9759 67.2068 54.6513 67.3562 54.3484C68.0984 52.7831 68.4765 51.07 68.4622 49.3376C68.4548 47.912 68.0119 46.5227 67.1927 45.3559C66.3951 44.2722 65.3273 43.4166 64.0958 42.8745C62.4524 42.1666 60.6708 41.8379 58.883 41.9128H37.9165C37.8096 41.9115 37.7035 41.9315 37.6044 41.9715C37.5053 42.0115 37.4151 42.0708 37.339 42.146C37.263 42.2211 37.2026 42.3106 37.1614 42.4093C37.1202 42.5079 37.099 42.6138 37.099 42.7207C37.099 42.828 37.1201 42.9343 37.1612 43.0335C37.2023 43.1327 37.2625 43.2228 37.3384 43.2987C37.4144 43.3746 37.5045 43.4348 37.6037 43.4759C37.7028 43.517 37.8091 43.5382 37.9165 43.5382H58.9407C60.4769 43.4596 62.0105 43.736 63.4225 44.346C64.3907 44.763 65.2329 45.4262 65.8654 46.2696C66.4937 47.1799 66.8293 48.2603 66.8272 49.3665C66.8349 50.8413 66.5059 52.2985 65.8654 53.6271C65.651 54.0901 65.5083 54.583 65.4422 55.089C65.3779 55.8187 65.4765 56.5537 65.731 57.2406C65.9855 57.9276 66.3895 58.5494 66.9137 59.0611C67.9024 60.1019 69.0808 60.9441 70.3857 61.5424C70.8107 61.7505 71.2597 61.9056 71.7226 62.0041H71.8284C72.0328 61.9996 72.2282 61.9186 72.3759 61.7771C72.5236 61.6357 72.6129 61.444 72.6262 61.2399C72.6395 61.0358 72.5758 60.8341 72.4477 60.6747C72.3195 60.5153 72.1363 60.4096 71.9342 60.3787Z" fill="#444444"/>
<path d="M37.9165 38.5176C37.6997 38.5176 37.4918 38.6037 37.3384 38.757C37.1851 38.9103 37.099 39.1183 37.099 39.3351C37.099 39.5519 37.1851 39.7598 37.3384 39.9131C37.4918 40.0665 37.6997 40.1526 37.9165 40.1526H58.6906C58.9075 40.1526 59.1154 40.0665 59.2687 39.9131C59.422 39.7598 59.5081 39.5519 59.5081 39.3351C59.5081 39.1183 59.422 38.9103 59.2687 38.757C59.1154 38.6037 58.9075 38.5176 58.6906 38.5176H37.9165Z" fill="#444444"/>
<path d="M58.6907 45.2983H37.9165C37.8024 45.2858 37.6869 45.2976 37.5776 45.3328C37.4683 45.3679 37.3676 45.4257 37.2821 45.5024C37.1967 45.5791 37.1283 45.6729 37.0815 45.7777C37.0347 45.8826 37.0105 45.9961 37.0105 46.111C37.0105 46.2258 37.0347 46.3393 37.0815 46.4442C37.1283 46.549 37.1967 46.6428 37.2821 46.7195C37.3676 46.7962 37.4683 46.854 37.5776 46.8892C37.6869 46.9243 37.8024 46.9361 37.9165 46.9237H58.6907C58.8048 46.9361 58.9203 46.9243 59.0296 46.8892C59.1389 46.854 59.2396 46.7962 59.3251 46.7195C59.4106 46.6428 59.4789 46.549 59.5257 46.4442C59.5725 46.3393 59.5967 46.2258 59.5967 46.111C59.5967 45.9961 59.5725 45.8826 59.5257 45.7777C59.4789 45.6729 59.4106 45.5791 59.3251 45.5024C59.2396 45.4257 59.1389 45.3679 59.0296 45.3328C58.9203 45.2976 58.8048 45.2858 58.6907 45.2983Z" fill="#444444"/>
<path d="M58.6907 48.6835H37.9165C37.8024 48.6711 37.6869 48.6828 37.5776 48.718C37.4683 48.7532 37.3676 48.811 37.2821 48.8877C37.1967 48.9643 37.1283 49.0581 37.0815 49.163C37.0347 49.2679 37.0105 49.3814 37.0105 49.4962C37.0105 49.611 37.0347 49.7246 37.0815 49.8294C37.1283 49.9343 37.1967 50.0281 37.2821 50.1048C37.3676 50.1814 37.4683 50.2393 37.5776 50.2744C37.6869 50.3096 37.8024 50.3213 37.9165 50.3089H58.6907C58.8048 50.3213 58.9203 50.3096 59.0296 50.2744C59.1389 50.2393 59.2396 50.1814 59.3251 50.1048C59.4106 50.0281 59.4789 49.9343 59.5257 49.8294C59.5725 49.7246 59.5967 49.611 59.5967 49.4962C59.5967 49.3814 59.5725 49.2679 59.5257 49.163C59.4789 49.0581 59.4106 48.9643 59.3251 48.8877C59.2396 48.811 59.1389 48.7532 59.0296 48.718C58.9203 48.6828 58.8048 48.6711 58.6907 48.6835Z" fill="#444444"/>
<path d="M58.6907 52.0883H37.9165C37.8024 52.0759 37.6869 52.0876 37.5776 52.1228C37.4683 52.158 37.3676 52.2158 37.2821 52.2924C37.1967 52.3691 37.1283 52.4629 37.0815 52.5678C37.0347 52.6726 37.0105 52.7862 37.0105 52.901C37.0105 53.0158 37.0347 53.1294 37.0815 53.2342C37.1283 53.3391 37.1967 53.4329 37.2821 53.5096C37.3676 53.5862 37.4683 53.644 37.5776 53.6792C37.6869 53.7144 37.8024 53.7261 37.9165 53.7137H58.6907C58.8048 53.7261 58.9203 53.7144 59.0296 53.6792C59.1389 53.644 59.2396 53.5862 59.3251 53.5096C59.4106 53.4329 59.4789 53.3391 59.5257 53.2342C59.5725 53.1294 59.5967 53.0158 59.5967 52.901C59.5967 52.7862 59.5725 52.6726 59.5257 52.5678C59.4789 52.4629 59.4106 52.3691 59.3251 52.2924C59.2396 52.2158 59.1389 52.158 59.0296 52.1228C58.9203 52.0876 58.8048 52.0759 58.6907 52.0883Z" fill="#444444"/>
<path d="M58.6907 55.4545H37.9165C37.8024 55.4421 37.6869 55.4538 37.5776 55.489C37.4683 55.5242 37.3676 55.582 37.2821 55.6586C37.1967 55.7353 37.1283 55.8291 37.0815 55.934C37.0347 56.0388 37.0105 56.1524 37.0105 56.2672C37.0105 56.382 37.0347 56.4956 37.0815 56.6004C37.1283 56.7053 37.1967 56.7991 37.2821 56.8758C37.3676 56.9524 37.4683 57.0102 37.5776 57.0454C37.6869 57.0806 37.8024 57.0923 37.9165 57.0799H58.6907C58.8048 57.0923 58.9203 57.0806 59.0296 57.0454C59.1389 57.0102 59.2396 56.9524 59.3251 56.8758C59.4106 56.7991 59.4789 56.7053 59.5257 56.6004C59.5725 56.4956 59.5967 56.382 59.5967 56.2672C59.5967 56.1524 59.5725 56.0388 59.5257 55.934C59.4789 55.8291 59.4106 55.7353 59.3251 55.6586C59.2396 55.582 59.1389 55.5242 59.0296 55.489C58.9203 55.4538 58.8048 55.4421 58.6907 55.4545Z" fill="#444444"/>
<path d="M90.8714 47.9526C90.8734 56.2356 88.4188 64.333 83.8182 71.2209C79.2176 78.1087 72.6777 83.4774 65.0256 86.6481C57.3735 89.8187 48.953 90.6488 40.829 89.0333C32.7051 87.4179 25.2428 83.4294 19.3859 77.5725C13.5289 71.7156 9.54048 64.2532 7.92502 56.1293C6.30956 48.0054 7.13964 39.5849 10.3103 31.9328C13.4809 24.2807 18.8497 17.7407 25.7375 13.1402C32.6253 8.53958 40.7228 6.08501 49.0058 6.08692C60.1092 6.08692 70.7579 10.4977 78.6093 18.3491C86.4606 26.2004 90.8714 36.8491 90.8714 47.9526Z" fill="white"/>
<path d="M59.9507 37.7678C60.3471 37.4312 60.8402 37.2293 61.3589 37.1913C61.8775 37.1533 62.3948 37.2811 62.836 37.5563C63.5042 37.996 64.2867 38.2301 65.0866 38.2295C66.025 38.2305 66.9314 37.8884 67.6352 37.2677C67.8012 37.1229 67.9034 36.9185 67.9196 36.6988C67.9358 36.4792 67.8647 36.262 67.7218 36.0944C67.5753 35.9278 67.3693 35.8254 67.148 35.8092C66.9268 35.793 66.708 35.8643 66.5388 36.0078C66.1546 36.3385 65.6718 36.5329 65.1656 36.5607C64.6594 36.5885 64.1583 36.4482 63.7401 36.1617C62.9842 35.6806 62.0915 35.4606 61.1986 35.5353C60.3058 35.61 59.462 35.9753 58.7966 36.5752C58.7154 36.6516 58.6502 36.7434 58.6049 36.8453C58.5596 36.9472 58.5352 37.0571 58.533 37.1686C58.5308 37.2801 58.5509 37.3909 58.5922 37.4945C58.6334 37.5981 58.6949 37.6924 58.7731 37.7719C58.8513 37.8513 58.9446 37.9144 59.0475 37.9573C59.1504 38.0002 59.2609 38.0221 59.3724 38.0218C59.4839 38.0214 59.5942 37.9987 59.6968 37.9551C59.7994 37.9115 59.8923 37.8478 59.97 37.7678" fill="#444444"/>
<path d="M56.5556 34.5553C55.3149 34.286 53.4395 33.7763 51.4582 33.2377C46.8417 31.9778 41.6097 30.564 39.1284 30.564C36.973 30.5603 34.8717 31.2387 33.1252 32.5019C31.3787 33.7651 30.0766 35.5484 29.4053 37.5966C28.734 39.6448 28.7278 41.8528 29.3876 43.9048C30.0475 45.9567 31.3395 47.7473 33.0789 49.0203C33.0649 49.0998 33.0649 49.1812 33.0789 49.2607C33.454 50.6937 32.4441 55.4064 31.5689 57.9166C30.7706 60.1768 31.0399 63.5045 32.5884 64.5624C33.454 65.1587 35.4737 65.3799 37.503 65.3799C39.2809 65.4124 41.0564 65.2348 42.7927 64.8509C42.9119 64.8247 43.0279 64.786 43.1389 64.7355C43.2591 64.6828 43.3657 64.6035 43.4507 64.5035C43.5356 64.4035 43.5968 64.2855 43.6294 64.1585C43.9508 62.659 43.7506 61.0949 43.062 59.7247C42.2637 57.6858 41.4366 55.5795 44.5143 50.1551C46.6975 49.6454 49.1404 48.9818 51.4294 48.3566C53.4106 47.8181 55.2764 47.3083 56.5267 47.039C56.7125 46.9975 56.8785 46.8938 56.9974 46.7452C57.1163 46.5966 57.1809 46.4119 57.1807 46.2215V35.3728C57.1809 35.1825 57.1163 34.9978 56.9974 34.8491C56.8785 34.7005 56.7125 34.5969 56.5267 34.5553H56.5556ZM41.5328 60.3114C41.9993 61.2286 42.1992 62.2582 42.1099 63.2832C40.1863 63.7738 34.6273 63.8988 33.5501 63.1582C32.9154 62.7254 32.4826 60.3883 33.1654 58.4456C34.0967 55.741 34.6596 52.9234 34.8389 50.0686C36.1793 50.6945 37.6394 51.0226 39.1188 51.0304C40.2222 50.9915 41.3199 50.8531 42.3984 50.6168C39.7728 55.8392 40.7442 58.3109 41.5328 60.3403V60.3114ZM55.5457 45.5291C54.3339 45.8176 52.7758 46.2408 51.0158 46.7216C46.7263 47.8854 41.3982 49.3376 39.1284 49.3376C36.9091 49.2632 34.8056 48.3293 33.262 46.7331C31.7184 45.1369 30.8556 43.0032 30.8556 40.7827C30.8556 38.5622 31.7184 36.4286 33.262 34.8324C34.8056 33.2362 36.9091 32.3023 39.1284 32.2278C41.3885 32.2278 46.7263 33.6801 51.0158 34.8438C52.7758 35.3247 54.3339 35.7479 55.5457 36.0364V45.5291Z" fill="#444444"/>
<path d="M39.1283 35.1804C38.0189 35.1785 36.9339 35.5058 36.0106 36.1207C35.0872 36.7357 34.367 37.6107 33.9412 38.6351C33.5153 39.6595 33.4029 40.7872 33.6182 41.8755C33.8334 42.9638 34.3667 43.9638 35.1505 44.7489C35.9343 45.5341 36.9333 46.069 38.0213 46.2862C39.1092 46.5033 40.2371 46.3928 41.2622 45.9687C42.2873 45.5446 43.1636 44.8259 43.7801 43.9037C44.3967 42.9814 44.7258 41.8969 44.7258 40.7875C44.7258 39.3021 44.1364 37.8774 43.0869 36.8261C42.0375 35.7748 40.6137 35.183 39.1283 35.1804ZM39.1283 44.7211C38.3503 44.7211 37.5898 44.4904 36.9429 44.0582C36.296 43.626 35.7918 43.0116 35.4941 42.2929C35.1964 41.5741 35.1185 40.7832 35.2703 40.0201C35.4221 39.2571 35.7967 38.5562 36.3468 38.006C36.8969 37.4559 37.5978 37.0813 38.3609 36.9295C39.1239 36.7777 39.9149 36.8556 40.6336 37.1533C41.3524 37.4511 41.9668 37.9552 42.399 38.6021C42.8312 39.249 43.0619 40.0095 43.0619 40.7875C43.0619 41.8308 42.6475 42.8313 41.9098 43.569C41.1721 44.3067 40.1716 44.7211 39.1283 44.7211Z" fill="#444444"/>
<path d="M68.8566 39.768C68.6985 39.6135 68.4862 39.527 68.2651 39.527C68.044 39.527 67.8317 39.6135 67.6736 39.768C67.2588 40.2366 66.6765 40.5234 66.0522 40.5666C65.4279 40.6098 64.8116 40.4059 64.3363 39.9989C63.4943 39.3475 62.4357 39.0416 61.3761 39.1435C60.3165 39.2453 59.3355 39.7473 58.633 40.5471C58.4901 40.7147 58.419 40.9319 58.4353 41.1515C58.4515 41.3712 58.5536 41.5756 58.7196 41.7204C58.8888 41.8639 59.1075 41.9352 59.3288 41.919C59.55 41.9029 59.7561 41.8005 59.9026 41.6339C60.3315 41.1672 60.9189 40.8771 61.5502 40.8202C62.1815 40.7633 62.8113 40.9437 63.3168 41.3261C64.0624 41.9202 64.98 42.2575 65.9328 42.2879C66.4842 42.2816 67.0286 42.1632 67.5329 41.94C68.0372 41.7168 68.4908 41.3934 68.8662 40.9895C69.0207 40.8314 69.1072 40.6191 69.1072 40.398C69.1072 40.1769 69.0207 39.9646 68.8662 39.8065" fill="#444444"/>
<path d="M66.5388 44.0287C66.1556 44.3608 65.6734 44.557 65.1672 44.5865C64.661 44.6161 64.1593 44.4775 63.74 44.1922C62.9852 43.708 62.0919 43.4861 61.1982 43.5608C60.3045 43.6356 59.4604 44.0029 58.7966 44.6058C58.7192 44.6826 58.6578 44.774 58.6159 44.8747C58.5741 44.9754 58.5525 45.0834 58.5525 45.1924C58.5525 45.3015 58.5741 45.4095 58.6159 45.5102C58.6578 45.6108 58.7192 45.7022 58.7966 45.7791C58.9535 45.9359 59.1662 46.024 59.3881 46.024C59.6099 46.024 59.8226 45.9359 59.9795 45.7791C60.3749 45.4398 60.869 45.2369 61.3888 45.2006C61.9085 45.1642 62.4261 45.2962 62.8648 45.5771C63.5398 46.0088 64.3238 46.239 65.125 46.2408C66.0601 46.2394 66.9627 45.8975 67.6641 45.279C67.8299 45.1298 67.9296 44.9208 67.9413 44.6981C67.953 44.4753 67.8758 44.257 67.7266 44.0912C67.5773 43.9254 67.3684 43.8257 67.1456 43.814C66.9229 43.8022 66.7046 43.8795 66.5388 44.0287Z" fill="#444444"/>
<path d="M90.8714 47.9526C90.8734 56.2356 88.4188 64.333 83.8182 71.2209C79.2176 78.1087 72.6777 83.4774 65.0256 86.6481C57.3735 89.8187 48.953 90.6488 40.829 89.0333C32.7051 87.4179 25.2428 83.4294 19.3859 77.5725C13.5289 71.7156 9.54048 64.2532 7.92502 56.1293C6.30956 48.0054 7.13964 39.5849 10.3103 31.9328C13.4809 24.2807 18.8497 17.7407 25.7375 13.1402C32.6253 8.53958 40.7228 6.08501 49.0058 6.08692C60.1092 6.08692 70.7579 10.4977 78.6093 18.3491C86.4606 26.2004 90.8714 36.8491 90.8714 47.9526Z" fill="white"/>
<path d="M44.2162 59.6765C43.706 59.6746 43.2067 59.8242 42.7816 60.1062C42.3564 60.3883 42.0246 60.7902 41.828 61.261C41.6314 61.7318 41.579 62.2504 41.6774 62.751C41.7758 63.2516 42.0205 63.7118 42.3806 64.0732C42.7407 64.4347 43.1999 64.6811 43.7002 64.7813C44.2004 64.8816 44.7192 64.8311 45.1907 64.6363C45.6622 64.4415 46.0654 64.1111 46.349 63.6871C46.6327 63.263 46.7841 62.7643 46.7841 62.2541C46.7841 61.5721 46.5139 60.918 46.0326 60.4349C45.5512 59.9518 44.8981 59.6791 44.2162 59.6765ZM44.2162 63.187C44.026 63.187 43.84 63.1306 43.6818 63.0249C43.5237 62.9192 43.4004 62.769 43.3276 62.5933C43.2548 62.4175 43.2358 62.2241 43.2729 62.0376C43.31 61.851 43.4016 61.6796 43.5361 61.5451C43.6706 61.4106 43.842 61.319 44.0285 61.2819C44.2151 61.2448 44.4085 61.2639 44.5842 61.3367C44.76 61.4095 44.9102 61.5327 45.0159 61.6909C45.1215 61.849 45.1779 62.035 45.1779 62.2252C45.1779 62.4803 45.0766 62.7249 44.8962 62.9053C44.7159 63.0857 44.4713 63.187 44.2162 63.187Z" fill="#444444"/>
<path d="M62.4224 64.822C62.9326 64.8239 63.4319 64.6744 63.857 64.3923C64.2821 64.1103 64.614 63.7084 64.8106 63.2376C65.0071 62.7668 65.0596 62.2482 64.9612 61.7476C64.8628 61.247 64.6181 60.7868 64.258 60.4253C63.8979 60.0639 63.4387 59.8175 62.9384 59.7172C62.4382 59.617 61.9194 59.6675 61.4479 59.8623C60.9763 60.0571 60.5732 60.3874 60.2896 60.8115C60.0059 61.2356 59.8545 61.7343 59.8545 62.2445C59.8545 62.9265 60.1247 63.5806 60.606 64.0637C61.0873 64.5468 61.7405 64.8195 62.4224 64.822ZM62.4224 61.3116C62.6126 61.3116 62.7986 61.368 62.9567 61.4737C63.1149 61.5794 63.2382 61.7296 63.311 61.9053C63.3838 62.0811 63.4028 62.2744 63.3657 62.461C63.3286 62.6476 63.237 62.8189 63.1025 62.9534C62.968 63.0879 62.7966 63.1795 62.61 63.2166C62.4235 63.2538 62.2301 63.2347 62.0544 63.1619C61.8786 63.0891 61.7284 62.9659 61.6227 62.8077C61.517 62.6495 61.4606 62.4636 61.4606 62.2734C61.4606 62.0183 61.562 61.7737 61.7423 61.5933C61.9227 61.4129 62.1673 61.3116 62.4224 61.3116Z" fill="#444444"/>
<path d="M68.9239 44.6057C68.9478 44.4948 68.9478 44.38 68.9239 44.2691C68.948 44.1614 68.948 44.0498 68.9239 43.9421C68.3565 36.1037 63.0668 29.6695 56.0555 28.2846C55.8468 28.2439 55.6304 28.2851 55.4513 28.3997C55.2723 28.5144 55.1442 28.6936 55.0937 28.9001L51.6891 43.7209H39.1861C39.155 42.0151 38.5522 40.3691 37.4742 39.0467C36.575 38.1231 35.4007 37.5157 34.1272 37.3156C34.0225 36.7123 33.7064 36.166 33.2356 35.7745C32.7647 35.383 32.1699 35.172 31.5576 35.1791C30.9454 35.1862 30.3556 35.4111 29.8941 35.8134C29.4325 36.2158 29.1292 36.7693 29.0385 37.3749C28.9479 37.9804 29.0758 38.5985 29.3993 39.1183C29.7228 39.6382 30.2209 40.0259 30.8042 40.212C31.3875 40.3981 32.0181 40.3705 32.5829 40.1341C33.1477 39.8977 33.61 39.4679 33.8868 38.9217C34.7904 39.0682 35.625 39.4955 36.272 40.1431C37.2548 41.3951 37.7564 42.9579 37.6857 44.548V44.7981C37.6712 44.8711 37.6712 44.9463 37.6857 45.0193C37.9495 47.5389 38.8229 49.9564 40.2305 52.0628C41.6381 54.1692 43.5375 55.9011 45.7646 57.1087C44.4802 56.7219 43.0973 56.8328 41.891 57.4193C40.6847 58.0059 39.7435 59.0251 39.2546 60.2742C38.7657 61.5233 38.765 62.9106 39.2526 64.1602C39.7403 65.4098 40.6805 66.43 41.8862 67.0177C43.0919 67.6055 44.4747 67.7178 45.7594 67.3323C47.0442 66.9467 48.1367 66.0916 48.8196 64.9371C49.5024 63.7826 49.7256 62.4133 49.4446 61.1017C49.1637 59.7901 48.3993 58.6324 47.3034 57.8589C49.1934 58.6297 51.2156 59.025 53.2567 59.0226C55.5191 59.0257 57.7547 58.5332 59.8064 57.58C58.6747 58.215 57.8132 59.2405 57.3828 60.4647C56.9525 61.6889 56.9829 63.028 57.4682 64.2314C57.9536 65.4349 58.8607 66.4203 60.0199 67.0034C61.1792 67.5865 62.5112 67.7274 63.7667 67.3996C65.0223 67.0719 66.1155 66.298 66.8418 65.2227C67.5682 64.1474 67.8779 62.8443 67.7132 61.5572C67.5484 60.27 66.9204 59.087 65.9467 58.2293C64.9729 57.3716 63.72 56.898 62.4224 56.8971C61.7639 56.8968 61.1113 57.0208 60.4988 57.2626C62.8465 56.0349 64.8466 54.2351 66.3142 52.0295C67.7817 49.8239 68.6694 47.2838 68.8951 44.6442L68.9239 44.6057ZM31.6555 38.7005C31.4653 38.7005 31.2793 38.6441 31.1211 38.5384C30.963 38.4327 30.8397 38.2825 30.7669 38.1068C30.6941 37.931 30.6751 37.7377 30.7122 37.5511C30.7493 37.3645 30.8409 37.1932 30.9754 37.0587C31.1099 36.9242 31.2813 36.8326 31.4678 36.7954C31.6544 36.7583 31.8478 36.7774 32.0235 36.8502C32.1993 36.923 32.3495 37.0462 32.4552 37.2044C32.5608 37.3626 32.6172 37.5485 32.6172 37.7387C32.6172 37.9938 32.5159 38.2384 32.3355 38.4188C32.1552 38.5992 31.9106 38.7005 31.6555 38.7005ZM56.5075 30.0446C62.2781 31.5642 66.6445 37.0463 67.2601 43.7017H53.3625L56.5075 30.0446ZM47.9766 62.2445C47.9785 62.9887 47.7596 63.7167 47.3476 64.3364C46.9355 64.956 46.3489 65.4395 45.6619 65.7256C44.9749 66.0117 44.2185 66.0876 43.4884 65.9436C42.7583 65.7995 42.0874 65.4422 41.5605 64.9166C41.0336 64.3911 40.6745 63.721 40.5286 62.9913C40.3827 62.2616 40.4566 61.505 40.741 60.8173C41.0253 60.1296 41.5073 59.5417 42.1259 59.1281C42.7445 58.7144 43.472 58.4936 44.2161 58.4936C45.211 58.4962 46.1646 58.8918 46.869 59.5945C47.5734 60.2971 47.9716 61.2496 47.9766 62.2445ZM62.4031 58.4936C63.1473 58.4936 63.8747 58.7144 64.4934 59.1281C65.112 59.5417 65.594 60.1296 65.8783 60.8173C66.1626 61.505 66.2365 62.2616 66.0907 62.9913C65.9448 63.721 65.5857 64.3911 65.0588 64.9166C64.5319 65.4422 63.861 65.7995 63.1309 65.9436C62.4008 66.0876 61.6443 66.0117 60.9574 65.7256C60.2704 65.4395 59.6838 64.956 59.2717 64.3364C58.8597 63.7167 58.6407 62.9887 58.6426 62.2445C58.6452 61.2488 59.0425 60.2948 59.7475 59.5917C60.4524 58.8885 61.4075 58.4936 62.4031 58.4936ZM53.2567 57.3972C49.8766 57.407 46.6072 56.1931 44.0526 53.9797C41.4979 51.7663 39.8308 48.703 39.3592 45.3559H67.1927C66.6941 48.6946 65.0165 51.7444 62.4637 53.9532C59.9109 56.162 56.6517 57.3837 53.276 57.3972" fill="#444444"/>
<path d="M90.8714 47.9526C90.8734 56.2356 88.4188 64.333 83.8182 71.2209C79.2176 78.1087 72.6777 83.4774 65.0256 86.6481C57.3735 89.8187 48.953 90.6488 40.829 89.0333C32.7051 87.4179 25.2428 83.4294 19.3859 77.5725C13.5289 71.7156 9.54048 64.2532 7.92502 56.1293C6.30956 48.0054 7.13964 39.5849 10.3103 31.9328C13.4809 24.2807 18.8497 17.7407 25.7375 13.1402C32.6253 8.53958 40.7228 6.08501 49.0058 6.08692C60.1092 6.08692 70.7579 10.4977 78.6093 18.3491C86.4606 26.2004 90.8714 36.8491 90.8714 47.9526Z" fill="white"/>
<path d="M70.0107 57.7243L65.7404 44.1441C65.6932 43.996 65.6028 43.8654 65.4807 43.769C65.5999 43.626 65.6646 43.4455 65.6635 43.2593V31.093C65.6763 30.1763 65.3251 29.292 64.6869 28.6339C64.0486 27.9758 63.1755 27.5977 62.2588 27.5825H35.7622C34.8456 27.5977 33.9724 27.9758 33.3341 28.6339C32.6959 29.292 32.3447 30.1763 32.3575 31.093V43.2593C32.3558 43.4623 32.4315 43.6583 32.5691 43.8075C32.4703 43.8992 32.3974 44.0153 32.3575 44.1441L28.0007 57.7243C27.9341 57.9309 27.9514 58.1554 28.0488 58.3494C28.0389 58.4325 28.0389 58.5164 28.0488 58.5995V67.4766C28.0488 67.6934 28.135 67.9013 28.2883 68.0546C28.4416 68.2079 28.6495 68.2941 28.8663 68.2941H34.5696C34.7864 68.2941 34.9943 68.2079 35.1477 68.0546C35.301 67.9013 35.3871 67.6934 35.3871 67.4766V63.8122H62.6916V67.4766C62.6916 67.6934 62.7778 67.9013 62.9311 68.0546C63.0844 68.2079 63.2923 68.2941 63.5091 68.2941H69.2124C69.4292 68.2941 69.6371 68.2079 69.7905 68.0546C69.9438 67.9013 70.0299 67.6934 70.0299 67.4766V58.5995C70.0399 58.5164 70.0399 58.4325 70.0299 58.3494C70.1258 58.1553 70.1463 57.9326 70.0876 57.7243H70.0107ZM34.0502 43.2978V31.093C34.0386 30.8501 34.0754 30.6074 34.1583 30.3788C34.2412 30.1503 34.3686 29.9404 34.5332 29.7615C34.6978 29.5826 34.8963 29.4381 35.1172 29.3365C35.3381 29.2348 35.5769 29.1781 35.8199 29.1694H62.2588C62.5018 29.1781 62.7407 29.2348 62.9615 29.3365C63.1824 29.4381 63.3809 29.5826 63.5455 29.7615C63.7101 29.9404 63.8376 30.1503 63.9205 30.3788C64.0034 30.6074 64.0401 30.8501 64.0285 31.093V43.2593C64.0285 43.2593 64.0285 43.3266 64.0285 43.3651C63.4514 43.2497 62.8263 43.1535 62.153 43.0573C62.1676 42.9746 62.1676 42.89 62.153 42.8073V40.3932C62.1659 39.4043 61.7866 38.4504 61.0982 37.7403C60.4097 37.0302 59.468 36.6216 58.4791 36.6039H52.0545C51.4446 36.6062 50.845 36.7614 50.3107 37.0555C49.7764 37.3495 49.3244 37.773 48.9961 38.287C48.6706 37.7725 48.2206 37.3485 47.6876 37.0543C47.1547 36.76 46.5561 36.6051 45.9473 36.6039H39.4746C38.9817 36.6076 38.4943 36.7088 38.0406 36.9015C37.5868 37.0942 37.1757 37.3747 36.8307 37.7268C36.4857 38.079 36.2137 38.4958 36.0303 38.9534C35.847 39.411 35.7558 39.9003 35.7622 40.3932V42.8073C35.7626 42.93 35.7888 43.0512 35.8391 43.1631C35.1851 43.2401 34.5407 43.3362 33.9156 43.4324C33.9203 43.3748 33.9203 43.3169 33.9156 43.2593L34.0502 43.2978ZM60.518 42.865C57.5077 42.5476 53.7857 42.3649 49.9386 42.3552C49.9437 42.3041 49.9437 42.2525 49.9386 42.2014V40.3932C49.9306 39.8367 50.1403 39.299 50.523 38.8948C50.9056 38.4906 51.431 38.2518 51.9872 38.2293H58.4599C59.0177 38.2469 59.546 38.4842 59.9297 38.8895C60.3134 39.2948 60.5214 39.8353 60.5084 40.3932V42.865H60.518ZM47.9381 42.3649C44.3892 42.3649 40.7345 42.6149 37.3587 42.9804C37.3682 42.9231 37.3682 42.8646 37.3587 42.8073V40.3932C37.3458 39.8353 37.5538 39.2948 37.9375 38.8895C38.3212 38.4842 38.8494 38.2469 39.4073 38.2293H45.88C46.4378 38.2469 46.9661 38.4842 47.3498 38.8895C47.7335 39.2948 47.9415 39.8353 47.9285 40.3932V42.2014C47.9234 42.2557 47.9234 42.3105 47.9285 42.3649H47.9381ZM33.7425 45.1155C43.6871 43.4997 58.1906 43.769 64.3266 45.1155L68.116 57.1857H29.8858L33.7425 45.1155ZM68.366 66.6975H64.2882V62.9947C64.2882 62.7779 64.202 62.57 64.0487 62.4167C63.8954 62.2634 63.6875 62.1772 63.4707 62.1772H34.5311C34.3143 62.1772 34.1064 62.2634 33.9531 62.4167C33.7998 62.57 33.7136 62.7779 33.7136 62.9947V66.6975H29.6454V58.8207H68.3564L68.366 66.6975Z" fill="#444444"/>
<path d="M90.8714 47.9526C90.8734 56.2356 88.4188 64.333 83.8182 71.2209C79.2176 78.1087 72.6777 83.4774 65.0256 86.6481C57.3735 89.8187 48.953 90.6488 40.829 89.0333C32.7051 87.4179 25.2428 83.4294 19.3859 77.5725C13.5289 71.7156 9.54048 64.2532 7.92502 56.1293C6.30956 48.0054 7.13964 39.5849 10.3103 31.9328C13.4809 24.2807 18.8497 17.7407 25.7375 13.1402C32.6253 8.53958 40.7228 6.08501 49.0058 6.08692C60.1092 6.08692 70.7579 10.4977 78.6093 18.3491C86.4606 26.2004 90.8714 36.8491 90.8714 47.9526Z" fill="white"/>
<path d="M60.6623 42.8266L56.594 28.6502C56.4948 28.2459 56.2626 27.8867 55.9347 27.6303C55.6068 27.3739 55.2022 27.2352 54.7859 27.2364H43.2447C42.828 27.2335 42.4226 27.3716 42.0943 27.6282C41.766 27.8849 41.5342 28.2451 41.4366 28.6502L37.3395 42.8266C37.2869 43.0201 37.2795 43.223 37.3179 43.4198C37.3562 43.6166 37.4393 43.8019 37.5607 43.9615C37.756 44.194 38.0005 44.3803 38.2767 44.5067C38.5528 44.6331 38.8535 44.6965 39.1572 44.6924H48.1882V67.0439H39.8978C39.6809 67.0439 39.473 67.13 39.3197 67.2833C39.1664 67.4366 39.0803 67.6445 39.0803 67.8614C39.0803 68.0782 39.1664 68.2861 39.3197 68.4394C39.473 68.5927 39.6809 68.6789 39.8978 68.6789H58.104C58.3208 68.6789 58.5287 68.5927 58.6821 68.4394C58.8354 68.2861 58.9215 68.0782 58.9215 67.8614C58.9215 67.6445 58.8354 67.4366 58.6821 67.2833C58.5287 67.13 58.3208 67.0439 58.104 67.0439H49.8232V44.6924H52.4488V52.8097C52.1898 52.9513 51.9737 53.1599 51.8231 53.4137C51.6725 53.6675 51.5929 53.9572 51.5928 54.2524C51.5897 54.5478 51.6649 54.8388 51.8107 55.0957C51.9565 55.3527 52.1677 55.5664 52.4229 55.7153C52.6781 55.8642 52.9681 55.9429 53.2635 55.9434C53.559 55.9438 53.8493 55.8661 54.1049 55.718C54.3606 55.57 54.5725 55.3569 54.7191 55.1004C54.8657 54.8439 54.9418 54.5532 54.9396 54.2577C54.9375 53.9623 54.8572 53.6727 54.7069 53.4184C54.5566 53.1641 54.3416 52.9541 54.0838 52.8097V44.6924H58.8926C59.1958 44.696 59.4958 44.6313 59.7705 44.5031C60.0453 44.3749 60.2876 44.1865 60.4796 43.9519C60.6035 43.7956 60.6883 43.6118 60.7268 43.4161C60.7653 43.2203 60.7563 43.0182 60.7008 42.8266H60.6623ZM58.8446 43.0574H39.1572C39.1 43.0683 39.0413 43.0683 38.9841 43.0574L42.9754 29.0926C43.0427 28.8618 43.1582 28.8618 43.2159 28.8618H54.7571C54.8148 28.8618 54.9398 28.8618 54.9975 29.0926L58.9984 43.0286C58.9412 43.0386 58.8826 43.0386 58.8253 43.0286" fill="#444444"/>
</svg>
