<svg width="95" height="131" viewBox="0 0 95 131" fill="none" xmlns="http://www.w3.org/2000/svg">
<path d="M62.1797 25.3153L59.6762 23.5788H58.5382L57.8554 23H50.9138H47.0447H44.086H37.1444L36.4616 23.5788H35.3236L32.8201 25.3153C32.8201 25.3153 27.5855 44.7635 29.6338 66.6429C29.6338 66.6429 29.52 68.2635 32.8201 68.8424C35.4374 69.4212 46.4757 70 47.9551 70C47.9551 70 48.9793 70 49.2069 70C52.1656 69.8842 59.5624 69.4212 62.1797 68.9581C65.4798 68.2635 65.366 66.7586 65.366 66.7586C67.4144 44.7635 62.1797 25.3153 62.1797 25.3153Z" stroke="#444444" stroke-width="1.5" stroke-miterlimit="10"/>
<path d="M29.7473 45.689L34.2992 46.4993H45.6789" stroke="#444444" stroke-width="1.5" stroke-miterlimit="10"/>
<path d="M65.4801 45.689L60.9283 46.4993H49.5486" stroke="#444444" stroke-width="1.5" stroke-miterlimit="10"/>
<path d="M36.575 23.5789C36.575 23.5789 38.8509 43.0271 47.6133 43.0271" stroke="#444444" stroke-width="1.5" stroke-miterlimit="10"/>
<path d="M58.5383 23.5789C58.5383 23.5789 56.2624 43.0271 47.5 43.0271" stroke="#444444" stroke-width="1.5" stroke-miterlimit="10"/>
<path d="M47.7865 36.7559C49.211 36.7559 50.3658 35.6012 50.3658 34.1767C50.3658 32.7522 49.211 31.5974 47.7865 31.5974C46.3621 31.5974 45.2073 32.7522 45.2073 34.1767C45.2073 35.6012 46.3621 36.7559 47.7865 36.7559Z" stroke="#444444" stroke-miterlimit="10"/>
<path d="M47.7866 29.5341C48.6413 29.5341 49.3341 28.8412 49.3341 27.9865C49.3341 27.1318 48.6413 26.439 47.7866 26.439C46.9319 26.439 46.239 27.1318 46.239 27.9865C46.239 28.8412 46.9319 29.5341 47.7866 29.5341Z" stroke="#444444" stroke-miterlimit="10"/>
<path d="M29.6343 64.675C29.6343 64.675 33.0482 66.8746 46.021 66.5273" stroke="#444444" stroke-width="1.5" stroke-miterlimit="10"/>
<path d="M65.7076 64.675C65.7076 64.675 62.2936 66.8746 49.3208 66.5273" stroke="#444444" stroke-width="1.5" stroke-miterlimit="10"/>
<path d="M49.7759 65.7165V46.7313C49.7759 46.6156 49.6621 46.384 49.4345 46.384H45.9068C45.793 46.384 45.5654 46.4998 45.5654 46.7313V65.7165C45.5654 65.8323 45.5654 65.9481 45.5654 66.0638C45.5654 67.2215 46.4758 68.1476 47.6138 68.1476C48.7517 68.1476 49.6621 67.2215 49.6621 66.0638C49.8897 65.9481 49.8897 65.8323 49.7759 65.7165Z" stroke="#444444" stroke-width="1.5" stroke-miterlimit="10"/>
<path d="M8.20271 95.969V97.075H3.38671V100.407H7.28571V101.471H3.38671V104.894H8.20271V106H2.02171V95.969H8.20271ZM11.3465 95.689V106H10.1005V95.689H11.3465ZM16.3495 98.797C16.7742 98.797 17.1662 98.8693 17.5255 99.014C17.8848 99.154 18.1952 99.3593 18.4565 99.63C18.7178 99.896 18.9208 100.227 19.0655 100.624C19.2148 101.016 19.2895 101.464 19.2895 101.968C19.2895 102.164 19.2685 102.295 19.2265 102.36C19.1845 102.425 19.1052 102.458 18.9885 102.458H14.2705C14.2798 102.906 14.3405 103.296 14.4525 103.627C14.5645 103.958 14.7185 104.236 14.9145 104.46C15.1105 104.679 15.3438 104.845 15.6145 104.957C15.8852 105.064 16.1885 105.118 16.5245 105.118C16.8372 105.118 17.1055 105.083 17.3295 105.013C17.5582 104.938 17.7542 104.859 17.9175 104.775C18.0808 104.691 18.2162 104.614 18.3235 104.544C18.4355 104.469 18.5312 104.432 18.6105 104.432C18.7132 104.432 18.7925 104.472 18.8485 104.551L19.1985 105.006C19.0445 105.193 18.8602 105.356 18.6455 105.496C18.4308 105.631 18.1998 105.743 17.9525 105.832C17.7098 105.921 17.4578 105.986 17.1965 106.028C16.9352 106.075 16.6762 106.098 16.4195 106.098C15.9295 106.098 15.4768 106.016 15.0615 105.853C14.6508 105.685 14.2938 105.442 13.9905 105.125C13.6918 104.803 13.4585 104.406 13.2905 103.935C13.1225 103.464 13.0385 102.922 13.0385 102.311C13.0385 101.816 13.1132 101.354 13.2625 100.925C13.4165 100.496 13.6358 100.125 13.9205 99.812C14.2052 99.4947 14.5528 99.2473 14.9635 99.07C15.3742 98.888 15.8362 98.797 16.3495 98.797ZM16.3775 99.714C15.7755 99.714 15.3018 99.889 14.9565 100.239C14.6112 100.584 14.3965 101.065 14.3125 101.681H18.1695C18.1695 101.392 18.1298 101.128 18.0505 100.89C17.9712 100.647 17.8545 100.44 17.7005 100.267C17.5465 100.09 17.3575 99.9543 17.1335 99.861C16.9142 99.763 16.6622 99.714 16.3775 99.714ZM23.0333 106.112C22.4733 106.112 22.0416 105.956 21.7383 105.643C21.4396 105.33 21.2903 104.88 21.2903 104.292V99.952H20.4363C20.3616 99.952 20.2986 99.931 20.2473 99.889C20.196 99.8423 20.1703 99.7723 20.1703 99.679V99.182L21.3323 99.035L21.6193 96.844C21.6286 96.774 21.659 96.718 21.7103 96.676C21.7616 96.6293 21.827 96.606 21.9063 96.606H22.5363V99.049H24.5663V99.952H22.5363V104.208C22.5363 104.507 22.6086 104.728 22.7533 104.873C22.898 105.018 23.0846 105.09 23.3133 105.09C23.444 105.09 23.556 105.074 23.6493 105.041C23.7473 105.004 23.8313 104.964 23.9013 104.922C23.9713 104.88 24.0296 104.843 24.0763 104.81C24.1276 104.773 24.172 104.754 24.2093 104.754C24.2746 104.754 24.333 104.794 24.3843 104.873L24.7483 105.468C24.5336 105.669 24.2746 105.827 23.9713 105.944C23.668 106.056 23.3553 106.112 23.0333 106.112ZM26.107 106V98.909H26.821C26.9563 98.909 27.0496 98.9347 27.101 98.986C27.1523 99.0373 27.1873 99.126 27.206 99.252L27.29 100.358C27.5326 99.8633 27.8313 99.4783 28.186 99.203C28.5453 98.923 28.9653 98.783 29.446 98.783C29.642 98.783 29.8193 98.8063 29.978 98.853C30.1366 98.895 30.2836 98.9557 30.419 99.035L30.258 99.966C30.2253 100.083 30.153 100.141 30.041 100.141C29.9756 100.141 29.8753 100.12 29.74 100.078C29.6046 100.031 29.4156 100.008 29.173 100.008C28.739 100.008 28.375 100.134 28.081 100.386C27.7916 100.638 27.549 101.004 27.353 101.485V106H26.107ZM34.6234 98.797C35.1414 98.797 35.6081 98.8833 36.0234 99.056C36.4434 99.2287 36.7981 99.4737 37.0874 99.791C37.3814 100.108 37.6054 100.493 37.7594 100.946C37.9181 101.394 37.9974 101.896 37.9974 102.451C37.9974 103.011 37.9181 103.515 37.7594 103.963C37.6054 104.411 37.3814 104.794 37.0874 105.111C36.7981 105.428 36.4434 105.673 36.0234 105.846C35.6081 106.014 35.1414 106.098 34.6234 106.098C34.1054 106.098 33.6364 106.014 33.2164 105.846C32.8011 105.673 32.4464 105.428 32.1524 105.111C31.8584 104.794 31.6321 104.411 31.4734 103.963C31.3148 103.515 31.2354 103.011 31.2354 102.451C31.2354 101.896 31.3148 101.394 31.4734 100.946C31.6321 100.493 31.8584 100.108 32.1524 99.791C32.4464 99.4737 32.8011 99.2287 33.2164 99.056C33.6364 98.8833 34.1054 98.797 34.6234 98.797ZM34.6234 105.125C35.3234 105.125 35.8461 104.892 36.1914 104.425C36.5368 103.954 36.7094 103.298 36.7094 102.458C36.7094 101.613 36.5368 100.955 36.1914 100.484C35.8461 100.013 35.3234 99.777 34.6234 99.777C34.2688 99.777 33.9608 99.8377 33.6994 99.959C33.4381 100.08 33.2188 100.255 33.0414 100.484C32.8688 100.713 32.7381 100.995 32.6494 101.331C32.5654 101.662 32.5234 102.038 32.5234 102.458C32.5234 102.878 32.5654 103.254 32.6494 103.585C32.7381 103.916 32.8688 104.196 33.0414 104.425C33.2188 104.649 33.4381 104.822 33.6994 104.943C33.9608 105.064 34.2688 105.125 34.6234 105.125ZM39.5327 108.401V98.909H40.2747C40.4521 98.909 40.5641 98.9953 40.6107 99.168L40.7157 100.008C41.0191 99.6393 41.3644 99.343 41.7517 99.119C42.1437 98.895 42.5941 98.783 43.1027 98.783C43.5087 98.783 43.8774 98.8623 44.2087 99.021C44.5401 99.175 44.8224 99.406 45.0557 99.714C45.2891 100.017 45.4687 100.395 45.5947 100.848C45.7207 101.301 45.7837 101.821 45.7837 102.409C45.7837 102.932 45.7137 103.419 45.5737 103.872C45.4337 104.32 45.2331 104.71 44.9717 105.041C44.7104 105.368 44.3884 105.627 44.0057 105.818C43.6277 106.005 43.2007 106.098 42.7247 106.098C42.2861 106.098 41.9104 106.026 41.5977 105.881C41.2897 105.736 41.0167 105.531 40.7787 105.265V108.401H39.5327ZM42.6897 99.791C42.2837 99.791 41.9267 99.8843 41.6187 100.071C41.3154 100.258 41.0354 100.521 40.7787 100.862V104.292C41.0074 104.6 41.2571 104.817 41.5277 104.943C41.8031 105.069 42.1087 105.132 42.4447 105.132C43.1027 105.132 43.6091 104.896 43.9637 104.425C44.3184 103.954 44.4957 103.282 44.4957 102.409C44.4957 101.947 44.4537 101.55 44.3697 101.219C44.2904 100.888 44.1737 100.617 44.0197 100.407C43.8657 100.192 43.6767 100.036 43.4527 99.938C43.2287 99.84 42.9744 99.791 42.6897 99.791ZM50.1274 98.797C50.6454 98.797 51.112 98.8833 51.5274 99.056C51.9474 99.2287 52.302 99.4737 52.5914 99.791C52.8854 100.108 53.1094 100.493 53.2634 100.946C53.422 101.394 53.5014 101.896 53.5014 102.451C53.5014 103.011 53.422 103.515 53.2634 103.963C53.1094 104.411 52.8854 104.794 52.5914 105.111C52.302 105.428 51.9474 105.673 51.5274 105.846C51.112 106.014 50.6454 106.098 50.1274 106.098C49.6094 106.098 49.1404 106.014 48.7204 105.846C48.305 105.673 47.9504 105.428 47.6564 105.111C47.3624 104.794 47.136 104.411 46.9774 103.963C46.8187 103.515 46.7394 103.011 46.7394 102.451C46.7394 101.896 46.8187 101.394 46.9774 100.946C47.136 100.493 47.3624 100.108 47.6564 99.791C47.9504 99.4737 48.305 99.2287 48.7204 99.056C49.1404 98.8833 49.6094 98.797 50.1274 98.797ZM50.1274 105.125C50.8274 105.125 51.35 104.892 51.6954 104.425C52.0407 103.954 52.2134 103.298 52.2134 102.458C52.2134 101.613 52.0407 100.955 51.6954 100.484C51.35 100.013 50.8274 99.777 50.1274 99.777C49.7727 99.777 49.4647 99.8377 49.2034 99.959C48.942 100.08 48.7227 100.255 48.5454 100.484C48.3727 100.713 48.242 100.995 48.1534 101.331C48.0694 101.662 48.0274 102.038 48.0274 102.458C48.0274 102.878 48.0694 103.254 48.1534 103.585C48.242 103.916 48.3727 104.196 48.5454 104.425C48.7227 104.649 48.942 104.822 49.2034 104.943C49.4647 105.064 49.7727 105.125 50.1274 105.125ZM55.0366 106V98.909H55.7506C55.886 98.909 55.9793 98.9347 56.0306 98.986C56.082 99.0373 56.117 99.126 56.1356 99.252L56.2196 100.358C56.4623 99.8633 56.761 99.4783 57.1156 99.203C57.475 98.923 57.895 98.783 58.3756 98.783C58.5716 98.783 58.749 98.8063 58.9076 98.853C59.0663 98.895 59.2133 98.9557 59.3486 99.035L59.1876 99.966C59.155 100.083 59.0826 100.141 58.9706 100.141C58.9053 100.141 58.805 100.12 58.6696 100.078C58.5343 100.031 58.3453 100.008 58.1026 100.008C57.6686 100.008 57.3046 100.134 57.0106 100.386C56.7213 100.638 56.4786 101.004 56.2826 101.485V106H55.0366ZM62.8321 106.112C62.2721 106.112 61.8405 105.956 61.5371 105.643C61.2385 105.33 61.0891 104.88 61.0891 104.292V99.952H60.2351C60.1605 99.952 60.0975 99.931 60.0461 99.889C59.9948 99.8423 59.9691 99.7723 59.9691 99.679V99.182L61.1311 99.035L61.4181 96.844C61.4275 96.774 61.4578 96.718 61.5091 96.676C61.5605 96.6293 61.6258 96.606 61.7051 96.606H62.3351V99.049H64.3651V99.952H62.3351V104.208C62.3351 104.507 62.4075 104.728 62.5521 104.873C62.6968 105.018 62.8835 105.09 63.1121 105.09C63.2428 105.09 63.3548 105.074 63.4481 105.041C63.5461 105.004 63.6301 104.964 63.7001 104.922C63.7701 104.88 63.8285 104.843 63.8751 104.81C63.9265 104.773 63.9708 104.754 64.0081 104.754C64.0735 104.754 64.1318 104.794 64.1831 104.873L64.5471 105.468C64.3325 105.669 64.0735 105.827 63.7701 105.944C63.4668 106.056 63.1541 106.112 62.8321 106.112ZM71.1138 106H70.5608C70.4395 106 70.3415 105.981 70.2668 105.944C70.1921 105.907 70.1431 105.827 70.1198 105.706L69.9798 105.048C69.7931 105.216 69.6111 105.368 69.4338 105.503C69.2565 105.634 69.0698 105.746 68.8738 105.839C68.6778 105.928 68.4678 105.995 68.2438 106.042C68.0245 106.089 67.7795 106.112 67.5088 106.112C67.2335 106.112 66.9745 106.075 66.7318 106C66.4938 105.921 66.2861 105.804 66.1088 105.65C65.9315 105.496 65.7891 105.302 65.6818 105.069C65.5791 104.831 65.5278 104.551 65.5278 104.229C65.5278 103.949 65.6048 103.681 65.7588 103.424C65.9128 103.163 66.1601 102.932 66.5008 102.731C66.8461 102.53 67.2965 102.367 67.8518 102.241C68.4071 102.11 69.0861 102.036 69.8888 102.017V101.464C69.8888 100.913 69.7698 100.498 69.5318 100.218C69.2985 99.9333 68.9508 99.791 68.4888 99.791C68.1855 99.791 67.9288 99.8307 67.7188 99.91C67.5135 99.9847 67.3338 100.071 67.1798 100.169C67.0305 100.262 66.8998 100.349 66.7878 100.428C66.6805 100.503 66.5731 100.54 66.4658 100.54C66.3818 100.54 66.3071 100.519 66.2418 100.477C66.1811 100.43 66.1321 100.374 66.0948 100.309L65.8708 99.91C66.2628 99.532 66.6851 99.2497 67.1378 99.063C67.5905 98.8763 68.0921 98.783 68.6428 98.783C69.0395 98.783 69.3918 98.8483 69.6998 98.979C70.0078 99.1097 70.2668 99.2917 70.4768 99.525C70.6868 99.7583 70.8455 100.041 70.9528 100.372C71.0601 100.703 71.1138 101.067 71.1138 101.464V106ZM67.8798 105.237C68.0991 105.237 68.2998 105.216 68.4818 105.174C68.6638 105.127 68.8341 105.064 68.9928 104.985C69.1561 104.901 69.3101 104.801 69.4548 104.684C69.6041 104.567 69.7488 104.434 69.8888 104.285V102.808C69.3148 102.827 68.8271 102.873 68.4258 102.948C68.0245 103.018 67.6978 103.111 67.4458 103.228C67.1938 103.345 67.0095 103.482 66.8928 103.641C66.7808 103.8 66.7248 103.977 66.7248 104.173C66.7248 104.36 66.7551 104.521 66.8158 104.656C66.8765 104.791 66.9581 104.903 67.0608 104.992C67.1635 105.076 67.2848 105.139 67.4248 105.181C67.5648 105.218 67.7165 105.237 67.8798 105.237ZM70.6098 95.857L68.9788 97.663C68.9135 97.733 68.8481 97.7843 68.7828 97.817C68.7221 97.845 68.6428 97.859 68.5448 97.859H67.8028L68.8388 96.165C68.9041 96.0577 68.9741 95.9807 69.0488 95.934C69.1281 95.8827 69.2425 95.857 69.3918 95.857H70.6098ZM75.1505 106.112C74.5905 106.112 74.1588 105.956 73.8555 105.643C73.5568 105.33 73.4075 104.88 73.4075 104.292V99.952H72.5535C72.4788 99.952 72.4158 99.931 72.3645 99.889C72.3132 99.8423 72.2875 99.7723 72.2875 99.679V99.182L73.4495 99.035L73.7365 96.844C73.7458 96.774 73.7762 96.718 73.8275 96.676C73.8788 96.6293 73.9442 96.606 74.0235 96.606H74.6535V99.049H76.6835V99.952H74.6535V104.208C74.6535 104.507 74.7258 104.728 74.8705 104.873C75.0152 105.018 75.2018 105.09 75.4305 105.09C75.5612 105.09 75.6732 105.074 75.7665 105.041C75.8645 105.004 75.9485 104.964 76.0185 104.922C76.0885 104.88 76.1468 104.843 76.1935 104.81C76.2448 104.773 76.2892 104.754 76.3265 104.754C76.3918 104.754 76.4502 104.794 76.5015 104.873L76.8655 105.468C76.6508 105.669 76.3918 105.827 76.0885 105.944C75.7852 106.056 75.4725 106.112 75.1505 106.112ZM81.0311 98.797C81.4558 98.797 81.8478 98.8693 82.2071 99.014C82.5665 99.154 82.8768 99.3593 83.1381 99.63C83.3995 99.896 83.6025 100.227 83.7471 100.624C83.8965 101.016 83.9711 101.464 83.9711 101.968C83.9711 102.164 83.9501 102.295 83.9081 102.36C83.8661 102.425 83.7868 102.458 83.6701 102.458H78.9521C78.9615 102.906 79.0221 103.296 79.1341 103.627C79.2461 103.958 79.4001 104.236 79.5961 104.46C79.7921 104.679 80.0255 104.845 80.2961 104.957C80.5668 105.064 80.8701 105.118 81.2061 105.118C81.5188 105.118 81.7871 105.083 82.0111 105.013C82.2398 104.938 82.4358 104.859 82.5991 104.775C82.7625 104.691 82.8978 104.614 83.0051 104.544C83.1171 104.469 83.2128 104.432 83.2921 104.432C83.3948 104.432 83.4741 104.472 83.5301 104.551L83.8801 105.006C83.7261 105.193 83.5418 105.356 83.3271 105.496C83.1125 105.631 82.8815 105.743 82.6341 105.832C82.3915 105.921 82.1395 105.986 81.8781 106.028C81.6168 106.075 81.3578 106.098 81.1011 106.098C80.6111 106.098 80.1585 106.016 79.7431 105.853C79.3325 105.685 78.9755 105.442 78.6721 105.125C78.3735 104.803 78.1401 104.406 77.9721 103.935C77.8041 103.464 77.7201 102.922 77.7201 102.311C77.7201 101.816 77.7948 101.354 77.9441 100.925C78.0981 100.496 78.3175 100.125 78.6021 99.812C78.8868 99.4947 79.2345 99.2473 79.6451 99.07C80.0558 98.888 80.5178 98.797 81.0311 98.797ZM81.0591 99.714C80.4571 99.714 79.9835 99.889 79.6381 100.239C79.2928 100.584 79.0781 101.065 78.9941 101.681H82.8511C82.8511 101.392 82.8115 101.128 82.7321 100.89C82.6528 100.647 82.5361 100.44 82.3821 100.267C82.2281 100.09 82.0391 99.9543 81.8151 99.861C81.5958 99.763 81.3438 99.714 81.0591 99.714ZM86.9519 98.909V106H85.7059V98.909H86.9519ZM87.2319 96.683C87.2319 96.8043 87.2063 96.9187 87.1549 97.026C87.1083 97.1287 87.0429 97.222 86.9589 97.306C86.8796 97.3853 86.7863 97.4483 86.6789 97.495C86.5716 97.5417 86.4573 97.565 86.3359 97.565C86.2146 97.565 86.1003 97.5417 85.9929 97.495C85.8903 97.4483 85.7969 97.3853 85.7129 97.306C85.6336 97.222 85.5706 97.1287 85.5239 97.026C85.4773 96.9187 85.4539 96.8043 85.4539 96.683C85.4539 96.5617 85.4773 96.4473 85.5239 96.34C85.5706 96.228 85.6336 96.1323 85.7129 96.053C85.7969 95.969 85.8903 95.9037 85.9929 95.857C86.1003 95.8103 86.2146 95.787 86.3359 95.787C86.4573 95.787 86.5716 95.8103 86.6789 95.857C86.7863 95.9037 86.8796 95.969 86.9589 96.053C87.0429 96.1323 87.1083 96.228 87.1549 96.34C87.2063 96.4473 87.2319 96.5617 87.2319 96.683ZM93.208 100.078C93.152 100.181 93.0656 100.232 92.949 100.232C92.879 100.232 92.7996 100.206 92.711 100.155C92.6223 100.104 92.5126 100.048 92.382 99.987C92.256 99.9217 92.1043 99.8633 91.927 99.812C91.7496 99.756 91.5396 99.728 91.297 99.728C91.087 99.728 90.898 99.756 90.73 99.812C90.562 99.8633 90.4173 99.9357 90.296 100.029C90.1793 100.122 90.0883 100.232 90.023 100.358C89.9623 100.479 89.932 100.612 89.932 100.757C89.932 100.939 89.9833 101.091 90.086 101.212C90.1933 101.333 90.3333 101.438 90.506 101.527C90.6786 101.616 90.8746 101.695 91.094 101.765C91.3133 101.83 91.5373 101.903 91.766 101.982C91.9993 102.057 92.2256 102.141 92.445 102.234C92.6643 102.327 92.8603 102.444 93.033 102.584C93.2056 102.724 93.3433 102.897 93.446 103.102C93.5533 103.303 93.607 103.545 93.607 103.83C93.607 104.157 93.5486 104.46 93.432 104.74C93.3153 105.015 93.1426 105.256 92.914 105.461C92.6853 105.662 92.4053 105.82 92.074 105.937C91.7426 106.054 91.36 106.112 90.926 106.112C90.4313 106.112 89.9833 106.033 89.582 105.874C89.1806 105.711 88.84 105.503 88.56 105.251L88.854 104.775C88.8913 104.714 88.9356 104.668 88.987 104.635C89.0383 104.602 89.106 104.586 89.19 104.586C89.274 104.586 89.3626 104.619 89.456 104.684C89.5493 104.749 89.6613 104.822 89.792 104.901C89.9273 104.98 90.0883 105.053 90.275 105.118C90.4663 105.183 90.7043 105.216 90.989 105.216C91.2316 105.216 91.444 105.186 91.626 105.125C91.808 105.06 91.9596 104.973 92.081 104.866C92.2023 104.759 92.291 104.635 92.347 104.495C92.4076 104.355 92.438 104.206 92.438 104.047C92.438 103.851 92.3843 103.69 92.277 103.564C92.1743 103.433 92.0366 103.324 91.864 103.235C91.6913 103.142 91.493 103.062 91.269 102.997C91.0496 102.927 90.8233 102.855 90.59 102.78C90.3613 102.705 90.135 102.621 89.911 102.528C89.6916 102.43 89.4956 102.309 89.323 102.164C89.1503 102.019 89.0103 101.842 88.903 101.632C88.8003 101.417 88.749 101.158 88.749 100.855C88.749 100.584 88.805 100.325 88.917 100.078C89.029 99.826 89.1923 99.6067 89.407 99.42C89.6216 99.2287 89.8853 99.077 90.198 98.965C90.5106 98.853 90.8676 98.797 91.269 98.797C91.7356 98.797 92.1533 98.8717 92.522 99.021C92.8953 99.1657 93.2173 99.3663 93.488 99.623L93.208 100.078Z" fill="#444444"/>
</svg>
