<svg width="139" height="134" viewBox="0 0 139 134" fill="none" xmlns="http://www.w3.org/2000/svg">
<path d="M25.2977 106.732V107.832H19.0977V97.8322H25.2977V98.9322H20.4977V102.232H24.3977V103.332H20.4977V106.732H25.2977V106.732ZM28.0977 97.5322V107.832H26.8977V97.5322H28.0977ZM34.8977 103.532C34.8977 103.232 34.8977 102.932 34.7977 102.732C34.6977 102.532 34.5977 102.232 34.3977 102.132C34.1977 101.932 34.0977 101.832 33.7977 101.732C33.5977 101.632 33.2977 101.632 32.9977 101.632C32.3977 101.632 31.8977 101.832 31.5977 102.132C31.2977 102.432 30.9977 102.932 30.9977 103.532H34.8977V103.532ZM35.8977 106.832C35.6977 107.032 35.5977 107.132 35.2977 107.332C35.0977 107.432 34.8977 107.532 34.5977 107.632C34.3977 107.732 34.0977 107.832 33.7977 107.832C33.4977 107.832 33.2977 107.932 32.9977 107.932C32.4977 107.932 32.0977 107.832 31.5977 107.732C31.1977 107.532 30.7977 107.332 30.4977 107.032C30.1977 106.732 29.9977 106.332 29.7977 105.832C29.5977 105.332 29.4977 104.832 29.4977 104.232C29.4977 103.732 29.5977 103.232 29.6977 102.832C29.8977 102.432 30.0977 102.032 30.3977 101.732C30.6977 101.432 30.9977 101.132 31.3977 101.032C31.7977 100.832 32.2977 100.732 32.7977 100.732C33.1977 100.732 33.5977 100.832 33.9977 100.932C34.3977 101.032 34.6977 101.232 34.8977 101.532C35.1977 101.832 35.3977 102.132 35.4977 102.532C35.5977 102.932 35.6977 103.332 35.6977 103.832C35.6977 104.032 35.6977 104.132 35.5977 104.232C35.5977 104.332 35.4977 104.332 35.3977 104.332H30.6977C30.6977 104.732 30.7977 105.132 30.8977 105.532C30.9977 105.832 31.1977 106.132 31.3977 106.332C31.5977 106.532 31.7977 106.732 32.0977 106.832C32.3977 106.932 32.6977 107.032 32.9977 107.032C33.2977 107.032 33.5977 107.032 33.7977 106.932C33.9977 106.832 34.1977 106.732 34.3977 106.732C34.5977 106.632 34.6977 106.532 34.7977 106.532C34.8977 106.432 34.9977 106.432 35.0977 106.432C35.1977 106.432 35.2977 106.432 35.2977 106.532L35.8977 106.832ZM39.5977 107.932C38.9977 107.932 38.5977 107.732 38.2977 107.432C37.9977 107.132 37.8977 106.632 37.8977 106.032V101.732H36.9977C36.8977 101.732 36.8977 101.732 36.7977 101.632C36.6977 101.632 36.6977 101.532 36.6977 101.432V100.932L37.8977 100.832L38.1977 98.6322C38.1977 98.5322 38.1977 98.5322 38.2977 98.4322C38.3977 98.4322 38.3977 98.3322 38.4977 98.3322H39.0977V100.732H41.1977V101.632H39.0977V105.932C39.0977 106.232 39.1977 106.432 39.2977 106.632C39.3977 106.732 39.5977 106.832 39.8977 106.832C39.9977 106.832 40.0977 106.832 40.1977 106.832C40.2977 106.832 40.3977 106.732 40.4977 106.732C40.5977 106.732 40.5977 106.632 40.6977 106.632C40.7977 106.632 40.7977 106.532 40.7977 106.532C40.8977 106.532 40.8977 106.532 40.9977 106.632L41.3977 107.232C41.1977 107.432 40.8977 107.632 40.5977 107.732C40.2977 107.932 39.9977 107.932 39.5977 107.932ZM43.6977 102.132C43.8977 101.632 44.1977 101.232 44.4977 101.032C44.7977 100.732 45.1977 100.632 45.6977 100.632C45.7977 100.632 45.9977 100.632 46.0977 100.632C46.1977 100.632 46.3977 100.732 46.4977 100.832L46.3977 101.732C46.3977 101.832 46.2977 101.932 46.1977 101.932C46.0977 101.932 45.9977 101.932 45.8977 101.932C45.7977 101.932 45.5977 101.932 45.4977 101.932C45.2977 101.932 45.0977 101.932 44.8977 102.032C44.6977 102.132 44.5977 102.232 44.3977 102.332C44.2977 102.432 44.0977 102.632 43.9977 102.832C43.8977 103.032 43.7977 103.232 43.6977 103.432V107.932H42.3977V100.832H43.0977C43.1977 100.832 43.2977 100.832 43.3977 100.932C43.4977 101.032 43.4977 101.032 43.4977 101.232L43.6977 102.132ZM50.2977 100.632C50.7977 100.632 51.2977 100.732 51.6977 100.932C52.0977 101.132 52.4977 101.332 52.7977 101.632C53.0977 101.932 53.2977 102.332 53.4977 102.832C53.6977 103.232 53.6977 103.732 53.6977 104.332C53.6977 104.932 53.5977 105.432 53.4977 105.832C53.2977 106.232 53.0977 106.632 52.7977 106.932C52.4977 107.232 52.1977 107.532 51.6977 107.632C51.2977 107.832 50.7977 107.932 50.2977 107.932C49.7977 107.932 49.2977 107.832 48.8977 107.632C48.4977 107.432 48.0977 107.232 47.7977 106.932C47.4977 106.632 47.2977 106.232 47.0977 105.832C46.8977 105.432 46.8977 104.832 46.8977 104.332C46.8977 103.732 46.9977 103.232 47.0977 102.832C47.2977 102.332 47.4977 102.032 47.7977 101.632C48.0977 101.332 48.3977 101.032 48.8977 100.932C49.2977 100.732 49.7977 100.632 50.2977 100.632ZM50.2977 106.932C50.9977 106.932 51.4977 106.732 51.8977 106.232C52.1977 105.732 52.3977 105.132 52.3977 104.232C52.3977 103.432 52.1977 102.732 51.8977 102.232C51.5977 101.732 50.9977 101.532 50.2977 101.532C49.8977 101.532 49.5977 101.632 49.3977 101.732C49.0977 101.832 48.8977 102.032 48.6977 102.232C48.4977 102.432 48.3977 102.732 48.2977 103.032C48.1977 103.332 48.1977 103.732 48.1977 104.132C48.1977 104.932 48.3977 105.632 48.6977 106.132C48.9977 106.732 49.5977 106.932 50.2977 106.932ZM59.8977 102.432C59.6977 102.132 59.3977 101.932 59.0977 101.732C58.7977 101.632 58.4977 101.532 58.1977 101.532C57.4977 101.532 56.9977 101.732 56.6977 102.232C56.2977 102.732 56.1977 103.332 56.1977 104.232C56.1977 104.732 56.1977 105.132 56.2977 105.432C56.3977 105.732 56.4977 106.032 56.5977 106.232C56.7977 106.432 56.8977 106.632 57.1977 106.732C57.4977 106.832 57.6977 106.832 57.9977 106.832C58.3977 106.832 58.7977 106.732 59.0977 106.532C59.3977 106.332 59.6977 106.132 59.8977 105.732V102.432ZM61.0977 97.5322V107.832H60.3977C60.1977 107.832 60.0977 107.732 60.0977 107.532L59.9977 106.632C59.6977 107.032 59.3977 107.332 58.9977 107.532C58.5977 107.732 58.1977 107.832 57.6977 107.832C57.2977 107.832 56.8977 107.732 56.5977 107.632C56.2977 107.432 55.9977 107.232 55.7977 106.932C55.5977 106.632 55.3977 106.232 55.2977 105.832C55.1977 105.332 55.0977 104.832 55.0977 104.232C55.0977 103.732 55.1977 103.232 55.2977 102.732C55.3977 102.232 55.5977 101.932 55.8977 101.532C56.1977 101.232 56.4977 100.932 56.8977 100.732C57.2977 100.532 57.6977 100.432 58.1977 100.432C58.5977 100.432 58.9977 100.532 59.2977 100.632C59.5977 100.732 59.8977 100.932 60.0977 101.232V97.5322H61.0977ZM66.0977 100.632C66.5977 100.632 67.0977 100.732 67.4977 100.932C67.8977 101.132 68.2977 101.332 68.5977 101.632C68.8977 101.932 69.0977 102.332 69.2977 102.832C69.4977 103.232 69.4977 103.732 69.4977 104.332C69.4977 104.932 69.3977 105.432 69.2977 105.832C69.0977 106.232 68.8977 106.632 68.5977 106.932C68.2977 107.232 67.9977 107.532 67.4977 107.632C67.0977 107.832 66.5977 107.932 66.0977 107.932C65.5977 107.932 65.0977 107.832 64.6977 107.632C64.2977 107.432 63.8977 107.232 63.5977 106.932C63.2977 106.632 63.0977 106.232 62.8977 105.832C62.6977 105.432 62.6977 104.832 62.6977 104.332C62.6977 103.732 62.7977 103.232 62.8977 102.832C63.0977 102.332 63.2977 102.032 63.5977 101.632C63.8977 101.332 64.1977 101.032 64.6977 100.932C65.0977 100.732 65.4977 100.632 66.0977 100.632ZM66.0977 106.932C66.7977 106.932 67.2977 106.732 67.6977 106.232C67.9977 105.732 68.1977 105.132 68.1977 104.232C68.1977 103.432 67.9977 102.732 67.6977 102.232C67.3977 101.732 66.7977 101.532 66.0977 101.532C65.6977 101.532 65.3977 101.632 65.1977 101.732C64.8977 101.832 64.6977 102.032 64.4977 102.232C64.2977 102.432 64.1977 102.732 64.0977 103.032C63.9977 103.332 63.9977 103.732 63.9977 104.132C63.9977 104.932 64.1977 105.632 64.4977 106.132C64.7977 106.732 65.3977 106.932 66.0977 106.932ZM70.9977 107.832V100.732H71.6977C71.8977 100.732 71.9977 100.832 71.9977 101.032L72.0977 101.732C72.3977 101.432 72.6977 101.132 72.9977 100.932C73.2977 100.732 73.6977 100.632 74.0977 100.632C74.5977 100.632 74.9977 100.732 75.2977 101.032C75.5977 101.332 75.7977 101.632 75.8977 102.132C75.9977 101.832 76.0977 101.632 76.2977 101.432C76.4977 101.232 76.5977 101.132 76.7977 100.932C76.9977 100.832 77.1977 100.732 77.3977 100.632C77.5977 100.532 77.8977 100.532 78.0977 100.532C78.4977 100.532 78.7977 100.632 79.0977 100.732C79.3977 100.832 79.5977 101.032 79.7977 101.232C79.9977 101.432 80.1977 101.732 80.2977 102.032C80.3977 102.332 80.4977 102.732 80.4977 103.132V107.632H79.1977V103.132C79.1977 102.532 79.0977 102.132 78.7977 101.832C78.5977 101.532 78.1977 101.432 77.7977 101.432C77.5977 101.432 77.3977 101.432 77.1977 101.532C76.9977 101.632 76.8977 101.732 76.6977 101.832C76.5977 101.932 76.3977 102.132 76.3977 102.332C76.2977 102.532 76.2977 102.832 76.2977 103.032V107.532H74.9977V103.032C74.9977 102.432 74.8977 102.032 74.6977 101.732C74.4977 101.432 74.0977 101.332 73.6977 101.332C73.3977 101.332 73.0977 101.432 72.7977 101.632C72.4977 101.832 72.2977 102.032 72.0977 102.332V107.632H70.9977V107.832V107.832ZM87.2977 103.532C87.2977 103.232 87.2977 102.932 87.1977 102.732C87.0977 102.532 86.9977 102.232 86.7977 102.132C86.5977 101.932 86.4977 101.832 86.1977 101.732C85.9977 101.632 85.6977 101.632 85.3977 101.632C84.7977 101.632 84.2977 101.832 83.9977 102.132C83.6977 102.432 83.3977 102.932 83.3977 103.532H87.2977V103.532ZM88.2977 106.832C88.0977 107.032 87.9977 107.132 87.6977 107.332C87.4977 107.432 87.2977 107.532 86.9977 107.632C86.7977 107.732 86.4977 107.832 86.1977 107.832C85.8977 107.832 85.6977 107.932 85.3977 107.932C84.8977 107.932 84.4977 107.832 83.9977 107.732C83.5977 107.532 83.1977 107.332 82.8977 107.032C82.5977 106.732 82.3977 106.332 82.1977 105.832C81.9977 105.332 81.8977 104.832 81.8977 104.232C81.8977 103.732 81.9977 103.232 82.0977 102.832C82.2977 102.432 82.4977 102.032 82.7977 101.732C83.0977 101.432 83.3977 101.132 83.7977 101.032C84.1977 100.832 84.6977 100.732 85.1977 100.732C85.5977 100.732 85.9977 100.832 86.3977 100.932C86.7977 101.032 87.0977 101.232 87.2977 101.532C87.5977 101.832 87.7977 102.132 87.8977 102.532C87.9977 102.932 88.0977 103.332 88.0977 103.832C88.0977 104.032 88.0977 104.132 87.9977 104.232C87.9977 104.332 87.8977 104.332 87.7977 104.332H83.0977C83.0977 104.732 83.1977 105.132 83.2977 105.532C83.3977 105.832 83.5977 106.132 83.7977 106.332C83.9977 106.532 84.1977 106.732 84.4977 106.832C84.7977 106.932 85.0977 107.032 85.3977 107.032C85.6977 107.032 85.9977 107.032 86.1977 106.932C86.3977 106.832 86.5977 106.732 86.7977 106.732C86.9977 106.632 87.0977 106.532 87.1977 106.532C87.2977 106.432 87.3977 106.432 87.4977 106.432C87.5977 106.432 87.6977 106.432 87.6977 106.532L88.2977 106.832ZM87.4977 97.7322L85.8977 99.5322C85.7977 99.6322 85.7977 99.6322 85.6977 99.7322C85.5977 99.7322 85.5977 99.7322 85.4977 99.7322H84.7977L85.7977 98.0322C85.8977 97.9322 85.8977 97.8322 85.9977 97.8322C86.0977 97.7322 86.1977 97.7322 86.2977 97.7322C86.2977 97.7322 87.4977 97.7322 87.4977 97.7322ZM94.0977 101.932C93.9977 102.032 93.9977 102.132 93.7977 102.132C93.6977 102.132 93.6977 102.132 93.5977 102.032C93.4977 101.932 93.3977 101.932 93.2977 101.832C93.1977 101.732 92.9977 101.732 92.7977 101.632C92.5977 101.532 92.3977 101.532 92.1977 101.532C91.9977 101.532 91.7977 101.532 91.5977 101.632C91.3977 101.732 91.2977 101.732 91.1977 101.832C91.0977 101.932 90.9977 102.032 90.8977 102.132C90.7977 102.232 90.7977 102.432 90.7977 102.532C90.7977 102.732 90.8977 102.832 90.9977 103.032C91.0977 103.132 91.1977 103.232 91.3977 103.332C91.5977 103.432 91.7977 103.532 91.9977 103.532C92.1977 103.632 92.3977 103.632 92.6977 103.732C92.8977 103.832 93.1977 103.932 93.3977 104.032C93.5977 104.132 93.7977 104.232 93.9977 104.332C94.1977 104.432 94.2977 104.632 94.3977 104.832C94.4977 105.032 94.5977 105.232 94.5977 105.532C94.5977 105.832 94.4977 106.132 94.3977 106.432C94.2977 106.732 94.0977 106.932 93.8977 107.132C93.6977 107.332 93.3977 107.532 93.0977 107.632C92.7977 107.732 92.3977 107.832 91.9977 107.832C91.4977 107.832 91.0977 107.732 90.6977 107.632C90.2977 107.432 89.9977 107.232 89.6977 107.032L89.9977 106.532C89.9977 106.432 90.0977 106.432 90.0977 106.432C90.1977 106.432 90.1977 106.432 90.2977 106.432C90.3977 106.432 90.4977 106.432 90.5977 106.532C90.6977 106.632 90.7977 106.632 90.8977 106.732C90.9977 106.832 91.1977 106.932 91.3977 106.932C91.5977 107.032 91.7977 107.032 92.0977 107.032C92.2977 107.032 92.5977 107.032 92.6977 106.932C92.8977 106.832 92.9977 106.732 93.1977 106.632C93.2977 106.532 93.3977 106.432 93.4977 106.232C93.5977 106.132 93.5977 105.932 93.5977 105.832C93.5977 105.632 93.4977 105.432 93.3977 105.332C93.2977 105.232 93.1977 105.132 92.9977 105.032C92.7977 104.932 92.5977 104.832 92.3977 104.832C92.1977 104.732 91.9977 104.732 91.6977 104.632C91.4977 104.532 91.1977 104.432 90.9977 104.332C90.7977 104.232 90.5977 104.132 90.3977 103.932C90.1977 103.832 90.0977 103.632 89.9977 103.432C89.8977 103.232 89.7977 102.932 89.7977 102.632C89.7977 102.332 89.8977 102.132 89.9977 101.832C90.0977 101.532 90.2977 101.332 90.4977 101.132C90.6977 100.932 90.9977 100.832 91.2977 100.632C91.5977 100.532 91.9977 100.432 92.3977 100.432C92.8977 100.432 93.2977 100.532 93.6977 100.632C94.0977 100.732 94.3977 100.932 94.6977 101.232L94.0977 101.932ZM102.598 107.832H101.298V101.832H97.5977V106.132C97.5977 106.432 97.6977 106.632 97.7977 106.832C97.8977 106.932 98.0977 107.032 98.3977 107.032C98.4977 107.032 98.5977 107.032 98.6977 107.032C98.7977 107.032 98.8977 106.932 98.9977 106.932C99.0977 106.932 99.0977 106.832 99.1977 106.832C99.2977 106.832 99.2977 106.732 99.2977 106.732C99.3977 106.732 99.3977 106.732 99.4977 106.832L99.8977 107.432C99.6977 107.632 99.3977 107.832 99.0977 107.932C98.7977 108.032 98.4977 108.132 98.1977 108.132C97.5977 108.132 97.1977 107.932 96.8977 107.632C96.5977 107.332 96.4977 106.832 96.4977 106.232V101.932H95.5977C95.4977 101.932 95.4977 101.932 95.3977 101.832C95.2977 101.832 95.2977 101.732 95.2977 101.632V101.132L96.4977 100.932L96.7977 98.7322C96.7977 98.6322 96.7977 98.6322 96.8977 98.5322C96.9977 98.5322 96.9977 98.4322 97.0977 98.4322H97.6977V100.832H102.598V107.832ZM102.898 98.5322C102.898 98.6322 102.898 98.7322 102.798 98.8322C102.798 98.9322 102.698 99.0322 102.598 99.1322C102.498 99.2322 102.398 99.2322 102.298 99.3322C102.198 99.3322 102.098 99.4322 101.998 99.4322C101.898 99.4322 101.798 99.4322 101.698 99.3322C101.598 99.3322 101.498 99.2322 101.398 99.1322C101.298 99.0322 101.298 98.9322 101.198 98.8322C101.198 98.7322 101.098 98.6322 101.098 98.5322C101.098 98.4322 101.098 98.3322 101.198 98.2322C101.198 98.1322 101.298 98.0322 101.398 97.9322C101.498 97.8322 101.598 97.8322 101.698 97.7322C101.798 97.7322 101.898 97.6322 101.998 97.6322C102.098 97.6322 102.198 97.6322 102.298 97.7322C102.398 97.7322 102.498 97.8322 102.598 97.9322C102.698 98.0322 102.698 98.1322 102.798 98.2322C102.798 98.2322 102.898 98.3322 102.898 98.5322ZM109.498 102.032C109.498 102.132 109.398 102.132 109.498 102.032C109.398 102.132 109.298 102.132 109.198 102.132C109.098 102.132 109.098 102.132 108.998 102.032C108.898 101.932 108.798 101.932 108.698 101.832C108.598 101.732 108.398 101.732 108.198 101.632C107.998 101.532 107.798 101.532 107.498 101.532C107.198 101.532 106.798 101.632 106.598 101.732C106.298 101.832 106.098 102.032 105.898 102.232C105.698 102.432 105.598 102.732 105.498 103.032C105.398 103.332 105.398 103.732 105.398 104.132C105.398 104.532 105.398 104.932 105.498 105.232C105.598 105.532 105.698 105.832 105.898 106.032C106.098 106.232 106.298 106.432 106.598 106.532C106.898 106.632 107.098 106.732 107.498 106.732C107.798 106.732 108.098 106.732 108.198 106.632C108.398 106.532 108.598 106.432 108.698 106.432C108.798 106.332 108.898 106.232 108.998 106.232C109.098 106.132 109.198 106.132 109.298 106.132C109.398 106.132 109.498 106.132 109.498 106.232L109.798 106.732C109.598 106.932 109.498 107.132 109.298 107.232C109.098 107.332 108.898 107.532 108.698 107.532C108.498 107.632 108.198 107.732 107.998 107.732C107.798 107.732 107.498 107.832 107.198 107.832C106.798 107.832 106.298 107.732 105.998 107.632C105.598 107.432 105.298 107.232 104.998 106.932C104.698 106.632 104.498 106.232 104.298 105.832C104.098 105.332 104.098 104.832 104.098 104.332C104.098 103.832 104.198 103.332 104.298 102.832C104.498 102.432 104.698 102.032 104.898 101.632C105.198 101.332 105.498 101.032 105.898 100.832C106.298 100.632 106.798 100.532 107.298 100.532C107.798 100.532 108.198 100.632 108.598 100.732C108.998 100.932 109.298 101.132 109.598 101.432L109.498 102.032ZM114.198 100.632C114.698 100.632 115.198 100.732 115.598 100.932C115.998 101.132 116.398 101.332 116.698 101.632C116.998 101.932 117.198 102.332 117.398 102.832C117.598 103.232 117.598 103.732 117.598 104.332C117.598 104.932 117.498 105.432 117.398 105.832C117.198 106.232 116.998 106.632 116.698 106.932C116.398 107.232 116.098 107.532 115.598 107.632C115.198 107.832 114.698 107.932 114.198 107.932C113.698 107.932 113.198 107.832 112.798 107.632C112.398 107.432 111.998 107.232 111.698 106.932C111.398 106.632 111.198 106.232 110.998 105.832C110.798 105.432 110.798 104.832 110.798 104.332C110.798 103.732 110.898 103.232 110.998 102.832C111.198 102.332 111.398 102.032 111.698 101.632C111.998 101.332 112.298 101.032 112.798 100.932C113.198 100.732 113.598 100.632 114.198 100.632ZM114.198 106.932C114.898 106.932 115.398 106.732 115.798 106.232C116.098 105.732 116.298 105.132 116.298 104.232C116.298 103.432 116.098 102.732 115.798 102.232C115.498 101.732 114.898 101.532 114.198 101.532C113.798 101.532 113.498 101.632 113.298 101.732C112.998 101.832 112.798 102.032 112.598 102.232C112.398 102.432 112.298 102.732 112.198 103.032C112.098 103.332 112.098 103.732 112.098 104.132C112.098 104.932 112.298 105.632 112.598 106.132C112.898 106.732 113.498 106.932 114.198 106.932ZM123.198 101.932C123.098 102.032 123.098 102.132 122.898 102.132C122.798 102.132 122.798 102.132 122.698 102.032C122.598 101.932 122.498 101.932 122.398 101.832C122.298 101.732 122.098 101.732 121.898 101.632C121.698 101.532 121.498 101.532 121.298 101.532C121.098 101.532 120.898 101.532 120.698 101.632C120.498 101.732 120.398 101.732 120.298 101.832C120.198 101.932 120.098 102.032 119.998 102.132C119.898 102.232 119.898 102.432 119.898 102.532C119.898 102.732 119.998 102.832 120.098 103.032C120.198 103.132 120.298 103.232 120.498 103.332C120.698 103.432 120.898 103.532 121.098 103.532C121.298 103.632 121.498 103.632 121.798 103.732C121.998 103.832 122.298 103.932 122.498 104.032C122.698 104.132 122.898 104.232 123.098 104.332C123.298 104.432 123.398 104.632 123.498 104.832C123.598 105.032 123.698 105.232 123.698 105.532C123.698 105.832 123.598 106.132 123.498 106.432C123.398 106.732 123.198 106.932 122.998 107.132C122.798 107.332 122.498 107.532 122.198 107.632C121.898 107.732 121.498 107.832 121.098 107.832C120.598 107.832 120.198 107.732 119.798 107.632C119.398 107.432 119.098 107.232 118.798 107.032L119.098 106.532C119.098 106.432 119.198 106.432 119.198 106.432C119.298 106.432 119.298 106.432 119.398 106.432C119.498 106.432 119.598 106.432 119.698 106.532C119.798 106.632 119.898 106.632 119.998 106.732C120.098 106.832 120.298 106.932 120.498 106.932C120.698 107.032 120.898 107.032 121.198 107.032C121.398 107.032 121.698 107.032 121.798 106.932C121.998 106.832 122.098 106.732 122.298 106.632C122.398 106.532 122.498 106.432 122.598 106.232C122.698 106.132 122.698 105.932 122.698 105.832C122.698 105.632 122.598 105.432 122.498 105.332C122.398 105.232 122.298 105.132 122.098 105.032C121.898 104.932 121.698 104.832 121.498 104.832C121.298 104.732 121.098 104.732 120.798 104.632C120.598 104.532 120.298 104.432 120.098 104.332C119.898 104.232 119.698 104.132 119.498 103.932C119.298 103.832 119.198 103.632 119.098 103.432C118.998 103.232 118.898 102.932 118.898 102.632C118.898 102.332 118.998 102.132 119.098 101.832C119.198 101.532 119.398 101.332 119.598 101.132C119.798 100.932 120.098 100.832 120.398 100.632C120.698 100.532 121.098 100.432 121.498 100.432C121.998 100.432 122.398 100.532 122.798 100.632C123.198 100.732 123.498 100.932 123.798 101.232L123.198 101.932Z" fill="#444444"/>
<path d="M65.5828 78.632C65.2828 78.432 65.1828 78.132 65.1828 77.732C65.1828 77.232 65.1828 76.732 65.1828 76.232C65.0828 76.232 64.9828 76.232 64.8828 76.232C63.8828 76.032 63.3828 75.332 63.3828 74.432C63.3828 72.632 63.3828 70.932 63.3828 69.132C63.3828 61.432 63.3828 53.732 63.3828 46.032C63.3828 44.032 64.5828 42.832 66.6828 42.832C74.4828 42.832 82.3828 42.832 90.1828 42.832C91.4828 42.832 92.4828 43.332 92.9828 44.532C93.1828 44.932 93.2828 45.532 93.2828 45.932C93.2828 55.432 93.2828 64.832 93.2828 74.332C93.2828 75.432 92.6828 76.132 91.4828 76.332C91.4828 76.832 91.4828 77.332 91.4828 77.732C91.4828 78.132 91.3828 78.432 91.0828 78.632C82.6828 78.632 74.0828 78.632 65.5828 78.632ZM64.5828 51.232C64.5828 51.432 64.5828 51.532 64.5828 51.632C64.5828 59.132 64.5828 66.632 64.5828 74.132C64.5828 74.932 64.7828 75.032 65.5828 75.032C74.0828 75.032 82.6828 75.032 91.1828 75.032C91.9828 75.032 92.0828 74.832 92.0828 74.132C92.0828 66.632 92.0828 59.132 92.0828 51.632C92.0828 51.532 92.0828 51.332 92.0828 51.232C82.8828 51.232 73.7828 51.232 64.5828 51.232ZM92.0828 49.932C92.0828 48.632 92.0828 47.332 92.0828 45.932C92.0828 44.732 91.2828 43.932 90.0828 43.932C82.2828 43.932 74.4828 43.932 66.5828 43.932C65.2828 43.932 64.5828 44.632 64.5828 45.932C64.5828 47.132 64.5828 48.332 64.5828 49.532C64.5828 49.632 64.5828 49.732 64.5828 49.832C73.7828 49.932 82.8828 49.932 92.0828 49.932ZM90.2828 76.332C82.2828 76.332 74.3828 76.332 66.3828 76.332C66.3828 76.732 66.3828 77.132 66.3828 77.532C74.3828 77.532 82.2828 77.532 90.2828 77.532C90.2828 77.032 90.2828 76.732 90.2828 76.332Z" fill="#333333"/>
<path d="M78.3822 53.5322C83.5822 53.5322 87.9822 57.8322 87.9822 63.0322C87.9822 68.3322 83.6822 72.6322 78.3822 72.6322C72.9822 72.6322 68.7822 68.3322 68.7822 63.0322C68.7822 57.8322 73.0822 53.5322 78.3822 53.5322ZM78.3822 71.4322C82.9822 71.4322 86.7822 67.7322 86.7822 63.1322C86.7822 58.4322 82.9822 54.7322 78.3822 54.7322C73.7822 54.7322 69.9822 58.5322 69.9822 63.1322C69.9822 67.7322 73.7822 71.4322 78.3822 71.4322Z" fill="#333333"/>
<path d="M69.9822 45.1318C71.0822 45.1318 72.1822 45.1318 73.3822 45.1318C73.9822 45.1318 74.1822 45.3318 74.1822 45.9318C74.1822 46.6318 74.1822 47.2318 74.1822 47.9318C74.1822 48.5318 73.9822 48.7318 73.3822 48.7318C71.0822 48.7318 68.7822 48.7318 66.5822 48.7318C65.9822 48.7318 65.7822 48.5318 65.7822 47.9318C65.7822 47.2318 65.7822 46.5318 65.7822 45.8318C65.7822 45.3318 65.9822 45.1318 66.4822 45.1318C67.6822 45.1318 68.8822 45.1318 69.9822 45.1318ZM72.9822 46.4318C70.9822 46.4318 68.9822 46.4318 67.0822 46.4318C67.0822 46.8318 67.0822 47.2318 67.0822 47.5318C69.0822 47.5318 70.9822 47.5318 72.9822 47.5318C72.9822 47.1318 72.9822 46.7318 72.9822 46.4318Z" fill="#333333"/>
<path d="M77.1828 48.7318C76.1828 48.7318 75.3828 47.9318 75.3828 46.9318C75.3828 45.9318 76.1828 45.1318 77.1828 45.1318C78.1828 45.1318 78.9828 45.9318 78.9828 46.9318C78.9828 47.9318 78.1828 48.7318 77.1828 48.7318ZM77.7828 46.9318C77.7828 46.6318 77.4828 46.3318 77.1828 46.3318C76.8828 46.3318 76.5828 46.6318 76.5828 46.9318C76.5828 47.2318 76.8828 47.5318 77.1828 47.5318C77.4828 47.5318 77.7828 47.2318 77.7828 46.9318Z" fill="#333333"/>
<path d="M83.7826 47.0321C83.7826 48.0321 82.9826 48.8321 81.9826 48.8321C80.9826 48.8321 80.1826 48.0321 80.1826 47.0321C80.1826 46.0321 80.9826 45.2321 81.9826 45.2321C82.9826 45.1321 83.7826 45.9321 83.7826 47.0321ZM82.5826 46.9321C82.5826 46.6321 82.2826 46.3321 81.9826 46.3321C81.6826 46.3321 81.3826 46.6321 81.3826 46.9321C81.3826 47.2321 81.6826 47.5321 81.9826 47.5321C82.2826 47.5321 82.5826 47.2321 82.5826 46.9321Z" fill="#333333"/>
<path d="M86.0828 47.5316C85.8828 47.5316 85.6828 47.5316 85.4828 47.5316C85.1828 47.5316 84.8828 47.3316 84.8828 47.0316C84.8828 46.7316 85.0828 46.4316 85.3828 46.4316C85.8828 46.4316 86.2828 46.4316 86.7828 46.4316C87.0828 46.4316 87.2828 46.7316 87.2828 47.0316C87.2828 47.3316 87.0828 47.5316 86.6828 47.6316H86.5828C86.4828 47.5316 86.2828 47.5316 86.0828 47.5316Z" fill="#333333"/>
<path d="M89.6824 46.332C89.8824 46.332 90.0824 46.332 90.2824 46.332C90.6824 46.332 90.8824 46.632 90.8824 46.932C90.8824 47.232 90.6824 47.532 90.2824 47.532C89.8824 47.532 89.4824 47.532 89.0824 47.532C88.6824 47.532 88.4824 47.232 88.4824 46.932C88.4824 46.632 88.7824 46.332 89.0824 46.332C89.2824 46.332 89.4824 46.332 89.6824 46.332Z" fill="#333333"/>
<rect x="42.6182" y="21.6504" width="1.4" height="53.8561" rx="0.7" fill="#333333"/>
<rect x="69.0791" y="21.6504" width="1.4" height="21.1816" fill="#333333"/>
<rect x="70.4795" y="21.1318" width="1.4" height="27.8619" rx="0.7" transform="rotate(90 70.4795 21.1318)" fill="#333333"/>
<rect x="70.4795" y="36.9873" width="1.4" height="27.8615" transform="rotate(90 70.4795 36.9873)" fill="#333333"/>
<rect x="64.3828" y="74.1064" width="1.4" height="21.7652" rx="0.7" transform="rotate(90 64.3828 74.1064)" fill="#333333"/>
<rect x="46.1533" y="49.3818" width="1.4" height="8.8498" rx="0.7" fill="#333333"/>
<rect x="42.6182" y="76.9736" width="2.16718" height="7.98796" rx="0.5" transform="rotate(-90 42.6182 76.9736)" fill="#333333"/>
<rect x="62.2705" y="76.9736" width="1.9665" height="6.73769" rx="0.5" transform="rotate(-90 62.2705 76.9736)" fill="#333333"/>
<rect x="46.084" y="25.582" width="1.4" height="8.8498" rx="0.7" fill="#333333"/>
</svg>
