<svg width="81" height="104" viewBox="0 0 81 104" fill="none" xmlns="http://www.w3.org/2000/svg">
<path d="M78.6176 40.0001C78.6194 47.5381 76.3855 54.9074 72.1987 61.1758C68.0118 67.4442 62.06 72.3302 55.0961 75.2156C48.1322 78.1011 40.4689 78.8566 33.0756 77.3864C25.6823 75.9162 18.891 72.2865 13.5608 66.9562C8.23059 61.626 4.60084 54.8348 3.13066 47.4415C1.66047 40.0481 2.41591 32.3849 5.3014 25.4209C8.1869 18.457 13.0728 12.5052 19.3412 8.31836C25.6096 4.13151 32.9789 1.89768 40.517 1.89942C50.6219 1.89942 60.313 5.91358 67.4582 13.0588C74.6035 20.2041 78.6176 29.8951 78.6176 40.0001Z" fill="white"/>
<path d="M51.6409 25.9165C48.061 24.5336 45.1813 24.6999 42.573 26.4329C41.9608 25.4639 41.1986 24.5983 40.3148 23.8684L39.5271 23.2994C36.9013 21.6189 33.6102 21.3738 30.2142 22.608C23.8072 24.9362 20.9975 30.8881 23.0544 37.7765C24.9625 44.0347 30.8619 48.5161 36.4199 48.1397V48.2185C36.0929 48.8951 35.977 49.6545 36.0872 50.3979C36.4023 51.2732 37.584 51.2732 38.5643 51.0106C38.7083 51.712 38.5866 52.4419 38.2229 53.0587C37.8352 53.7706 37.6431 54.5725 37.6662 55.3828C37.6893 56.1931 37.9267 56.9828 38.3542 57.6714C38.4169 57.791 38.5113 57.8911 38.6271 57.9606C38.7429 58.03 38.8756 58.0663 39.0107 58.0653C39.1329 58.0664 39.2534 58.0363 39.3608 57.9778C39.4557 57.9302 39.5393 57.8628 39.606 57.7801C39.6727 57.6975 39.7209 57.6016 39.7474 57.4988C39.774 57.3959 39.7782 57.2886 39.7598 57.1841C39.7414 57.0795 39.7009 56.98 39.6409 56.8924C39.3172 56.4031 39.1374 55.8328 39.1219 55.2463C39.1064 54.6599 39.2559 54.0808 39.5533 53.5752C40.082 52.607 40.2198 51.4732 39.9385 50.4067C40.9975 49.8115 41.4439 49.1025 41.1813 48.3848C41.015 47.9121 40.4899 47.5095 39.4308 46.9318C39.7809 46.713 40.096 46.4854 40.4023 46.2491L40.6387 46.573C41.3902 47.7143 42.445 48.6236 43.6846 49.1988L43.5446 49.3388C42.6693 50.2141 42.2404 50.713 42.2054 51.2382C42.1616 52.166 43.2032 52.7612 44.0785 53.0412C44.0621 53.2358 44.0045 53.4247 43.9094 53.5952C43.8143 53.7658 43.684 53.9141 43.5271 54.0303C42.9453 54.3714 42.4838 54.8846 42.2063 55.4992C41.9288 56.1138 41.849 56.7994 41.9778 57.4614C41.9952 57.6471 42.0809 57.8198 42.2184 57.946C42.3558 58.0721 42.5353 58.1427 42.7218 58.1441H42.7743C42.8718 58.1375 42.9669 58.1115 43.0542 58.0677C43.1415 58.0239 43.2192 57.9632 43.2828 57.889C43.3463 57.8149 43.3945 57.7288 43.4244 57.6358C43.4543 57.5429 43.4654 57.4449 43.4571 57.3476C43.387 56.4723 43.3958 55.8334 44.3323 55.2557C44.3875 55.2256 44.4376 55.1872 44.4811 55.1419C44.7709 54.9125 45.011 54.6266 45.1871 54.3016C45.3631 53.9767 45.4713 53.6193 45.5052 53.2513C46.7743 53.2513 48.131 53.3388 48.131 52.2885C48.131 51.8684 47.9034 51.4132 47.177 50.1178L46.9844 49.7677C48.945 49.6627 51.6846 49.12 53.4264 47.5358C55.5535 45.5096 57.0852 42.9396 57.8553 40.1047C60.4811 31.8246 55.1069 27.2819 51.5358 25.9078L51.6409 25.9165ZM39.6759 48.8312C39.3946 49.0561 39.082 49.2389 38.7481 49.3738C38.3471 49.5013 37.9332 49.5835 37.5139 49.6189C37.584 49.3213 37.7153 48.9099 37.8028 48.6299C37.8903 48.3498 37.9691 48.1047 38.0391 47.8596L38.1441 47.9121C38.5643 48.1485 39.3695 48.6036 39.6759 48.7874V48.8312ZM37.6277 46.2404C37.5365 46.2836 37.4558 46.3464 37.3914 46.4242H37.2864C32.6912 47.3607 26.4592 43.9121 24.4811 37.2951C22.2754 29.9253 26.2317 25.5664 30.7131 23.9471C31.8959 23.5089 33.1454 23.2779 34.4067 23.2644C35.9241 23.2525 37.4118 23.6846 38.6868 24.5073L39.4133 25.0325C41.0951 26.5085 42.2861 28.4629 42.8269 30.6342C44.4111 35.9384 44.0085 43.2294 37.6277 46.3191V46.2404ZM45.654 51.8071H45.0238C44.5948 51.7428 44.1853 51.5844 43.8247 51.3432C44.0172 51.0894 44.3936 50.7043 44.6474 50.4679C44.9013 50.2316 45.1376 49.9515 45.3476 49.7152C45.4877 50.0215 45.689 50.3979 45.9953 50.9231L46.5118 51.8596H45.6365L45.654 51.8071ZM56.5161 39.7808C55.8249 42.3562 54.4415 44.6931 52.5161 46.538C50.9581 47.9471 48.0172 48.4898 45.9166 48.3848C45.7594 48.3829 45.6058 48.432 45.4789 48.5248C45.4057 48.4413 45.3123 48.378 45.2076 48.341C43.8318 47.9195 42.6462 47.0311 41.8553 45.829L41.5927 45.3388C45.6015 41.2776 45.689 35.0106 44.2185 30.1703C43.9684 29.3274 43.6463 28.5074 43.2557 27.7196C45.4877 26.2053 47.8947 26.0741 51.0719 27.2994C54.2492 28.5248 58.7831 32.4373 56.4986 39.6933" fill="#444444"/>
<path d="M41.3924 31.5105C41.5665 31.4504 41.7117 31.327 41.7992 31.1649C41.8867 31.0029 41.9102 30.8138 41.865 30.6352C41.3173 28.6429 40.1864 26.8598 38.6178 25.5149L38.1976 25.2173C37.3995 24.7073 36.5077 24.3618 35.5743 24.201C34.641 24.0402 33.6849 24.0673 32.7622 24.2808C32.6662 24.2991 32.5748 24.3363 32.4932 24.39C32.4115 24.4437 32.3413 24.513 32.2864 24.5938C32.2316 24.6747 32.1932 24.7656 32.1734 24.8613C32.1537 24.957 32.153 25.0557 32.1714 25.1517C32.1898 25.2476 32.2269 25.339 32.2806 25.4207C32.3343 25.5023 32.4036 25.5726 32.4845 25.6274C32.5653 25.6823 32.6562 25.7207 32.7519 25.7404C32.8476 25.7602 32.9463 25.7609 33.0423 25.7425C33.7734 25.5615 34.5337 25.531 35.277 25.6529C36.0203 25.7748 36.7311 26.0464 37.3661 26.4514L37.7075 26.6878C39.0338 27.8447 39.9897 29.3669 40.4558 31.0641C40.5056 31.2126 40.6009 31.3416 40.7282 31.4327C40.8554 31.5239 41.0082 31.5725 41.1648 31.5718C41.2402 31.5839 41.317 31.5839 41.3924 31.5718" fill="#444444"/>
<path d="M49.531 27.6678C49.3439 27.6408 49.1536 27.686 48.9986 27.7942C48.8436 27.9025 48.7356 28.0657 48.6966 28.2507C48.6576 28.4356 48.6905 28.6285 48.7886 28.7901C48.8867 28.9518 49.0426 29.07 49.2247 29.1208C51.0079 29.4786 52.5793 30.5221 53.6011 32.0267C54.6364 33.5425 55.0673 35.3909 54.8089 37.2083V37.4709C54.7875 37.5689 54.7866 37.6704 54.8063 37.7688C54.826 37.8673 54.8659 37.9605 54.9235 38.0428C54.981 38.125 55.055 38.1944 55.1408 38.2467C55.2265 38.2989 55.3221 38.3328 55.4216 38.3462H55.5442C55.719 38.3444 55.8876 38.2812 56.0204 38.1676C56.1533 38.0539 56.2419 37.8971 56.2707 37.7247L56.3232 37.4271C56.6298 35.2414 56.1118 33.0199 54.8702 31.1952C53.6398 29.3914 51.7569 28.136 49.6186 27.6941" fill="#444444"/>
<path d="M26.651 94.075V97.582H30.774V98.688H26.651V103H25.293V92.969H31.474V94.075H26.651ZM37.0457 98.681C37.0457 98.3917 37.0037 98.128 36.9197 97.89C36.8404 97.6473 36.7214 97.4397 36.5627 97.267C36.4087 97.0897 36.2197 96.9543 35.9957 96.861C35.7717 96.763 35.5174 96.714 35.2327 96.714C34.6354 96.714 34.1617 96.889 33.8117 97.239C33.4664 97.5843 33.2517 98.065 33.1677 98.681H37.0457ZM38.0537 102.006C37.8997 102.193 37.7154 102.356 37.5007 102.496C37.2861 102.631 37.0551 102.743 36.8077 102.832C36.5651 102.921 36.3131 102.986 36.0517 103.028C35.7904 103.075 35.5314 103.098 35.2747 103.098C34.7847 103.098 34.3321 103.016 33.9167 102.853C33.5061 102.685 33.1491 102.442 32.8457 102.125C32.5471 101.803 32.3137 101.406 32.1457 100.935C31.9777 100.464 31.8937 99.9223 31.8937 99.311C31.8937 98.8163 31.9684 98.3543 32.1177 97.925C32.2717 97.4957 32.4911 97.1247 32.7757 96.812C33.0604 96.4947 33.4081 96.2473 33.8187 96.07C34.2294 95.888 34.6914 95.797 35.2047 95.797C35.6294 95.797 36.0214 95.8693 36.3807 96.014C36.7447 96.154 37.0574 96.3593 37.3187 96.63C37.5847 96.896 37.7924 97.2273 37.9417 97.624C38.0911 98.016 38.1657 98.464 38.1657 98.968C38.1657 99.164 38.1447 99.2947 38.1027 99.36C38.0607 99.4253 37.9814 99.458 37.8647 99.458H33.1257C33.1397 99.906 33.2004 100.296 33.3077 100.627C33.4197 100.958 33.5737 101.236 33.7697 101.46C33.9657 101.679 34.1991 101.845 34.4697 101.957C34.7404 102.064 35.0437 102.118 35.3797 102.118C35.6924 102.118 35.9607 102.083 36.1847 102.013C36.4134 101.938 36.6094 101.859 36.7727 101.775C36.9361 101.691 37.0714 101.614 37.1787 101.544C37.2907 101.469 37.3864 101.432 37.4657 101.432C37.5684 101.432 37.6477 101.472 37.7037 101.551L38.0537 102.006ZM43.8262 97.078C43.7702 97.1807 43.6839 97.232 43.5672 97.232C43.4972 97.232 43.4179 97.2063 43.3292 97.155C43.2406 97.1037 43.1309 97.0477 43.0002 96.987C42.8742 96.9217 42.7226 96.8633 42.5452 96.812C42.3679 96.756 42.1579 96.728 41.9152 96.728C41.7052 96.728 41.5162 96.756 41.3482 96.812C41.1802 96.8633 41.0356 96.9357 40.9142 97.029C40.7976 97.1223 40.7066 97.232 40.6412 97.358C40.5806 97.4793 40.5502 97.6123 40.5502 97.757C40.5502 97.939 40.6016 98.0907 40.7042 98.212C40.8116 98.3333 40.9516 98.4383 41.1242 98.527C41.2969 98.6157 41.4929 98.695 41.7122 98.765C41.9316 98.8303 42.1556 98.9027 42.3842 98.982C42.6176 99.0567 42.8439 99.1407 43.0632 99.234C43.2826 99.3273 43.4786 99.444 43.6512 99.584C43.8239 99.724 43.9616 99.8967 44.0642 100.102C44.1716 100.303 44.2252 100.545 44.2252 100.83C44.2252 101.157 44.1669 101.46 44.0502 101.74C43.9336 102.015 43.7609 102.256 43.5322 102.461C43.3036 102.662 43.0236 102.82 42.6922 102.937C42.3609 103.054 41.9782 103.112 41.5442 103.112C41.0496 103.112 40.6016 103.033 40.2002 102.874C39.7989 102.711 39.4582 102.503 39.1782 102.251L39.4722 101.775C39.5096 101.714 39.5539 101.668 39.6052 101.635C39.6566 101.602 39.7219 101.586 39.8012 101.586C39.8852 101.586 39.9739 101.619 40.0672 101.684C40.1606 101.749 40.2726 101.822 40.4032 101.901C40.5386 101.98 40.7019 102.053 40.8932 102.118C41.0846 102.183 41.3226 102.216 41.6072 102.216C41.8499 102.216 42.0622 102.186 42.2442 102.125C42.4262 102.06 42.5779 101.973 42.6992 101.866C42.8206 101.759 42.9092 101.635 42.9652 101.495C43.0259 101.355 43.0562 101.206 43.0562 101.047C43.0562 100.851 43.0026 100.69 42.8952 100.564C42.7926 100.433 42.6549 100.324 42.4822 100.235C42.3096 100.142 42.1112 100.062 41.8872 99.997C41.6679 99.927 41.4416 99.8547 41.2082 99.78C40.9796 99.7053 40.7532 99.6213 40.5292 99.528C40.3099 99.43 40.1139 99.3087 39.9412 99.164C39.7686 99.0193 39.6286 98.842 39.5212 98.632C39.4186 98.4173 39.3672 98.1583 39.3672 97.855C39.3672 97.5843 39.4232 97.3253 39.5352 97.078C39.6472 96.826 39.8106 96.6067 40.0252 96.42C40.2399 96.2287 40.5036 96.077 40.8162 95.965C41.1289 95.853 41.4859 95.797 41.8872 95.797C42.3539 95.797 42.7716 95.8717 43.1402 96.021C43.5136 96.1657 43.8356 96.3663 44.1062 96.623L43.8262 97.078ZM47.9299 103.112C47.3699 103.112 46.9382 102.956 46.6349 102.643C46.3362 102.33 46.1869 101.88 46.1869 101.292V96.952H45.3329C45.2582 96.952 45.1952 96.931 45.1439 96.889C45.0925 96.8423 45.0669 96.7723 45.0669 96.679V96.182L46.2289 96.035L46.5159 93.844C46.5299 93.774 46.5602 93.718 46.6069 93.676C46.6582 93.6293 46.7235 93.606 46.8029 93.606H47.4329V96.049H49.4839V96.952H47.4329V101.208C47.4329 101.507 47.5052 101.728 47.6499 101.873C47.7945 102.018 47.9812 102.09 48.2099 102.09C48.3405 102.09 48.4525 102.074 48.5459 102.041C48.6439 102.004 48.7279 101.964 48.7979 101.922C48.8679 101.88 48.9262 101.843 48.9729 101.81C49.0242 101.773 49.0685 101.754 49.1059 101.754C49.1712 101.754 49.2295 101.794 49.2809 101.873L49.6449 102.468C49.4302 102.669 49.1712 102.827 48.8679 102.944C48.5645 103.056 48.2519 103.112 47.9299 103.112ZM54.6134 99.808C54.0394 99.8267 53.5494 99.8733 53.1434 99.948C52.7421 100.018 52.4131 100.111 52.1564 100.228C51.9044 100.345 51.7201 100.482 51.6034 100.641C51.4914 100.8 51.4354 100.977 51.4354 101.173C51.4354 101.36 51.4658 101.521 51.5264 101.656C51.5871 101.791 51.6688 101.903 51.7714 101.992C51.8788 102.076 52.0024 102.139 52.1424 102.181C52.2871 102.218 52.4411 102.237 52.6044 102.237C52.8238 102.237 53.0244 102.216 53.2064 102.174C53.3884 102.127 53.5588 102.062 53.7174 101.978C53.8808 101.894 54.0348 101.794 54.1794 101.677C54.3288 101.56 54.4734 101.427 54.6134 101.278V99.808ZM50.5884 96.91C50.9804 96.532 51.4028 96.2497 51.8554 96.063C52.3081 95.8763 52.8098 95.783 53.3604 95.783C53.7571 95.783 54.1094 95.8483 54.4174 95.979C54.7254 96.1097 54.9844 96.2917 55.1944 96.525C55.4044 96.7583 55.5631 97.0407 55.6704 97.372C55.7778 97.7033 55.8314 98.0673 55.8314 98.464V103H55.2784C55.1571 103 55.0638 102.981 54.9984 102.944C54.9331 102.902 54.8818 102.823 54.8444 102.706L54.7044 102.034C54.5178 102.207 54.3358 102.361 54.1584 102.496C53.9811 102.627 53.7944 102.739 53.5984 102.832C53.4024 102.921 53.1924 102.988 52.9684 103.035C52.7491 103.086 52.5041 103.112 52.2334 103.112C51.9581 103.112 51.6991 103.075 51.4564 103C51.2138 102.921 51.0014 102.804 50.8194 102.65C50.6421 102.496 50.4998 102.302 50.3924 102.069C50.2898 101.831 50.2384 101.551 50.2384 101.229C50.2384 100.949 50.3154 100.681 50.4694 100.424C50.6234 100.163 50.8731 99.9317 51.2184 99.731C51.5638 99.5303 52.0141 99.367 52.5694 99.241C53.1248 99.1103 53.8061 99.0357 54.6134 99.017V98.464C54.6134 97.9133 54.4944 97.498 54.2564 97.218C54.0184 96.9333 53.6708 96.791 53.2134 96.791C52.9054 96.791 52.6464 96.8307 52.4364 96.91C52.2311 96.9847 52.0514 97.071 51.8974 97.169C51.7481 97.2623 51.6174 97.3487 51.5054 97.428C51.3981 97.5027 51.2908 97.54 51.1834 97.54C51.0994 97.54 51.0271 97.519 50.9664 97.477C50.9058 97.4303 50.8544 97.3743 50.8124 97.309L50.5884 96.91Z" fill="#444444"/>
</svg>
