<svg width="103" height="128" viewBox="0 0 103 128" fill="none" xmlns="http://www.w3.org/2000/svg">
<path d="M89.2188 40.0001C89.2206 47.5381 86.9867 54.9074 82.7999 61.1758C78.613 67.4442 72.6612 72.3302 65.6973 75.2157C58.7334 78.1012 51.0701 78.8566 43.6768 77.3864C36.2835 75.9162 29.4922 72.2865 24.162 66.9562C18.8318 61.626 15.202 54.8348 13.7319 47.4415C12.2617 40.0481 13.0171 32.3849 15.9026 25.4209C18.7881 18.457 23.674 12.5052 29.9424 8.31836C36.2108 4.13151 43.5801 1.89768 51.1182 1.89942C61.2231 1.89942 70.9142 5.91358 78.0594 13.0588C85.2047 20.2041 89.2188 29.8951 89.2188 40.0001Z" fill="white"/>
<path d="M61.0788 30.7308C61.4396 30.4245 61.8883 30.2407 62.3603 30.2061C62.8323 30.1715 63.3031 30.2878 63.7047 30.5383C64.3127 30.9385 65.0248 31.1515 65.7528 31.1509C66.6068 31.1519 67.4317 30.8406 68.0723 30.2757C68.2233 30.1439 68.3163 29.9579 68.331 29.7579C68.3458 29.558 68.2811 29.3604 68.151 29.2078C68.0177 29.0562 67.8302 28.963 67.6289 28.9483C67.4275 28.9336 67.2284 28.9985 67.0745 29.1291C66.7248 29.43 66.2854 29.6069 65.8247 29.6322C65.3641 29.6576 64.908 29.5299 64.5274 29.2691C63.8395 28.8313 63.0271 28.631 62.2145 28.699C61.402 28.767 60.6341 29.0995 60.0285 29.6455C59.9546 29.715 59.8952 29.7985 59.854 29.8913C59.8128 29.984 59.7906 30.084 59.7886 30.1855C59.7866 30.2869 59.8049 30.3878 59.8424 30.482C59.88 30.5763 59.936 30.6622 60.0071 30.7345C60.0783 30.8068 60.1632 30.8642 60.2569 30.9033C60.3505 30.9423 60.451 30.9623 60.5525 30.9619C60.654 30.9616 60.7544 30.9409 60.8477 30.9013C60.9411 30.8616 61.0257 30.8036 61.0963 30.7308" fill="#444444"/>
<path d="M57.989 27.8072C56.8599 27.5621 55.1531 27.0982 53.3501 26.6081C49.1488 25.4615 44.3873 24.1748 42.1291 24.1748C40.1675 24.1715 38.2552 24.7888 36.6657 25.9384C35.0763 27.088 33.8914 28.711 33.2804 30.575C32.6694 32.439 32.6638 34.4485 33.2643 36.3159C33.8648 38.1833 35.0407 39.8128 36.6236 40.9713C36.6108 41.0437 36.6108 41.1178 36.6236 41.1901C36.965 42.4943 36.0459 46.7831 35.2494 49.0676C34.5229 51.1245 34.768 54.1529 36.1772 55.1157C36.965 55.6584 38.803 55.8597 40.6499 55.8597C42.2679 55.8893 43.8837 55.7277 45.4639 55.3783C45.5723 55.3544 45.6779 55.3192 45.779 55.2733C45.8883 55.2253 45.9853 55.1531 46.0626 55.0621C46.14 54.9711 46.1956 54.8638 46.2253 54.7481C46.5178 53.3836 46.3356 51.9601 45.7089 50.7131C44.9825 48.8575 44.2297 46.9407 47.0306 42.0041C49.0175 41.5402 51.2407 40.9363 53.3238 40.3674C55.1269 39.8772 56.8249 39.4133 57.9628 39.1683C58.1318 39.1304 58.2829 39.0361 58.3911 38.9008C58.4993 38.7656 58.5581 38.5975 58.5579 38.4243V28.5512C58.5581 28.378 58.4993 28.2099 58.3911 28.0746C58.2829 27.9394 58.1318 27.845 57.9628 27.8072H57.989ZM44.3172 51.247C44.7418 52.0817 44.9237 53.0187 44.8424 53.9516C43.0919 54.398 38.0328 54.5118 37.0525 53.8378C36.4748 53.444 36.0809 51.3171 36.7024 49.549C37.5499 47.0877 38.0622 44.5234 38.2253 41.9254C39.4452 42.495 40.774 42.7936 42.1203 42.8006C43.1245 42.7653 44.1235 42.6393 45.105 42.4243C42.7155 47.177 43.5995 49.4265 44.3172 51.2733V51.247ZM57.07 37.7941C55.9671 38.0567 54.5492 38.4418 52.9474 38.8794C49.0437 39.9385 44.1947 41.2602 42.1291 41.2602C40.1094 41.1924 38.1951 40.3425 36.7903 38.8898C35.3855 37.4371 34.6002 35.4954 34.6002 33.4746C34.6002 31.4538 35.3855 29.5121 36.7903 28.0594C38.1951 26.6067 40.1094 25.7568 42.1291 25.689C44.186 25.689 49.0437 27.0107 52.9474 28.0698C54.5492 28.5074 55.9671 28.8925 57.07 29.1551V37.7941Z" fill="#444444"/>
<path d="M42.1291 28.376C41.1194 28.3743 40.132 28.6721 39.2917 29.2317C38.4514 29.7914 37.796 30.5877 37.4084 31.52C37.0208 32.4523 36.9185 33.4785 37.1144 34.469C37.3103 35.4594 37.7957 36.3695 38.509 37.084C39.2222 37.7985 40.1315 38.2854 41.1216 38.483C42.1117 38.6806 43.1381 38.58 44.071 38.1941C45.004 37.8081 45.8015 37.1541 46.3626 36.3147C46.9236 35.4754 47.2231 34.4885 47.2231 33.4788C47.2232 32.127 46.6867 30.8304 45.7317 29.8737C44.7766 28.9169 43.4809 28.3783 42.1291 28.376ZM42.1291 37.0587C41.421 37.0587 40.7289 36.8487 40.1402 36.4554C39.5515 36.062 39.0926 35.5029 38.8217 34.8488C38.5507 34.1947 38.4798 33.4749 38.618 32.7804C38.7561 32.086 39.0971 31.4481 39.5977 30.9475C40.0984 30.4468 40.7362 30.1059 41.4307 29.9677C42.1251 29.8296 42.8449 29.9005 43.499 30.1715C44.1531 30.4424 44.7122 30.9013 45.1056 31.49C45.499 32.0787 45.7089 32.7708 45.7089 33.4788C45.7089 34.4283 45.3318 35.3388 44.6604 36.0102C43.9891 36.6815 43.0785 37.0587 42.1291 37.0587Z" fill="#444444"/>
<path d="M69.1838 32.5512C69.0399 32.4106 68.8467 32.3319 68.6455 32.3319C68.4444 32.3319 68.2512 32.4106 68.1073 32.5512C67.7298 32.9777 67.1998 33.2387 66.6317 33.278C66.0635 33.3173 65.5027 33.1317 65.0701 32.7613C64.3038 32.1685 63.3404 31.8901 62.3761 31.9828C61.4117 32.0755 60.519 32.5323 59.8797 33.2602C59.7496 33.4127 59.6849 33.6104 59.6997 33.8103C59.7144 34.0102 59.8074 34.1962 59.9585 34.328C60.1124 34.4586 60.3115 34.5235 60.5129 34.5088C60.7142 34.494 60.9017 34.4009 61.035 34.2492C61.4254 33.8245 61.96 33.5605 62.5345 33.5087C63.109 33.457 63.6823 33.6211 64.1423 33.9692C64.8208 34.5098 65.6559 34.8168 66.523 34.8444C67.0248 34.8387 67.5203 34.731 67.9792 34.5279C68.4381 34.3247 68.8509 34.0304 69.1926 33.6628C69.3332 33.5189 69.4119 33.3257 69.4119 33.1245C69.4119 32.9233 69.3332 32.7301 69.1926 32.5862" fill="#444444"/>
<path d="M67.0745 36.4285C66.7258 36.7307 66.2869 36.9092 65.8263 36.9361C65.3656 36.963 64.9089 36.8369 64.5274 36.5773C63.8405 36.1366 63.0275 35.9346 62.2142 36.0027C61.4009 36.0707 60.6327 36.4049 60.0285 36.9536C59.9581 37.0236 59.9023 37.1068 59.8641 37.1984C59.826 37.29 59.8064 37.3883 59.8064 37.4876C59.8064 37.5868 59.826 37.6851 59.8641 37.7767C59.9023 37.8683 59.9581 37.9515 60.0285 38.0215C60.1713 38.1642 60.3649 38.2443 60.5668 38.2443C60.7687 38.2443 60.9623 38.1642 61.1051 38.0215C61.4649 37.7127 61.9146 37.528 62.3876 37.4949C62.8606 37.4618 63.3316 37.582 63.7309 37.8377C64.3452 38.2305 65.0587 38.44 65.7878 38.4416C66.6388 38.4404 67.4603 38.1292 68.0985 37.5663C68.2494 37.4305 68.3402 37.2403 68.3509 37.0376C68.3615 36.8349 68.2912 36.6363 68.1554 36.4854C68.0196 36.3345 67.8295 36.2437 67.6267 36.233C67.424 36.2224 67.2254 36.2927 67.0745 36.4285Z" fill="#444444"/>
<path d="M13.9417 92.969V103H12.5837V98.436H7.17269V103H5.81469V92.969H7.17269V97.442H12.5837V92.969H13.9417ZM17.4187 95.909V103H16.1727V95.909H17.4187ZM17.6847 93.683C17.6847 93.8043 17.6591 93.9187 17.6077 94.026C17.5611 94.1287 17.4957 94.222 17.4117 94.306C17.3324 94.3853 17.2367 94.4483 17.1247 94.495C17.0174 94.5417 16.9031 94.565 16.7817 94.565C16.6604 94.565 16.5461 94.5417 16.4387 94.495C16.3361 94.4483 16.2451 94.3853 16.1657 94.306C16.0864 94.222 16.0234 94.1287 15.9767 94.026C15.9301 93.9187 15.9067 93.8043 15.9067 93.683C15.9067 93.5617 15.9301 93.4473 15.9767 93.34C16.0234 93.228 16.0864 93.1323 16.1657 93.053C16.2451 92.969 16.3361 92.9037 16.4387 92.857C16.5461 92.8103 16.6604 92.787 16.7817 92.787C16.9031 92.787 17.0174 92.8103 17.1247 92.857C17.2367 92.9037 17.3324 92.969 17.4117 93.053C17.4957 93.1323 17.5611 93.228 17.6077 93.34C17.6591 93.4473 17.6847 93.5617 17.6847 93.683ZM21.937 99.535C22.189 99.535 22.4107 99.5 22.602 99.43C22.7933 99.36 22.9543 99.262 23.085 99.136C23.2157 99.01 23.3137 98.8607 23.379 98.688C23.4443 98.5107 23.477 98.317 23.477 98.107C23.477 97.673 23.344 97.3277 23.078 97.071C22.8167 96.8143 22.4363 96.686 21.937 96.686C21.433 96.686 21.048 96.8143 20.782 97.071C20.5207 97.3277 20.39 97.673 20.39 98.107C20.39 98.317 20.4227 98.5107 20.488 98.688C20.558 98.8607 20.6583 99.01 20.789 99.136C20.9197 99.262 21.0807 99.36 21.272 99.43C21.4633 99.5 21.685 99.535 21.937 99.535ZM24.184 103.385C24.184 103.212 24.135 103.072 24.037 102.965C23.939 102.858 23.806 102.774 23.638 102.713C23.4747 102.652 23.2833 102.61 23.064 102.587C22.8447 102.559 22.6113 102.538 22.364 102.524C22.1213 102.51 21.874 102.496 21.622 102.482C21.37 102.468 21.1273 102.445 20.894 102.412C20.6327 102.533 20.418 102.687 20.25 102.874C20.0867 103.056 20.005 103.271 20.005 103.518C20.005 103.677 20.0447 103.824 20.124 103.959C20.208 104.099 20.334 104.218 20.502 104.316C20.67 104.419 20.88 104.498 21.132 104.554C21.3887 104.615 21.6897 104.645 22.035 104.645C22.371 104.645 22.672 104.615 22.938 104.554C23.204 104.493 23.428 104.407 23.61 104.295C23.7967 104.183 23.939 104.05 24.037 103.896C24.135 103.742 24.184 103.572 24.184 103.385ZM25.451 96.189V96.651C25.451 96.805 25.353 96.903 25.157 96.945L24.352 97.05C24.5107 97.358 24.59 97.6987 24.59 98.072C24.59 98.4173 24.5223 98.7323 24.387 99.017C24.2563 99.297 24.0743 99.5373 23.841 99.738C23.6077 99.9387 23.3277 100.093 23.001 100.2C22.6743 100.307 22.3197 100.361 21.937 100.361C21.6057 100.361 21.293 100.321 20.999 100.242C20.8497 100.335 20.7353 100.436 20.656 100.543C20.5767 100.646 20.537 100.751 20.537 100.858C20.537 101.026 20.6047 101.154 20.74 101.243C20.88 101.327 21.062 101.388 21.286 101.425C21.51 101.462 21.7643 101.486 22.049 101.495C22.3383 101.504 22.6323 101.521 22.931 101.544C23.2343 101.563 23.5283 101.598 23.813 101.649C24.1023 101.7 24.359 101.784 24.583 101.901C24.807 102.018 24.9867 102.179 25.122 102.384C25.262 102.589 25.332 102.855 25.332 103.182C25.332 103.485 25.255 103.779 25.101 104.064C24.9517 104.349 24.7347 104.601 24.45 104.82C24.1653 105.044 23.8153 105.221 23.4 105.352C22.9893 105.487 22.525 105.555 22.007 105.555C21.489 105.555 21.0363 105.504 20.649 105.401C20.2617 105.298 19.9397 105.161 19.683 104.988C19.4263 104.815 19.2327 104.615 19.102 104.386C18.976 104.162 18.913 103.926 18.913 103.679C18.913 103.329 19.0227 103.033 19.242 102.79C19.4613 102.547 19.7623 102.354 20.145 102.209C19.935 102.116 19.767 101.992 19.641 101.838C19.5197 101.679 19.459 101.467 19.459 101.201C19.459 101.098 19.4777 100.993 19.515 100.886C19.5523 100.774 19.6083 100.664 19.683 100.557C19.7623 100.445 19.858 100.34 19.97 100.242C20.082 100.144 20.2127 100.058 20.362 99.983C20.012 99.787 19.739 99.528 19.543 99.206C19.347 98.8793 19.249 98.5013 19.249 98.072C19.249 97.7267 19.3143 97.414 19.445 97.134C19.5803 96.8493 19.767 96.609 20.005 96.413C20.243 96.2123 20.5253 96.0583 20.852 95.951C21.1833 95.8437 21.545 95.79 21.937 95.79C22.245 95.79 22.532 95.825 22.798 95.895C23.064 95.9603 23.3067 96.0583 23.526 96.189H25.451ZM28.0554 95.909V103H26.8094V95.909H28.0554ZM28.3214 93.683C28.3214 93.8043 28.2958 93.9187 28.2444 94.026C28.1978 94.1287 28.1324 94.222 28.0484 94.306C27.9691 94.3853 27.8734 94.4483 27.7614 94.495C27.6541 94.5417 27.5398 94.565 27.4184 94.565C27.2971 94.565 27.1828 94.5417 27.0754 94.495C26.9728 94.4483 26.8818 94.3853 26.8024 94.306C26.7231 94.222 26.6601 94.1287 26.6134 94.026C26.5668 93.9187 26.5434 93.8043 26.5434 93.683C26.5434 93.5617 26.5668 93.4473 26.6134 93.34C26.6601 93.228 26.7231 93.1323 26.8024 93.053C26.8818 92.969 26.9728 92.9037 27.0754 92.857C27.1828 92.8103 27.2971 92.787 27.4184 92.787C27.5398 92.787 27.6541 92.8103 27.7614 92.857C27.8734 92.9037 27.9691 92.969 28.0484 93.053C28.1324 93.1323 28.1978 93.228 28.2444 93.34C28.2958 93.4473 28.3214 93.5617 28.3214 93.683ZM34.8487 98.681C34.8487 98.3917 34.8067 98.128 34.7227 97.89C34.6434 97.6473 34.5244 97.4397 34.3657 97.267C34.2117 97.0897 34.0227 96.9543 33.7987 96.861C33.5747 96.763 33.3204 96.714 33.0357 96.714C32.4384 96.714 31.9647 96.889 31.6147 97.239C31.2694 97.5843 31.0547 98.065 30.9707 98.681H34.8487ZM35.8567 102.006C35.7027 102.193 35.5184 102.356 35.3037 102.496C35.0891 102.631 34.8581 102.743 34.6107 102.832C34.3681 102.921 34.1161 102.986 33.8547 103.028C33.5934 103.075 33.3344 103.098 33.0777 103.098C32.5877 103.098 32.1351 103.016 31.7197 102.853C31.3091 102.685 30.9521 102.442 30.6487 102.125C30.3501 101.803 30.1167 101.406 29.9487 100.935C29.7807 100.464 29.6967 99.9223 29.6967 99.311C29.6967 98.8163 29.7714 98.3543 29.9207 97.925C30.0747 97.4957 30.2941 97.1247 30.5787 96.812C30.8634 96.4947 31.2111 96.2473 31.6217 96.07C32.0324 95.888 32.4944 95.797 33.0077 95.797C33.4324 95.797 33.8244 95.8693 34.1837 96.014C34.5477 96.154 34.8604 96.3593 35.1217 96.63C35.3877 96.896 35.5954 97.2273 35.7447 97.624C35.8941 98.016 35.9687 98.464 35.9687 98.968C35.9687 99.164 35.9477 99.2947 35.9057 99.36C35.8637 99.4253 35.7844 99.458 35.6677 99.458H30.9287C30.9427 99.906 31.0034 100.296 31.1107 100.627C31.2227 100.958 31.3767 101.236 31.5727 101.46C31.7687 101.679 32.0021 101.845 32.2727 101.957C32.5434 102.064 32.8467 102.118 33.1827 102.118C33.4954 102.118 33.7637 102.083 33.9877 102.013C34.2164 101.938 34.4124 101.859 34.5757 101.775C34.7391 101.691 34.8744 101.614 34.9817 101.544C35.0937 101.469 35.1894 101.432 35.2687 101.432C35.3714 101.432 35.4507 101.472 35.5067 101.551L35.8567 102.006ZM38.6752 96.938C38.8292 96.7653 38.9925 96.609 39.1652 96.469C39.3379 96.329 39.5199 96.21 39.7112 96.112C39.9072 96.0093 40.1125 95.9323 40.3272 95.881C40.5465 95.825 40.7822 95.797 41.0342 95.797C41.4215 95.797 41.7622 95.8623 42.0562 95.993C42.3549 96.119 42.6022 96.301 42.7982 96.539C42.9989 96.7723 43.1505 97.0547 43.2532 97.386C43.3559 97.7173 43.4072 98.0837 43.4072 98.485V103H42.1542V98.485C42.1542 97.9483 42.0305 97.533 41.7832 97.239C41.5405 96.9403 41.1695 96.791 40.6702 96.791C40.3015 96.791 39.9562 96.8797 39.6342 97.057C39.3169 97.2343 39.0229 97.4747 38.7522 97.778V103H37.4992V95.909H38.2482C38.4255 95.909 38.5352 95.9953 38.5772 96.168L38.6752 96.938ZM50.0518 98.681C50.0518 98.3917 50.0098 98.128 49.9258 97.89C49.8465 97.6473 49.7275 97.4397 49.5688 97.267C49.4148 97.0897 49.2258 96.9543 49.0018 96.861C48.7778 96.763 48.5235 96.714 48.2388 96.714C47.6415 96.714 47.1678 96.889 46.8178 97.239C46.4725 97.5843 46.2578 98.065 46.1738 98.681H50.0518ZM51.0598 102.006C50.9058 102.193 50.7215 102.356 50.5068 102.496C50.2922 102.631 50.0612 102.743 49.8138 102.832C49.5712 102.921 49.3192 102.986 49.0578 103.028C48.7965 103.075 48.5375 103.098 48.2808 103.098C47.7908 103.098 47.3382 103.016 46.9228 102.853C46.5122 102.685 46.1552 102.442 45.8518 102.125C45.5532 101.803 45.3198 101.406 45.1518 100.935C44.9838 100.464 44.8998 99.9223 44.8998 99.311C44.8998 98.8163 44.9745 98.3543 45.1238 97.925C45.2778 97.4957 45.4972 97.1247 45.7818 96.812C46.0665 96.4947 46.4142 96.2473 46.8248 96.07C47.2355 95.888 47.6975 95.797 48.2108 95.797C48.6355 95.797 49.0275 95.8693 49.3868 96.014C49.7508 96.154 50.0635 96.3593 50.3248 96.63C50.5908 96.896 50.7985 97.2273 50.9478 97.624C51.0972 98.016 51.1718 98.464 51.1718 98.968C51.1718 99.164 51.1508 99.2947 51.1088 99.36C51.0668 99.4253 50.9875 99.458 50.8708 99.458H46.1318C46.1458 99.906 46.2065 100.296 46.3138 100.627C46.4258 100.958 46.5798 101.236 46.7758 101.46C46.9718 101.679 47.2052 101.845 47.4758 101.957C47.7465 102.064 48.0498 102.118 48.3858 102.118C48.6985 102.118 48.9668 102.083 49.1908 102.013C49.4195 101.938 49.6155 101.859 49.7788 101.775C49.9422 101.691 50.0775 101.614 50.1848 101.544C50.2968 101.469 50.3925 101.432 50.4718 101.432C50.5745 101.432 50.6538 101.472 50.7098 101.551L51.0598 102.006ZM52.6253 104.694C52.588 104.661 52.5623 104.631 52.5483 104.603C52.5343 104.575 52.5273 104.54 52.5273 104.498C52.5273 104.465 52.5367 104.433 52.5553 104.4C52.5787 104.367 52.6043 104.337 52.6323 104.309C52.679 104.258 52.7373 104.19 52.8073 104.106C52.882 104.022 52.9567 103.922 53.0313 103.805C53.106 103.693 53.1737 103.567 53.2343 103.427C53.2997 103.292 53.3463 103.147 53.3743 102.993C53.3603 102.998 53.344 103 53.3253 103C53.3113 103 53.2973 103 53.2833 103C53.0407 103 52.8423 102.921 52.6883 102.762C52.539 102.599 52.4643 102.391 52.4643 102.139C52.4643 101.92 52.539 101.733 52.6883 101.579C52.8423 101.425 53.0453 101.348 53.2973 101.348C53.4373 101.348 53.561 101.374 53.6683 101.425C53.7757 101.476 53.8643 101.549 53.9343 101.642C54.009 101.731 54.065 101.836 54.1023 101.957C54.1397 102.074 54.1583 102.202 54.1583 102.342C54.1583 102.552 54.128 102.771 54.0673 103C54.0113 103.224 53.925 103.446 53.8083 103.665C53.6963 103.889 53.5587 104.106 53.3953 104.316C53.232 104.526 53.0453 104.72 52.8353 104.897L52.6253 104.694ZM60.7092 101.292C60.9379 101.6 61.1876 101.817 61.4582 101.943C61.7336 102.069 62.0346 102.132 62.3612 102.132C63.0286 102.132 63.5396 101.896 63.8942 101.425C64.2489 100.954 64.4262 100.251 64.4262 99.318C64.4262 98.45 64.2676 97.813 63.9502 97.407C63.6376 96.9963 63.1896 96.791 62.6062 96.791C62.2002 96.791 61.8456 96.8843 61.5422 97.071C61.2436 97.2577 60.9659 97.5213 60.7092 97.862V101.292ZM60.7092 96.931C61.0079 96.5857 61.3439 96.3103 61.7172 96.105C62.0952 95.8997 62.5292 95.797 63.0192 95.797C63.4346 95.797 63.8079 95.8763 64.1392 96.035C64.4752 96.1937 64.7599 96.4247 64.9932 96.728C65.2266 97.0267 65.4039 97.3907 65.5252 97.82C65.6512 98.2493 65.7142 98.7323 65.7142 99.269C65.7142 99.843 65.6442 100.366 65.5042 100.837C65.3642 101.308 65.1612 101.712 64.8952 102.048C64.6339 102.379 64.3142 102.638 63.9362 102.825C63.5582 103.007 63.1336 103.098 62.6622 103.098C62.1956 103.098 61.8012 103.012 61.4792 102.839C61.1619 102.662 60.8842 102.412 60.6462 102.09L60.5832 102.734C60.5459 102.911 60.4386 103 60.2612 103H59.4562V92.689H60.7092V96.931ZM72.0362 98.681C72.0362 98.3917 71.9942 98.128 71.9102 97.89C71.8309 97.6473 71.7119 97.4397 71.5532 97.267C71.3992 97.0897 71.2102 96.9543 70.9862 96.861C70.7622 96.763 70.5079 96.714 70.2232 96.714C69.6259 96.714 69.1522 96.889 68.8022 97.239C68.4569 97.5843 68.2422 98.065 68.1582 98.681H72.0362ZM73.0442 102.006C72.8902 102.193 72.7059 102.356 72.4912 102.496C72.2766 102.631 72.0456 102.743 71.7982 102.832C71.5556 102.921 71.3036 102.986 71.0422 103.028C70.7809 103.075 70.5219 103.098 70.2652 103.098C69.7752 103.098 69.3226 103.016 68.9072 102.853C68.4966 102.685 68.1396 102.442 67.8362 102.125C67.5376 101.803 67.3042 101.406 67.1362 100.935C66.9682 100.464 66.8842 99.9223 66.8842 99.311C66.8842 98.8163 66.9589 98.3543 67.1082 97.925C67.2622 97.4957 67.4816 97.1247 67.7662 96.812C68.0509 96.4947 68.3986 96.2473 68.8092 96.07C69.2199 95.888 69.6819 95.797 70.1952 95.797C70.6199 95.797 71.0119 95.8693 71.3712 96.014C71.7352 96.154 72.0479 96.3593 72.3092 96.63C72.5752 96.896 72.7829 97.2273 72.9322 97.624C73.0816 98.016 73.1562 98.464 73.1562 98.968C73.1562 99.164 73.1352 99.2947 73.0932 99.36C73.0512 99.4253 72.9719 99.458 72.8552 99.458H68.1162C68.1302 99.906 68.1909 100.296 68.2982 100.627C68.4102 100.958 68.5642 101.236 68.7602 101.46C68.9562 101.679 69.1896 101.845 69.4602 101.957C69.7309 102.064 70.0342 102.118 70.3702 102.118C70.6829 102.118 70.9512 102.083 71.1752 102.013C71.4039 101.938 71.5999 101.859 71.7632 101.775C71.9266 101.691 72.0619 101.614 72.1692 101.544C72.2812 101.469 72.3769 101.432 72.4562 101.432C72.5589 101.432 72.6382 101.472 72.6942 101.551L73.0442 102.006ZM75.9747 92.689V103H74.7287V92.689H75.9747ZM82.7413 98.681C82.7413 98.3917 82.6993 98.128 82.6153 97.89C82.536 97.6473 82.417 97.4397 82.2583 97.267C82.1043 97.0897 81.9153 96.9543 81.6913 96.861C81.4673 96.763 81.213 96.714 80.9283 96.714C80.331 96.714 79.8573 96.889 79.5073 97.239C79.162 97.5843 78.9473 98.065 78.8633 98.681H82.7413ZM83.7493 102.006C83.5953 102.193 83.411 102.356 83.1963 102.496C82.9816 102.631 82.7506 102.743 82.5033 102.832C82.2606 102.921 82.0086 102.986 81.7473 103.028C81.486 103.075 81.227 103.098 80.9703 103.098C80.4803 103.098 80.0276 103.016 79.6123 102.853C79.2016 102.685 78.8446 102.442 78.5413 102.125C78.2426 101.803 78.0093 101.406 77.8413 100.935C77.6733 100.464 77.5893 99.9223 77.5893 99.311C77.5893 98.8163 77.664 98.3543 77.8133 97.925C77.9673 97.4957 78.1866 97.1247 78.4713 96.812C78.756 96.4947 79.1036 96.2473 79.5143 96.07C79.925 95.888 80.387 95.797 80.9003 95.797C81.325 95.797 81.717 95.8693 82.0763 96.014C82.4403 96.154 82.753 96.3593 83.0143 96.63C83.2803 96.896 83.488 97.2273 83.6373 97.624C83.7866 98.016 83.8613 98.464 83.8613 98.968C83.8613 99.164 83.8403 99.2947 83.7983 99.36C83.7563 99.4253 83.677 99.458 83.5603 99.458H78.8213C78.8353 99.906 78.896 100.296 79.0033 100.627C79.1153 100.958 79.2693 101.236 79.4653 101.46C79.6613 101.679 79.8946 101.845 80.1653 101.957C80.436 102.064 80.7393 102.118 81.0753 102.118C81.388 102.118 81.6563 102.083 81.8803 102.013C82.109 101.938 82.305 101.859 82.4683 101.775C82.6316 101.691 82.767 101.614 82.8743 101.544C82.9863 101.469 83.082 101.432 83.1613 101.432C83.264 101.432 83.3433 101.472 83.3993 101.551L83.7493 102.006ZM90.2848 96.441C90.2848 96.5297 90.2685 96.616 90.2358 96.7C90.2078 96.784 90.1681 96.8563 90.1168 96.917L86.2738 102.027H90.1518V103H84.8108V102.482C84.8108 102.421 84.8248 102.351 84.8528 102.272C84.8808 102.188 84.9228 102.109 84.9788 102.034L88.8428 96.889H85.0278V95.909H90.2848V96.441ZM95.5649 99.808C94.9909 99.8267 94.5009 99.8733 94.0949 99.948C93.6935 100.018 93.3645 100.111 93.1079 100.228C92.8559 100.345 92.6715 100.482 92.5549 100.641C92.4429 100.8 92.3869 100.977 92.3869 101.173C92.3869 101.36 92.4172 101.521 92.4779 101.656C92.5385 101.791 92.6202 101.903 92.7229 101.992C92.8302 102.076 92.9539 102.139 93.0939 102.181C93.2385 102.218 93.3925 102.237 93.5559 102.237C93.7752 102.237 93.9759 102.216 94.1579 102.174C94.3399 102.127 94.5102 102.062 94.6689 101.978C94.8322 101.894 94.9862 101.794 95.1309 101.677C95.2802 101.56 95.4249 101.427 95.5649 101.278V99.808ZM91.5399 96.91C91.9319 96.532 92.3542 96.2497 92.8069 96.063C93.2595 95.8763 93.7612 95.783 94.3119 95.783C94.7085 95.783 95.0609 95.8483 95.3689 95.979C95.6769 96.1097 95.9359 96.2917 96.1459 96.525C96.3559 96.7583 96.5145 97.0407 96.6219 97.372C96.7292 97.7033 96.7829 98.0673 96.7829 98.464V103H96.2299C96.1085 103 96.0152 102.981 95.9499 102.944C95.8845 102.902 95.8332 102.823 95.7959 102.706L95.6559 102.034C95.4692 102.207 95.2872 102.361 95.1099 102.496C94.9325 102.627 94.7459 102.739 94.5499 102.832C94.3539 102.921 94.1439 102.988 93.9199 103.035C93.7005 103.086 93.4555 103.112 93.1849 103.112C92.9095 103.112 92.6505 103.075 92.4079 103C92.1652 102.921 91.9529 102.804 91.7709 102.65C91.5935 102.496 91.4512 102.302 91.3439 102.069C91.2412 101.831 91.1899 101.551 91.1899 101.229C91.1899 100.949 91.2669 100.681 91.4209 100.424C91.5749 100.163 91.8245 99.9317 92.1699 99.731C92.5152 99.5303 92.9655 99.367 93.5209 99.241C94.0762 99.1103 94.7575 99.0357 95.5649 99.017V98.464C95.5649 97.9133 95.4459 97.498 95.2079 97.218C94.9699 96.9333 94.6222 96.791 94.1649 96.791C93.8569 96.791 93.5979 96.8307 93.3879 96.91C93.1825 96.9847 93.0029 97.071 92.8489 97.169C92.6995 97.2623 92.5689 97.3487 92.4569 97.428C92.3495 97.5027 92.2422 97.54 92.1349 97.54C92.0509 97.54 91.9785 97.519 91.9179 97.477C91.8572 97.4303 91.8059 97.3743 91.7639 97.309L91.5399 96.91ZM34.2335 118.681C34.2335 118.392 34.1915 118.128 34.1075 117.89C34.0282 117.647 33.9092 117.44 33.7505 117.267C33.5965 117.09 33.4075 116.954 33.1835 116.861C32.9595 116.763 32.7052 116.714 32.4205 116.714C31.8232 116.714 31.3495 116.889 30.9995 117.239C30.6542 117.584 30.4395 118.065 30.3555 118.681H34.2335ZM35.2415 122.006C35.0875 122.193 34.9032 122.356 34.6885 122.496C34.4738 122.631 34.2428 122.743 33.9955 122.832C33.7528 122.921 33.5008 122.986 33.2395 123.028C32.9782 123.075 32.7192 123.098 32.4625 123.098C31.9725 123.098 31.5198 123.016 31.1045 122.853C30.6938 122.685 30.3368 122.442 30.0335 122.125C29.7348 121.803 29.5015 121.406 29.3335 120.935C29.1655 120.464 29.0815 119.922 29.0815 119.311C29.0815 118.816 29.1562 118.354 29.3055 117.925C29.4595 117.496 29.6788 117.125 29.9635 116.812C30.2482 116.495 30.5958 116.247 31.0065 116.07C31.4172 115.888 31.8792 115.797 32.3925 115.797C32.8172 115.797 33.2092 115.869 33.5685 116.014C33.9325 116.154 34.2452 116.359 34.5065 116.63C34.7725 116.896 34.9802 117.227 35.1295 117.624C35.2788 118.016 35.3535 118.464 35.3535 118.968C35.3535 119.164 35.3325 119.295 35.2905 119.36C35.2485 119.425 35.1692 119.458 35.0525 119.458H30.3135C30.3275 119.906 30.3882 120.296 30.4955 120.627C30.6075 120.958 30.7615 121.236 30.9575 121.46C31.1535 121.679 31.3868 121.845 31.6575 121.957C31.9282 122.064 32.2315 122.118 32.5675 122.118C32.8802 122.118 33.1485 122.083 33.3725 122.013C33.6012 121.938 33.7972 121.859 33.9605 121.775C34.1238 121.691 34.2592 121.614 34.3665 121.544C34.4785 121.469 34.5742 121.432 34.6535 121.432C34.7562 121.432 34.8355 121.472 34.8915 121.551L35.2415 122.006ZM40.466 123V115.909H41.215C41.3923 115.909 41.502 115.995 41.544 116.168L41.635 116.896C41.8963 116.574 42.1903 116.31 42.517 116.105C42.8437 115.9 43.2217 115.797 43.651 115.797C44.127 115.797 44.512 115.93 44.806 116.196C45.1047 116.462 45.3193 116.821 45.45 117.274C45.5527 117.017 45.6833 116.796 45.842 116.609C46.0053 116.422 46.1873 116.268 46.388 116.147C46.5887 116.026 46.801 115.937 47.025 115.881C47.2537 115.825 47.4847 115.797 47.718 115.797C48.0913 115.797 48.4227 115.858 48.712 115.979C49.006 116.096 49.2533 116.268 49.454 116.497C49.6593 116.726 49.8157 117.008 49.923 117.344C50.0303 117.675 50.084 118.056 50.084 118.485V123H48.831V118.485C48.831 117.93 48.7097 117.51 48.467 117.225C48.2243 116.936 47.8743 116.791 47.417 116.791C47.2117 116.791 47.0157 116.828 46.829 116.903C46.647 116.973 46.486 117.078 46.346 117.218C46.206 117.358 46.094 117.535 46.01 117.75C45.9307 117.96 45.891 118.205 45.891 118.485V123H44.638V118.485C44.638 117.916 44.5237 117.491 44.295 117.211C44.0663 116.931 43.7327 116.791 43.294 116.791C42.986 116.791 42.7013 116.875 42.44 117.043C42.1787 117.206 41.9383 117.43 41.719 117.715V123H40.466ZM54.9667 115.797C55.4847 115.797 55.9514 115.883 56.3667 116.056C56.7821 116.229 57.1367 116.474 57.4307 116.791C57.7247 117.108 57.9487 117.493 58.1027 117.946C58.2614 118.394 58.3407 118.896 58.3407 119.451C58.3407 120.011 58.2614 120.515 58.1027 120.963C57.9487 121.411 57.7247 121.794 57.4307 122.111C57.1367 122.428 56.7821 122.673 56.3667 122.846C55.9514 123.014 55.4847 123.098 54.9667 123.098C54.4441 123.098 53.9727 123.014 53.5527 122.846C53.1374 122.673 52.7827 122.428 52.4887 122.111C52.1947 121.794 51.9684 121.411 51.8097 120.963C51.6557 120.515 51.5787 120.011 51.5787 119.451C51.5787 118.896 51.6557 118.394 51.8097 117.946C51.9684 117.493 52.1947 117.108 52.4887 116.791C52.7827 116.474 53.1374 116.229 53.5527 116.056C53.9727 115.883 54.4441 115.797 54.9667 115.797ZM54.9667 122.125C55.6667 122.125 56.1894 121.892 56.5347 121.425C56.8801 120.954 57.0527 120.298 57.0527 119.458C57.0527 118.613 56.8801 117.955 56.5347 117.484C56.1894 117.013 55.6667 116.777 54.9667 116.777C54.6121 116.777 54.3017 116.838 54.0357 116.959C53.7744 117.08 53.5551 117.255 53.3777 117.484C53.2051 117.713 53.0744 117.995 52.9857 118.331C52.9017 118.662 52.8597 119.038 52.8597 119.458C52.8597 120.298 53.0324 120.954 53.3777 121.425C53.7277 121.892 54.2574 122.125 54.9667 122.125ZM64.5411 117.596C64.3077 117.283 64.0557 117.066 63.7851 116.945C63.5144 116.819 63.2111 116.756 62.8751 116.756C62.2171 116.756 61.7107 116.992 61.3561 117.463C61.0014 117.934 60.8241 118.606 60.8241 119.479C60.8241 119.941 60.8637 120.338 60.9431 120.669C61.0224 120.996 61.1391 121.266 61.2931 121.481C61.4471 121.691 61.6361 121.845 61.8601 121.943C62.0841 122.041 62.3384 122.09 62.6231 122.09C63.0337 122.09 63.3907 121.997 63.6941 121.81C64.0021 121.623 64.2844 121.36 64.5411 121.019V117.596ZM65.7871 112.689V123H65.0451C64.8677 123 64.7557 122.914 64.7091 122.741L64.5971 121.88C64.2937 122.244 63.9484 122.538 63.5611 122.762C63.1737 122.986 62.7257 123.098 62.2171 123.098C61.8111 123.098 61.4424 123.021 61.1111 122.867C60.7797 122.708 60.4974 122.477 60.2641 122.174C60.0307 121.871 59.8511 121.493 59.7251 121.04C59.5991 120.587 59.5361 120.067 59.5361 119.479C59.5361 118.956 59.6061 118.471 59.7461 118.023C59.8861 117.57 60.0867 117.178 60.3481 116.847C60.6094 116.516 60.9291 116.257 61.3071 116.07C61.6897 115.879 62.1191 115.783 62.5951 115.783C63.0291 115.783 63.4001 115.858 63.7081 116.007C64.0207 116.152 64.2984 116.355 64.5411 116.616V112.689H65.7871ZM71.5981 119.808C71.0241 119.827 70.5341 119.873 70.1281 119.948C69.7267 120.018 69.3977 120.111 69.1411 120.228C68.8891 120.345 68.7047 120.482 68.5881 120.641C68.4761 120.8 68.4201 120.977 68.4201 121.173C68.4201 121.36 68.4504 121.521 68.5111 121.656C68.5717 121.791 68.6534 121.903 68.7561 121.992C68.8634 122.076 68.9871 122.139 69.1271 122.181C69.2717 122.218 69.4257 122.237 69.5891 122.237C69.8084 122.237 70.0091 122.216 70.1911 122.174C70.3731 122.127 70.5434 122.062 70.7021 121.978C70.8654 121.894 71.0194 121.794 71.1641 121.677C71.3134 121.56 71.4581 121.427 71.5981 121.278V119.808ZM67.5731 116.91C67.9651 116.532 68.3874 116.25 68.8401 116.063C69.2927 115.876 69.7944 115.783 70.3451 115.783C70.7417 115.783 71.0941 115.848 71.4021 115.979C71.7101 116.11 71.9691 116.292 72.1791 116.525C72.3891 116.758 72.5477 117.041 72.6551 117.372C72.7624 117.703 72.8161 118.067 72.8161 118.464V123H72.2631C72.1417 123 72.0484 122.981 71.9831 122.944C71.9177 122.902 71.8664 122.823 71.8291 122.706L71.6891 122.034C71.5024 122.207 71.3204 122.361 71.1431 122.496C70.9657 122.627 70.7791 122.739 70.5831 122.832C70.3871 122.921 70.1771 122.988 69.9531 123.035C69.7337 123.086 69.4887 123.112 69.2181 123.112C68.9427 123.112 68.6837 123.075 68.4411 123C68.1984 122.921 67.9861 122.804 67.8041 122.65C67.6267 122.496 67.4844 122.302 67.3771 122.069C67.2744 121.831 67.2231 121.551 67.2231 121.229C67.2231 120.949 67.3001 120.681 67.4541 120.424C67.6081 120.163 67.8577 119.932 68.2031 119.731C68.5484 119.53 68.9987 119.367 69.5541 119.241C70.1094 119.11 70.7907 119.036 71.5981 119.017V118.464C71.5981 117.913 71.4791 117.498 71.2411 117.218C71.0031 116.933 70.6554 116.791 70.1981 116.791C69.8901 116.791 69.6311 116.831 69.4211 116.91C69.2157 116.985 69.0361 117.071 68.8821 117.169C68.7327 117.262 68.6021 117.349 68.4901 117.428C68.3827 117.503 68.2754 117.54 68.1681 117.54C68.0841 117.54 68.0117 117.519 67.9511 117.477C67.8904 117.43 67.8391 117.374 67.7971 117.309L67.5731 116.91Z" fill="#444444"/>
</svg>
