<svg width="81" height="104" viewBox="0 0 81 104" fill="none" xmlns="http://www.w3.org/2000/svg">
<path d="M78.7308 40.0001C78.7325 47.5381 76.4987 54.9074 72.3119 61.1758C68.125 67.4442 62.1732 72.3302 55.2093 75.2157C48.2453 78.1012 40.5821 78.8566 33.1888 77.3864C25.7954 75.9162 19.0042 72.2865 13.674 66.9562C8.34374 61.626 4.714 54.8348 3.24381 47.4415C1.77363 40.0481 2.52906 32.3849 5.41456 25.4209C8.30006 18.457 13.186 12.5052 19.4544 8.31836C25.7228 4.13151 33.0921 1.89768 40.6301 1.89942C50.7351 1.89942 60.4261 5.91358 67.5714 13.0588C74.7166 20.2041 78.7308 29.8951 78.7308 40.0001Z" fill="white"/>
<path d="M66.2581 52.7088L53.1903 32.2011C49.8117 27.0283 45.4003 24.1924 40.7876 24.1924C35.9649 24.1924 31.4135 27.2646 27.9649 32.8576L15.2909 52.7438C15.1948 52.7352 15.0982 52.7352 15.0021 52.7438C14.7367 52.749 14.4787 52.8324 14.2605 52.9836C14.0423 53.1348 13.8737 53.3471 13.7756 53.5938C13.6776 53.8405 13.6547 54.1107 13.7096 54.3704C13.7645 54.6301 13.8949 54.8678 14.0845 55.0537C14.274 55.2396 14.5142 55.3654 14.7749 55.4153C15.0356 55.4653 15.3053 55.4371 15.5501 55.3343C15.7948 55.2316 16.0038 55.0588 16.1508 54.8378C16.2978 54.6167 16.3762 54.3572 16.3763 54.0917C16.3742 53.9303 16.3446 53.7705 16.2887 53.6191L24.4025 40.8401C22.9965 45.5095 22.2915 50.3618 22.3106 55.2383C22.3129 55.4086 22.3822 55.5711 22.5034 55.6907C22.6246 55.8103 22.788 55.8773 22.9583 55.8773H58.582C58.7522 55.8773 58.9157 55.8103 59.0369 55.6907C59.1581 55.5711 59.2274 55.4086 59.2297 55.2383C59.2523 50.3587 58.5473 45.503 57.1377 40.8313L65.1027 53.3652C64.9613 53.5813 64.8853 53.8335 64.8839 54.0917C64.8787 54.3646 64.9548 54.6328 65.1026 54.8622C65.2504 55.0916 65.4632 55.2718 65.7138 55.3799C65.9644 55.4879 66.2415 55.5189 66.5097 55.4689C66.778 55.4189 67.0253 55.2901 67.2201 55.099C67.4149 54.9079 67.5485 54.6631 67.6036 54.3959C67.6588 54.1286 67.6332 53.851 67.53 53.5984C67.4268 53.3457 67.2507 53.1295 67.0242 52.9773C66.7977 52.8252 66.531 52.7439 66.2581 52.7438V52.7088ZM39.9999 54.6081H31.0196L40.0349 32.7263L39.9999 54.6081ZM41.4003 54.6081V33.0064L50.3194 54.5731L41.4003 54.6081ZM57.8992 54.6081H51.6848L41.234 29.2252C41.1866 29.1061 41.1045 29.0041 40.9984 28.9323C40.8923 28.8605 40.767 28.8223 40.6388 28.8226C40.5095 28.8217 40.3828 28.8596 40.2752 28.9313C40.1675 29.0031 40.0839 29.1055 40.0349 29.2252L29.5929 54.6081H23.6148C23.7023 46.7307 25.5666 39.3434 28.8664 33.8379L29.0502 33.5403C29.058 33.5117 29.058 33.4814 29.0502 33.4528C32.245 28.3062 36.3938 25.4615 40.7351 25.4615C44.8927 25.4615 48.9014 28.0874 52.0349 32.8576L52.5863 33.7329C55.9036 39.2558 57.7767 46.6519 57.838 54.5819" fill="#444444"/>
<path d="M31.0977 101.859V103H25.4067V92.969H26.7577V101.859H31.0977ZM36.1471 99.808C35.5731 99.8267 35.0831 99.8733 34.6771 99.948C34.2758 100.018 33.9468 100.111 33.6901 100.228C33.4381 100.345 33.2538 100.482 33.1371 100.641C33.0251 100.8 32.9691 100.977 32.9691 101.173C32.9691 101.36 32.9995 101.521 33.0601 101.656C33.1208 101.791 33.2025 101.903 33.3051 101.992C33.4125 102.076 33.5361 102.139 33.6761 102.181C33.8208 102.218 33.9748 102.237 34.1381 102.237C34.3575 102.237 34.5581 102.216 34.7401 102.174C34.9221 102.127 35.0925 102.062 35.2511 101.978C35.4145 101.894 35.5685 101.794 35.7131 101.677C35.8625 101.56 36.0071 101.427 36.1471 101.278V99.808ZM32.1221 96.91C32.5141 96.532 32.9365 96.2497 33.3891 96.063C33.8418 95.8763 34.3435 95.783 34.8941 95.783C35.2908 95.783 35.6431 95.8483 35.9511 95.979C36.2591 96.1097 36.5181 96.2917 36.7281 96.525C36.9381 96.7583 37.0968 97.0407 37.2041 97.372C37.3115 97.7033 37.3651 98.0673 37.3651 98.464V103H36.8121C36.6908 103 36.5975 102.981 36.5321 102.944C36.4668 102.902 36.4155 102.823 36.3781 102.706L36.2381 102.034C36.0515 102.207 35.8695 102.361 35.6921 102.496C35.5148 102.627 35.3281 102.739 35.1321 102.832C34.9361 102.921 34.7261 102.988 34.5021 103.035C34.2828 103.086 34.0378 103.112 33.7671 103.112C33.4918 103.112 33.2328 103.075 32.9901 103C32.7475 102.921 32.5351 102.804 32.3531 102.65C32.1758 102.496 32.0335 102.302 31.9261 102.069C31.8235 101.831 31.7721 101.551 31.7721 101.229C31.7721 100.949 31.8491 100.681 32.0031 100.424C32.1571 100.163 32.4068 99.9317 32.7521 99.731C33.0975 99.5303 33.5478 99.367 34.1031 99.241C34.6585 99.1103 35.3398 99.0357 36.1471 99.017V98.464C36.1471 97.9133 36.0281 97.498 35.7901 97.218C35.5521 96.9333 35.2045 96.791 34.7471 96.791C34.4391 96.791 34.1801 96.8307 33.9701 96.91C33.7648 96.9847 33.5851 97.071 33.4311 97.169C33.2818 97.2623 33.1511 97.3487 33.0391 97.428C32.9318 97.5027 32.8245 97.54 32.7171 97.54C32.6331 97.54 32.5608 97.519 32.5001 97.477C32.4395 97.4303 32.3881 97.3743 32.3461 97.309L32.1221 96.91ZM44.1561 96.441C44.1561 96.5297 44.1398 96.616 44.1071 96.7C44.0791 96.784 44.0395 96.8563 43.9881 96.917L40.1451 102.027H44.0231V103H38.6821V102.482C38.6821 102.421 38.6961 102.351 38.7241 102.272C38.7521 102.188 38.7941 102.109 38.8501 102.034L42.7141 96.889H38.8991V95.909H44.1561V96.441ZM50.2025 98.681C50.2025 98.3917 50.1605 98.128 50.0765 97.89C49.9971 97.6473 49.8781 97.4397 49.7195 97.267C49.5655 97.0897 49.3765 96.9543 49.1525 96.861C48.9285 96.763 48.6741 96.714 48.3895 96.714C47.7921 96.714 47.3185 96.889 46.9685 97.239C46.6231 97.5843 46.4085 98.065 46.3245 98.681H50.2025ZM51.2105 102.006C51.0565 102.193 50.8721 102.356 50.6575 102.496C50.4428 102.631 50.2118 102.743 49.9645 102.832C49.7218 102.921 49.4698 102.986 49.2085 103.028C48.9471 103.075 48.6881 103.098 48.4315 103.098C47.9415 103.098 47.4888 103.016 47.0735 102.853C46.6628 102.685 46.3058 102.442 46.0025 102.125C45.7038 101.803 45.4705 101.406 45.3025 100.935C45.1345 100.464 45.0505 99.9223 45.0505 99.311C45.0505 98.8163 45.1251 98.3543 45.2745 97.925C45.4285 97.4957 45.6478 97.1247 45.9325 96.812C46.2171 96.4947 46.5648 96.2473 46.9755 96.07C47.3861 95.888 47.8481 95.797 48.3615 95.797C48.7861 95.797 49.1781 95.8693 49.5375 96.014C49.9015 96.154 50.2141 96.3593 50.4755 96.63C50.7415 96.896 50.9491 97.2273 51.0985 97.624C51.2478 98.016 51.3225 98.464 51.3225 98.968C51.3225 99.164 51.3015 99.2947 51.2595 99.36C51.2175 99.4253 51.1381 99.458 51.0215 99.458H46.2825C46.2965 99.906 46.3571 100.296 46.4645 100.627C46.5765 100.958 46.7305 101.236 46.9265 101.46C47.1225 101.679 47.3558 101.845 47.6265 101.957C47.8971 102.064 48.2005 102.118 48.5365 102.118C48.8491 102.118 49.1175 102.083 49.3415 102.013C49.5701 101.938 49.7661 101.859 49.9295 101.775C50.0928 101.691 50.2281 101.614 50.3355 101.544C50.4475 101.469 50.5431 101.432 50.6225 101.432C50.7251 101.432 50.8045 101.472 50.8605 101.551L51.2105 102.006ZM54.036 97.33C54.26 96.8447 54.5353 96.4667 54.862 96.196C55.1886 95.9207 55.5876 95.783 56.059 95.783C56.2083 95.783 56.3506 95.7993 56.486 95.832C56.626 95.8647 56.7496 95.916 56.857 95.986L56.766 96.917C56.738 97.0337 56.668 97.092 56.556 97.092C56.4906 97.092 56.395 97.078 56.269 97.05C56.143 97.022 56.0006 97.008 55.842 97.008C55.618 97.008 55.4173 97.0407 55.24 97.106C55.0673 97.1713 54.911 97.2693 54.771 97.4C54.6356 97.526 54.512 97.6847 54.4 97.876C54.2926 98.0627 54.1946 98.2773 54.106 98.52V103H52.853V95.909H53.567C53.7023 95.909 53.7956 95.9347 53.847 95.986C53.8983 96.0373 53.9333 96.126 53.952 96.252L54.036 97.33Z" fill="#444444"/>
</svg>
