<svg width="96" height="131" viewBox="0 0 96 131" fill="none" xmlns="http://www.w3.org/2000/svg">
<path d="M24.9172 94.969V105H23.7272V97.629C23.7272 97.531 23.7296 97.426 23.7342 97.314C23.7436 97.202 23.7529 97.0877 23.7622 96.971L20.3182 103.243C20.2109 103.453 20.0476 103.558 19.8282 103.558H19.6322C19.4129 103.558 19.2496 103.453 19.1422 103.243L15.6282 96.943C15.6562 97.1903 15.6702 97.419 15.6702 97.629V105H14.4802V94.969H15.4812C15.6026 94.969 15.6959 94.9807 15.7612 95.004C15.8266 95.0273 15.8896 95.0927 15.9502 95.2L19.4152 101.374C19.4712 101.486 19.5249 101.603 19.5762 101.724C19.6322 101.845 19.6836 101.969 19.7302 102.095C19.7769 101.969 19.8259 101.845 19.8772 101.724C19.9286 101.598 19.9846 101.479 20.0452 101.367L23.4472 95.2C23.5032 95.0927 23.5639 95.0273 23.6292 95.004C23.6992 94.9807 23.7949 94.969 23.9162 94.969H24.9172ZM31.7154 100.681C31.7154 100.392 31.6734 100.128 31.5894 99.89C31.5101 99.6473 31.3911 99.4397 31.2324 99.267C31.0784 99.0897 30.8894 98.9543 30.6654 98.861C30.4414 98.763 30.1871 98.714 29.9024 98.714C29.3051 98.714 28.8314 98.889 28.4814 99.239C28.1361 99.5843 27.9214 100.065 27.8374 100.681H31.7154ZM32.7234 104.006C32.5694 104.193 32.3851 104.356 32.1704 104.496C31.9558 104.631 31.7248 104.743 31.4774 104.832C31.2348 104.921 30.9828 104.986 30.7214 105.028C30.4601 105.075 30.2011 105.098 29.9444 105.098C29.4544 105.098 29.0018 105.016 28.5864 104.853C28.1758 104.685 27.8188 104.442 27.5154 104.125C27.2168 103.803 26.9834 103.406 26.8154 102.935C26.6474 102.464 26.5634 101.922 26.5634 101.311C26.5634 100.816 26.6381 100.354 26.7874 99.925C26.9414 99.4957 27.1608 99.1247 27.4454 98.812C27.7301 98.4947 28.0778 98.2473 28.4884 98.07C28.8991 97.888 29.3611 97.797 29.8744 97.797C30.2991 97.797 30.6911 97.8693 31.0504 98.014C31.4144 98.154 31.7271 98.3593 31.9884 98.63C32.2544 98.896 32.4621 99.2273 32.6114 99.624C32.7608 100.016 32.8354 100.464 32.8354 100.968C32.8354 101.164 32.8144 101.295 32.7724 101.36C32.7304 101.425 32.6511 101.458 32.5344 101.458H27.7954C27.8094 101.906 27.8701 102.296 27.9774 102.627C28.0894 102.958 28.2434 103.236 28.4394 103.46C28.6354 103.679 28.8688 103.845 29.1394 103.957C29.4101 104.064 29.7134 104.118 30.0494 104.118C30.3621 104.118 30.6304 104.083 30.8544 104.013C31.0831 103.938 31.2791 103.859 31.4424 103.775C31.6058 103.691 31.7411 103.614 31.8484 103.544C31.9604 103.469 32.0561 103.432 32.1354 103.432C32.2381 103.432 32.3174 103.472 32.3734 103.551L32.7234 104.006ZM38.4959 99.078C38.4399 99.1807 38.3536 99.232 38.2369 99.232C38.1669 99.232 38.0876 99.2063 37.9989 99.155C37.9102 99.1037 37.8006 99.0477 37.6699 98.987C37.5439 98.9217 37.3922 98.8633 37.2149 98.812C37.0376 98.756 36.8276 98.728 36.5849 98.728C36.3749 98.728 36.1859 98.756 36.0179 98.812C35.8499 98.8633 35.7052 98.9357 35.5839 99.029C35.4672 99.1223 35.3762 99.232 35.3109 99.358C35.2502 99.4793 35.2199 99.6123 35.2199 99.757C35.2199 99.939 35.2712 100.091 35.3739 100.212C35.4812 100.333 35.6212 100.438 35.7939 100.527C35.9666 100.616 36.1626 100.695 36.3819 100.765C36.6012 100.83 36.8252 100.903 37.0539 100.982C37.2872 101.057 37.5136 101.141 37.7329 101.234C37.9522 101.327 38.1482 101.444 38.3209 101.584C38.4936 101.724 38.6312 101.897 38.7339 102.102C38.8412 102.303 38.8949 102.545 38.8949 102.83C38.8949 103.157 38.8366 103.46 38.7199 103.74C38.6032 104.015 38.4306 104.256 38.2019 104.461C37.9732 104.662 37.6932 104.82 37.3619 104.937C37.0306 105.054 36.6479 105.112 36.2139 105.112C35.7192 105.112 35.2712 105.033 34.8699 104.874C34.4686 104.711 34.1279 104.503 33.8479 104.251L34.1419 103.775C34.1792 103.714 34.2236 103.668 34.2749 103.635C34.3262 103.602 34.3916 103.586 34.4709 103.586C34.5549 103.586 34.6436 103.619 34.7369 103.684C34.8302 103.749 34.9422 103.822 35.0729 103.901C35.2082 103.98 35.3716 104.053 35.5629 104.118C35.7542 104.183 35.9922 104.216 36.2769 104.216C36.5196 104.216 36.7319 104.186 36.9139 104.125C37.0959 104.06 37.2476 103.973 37.3689 103.866C37.4902 103.759 37.5789 103.635 37.6349 103.495C37.6956 103.355 37.7259 103.206 37.7259 103.047C37.7259 102.851 37.6722 102.69 37.5649 102.564C37.4622 102.433 37.3246 102.324 37.1519 102.235C36.9792 102.142 36.7809 102.062 36.5569 101.997C36.3376 101.927 36.1112 101.855 35.8779 101.78C35.6492 101.705 35.4229 101.621 35.1989 101.528C34.9796 101.43 34.7836 101.309 34.6109 101.164C34.4382 101.019 34.2982 100.842 34.1909 100.632C34.0882 100.417 34.0369 100.158 34.0369 99.855C34.0369 99.5843 34.0929 99.3253 34.2049 99.078C34.3169 98.826 34.4802 98.6067 34.6949 98.42C34.9096 98.2287 35.1732 98.077 35.4859 97.965C35.7986 97.853 36.1556 97.797 36.5569 97.797C37.0236 97.797 37.4412 97.8717 37.8099 98.021C38.1832 98.1657 38.5052 98.3663 38.7759 98.623L38.4959 99.078ZM44.2655 101.808C43.6915 101.827 43.2015 101.873 42.7955 101.948C42.3942 102.018 42.0652 102.111 41.8085 102.228C41.5565 102.345 41.3722 102.482 41.2555 102.641C41.1435 102.8 41.0875 102.977 41.0875 103.173C41.0875 103.36 41.1179 103.521 41.1785 103.656C41.2392 103.791 41.3209 103.903 41.4235 103.992C41.5309 104.076 41.6545 104.139 41.7945 104.181C41.9392 104.218 42.0932 104.237 42.2565 104.237C42.4759 104.237 42.6765 104.216 42.8585 104.174C43.0405 104.127 43.2109 104.062 43.3695 103.978C43.5329 103.894 43.6869 103.794 43.8315 103.677C43.9809 103.56 44.1255 103.427 44.2655 103.278V101.808ZM40.2405 98.91C40.6325 98.532 41.0549 98.2497 41.5075 98.063C41.9602 97.8763 42.4619 97.783 43.0125 97.783C43.4092 97.783 43.7615 97.8483 44.0695 97.979C44.3775 98.1097 44.6365 98.2917 44.8465 98.525C45.0565 98.7583 45.2152 99.0407 45.3225 99.372C45.4299 99.7033 45.4835 100.067 45.4835 100.464V105H44.9305C44.8092 105 44.7159 104.981 44.6505 104.944C44.5852 104.902 44.5339 104.823 44.4965 104.706L44.3565 104.034C44.1699 104.207 43.9879 104.361 43.8105 104.496C43.6332 104.627 43.4465 104.739 43.2505 104.832C43.0545 104.921 42.8445 104.988 42.6205 105.035C42.4012 105.086 42.1562 105.112 41.8855 105.112C41.6102 105.112 41.3512 105.075 41.1085 105C40.8659 104.921 40.6535 104.804 40.4715 104.65C40.2942 104.496 40.1519 104.302 40.0445 104.069C39.9419 103.831 39.8905 103.551 39.8905 103.229C39.8905 102.949 39.9675 102.681 40.1215 102.424C40.2755 102.163 40.5252 101.932 40.8705 101.731C41.2159 101.53 41.6662 101.367 42.2215 101.241C42.7769 101.11 43.4582 101.036 44.2655 101.017V100.464C44.2655 99.9133 44.1465 99.498 43.9085 99.218C43.6705 98.9333 43.3229 98.791 42.8655 98.791C42.5575 98.791 42.2985 98.8307 42.0885 98.91C41.8832 98.9847 41.7035 99.071 41.5495 99.169C41.4002 99.2623 41.2695 99.3487 41.1575 99.428C41.0502 99.5027 40.9429 99.54 40.8355 99.54C40.7515 99.54 40.6792 99.519 40.6185 99.477C40.5579 99.4303 40.5065 99.3743 40.4645 99.309L40.2405 98.91ZM52.2166 103.292C52.4452 103.6 52.6949 103.817 52.9656 103.943C53.2362 104.069 53.5396 104.132 53.8756 104.132C54.5382 104.132 55.0469 103.896 55.4016 103.425C55.7562 102.954 55.9336 102.282 55.9336 101.409C55.9336 100.947 55.8916 100.55 55.8076 100.219C55.7282 99.8877 55.6116 99.617 55.4576 99.407C55.3036 99.1923 55.1146 99.036 54.8906 98.938C54.6666 98.84 54.4122 98.791 54.1276 98.791C53.7216 98.791 53.3646 98.8843 53.0566 99.071C52.7532 99.2577 52.4732 99.5213 52.2166 99.862V103.292ZM52.1536 99.008C52.4522 98.6393 52.7976 98.343 53.1896 98.119C53.5816 97.895 54.0296 97.783 54.5336 97.783C54.9442 97.783 55.3152 97.8623 55.6466 98.021C55.9779 98.175 56.2602 98.406 56.4936 98.714C56.7269 99.0173 56.9066 99.3953 57.0326 99.848C57.1586 100.301 57.2216 100.821 57.2216 101.409C57.2216 101.932 57.1516 102.419 57.0116 102.872C56.8716 103.32 56.6686 103.71 56.4026 104.041C56.1412 104.368 55.8192 104.627 55.4366 104.818C55.0586 105.005 54.6316 105.098 54.1556 105.098C53.7216 105.098 53.3482 105.026 53.0356 104.881C52.7276 104.732 52.4546 104.526 52.2166 104.265V107.401H50.9636V97.909H51.7126C51.8899 97.909 51.9996 97.9953 52.0416 98.168L52.1536 99.008ZM61.8002 97.797C62.3182 97.797 62.7849 97.8833 63.2002 98.056C63.6156 98.2287 63.9702 98.4737 64.2642 98.791C64.5582 99.1083 64.7822 99.4933 64.9362 99.946C65.0949 100.394 65.1742 100.896 65.1742 101.451C65.1742 102.011 65.0949 102.515 64.9362 102.963C64.7822 103.411 64.5582 103.794 64.2642 104.111C63.9702 104.428 63.6156 104.673 63.2002 104.846C62.7849 105.014 62.3182 105.098 61.8002 105.098C61.2776 105.098 60.8062 105.014 60.3862 104.846C59.9709 104.673 59.6162 104.428 59.3222 104.111C59.0282 103.794 58.8019 103.411 58.6432 102.963C58.4892 102.515 58.4122 102.011 58.4122 101.451C58.4122 100.896 58.4892 100.394 58.6432 99.946C58.8019 99.4933 59.0282 99.1083 59.3222 98.791C59.6162 98.4737 59.9709 98.2287 60.3862 98.056C60.8062 97.8833 61.2776 97.797 61.8002 97.797ZM61.8002 104.125C62.5002 104.125 63.0229 103.892 63.3682 103.425C63.7136 102.954 63.8862 102.298 63.8862 101.458C63.8862 100.613 63.7136 99.9553 63.3682 99.484C63.0229 99.0127 62.5002 98.777 61.8002 98.777C61.4456 98.777 61.1352 98.8377 60.8692 98.959C60.6079 99.0803 60.3886 99.2553 60.2112 99.484C60.0386 99.7127 59.9079 99.995 59.8192 100.331C59.7352 100.662 59.6932 101.038 59.6932 101.458C59.6932 102.298 59.8659 102.954 60.2112 103.425C60.5612 103.892 61.0909 104.125 61.8002 104.125ZM70.8846 99.078C70.8286 99.1807 70.7422 99.232 70.6256 99.232C70.5556 99.232 70.4762 99.2063 70.3876 99.155C70.2989 99.1037 70.1892 99.0477 70.0586 98.987C69.9326 98.9217 69.7809 98.8633 69.6036 98.812C69.4262 98.756 69.2162 98.728 68.9736 98.728C68.7636 98.728 68.5746 98.756 68.4066 98.812C68.2386 98.8633 68.0939 98.9357 67.9726 99.029C67.8559 99.1223 67.7649 99.232 67.6996 99.358C67.6389 99.4793 67.6086 99.6123 67.6086 99.757C67.6086 99.939 67.6599 100.091 67.7626 100.212C67.8699 100.333 68.0099 100.438 68.1826 100.527C68.3552 100.616 68.5512 100.695 68.7706 100.765C68.9899 100.83 69.2139 100.903 69.4426 100.982C69.6759 101.057 69.9022 101.141 70.1216 101.234C70.3409 101.327 70.5369 101.444 70.7096 101.584C70.8822 101.724 71.0199 101.897 71.1226 102.102C71.2299 102.303 71.2836 102.545 71.2836 102.83C71.2836 103.157 71.2252 103.46 71.1086 103.74C70.9919 104.015 70.8192 104.256 70.5906 104.461C70.3619 104.662 70.0819 104.82 69.7506 104.937C69.4192 105.054 69.0366 105.112 68.6026 105.112C68.1079 105.112 67.6599 105.033 67.2586 104.874C66.8572 104.711 66.5166 104.503 66.2366 104.251L66.5306 103.775C66.5679 103.714 66.6122 103.668 66.6636 103.635C66.7149 103.602 66.7802 103.586 66.8596 103.586C66.9436 103.586 67.0322 103.619 67.1256 103.684C67.2189 103.749 67.3309 103.822 67.4616 103.901C67.5969 103.98 67.7602 104.053 67.9516 104.118C68.1429 104.183 68.3809 104.216 68.6656 104.216C68.9082 104.216 69.1206 104.186 69.3026 104.125C69.4846 104.06 69.6362 103.973 69.7576 103.866C69.8789 103.759 69.9676 103.635 70.0236 103.495C70.0842 103.355 70.1146 103.206 70.1146 103.047C70.1146 102.851 70.0609 102.69 69.9536 102.564C69.8509 102.433 69.7132 102.324 69.5406 102.235C69.3679 102.142 69.1696 102.062 68.9456 101.997C68.7262 101.927 68.4999 101.855 68.2666 101.78C68.0379 101.705 67.8116 101.621 67.5876 101.528C67.3682 101.43 67.1722 101.309 66.9996 101.164C66.8269 101.019 66.6869 100.842 66.5796 100.632C66.4769 100.417 66.4256 100.158 66.4256 99.855C66.4256 99.5843 66.4816 99.3253 66.5936 99.078C66.7056 98.826 66.8689 98.6067 67.0836 98.42C67.2982 98.2287 67.5619 98.077 67.8746 97.965C68.1872 97.853 68.5442 97.797 68.9456 97.797C69.4122 97.797 69.8299 97.8717 70.1986 98.021C70.5719 98.1657 70.8939 98.3663 71.1646 98.623L70.8846 99.078ZM74.9882 105.112C74.4282 105.112 73.9966 104.956 73.6932 104.643C73.3946 104.33 73.2452 103.88 73.2452 103.292V98.952H72.3912C72.3166 98.952 72.2536 98.931 72.2022 98.889C72.1509 98.8423 72.1252 98.7723 72.1252 98.679V98.182L73.2872 98.035L73.5742 95.844C73.5882 95.774 73.6186 95.718 73.6652 95.676C73.7166 95.6293 73.7819 95.606 73.8612 95.606H74.4912V98.049H76.5422V98.952H74.4912V103.208C74.4912 103.507 74.5636 103.728 74.7082 103.873C74.8529 104.018 75.0396 104.09 75.2682 104.09C75.3989 104.09 75.5109 104.074 75.6042 104.041C75.7022 104.004 75.7862 103.964 75.8562 103.922C75.9262 103.88 75.9846 103.843 76.0312 103.81C76.0826 103.773 76.1269 103.754 76.1642 103.754C76.2296 103.754 76.2879 103.794 76.3392 103.873L76.7032 104.468C76.4886 104.669 76.2296 104.827 75.9262 104.944C75.6229 105.056 75.3102 105.112 74.9882 105.112ZM81.6718 101.808C81.0978 101.827 80.6078 101.873 80.2018 101.948C79.8005 102.018 79.4715 102.111 79.2148 102.228C78.9628 102.345 78.7785 102.482 78.6618 102.641C78.5498 102.8 78.4938 102.977 78.4938 103.173C78.4938 103.36 78.5241 103.521 78.5848 103.656C78.6455 103.791 78.7271 103.903 78.8298 103.992C78.9371 104.076 79.0608 104.139 79.2008 104.181C79.3455 104.218 79.4995 104.237 79.6628 104.237C79.8821 104.237 80.0828 104.216 80.2648 104.174C80.4468 104.127 80.6171 104.062 80.7758 103.978C80.9391 103.894 81.0931 103.794 81.2378 103.677C81.3871 103.56 81.5318 103.427 81.6718 103.278V101.808ZM77.6468 98.91C78.0388 98.532 78.4611 98.2497 78.9138 98.063C79.3665 97.8763 79.8681 97.783 80.4188 97.783C80.8155 97.783 81.1678 97.8483 81.4758 97.979C81.7838 98.1097 82.0428 98.2917 82.2528 98.525C82.4628 98.7583 82.6215 99.0407 82.7288 99.372C82.8361 99.7033 82.8898 100.067 82.8898 100.464V105H82.3368C82.2155 105 82.1221 104.981 82.0568 104.944C81.9915 104.902 81.9401 104.823 81.9028 104.706L81.7628 104.034C81.5761 104.207 81.3941 104.361 81.2168 104.496C81.0395 104.627 80.8528 104.739 80.6568 104.832C80.4608 104.921 80.2508 104.988 80.0268 105.035C79.8075 105.086 79.5625 105.112 79.2918 105.112C79.0165 105.112 78.7575 105.075 78.5148 105C78.2721 104.921 78.0598 104.804 77.8778 104.65C77.7005 104.496 77.5581 104.302 77.4508 104.069C77.3481 103.831 77.2968 103.551 77.2968 103.229C77.2968 102.949 77.3738 102.681 77.5278 102.424C77.6818 102.163 77.9315 101.932 78.2768 101.731C78.6221 101.53 79.0725 101.367 79.6278 101.241C80.1831 101.11 80.8645 101.036 81.6718 101.017V100.464C81.6718 99.9133 81.5528 99.498 81.3148 99.218C81.0768 98.9333 80.7291 98.791 80.2718 98.791C79.9638 98.791 79.7048 98.8307 79.4948 98.91C79.2895 98.9847 79.1098 99.071 78.9558 99.169C78.8065 99.2623 78.6758 99.3487 78.5638 99.428C78.4565 99.5027 78.3491 99.54 78.2418 99.54C78.1578 99.54 78.0855 99.519 78.0248 99.477C77.9641 99.4303 77.9128 99.3743 77.8708 99.309L77.6468 98.91Z" fill="#444444"/>
<path d="M90.8715 47.9526C90.8734 56.2356 88.4188 64.333 83.8183 71.2209C79.2177 78.1087 72.6777 83.4774 65.0256 86.6481C57.3735 89.8187 48.953 90.6488 40.8291 89.0333C32.7052 87.4179 25.2429 83.4294 19.3859 77.5725C13.529 71.7156 9.54054 64.2532 7.92508 56.1293C6.30962 48.0054 7.1397 39.5849 10.3103 31.9328C13.481 24.2807 18.8497 17.7407 25.7376 13.1402C32.6254 8.53958 40.7229 6.08501 49.0058 6.08692C60.1093 6.08692 70.758 10.4977 78.6093 18.3491C86.4607 26.2004 90.8715 36.8491 90.8715 47.9526Z" fill="white"/>
<path d="M33.6079 33.8627C33.9734 34.8245 34.8101 37.075 37.051 37.075H59.566C61.8165 37.075 62.6532 34.8245 63.0091 33.8627L63.163 33.4684C63.6823 32.1027 64.269 30.5831 63.4996 29.4482C63.1761 29.0656 62.7619 28.7701 62.2949 28.5887C61.8279 28.4072 61.3228 28.3456 60.8259 28.4095H35.7623C35.2653 28.3456 34.7603 28.4072 34.2933 28.5887C33.8262 28.7701 33.4121 29.0656 33.0886 29.4482C32.3191 30.5638 32.9058 32.1027 33.4348 33.4684L33.6079 33.8627ZM34.4639 30.3715C34.5312 30.2753 34.8005 30.0349 35.7911 30.0349H60.797C61.7588 30.0349 62.0569 30.2753 62.1243 30.3715C62.4128 30.785 61.9512 31.9969 61.6049 32.8817L61.451 33.2952C60.874 34.8437 60.3354 35.44 59.5275 35.44H37.051C36.2528 35.44 35.7142 34.8437 35.1275 33.2952L34.9832 32.8528C34.6466 31.968 34.185 30.7562 34.4639 30.3426" fill="#444444"/>
<path d="M63.0091 62.0425C62.6918 61.0807 61.8069 58.8206 59.566 58.8206H37.0511C34.8006 58.8206 33.9638 61.0615 33.608 62.0232L33.4541 62.4272C32.9347 63.7833 32.348 65.3125 33.1175 66.4377C33.4382 66.8159 33.8476 67.1087 34.3091 67.29C34.7707 67.4713 35.27 67.5353 35.7623 67.4764H60.7682C61.2659 67.5383 61.7712 67.4748 62.2382 67.2917C62.7051 67.1086 63.1189 66.8118 63.4419 66.4281C64.2114 65.3125 63.6151 63.7736 63.1053 62.4079L63.0091 62.0425ZM62.1532 65.5529C62.0858 65.6587 61.8166 65.8895 60.8259 65.8895H35.7623C34.8006 65.8895 34.5024 65.6587 34.4351 65.5529C34.1466 65.1394 34.6082 63.9275 34.9544 63.0427L35.1083 62.6291C35.6854 61.0903 36.224 60.4844 37.0318 60.4844H59.566C60.3643 60.4844 60.9029 61.0903 61.4896 62.6291L61.6434 63.0427C61.9801 63.9275 62.4417 65.1394 62.1628 65.5529" fill="#444444"/>
<path d="M71.9343 60.3787C71.6304 60.3056 71.3365 60.1958 71.0591 60.0517C69.9526 59.5568 68.953 58.8512 68.1161 57.9743C67.7507 57.6384 67.4659 57.2244 67.2827 56.7631C67.0995 56.3019 67.0228 55.8052 67.0582 55.3102C67.1064 54.9759 67.207 54.6513 67.3563 54.3484C68.0986 52.7831 68.4767 51.07 68.4624 49.3376C68.455 47.912 68.012 46.5227 67.1928 45.3559C66.3953 44.2722 65.3275 43.4166 64.096 42.8745C62.4526 42.1666 60.6709 41.8379 58.8832 41.9128H37.9167C37.8098 41.9115 37.7037 41.9315 37.6046 41.9715C37.5054 42.0115 37.4152 42.0708 37.3392 42.146C37.2632 42.2211 37.2028 42.3106 37.1616 42.4093C37.1204 42.5079 37.0992 42.6138 37.0992 42.7207C37.0992 42.828 37.1203 42.9343 37.1614 43.0335C37.2025 43.1327 37.2627 43.2228 37.3386 43.2987C37.4145 43.3746 37.5047 43.4348 37.6038 43.4759C37.703 43.517 37.8093 43.5382 37.9167 43.5382H58.9409C60.4771 43.4596 62.0107 43.736 63.4227 44.346C64.3909 44.763 65.2331 45.4262 65.8656 46.2696C66.4939 47.1799 66.8294 48.2603 66.8274 49.3665C66.8351 50.8413 66.5061 52.2985 65.8656 53.6271C65.6512 54.0901 65.5085 54.583 65.4424 55.089C65.3781 55.8187 65.4767 56.5537 65.7312 57.2406C65.9857 57.9276 66.3897 58.5494 66.9139 59.0611C67.9025 60.1019 69.081 60.9441 70.3859 61.5424C70.8109 61.7505 71.2599 61.9056 71.7228 62.0041H71.8285C72.033 61.9996 72.2284 61.9186 72.3761 61.7771C72.5238 61.6357 72.6131 61.444 72.6264 61.2399C72.6397 61.0358 72.576 60.8341 72.4478 60.6747C72.3197 60.5153 72.1365 60.4096 71.9343 60.3787Z" fill="#444444"/>
<path d="M37.9167 38.5176C37.6999 38.5176 37.4919 38.6037 37.3386 38.757C37.1853 38.9103 37.0992 39.1183 37.0992 39.3351C37.0992 39.5519 37.1853 39.7598 37.3386 39.9131C37.4919 40.0665 37.6999 40.1526 37.9167 40.1526H58.6908C58.9076 40.1526 59.1156 40.0665 59.2689 39.9131C59.4222 39.7598 59.5083 39.5519 59.5083 39.3351C59.5083 39.1183 59.4222 38.9103 59.2689 38.757C59.1156 38.6037 58.9076 38.5176 58.6908 38.5176H37.9167Z" fill="#444444"/>
<path d="M58.6908 45.2983H37.9167C37.8025 45.2858 37.687 45.2976 37.5777 45.3328C37.4684 45.3679 37.3677 45.4257 37.2823 45.5024C37.1968 45.5791 37.1284 45.6729 37.0816 45.7777C37.0348 45.8826 37.0106 45.9961 37.0106 46.111C37.0106 46.2258 37.0348 46.3393 37.0816 46.4442C37.1284 46.549 37.1968 46.6428 37.2823 46.7195C37.3677 46.7962 37.4684 46.854 37.5777 46.8892C37.687 46.9243 37.8025 46.9361 37.9167 46.9237H58.6908C58.805 46.9361 58.9204 46.9243 59.0297 46.8892C59.1391 46.854 59.2397 46.7962 59.3252 46.7195C59.4107 46.6428 59.479 46.549 59.5258 46.4442C59.5727 46.3393 59.5968 46.2258 59.5968 46.111C59.5968 45.9961 59.5727 45.8826 59.5258 45.7777C59.479 45.6729 59.4107 45.5791 59.3252 45.5024C59.2397 45.4257 59.1391 45.3679 59.0297 45.3328C58.9204 45.2976 58.805 45.2858 58.6908 45.2983Z" fill="#444444"/>
<path d="M58.6908 48.6835H37.9167C37.8025 48.6711 37.687 48.6828 37.5777 48.718C37.4684 48.7532 37.3677 48.811 37.2823 48.8877C37.1968 48.9643 37.1284 49.0581 37.0816 49.163C37.0348 49.2679 37.0106 49.3814 37.0106 49.4962C37.0106 49.611 37.0348 49.7246 37.0816 49.8294C37.1284 49.9343 37.1968 50.0281 37.2823 50.1048C37.3677 50.1814 37.4684 50.2393 37.5777 50.2744C37.687 50.3096 37.8025 50.3213 37.9167 50.3089H58.6908C58.805 50.3213 58.9204 50.3096 59.0297 50.2744C59.1391 50.2393 59.2397 50.1814 59.3252 50.1048C59.4107 50.0281 59.479 49.9343 59.5258 49.8294C59.5727 49.7246 59.5968 49.611 59.5968 49.4962C59.5968 49.3814 59.5727 49.2679 59.5258 49.163C59.479 49.0581 59.4107 48.9643 59.3252 48.8877C59.2397 48.811 59.1391 48.7532 59.0297 48.718C58.9204 48.6828 58.805 48.6711 58.6908 48.6835Z" fill="#444444"/>
<path d="M58.6908 52.0883H37.9167C37.8025 52.0759 37.687 52.0876 37.5777 52.1228C37.4684 52.158 37.3677 52.2158 37.2823 52.2924C37.1968 52.3691 37.1284 52.4629 37.0816 52.5678C37.0348 52.6726 37.0106 52.7862 37.0106 52.901C37.0106 53.0158 37.0348 53.1294 37.0816 53.2342C37.1284 53.3391 37.1968 53.4329 37.2823 53.5096C37.3677 53.5862 37.4684 53.644 37.5777 53.6792C37.687 53.7144 37.8025 53.7261 37.9167 53.7137H58.6908C58.805 53.7261 58.9204 53.7144 59.0297 53.6792C59.1391 53.644 59.2397 53.5862 59.3252 53.5096C59.4107 53.4329 59.479 53.3391 59.5258 53.2342C59.5727 53.1294 59.5968 53.0158 59.5968 52.901C59.5968 52.7862 59.5727 52.6726 59.5258 52.5678C59.479 52.4629 59.4107 52.3691 59.3252 52.2924C59.2397 52.2158 59.1391 52.158 59.0297 52.1228C58.9204 52.0876 58.805 52.0759 58.6908 52.0883Z" fill="#444444"/>
<path d="M58.6908 55.4545H37.9167C37.8025 55.4421 37.687 55.4538 37.5777 55.489C37.4684 55.5242 37.3677 55.582 37.2823 55.6586C37.1968 55.7353 37.1284 55.8291 37.0816 55.934C37.0348 56.0388 37.0106 56.1524 37.0106 56.2672C37.0106 56.382 37.0348 56.4956 37.0816 56.6004C37.1284 56.7053 37.1968 56.7991 37.2823 56.8758C37.3677 56.9524 37.4684 57.0102 37.5777 57.0454C37.687 57.0806 37.8025 57.0923 37.9167 57.0799H58.6908C58.805 57.0923 58.9204 57.0806 59.0297 57.0454C59.1391 57.0102 59.2397 56.9524 59.3252 56.8758C59.4107 56.7991 59.479 56.7053 59.5258 56.6004C59.5727 56.4956 59.5968 56.382 59.5968 56.2672C59.5968 56.1524 59.5727 56.0388 59.5258 55.934C59.479 55.8291 59.4107 55.7353 59.3252 55.6586C59.2397 55.582 59.1391 55.5242 59.0297 55.489C58.9204 55.4538 58.805 55.4421 58.6908 55.4545Z" fill="#444444"/>
<path d="M90.8715 47.9526C90.8734 56.2356 88.4188 64.333 83.8183 71.2209C79.2177 78.1087 72.6777 83.4774 65.0256 86.6481C57.3735 89.8187 48.953 90.6488 40.8291 89.0333C32.7052 87.4179 25.2429 83.4294 19.3859 77.5725C13.529 71.7156 9.54054 64.2532 7.92508 56.1293C6.30962 48.0054 7.1397 39.5849 10.3103 31.9328C13.481 24.2807 18.8497 17.7407 25.7376 13.1402C32.6254 8.53958 40.7229 6.08501 49.0058 6.08692C60.1093 6.08692 70.758 10.4977 78.6093 18.3491C86.4607 26.2004 90.8715 36.8491 90.8715 47.9526Z" fill="white"/>
<path d="M59.9507 37.7678C60.3471 37.4312 60.8402 37.2293 61.3589 37.1913C61.8775 37.1533 62.3948 37.2811 62.836 37.5563C63.5042 37.996 64.2867 38.2301 65.0866 38.2295C66.025 38.2305 66.9314 37.8884 67.6352 37.2677C67.8012 37.1229 67.9034 36.9185 67.9196 36.6988C67.9358 36.4792 67.8647 36.262 67.7218 36.0944C67.5753 35.9278 67.3693 35.8254 67.148 35.8092C66.9268 35.793 66.708 35.8643 66.5388 36.0078C66.1546 36.3385 65.6718 36.5329 65.1656 36.5607C64.6594 36.5885 64.1583 36.4482 63.7401 36.1617C62.9842 35.6806 62.0915 35.4606 61.1986 35.5353C60.3058 35.61 59.462 35.9753 58.7966 36.5752C58.7154 36.6516 58.6502 36.7434 58.6049 36.8453C58.5596 36.9472 58.5352 37.0571 58.533 37.1686C58.5308 37.2801 58.5509 37.3909 58.5922 37.4945C58.6334 37.5981 58.6949 37.6924 58.7731 37.7719C58.8513 37.8513 58.9446 37.9144 59.0475 37.9573C59.1504 38.0002 59.2609 38.0221 59.3724 38.0218C59.4839 38.0214 59.5942 37.9987 59.6968 37.9551C59.7994 37.9115 59.8923 37.8478 59.97 37.7678" fill="#444444"/>
<path d="M56.5556 34.5553C55.315 34.286 53.4395 33.7763 51.4583 33.2377C46.8418 31.9778 41.6098 30.564 39.1284 30.564C36.973 30.5603 34.8717 31.2387 33.1253 32.5019C31.3788 33.7651 30.0767 35.5484 29.4054 37.5966C28.734 39.6448 28.7278 41.8528 29.3877 43.9048C30.0475 45.9567 31.3396 47.7473 33.0789 49.0203C33.0649 49.0998 33.0649 49.1812 33.0789 49.2607C33.454 50.6937 32.4442 55.4064 31.569 57.9166C30.7707 60.1768 31.04 63.5045 32.5884 64.5624C33.454 65.1587 35.4737 65.3799 37.5031 65.3799C39.281 65.4124 41.0565 65.2348 42.7928 64.8509C42.9119 64.8247 43.028 64.786 43.139 64.7355C43.2592 64.6828 43.3657 64.6035 43.4507 64.5035C43.5357 64.4035 43.5968 64.2855 43.6295 64.1585C43.9508 62.659 43.7506 61.0949 43.0621 59.7247C42.2638 57.6858 41.4367 55.5795 44.5143 50.1551C46.6975 49.6454 49.1404 48.9818 51.4294 48.3566C53.4107 47.8181 55.2765 47.3083 56.5268 47.039C56.7125 46.9975 56.8785 46.8938 56.9974 46.7452C57.1163 46.5966 57.181 46.4119 57.1808 46.2215V35.3728C57.181 35.1825 57.1163 34.9978 56.9974 34.8491C56.8785 34.7005 56.7125 34.5969 56.5268 34.5553H56.5556ZM41.5329 60.3114C41.9994 61.2286 42.1993 62.2582 42.1099 63.2832C40.1864 63.7738 34.6274 63.8988 33.5502 63.1582C32.9154 62.7254 32.4826 60.3883 33.1655 58.4456C34.0968 55.741 34.6597 52.9234 34.839 50.0686C36.1794 50.6945 37.6395 51.0226 39.1188 51.0304C40.2223 50.9915 41.3199 50.8531 42.3985 50.6168C39.7728 55.8392 40.7442 58.3109 41.5329 60.3403V60.3114ZM55.5458 45.5291C54.334 45.8176 52.7759 46.2408 51.0159 46.7216C46.7264 47.8854 41.3982 49.3376 39.1284 49.3376C36.9092 49.2632 34.8057 48.3293 33.2621 46.7331C31.7185 45.1369 30.8556 43.0032 30.8556 40.7827C30.8556 38.5622 31.7185 36.4286 33.2621 34.8324C34.8057 33.2362 36.9092 32.3023 39.1284 32.2278C41.3886 32.2278 46.7264 33.6801 51.0159 34.8438C52.7759 35.3247 54.334 35.7479 55.5458 36.0364V45.5291Z" fill="#444444"/>
<path d="M39.1284 35.1804C38.019 35.1785 36.934 35.5058 36.0107 36.1207C35.0873 36.7357 34.3672 37.6107 33.9413 38.6351C33.5154 39.6595 33.403 40.7872 33.6183 41.8755C33.8336 42.9638 34.3668 43.9638 35.1506 44.7489C35.9344 45.5341 36.9335 46.069 38.0214 46.2862C39.1093 46.5033 40.2372 46.3928 41.2623 45.9687C42.2875 45.5446 43.1637 44.8259 43.7803 43.9037C44.3968 42.9814 44.7259 41.8969 44.7259 40.7875C44.7259 39.3021 44.1365 37.8774 43.087 36.8261C42.0376 35.7748 40.6139 35.183 39.1284 35.1804ZM39.1284 44.7211C38.3504 44.7211 37.5899 44.4904 36.943 44.0582C36.2961 43.626 35.792 43.0116 35.4942 42.2929C35.1965 41.5741 35.1186 40.7832 35.2704 40.0201C35.4222 39.2571 35.7968 38.5562 36.3469 38.006C36.8971 37.4559 37.598 37.0813 38.361 36.9295C39.1241 36.7777 39.915 36.8556 40.6338 37.1533C41.3525 37.4511 41.9669 37.9552 42.3991 38.6021C42.8314 39.249 43.0621 40.0095 43.0621 40.7875C43.0621 41.8308 42.6476 42.8313 41.9099 43.569C41.1722 44.3067 40.1717 44.7211 39.1284 44.7211Z" fill="#444444"/>
<path d="M68.8567 39.768C68.6985 39.6135 68.4862 39.527 68.2652 39.527C68.0441 39.527 67.8318 39.6135 67.6737 39.768C67.2589 40.2366 66.6766 40.5234 66.0523 40.5666C65.428 40.6098 64.8117 40.4059 64.3364 39.9989C63.4944 39.3475 62.4358 39.0416 61.3761 39.1435C60.3165 39.2453 59.3356 39.7473 58.6331 40.5471C58.4902 40.7147 58.4191 40.9319 58.4353 41.1515C58.4515 41.3712 58.5537 41.5756 58.7196 41.7204C58.8888 41.8639 59.1076 41.9352 59.3288 41.919C59.5501 41.9029 59.7561 41.8005 59.9026 41.6339C60.3315 41.1672 60.919 40.8771 61.5503 40.8202C62.1816 40.7633 62.8114 40.9437 63.3169 41.3261C64.0625 41.9202 64.98 42.2575 65.9329 42.2879C66.4843 42.2816 67.0287 42.1632 67.5329 41.94C68.0372 41.7168 68.4908 41.3934 68.8663 40.9895C69.0208 40.8314 69.1073 40.6191 69.1073 40.398C69.1073 40.1769 69.0208 39.9646 68.8663 39.8065" fill="#444444"/>
<path d="M66.5389 44.0287C66.1558 44.3608 65.6735 44.557 65.1674 44.5865C64.6612 44.6161 64.1594 44.4775 63.7402 44.1922C62.9854 43.708 62.092 43.4861 61.1983 43.5608C60.3047 43.6356 59.4606 44.0029 58.7967 44.6058C58.7193 44.6826 58.658 44.774 58.6161 44.8747C58.5742 44.9754 58.5526 45.0834 58.5526 45.1924C58.5526 45.3015 58.5742 45.4095 58.6161 45.5102C58.658 45.6108 58.7193 45.7022 58.7967 45.7791C58.9536 45.9359 59.1663 46.024 59.3882 46.024C59.61 46.024 59.8228 45.9359 59.9797 45.7791C60.375 45.4398 60.8692 45.2369 61.3889 45.2006C61.9086 45.1642 62.4262 45.2962 62.865 45.5771C63.5399 46.0088 64.324 46.239 65.1251 46.2408C66.0602 46.2394 66.9628 45.8975 67.6642 45.279C67.83 45.1298 67.9297 44.9208 67.9414 44.6981C67.9532 44.4753 67.8759 44.257 67.7267 44.0912C67.5775 43.9254 67.3685 43.8257 67.1457 43.814C66.923 43.8022 66.7047 43.8795 66.5389 44.0287Z" fill="#444444"/>
<path d="M90.8715 47.9526C90.8734 56.2356 88.4188 64.333 83.8183 71.2209C79.2177 78.1087 72.6777 83.4774 65.0256 86.6481C57.3735 89.8187 48.953 90.6488 40.8291 89.0333C32.7052 87.4179 25.2429 83.4294 19.3859 77.5725C13.529 71.7156 9.54054 64.2532 7.92508 56.1293C6.30962 48.0054 7.1397 39.5849 10.3103 31.9328C13.481 24.2807 18.8497 17.7407 25.7376 13.1402C32.6254 8.53958 40.7229 6.08501 49.0058 6.08692C60.1093 6.08692 70.758 10.4977 78.6093 18.3491C86.4607 26.2004 90.8715 36.8491 90.8715 47.9526Z" fill="white"/>
<path d="M44.2162 59.6765C43.706 59.6746 43.2067 59.8242 42.7816 60.1062C42.3564 60.3883 42.0246 60.7902 41.828 61.261C41.6314 61.7318 41.579 62.2504 41.6774 62.751C41.7758 63.2516 42.0205 63.7118 42.3806 64.0732C42.7407 64.4347 43.1999 64.6811 43.7002 64.7813C44.2004 64.8816 44.7192 64.8311 45.1907 64.6363C45.6622 64.4415 46.0654 64.1111 46.349 63.6871C46.6327 63.263 46.7841 62.7643 46.7841 62.2541C46.7841 61.5721 46.5139 60.918 46.0326 60.4349C45.5512 59.9518 44.8981 59.6791 44.2162 59.6765ZM44.2162 63.187C44.026 63.187 43.84 63.1306 43.6818 63.0249C43.5237 62.9192 43.4004 62.769 43.3276 62.5933C43.2548 62.4175 43.2358 62.2241 43.2729 62.0376C43.31 61.851 43.4016 61.6796 43.5361 61.5451C43.6706 61.4106 43.842 61.319 44.0285 61.2819C44.2151 61.2448 44.4085 61.2639 44.5842 61.3367C44.76 61.4095 44.9102 61.5327 45.0159 61.6909C45.1215 61.849 45.1779 62.035 45.1779 62.2252C45.1779 62.4803 45.0766 62.7249 44.8962 62.9053C44.7159 63.0857 44.4713 63.187 44.2162 63.187Z" fill="#444444"/>
<path d="M62.4224 64.822C62.9326 64.8239 63.4319 64.6744 63.857 64.3923C64.2821 64.1103 64.614 63.7084 64.8106 63.2376C65.0071 62.7668 65.0596 62.2482 64.9612 61.7476C64.8628 61.247 64.6181 60.7868 64.258 60.4253C63.8979 60.0639 63.4387 59.8175 62.9384 59.7172C62.4382 59.617 61.9194 59.6675 61.4479 59.8623C60.9763 60.0571 60.5732 60.3874 60.2896 60.8115C60.0059 61.2356 59.8545 61.7343 59.8545 62.2445C59.8545 62.9265 60.1247 63.5806 60.606 64.0637C61.0873 64.5468 61.7405 64.8195 62.4224 64.822ZM62.4224 61.3116C62.6126 61.3116 62.7986 61.368 62.9567 61.4737C63.1149 61.5794 63.2382 61.7296 63.311 61.9053C63.3838 62.0811 63.4028 62.2744 63.3657 62.461C63.3286 62.6476 63.237 62.8189 63.1025 62.9534C62.968 63.0879 62.7966 63.1795 62.61 63.2166C62.4235 63.2538 62.2301 63.2347 62.0544 63.1619C61.8786 63.0891 61.7284 62.9659 61.6227 62.8077C61.517 62.6495 61.4606 62.4636 61.4606 62.2734C61.4606 62.0183 61.562 61.7737 61.7423 61.5933C61.9227 61.4129 62.1673 61.3116 62.4224 61.3116Z" fill="#444444"/>
<path d="M68.924 44.6057C68.9479 44.4948 68.9479 44.38 68.924 44.2691C68.948 44.1614 68.948 44.0498 68.924 43.9421C68.3565 36.1037 63.0668 29.6695 56.0555 28.2846C55.8468 28.2439 55.6305 28.2851 55.4514 28.3997C55.2723 28.5144 55.1442 28.6936 55.0938 28.9001L51.6891 43.7209H39.1862C39.1551 42.0151 38.5522 40.3691 37.4742 39.0467C36.575 38.1231 35.4007 37.5157 34.1273 37.3156C34.0225 36.7123 33.7064 36.166 33.2356 35.7745C32.7648 35.383 32.17 35.172 31.5577 35.1791C30.9454 35.1862 30.3557 35.4111 29.8941 35.8134C29.4325 36.2158 29.1293 36.7693 29.0386 37.3749C28.948 37.9804 29.0758 38.5985 29.3994 39.1183C29.7229 39.6382 30.2209 40.0259 30.8043 40.212C31.3876 40.3981 32.0182 40.3705 32.583 40.1341C33.1478 39.8977 33.61 39.4679 33.8868 38.9217C34.7905 39.0682 35.625 39.4955 36.272 40.1431C37.2548 41.3951 37.7564 42.9579 37.6858 44.548V44.7981C37.6713 44.8711 37.6713 44.9463 37.6858 45.0193C37.9495 47.5389 38.823 49.9564 40.2306 52.0628C41.6382 54.1692 43.5376 55.9011 45.7646 57.1087C44.4803 56.7219 43.0974 56.8328 41.8911 57.4193C40.6848 58.0059 39.7436 59.0251 39.2547 60.2742C38.7658 61.5233 38.7651 62.9106 39.2527 64.1602C39.7403 65.4098 40.6806 66.43 41.8863 67.0177C43.092 67.6055 44.4748 67.7178 45.7595 67.3323C47.0443 66.9467 48.1368 66.0916 48.8196 64.9371C49.5025 63.7826 49.7256 62.4133 49.4447 61.1017C49.1638 59.7901 48.3993 58.6324 47.3035 57.8589C49.1935 58.6297 51.2156 59.025 53.2568 59.0226C55.5192 59.0257 57.7547 58.5332 59.8064 57.58C58.6748 58.215 57.8132 59.2405 57.3829 60.4647C56.9526 61.6889 56.9829 63.028 57.4683 64.2314C57.9536 65.4349 58.8608 66.4203 60.02 67.0034C61.1792 67.5865 62.5112 67.7274 63.7668 67.3996C65.0224 67.0719 66.1155 66.298 66.8419 65.2227C67.5682 64.1474 67.878 62.8443 67.7132 61.5572C67.5485 60.27 66.9205 59.087 65.9467 58.2293C64.9729 57.3716 63.7201 56.898 62.4224 56.8971C61.764 56.8968 61.1114 57.0208 60.4989 57.2626C62.8465 56.0349 64.8466 54.2351 66.3142 52.0295C67.7818 49.8239 68.6695 47.2838 68.8951 44.6442L68.924 44.6057ZM31.6555 38.7005C31.4653 38.7005 31.2794 38.6441 31.1212 38.5384C30.963 38.4327 30.8398 38.2825 30.767 38.1068C30.6942 37.931 30.6751 37.7377 30.7123 37.5511C30.7494 37.3645 30.841 37.1932 30.9755 37.0587C31.11 36.9242 31.2813 36.8326 31.4679 36.7954C31.6545 36.7583 31.8479 36.7774 32.0236 36.8502C32.1993 36.923 32.3495 37.0462 32.4552 37.2044C32.5609 37.3626 32.6173 37.5485 32.6173 37.7387C32.6173 37.9938 32.516 38.2384 32.3356 38.4188C32.1552 38.5992 31.9106 38.7005 31.6555 38.7005ZM56.5076 30.0446C62.2782 31.5642 66.6446 37.0463 67.2601 43.7017H53.3626L56.5076 30.0446ZM47.9767 62.2445C47.9786 62.9887 47.7597 63.7167 47.3476 64.3364C46.9356 64.956 46.3489 65.4395 45.662 65.7256C44.975 66.0117 44.2186 66.0876 43.4885 65.9436C42.7584 65.7995 42.0874 65.4422 41.5605 64.9166C41.0337 64.3911 40.6746 63.721 40.5287 62.9913C40.3828 62.2616 40.4567 61.505 40.741 60.8173C41.0254 60.1296 41.5074 59.5417 42.126 59.1281C42.7446 58.7144 43.472 58.4936 44.2162 58.4936C45.2111 58.4962 46.1647 58.8918 46.8691 59.5945C47.5735 60.2971 47.9716 61.2496 47.9767 62.2445ZM62.4032 58.4936C63.1474 58.4936 63.8748 58.7144 64.4934 59.1281C65.112 59.5417 65.594 60.1296 65.8784 60.8173C66.1627 61.505 66.2366 62.2616 66.0907 62.9913C65.9448 63.721 65.5857 64.3911 65.0589 64.9166C64.532 65.4422 63.861 65.7995 63.1309 65.9436C62.4008 66.0876 61.6444 66.0117 60.9574 65.7256C60.2705 65.4395 59.6838 64.956 59.2718 64.3364C58.8597 63.7167 58.6408 62.9887 58.6427 62.2445C58.6452 61.2488 59.0426 60.2948 59.7475 59.5917C60.4525 58.8885 61.4075 58.4936 62.4032 58.4936ZM53.2568 57.3972C49.8767 57.407 46.6072 56.1931 44.0526 53.9797C41.498 51.7663 39.8309 48.703 39.3593 45.3559H67.1928C66.6942 48.6946 65.0166 51.7444 62.4638 53.9532C59.911 56.162 56.6517 57.3837 53.276 57.3972" fill="#444444"/>
<path d="M90.8715 47.9526C90.8734 56.2356 88.4188 64.333 83.8183 71.2209C79.2177 78.1087 72.6777 83.4774 65.0256 86.6481C57.3735 89.8187 48.953 90.6488 40.8291 89.0333C32.7052 87.4179 25.2429 83.4294 19.3859 77.5725C13.529 71.7156 9.54054 64.2532 7.92508 56.1293C6.30962 48.0054 7.1397 39.5849 10.3103 31.9328C13.481 24.2807 18.8497 17.7407 25.7376 13.1402C32.6254 8.53958 40.7229 6.08501 49.0058 6.08692C60.1093 6.08692 70.758 10.4977 78.6093 18.3491C86.4607 26.2004 90.8715 36.8491 90.8715 47.9526Z" fill="white"/>
<path d="M70.0108 57.7243L65.7405 44.1441C65.6934 43.996 65.6029 43.8654 65.4809 43.769C65.6 43.626 65.6648 43.4455 65.6636 43.2593V31.093C65.6765 30.1763 65.3253 29.292 64.687 28.6339C64.0488 27.9758 63.1756 27.5977 62.259 27.5825H35.7623C34.8457 27.5977 33.9725 27.9758 33.3343 28.6339C32.696 29.292 32.3448 30.1763 32.3577 31.093V43.2593C32.3559 43.4623 32.4316 43.6583 32.5692 43.8075C32.4704 43.8992 32.3975 44.0153 32.3577 44.1441L28.0009 57.7243C27.9342 57.9309 27.9515 58.1554 28.049 58.3494C28.039 58.4325 28.039 58.5164 28.049 58.5995V67.4766C28.049 67.6934 28.1351 67.9013 28.2884 68.0546C28.4417 68.2079 28.6496 68.2941 28.8665 68.2941H34.5697C34.7865 68.2941 34.9945 68.2079 35.1478 68.0546C35.3011 67.9013 35.3872 67.6934 35.3872 67.4766V63.8122H62.6917V67.4766C62.6917 67.6934 62.7779 67.9013 62.9312 68.0546C63.0845 68.2079 63.2924 68.2941 63.5092 68.2941H69.2125C69.4293 68.2941 69.6373 68.2079 69.7906 68.0546C69.9439 67.9013 70.03 67.6934 70.03 67.4766V58.5995C70.04 58.5164 70.04 58.4325 70.03 58.3494C70.1259 58.1553 70.1465 57.9326 70.0877 57.7243H70.0108ZM34.0504 43.2978V31.093C34.0388 30.8501 34.0755 30.6074 34.1584 30.3788C34.2413 30.1503 34.3687 29.9404 34.5334 29.7615C34.698 29.5826 34.8965 29.4381 35.1173 29.3365C35.3382 29.2348 35.577 29.1781 35.82 29.1694H62.259C62.5019 29.1781 62.7408 29.2348 62.9616 29.3365C63.1825 29.4381 63.381 29.5826 63.5456 29.7615C63.7102 29.9404 63.8377 30.1503 63.9206 30.3788C64.0035 30.6074 64.0402 30.8501 64.0286 31.093V43.2593C64.0286 43.2593 64.0286 43.3266 64.0286 43.3651C63.4515 43.2497 62.8264 43.1535 62.1532 43.0573C62.1677 42.9746 62.1677 42.89 62.1532 42.8073V40.3932C62.166 39.4043 61.7868 38.4504 61.0983 37.7403C60.4098 37.0302 59.4681 36.6216 58.4792 36.6039H52.0546C51.4447 36.6062 50.8452 36.7614 50.3108 37.0555C49.7765 37.3495 49.3245 37.773 48.9962 38.287C48.6708 37.7725 48.2207 37.3485 47.6878 37.0543C47.1548 36.76 46.5562 36.6051 45.9474 36.6039H39.4747C38.9818 36.6076 38.4944 36.7088 38.0407 36.9015C37.587 37.0942 37.1758 37.3747 36.8308 37.7268C36.4858 38.079 36.2138 38.4958 36.0305 38.9534C35.8471 39.411 35.756 39.9003 35.7623 40.3932V42.8073C35.7627 42.93 35.7889 43.0512 35.8393 43.1631C35.1853 43.2401 34.5409 43.3362 33.9157 43.4324C33.9205 43.3748 33.9205 43.3169 33.9157 43.2593L34.0504 43.2978ZM60.5182 42.865C57.5078 42.5476 53.7858 42.3649 49.9387 42.3552C49.9438 42.3041 49.9438 42.2525 49.9387 42.2014V40.3932C49.9308 39.8367 50.1404 39.299 50.5231 38.8948C50.9058 38.4906 51.4311 38.2518 51.9873 38.2293H58.46C59.0178 38.2469 59.5461 38.4842 59.9298 38.8895C60.3135 39.2948 60.5215 39.8353 60.5085 40.3932V42.865H60.5182ZM47.9383 42.3649C44.3893 42.3649 40.7346 42.6149 37.3588 42.9804C37.3683 42.9231 37.3683 42.8646 37.3588 42.8073V40.3932C37.3459 39.8353 37.5539 39.2948 37.9376 38.8895C38.3213 38.4842 38.8496 38.2469 39.4074 38.2293H45.8801C46.4379 38.2469 46.9662 38.4842 47.3499 38.8895C47.7336 39.2948 47.9416 39.8353 47.9286 40.3932V42.2014C47.9235 42.2557 47.9235 42.3105 47.9286 42.3649H47.9383ZM33.7426 45.1155C43.6873 43.4997 58.1907 43.769 64.3268 45.1155L68.1161 57.1857H29.8859L33.7426 45.1155ZM68.3662 66.6975H64.2883V62.9947C64.2883 62.7779 64.2022 62.57 64.0488 62.4167C63.8955 62.2634 63.6876 62.1772 63.4708 62.1772H34.5313C34.3144 62.1772 34.1065 62.2634 33.9532 62.4167C33.7999 62.57 33.7138 62.7779 33.7138 62.9947V66.6975H29.6455V58.8207H68.3565L68.3662 66.6975Z" fill="#444444"/>
<path d="M90.8715 47.9526C90.8734 56.2356 88.4188 64.333 83.8183 71.2209C79.2177 78.1087 72.6777 83.4774 65.0256 86.6481C57.3735 89.8187 48.953 90.6488 40.8291 89.0333C32.7052 87.4179 25.2429 83.4294 19.3859 77.5725C13.529 71.7156 9.54054 64.2532 7.92508 56.1293C6.30962 48.0054 7.1397 39.5849 10.3103 31.9328C13.481 24.2807 18.8497 17.7407 25.7376 13.1402C32.6254 8.53958 40.7229 6.08501 49.0058 6.08692C60.1093 6.08692 70.758 10.4977 78.6093 18.3491C86.4607 26.2004 90.8715 36.8491 90.8715 47.9526Z" fill="white"/>
<path d="M60.6624 42.8266L56.5941 28.6502C56.4949 28.2459 56.2627 27.8867 55.9348 27.6303C55.6069 27.3739 55.2023 27.2352 54.786 27.2364H43.2448C42.8281 27.2335 42.4227 27.3716 42.0944 27.6282C41.7662 27.8849 41.5344 28.2451 41.4367 28.6502L37.3396 42.8266C37.287 43.0201 37.2796 43.223 37.318 43.4198C37.3563 43.6166 37.4394 43.8019 37.5608 43.9615C37.7561 44.194 38.0007 44.3803 38.2768 44.5067C38.5529 44.6331 38.8537 44.6965 39.1573 44.6924H48.1883V67.0439H39.8979C39.6811 67.0439 39.4731 67.13 39.3198 67.2833C39.1665 67.4366 39.0804 67.6445 39.0804 67.8614C39.0804 68.0782 39.1665 68.2861 39.3198 68.4394C39.4731 68.5927 39.6811 68.6789 39.8979 68.6789H58.1041C58.3209 68.6789 58.5289 68.5927 58.6822 68.4394C58.8355 68.2861 58.9216 68.0782 58.9216 67.8614C58.9216 67.6445 58.8355 67.4366 58.6822 67.2833C58.5289 67.13 58.3209 67.0439 58.1041 67.0439H49.8233V44.6924H52.4489V52.8097C52.1899 52.9513 51.9738 53.1599 51.8232 53.4137C51.6726 53.6675 51.5931 53.9572 51.593 54.2524C51.5899 54.5478 51.665 54.8388 51.8108 55.0957C51.9566 55.3527 52.1678 55.5664 52.423 55.7153C52.6782 55.8642 52.9682 55.9429 53.2637 55.9434C53.5591 55.9438 53.8494 55.8661 54.105 55.718C54.3607 55.57 54.5726 55.3569 54.7192 55.1004C54.8658 54.8439 54.9419 54.5532 54.9398 54.2577C54.9376 53.9623 54.8573 53.6727 54.707 53.4184C54.5567 53.1641 54.3417 52.9541 54.0839 52.8097V44.6924H58.8928C59.1959 44.696 59.4959 44.6313 59.7707 44.5031C60.0454 44.3749 60.2877 44.1865 60.4797 43.9519C60.6037 43.7956 60.6884 43.6118 60.7269 43.4161C60.7654 43.2203 60.7565 43.0182 60.7009 42.8266H60.6624ZM58.8447 43.0574H39.1573C39.1001 43.0683 39.0414 43.0683 38.9842 43.0574L42.9755 29.0926C43.0429 28.8618 43.1583 28.8618 43.216 28.8618H54.7572C54.8149 28.8618 54.9399 28.8618 54.9976 29.0926L58.9986 43.0286C58.9413 43.0386 58.8827 43.0386 58.8254 43.0286" fill="#444444"/>
<path d="M90.8715 47.9526C90.8734 56.2356 88.4188 64.333 83.8183 71.2209C79.2177 78.1087 72.6777 83.4774 65.0256 86.6481C57.3735 89.8187 48.953 90.6488 40.8291 89.0333C32.7052 87.4179 25.2429 83.4294 19.3859 77.5725C13.529 71.7156 9.54054 64.2532 7.92508 56.1293C6.30962 48.0054 7.1397 39.5849 10.3103 31.9328C13.481 24.2807 18.8497 17.7407 25.7376 13.1402C32.6254 8.53958 40.7229 6.08501 49.0058 6.08692C60.1093 6.08692 70.758 10.4977 78.6093 18.3491C86.4607 26.2004 90.8715 36.8491 90.8715 47.9526Z" fill="white"/>
<path d="M66.76 62.4465H29.732C29.5152 62.4465 29.3072 62.5327 29.1539 62.686C29.0006 62.8393 28.9145 63.0472 28.9145 63.264C28.9145 63.4808 29.0006 63.6888 29.1539 63.8421C29.3072 63.9954 29.5152 64.0815 29.732 64.0815H66.76C66.9768 64.0815 67.1847 63.9954 67.338 63.8421C67.4913 63.6888 67.5775 63.4808 67.5775 63.264C67.5775 63.0472 67.4913 62.8393 67.338 62.686C67.1847 62.5327 66.9768 62.4465 66.76 62.4465Z" fill="#444444"/>
<path d="M69.049 55.6085L68.5393 51.7615L68.0199 47.9144C67.8417 46.7647 67.2598 45.7161 66.3786 44.9565C65.4974 44.197 64.3745 43.776 63.2111 43.7692L48.8327 44.8079C48.5685 44.6708 48.347 44.4637 48.1924 44.2093C48.0378 43.9549 47.9561 43.6629 47.9561 43.3652C47.9561 43.0676 48.0378 42.7756 48.1924 42.5212C48.347 42.2668 48.5685 42.0597 48.8327 41.9226C50.5735 41.1532 55.113 40.201 58.7677 39.4316C60.6143 39.0469 62.2012 38.7103 63.2784 38.4699C63.7349 38.4061 64.1738 38.2506 64.5685 38.0126C64.9633 37.7747 65.3058 37.4593 65.5754 37.0855C65.845 36.7116 66.0361 36.2871 66.1372 35.8374C66.2383 35.3877 66.2473 34.9222 66.1637 34.4689C66.0735 34.0382 65.8989 33.6295 65.6501 33.2665C65.4013 32.9035 65.0831 32.5933 64.714 32.3537C64.3448 32.1141 63.9319 31.9499 63.499 31.8706C63.0661 31.7913 62.6218 31.7983 62.1916 31.8914L44.8798 34.7767C42.0907 35.2479 34.9736 47.347 32.0402 52.5213C31.9152 52.7425 30.6553 55.0892 29.9532 56.4164C29.7029 56.8772 29.563 57.3898 29.5447 57.9139C29.5263 58.438 29.63 58.9592 29.8474 59.4363C29.9931 59.7524 30.2139 60.028 30.4905 60.2392C30.7671 60.4504 31.0911 60.5908 31.4343 60.6482H31.569H64.8076C65.3921 60.6283 65.9658 60.4852 66.4912 60.2283C67.0165 59.9714 67.4818 59.6065 67.8564 59.1574C68.2953 58.6744 68.6282 58.1047 68.8336 57.4852C69.039 56.8657 69.1124 56.21 69.049 55.5604V55.6085ZM66.6254 58.0803C66.4083 58.3607 66.1338 58.5916 65.8204 58.7575C65.5069 58.9233 65.1616 59.0204 64.8076 59.042H31.6844C31.6072 59.0164 31.5369 58.9737 31.4786 58.9171C31.4203 58.8605 31.3756 58.7914 31.3478 58.715C31.2468 58.472 31.2013 58.2094 31.2146 57.9465C31.2279 57.6837 31.2997 57.4271 31.4247 57.1954L33.4925 53.3484C39.3208 43.0767 44.0142 36.7002 45.1972 36.4117L62.4609 33.5264C62.6782 33.4706 62.9045 33.4588 63.1265 33.4917C63.3484 33.5247 63.5615 33.6016 63.7533 33.7181C63.945 33.8346 64.1116 33.9883 64.2431 34.1701C64.3746 34.3519 64.4684 34.5581 64.5191 34.7767C64.6826 35.5365 64.3267 36.4886 62.8648 36.8637C61.8261 37.1234 60.1719 37.4696 58.4215 37.8255C54.5071 38.6526 50.0637 39.5855 48.1594 40.4222C47.5802 40.6982 47.0962 41.1402 46.7691 41.6922C46.442 42.2441 46.2867 42.881 46.3228 43.5215C46.3589 44.1621 46.5848 44.7774 46.9719 45.2891C47.3589 45.8008 47.8895 46.1857 48.4961 46.3948C48.5912 46.4148 48.6895 46.4148 48.7846 46.3948L63.3265 45.3561C64.0742 45.3918 64.7871 45.6822 65.347 46.1791C65.9068 46.6759 66.2799 47.3494 66.4041 48.0875L67.4332 55.7816C67.4635 56.2012 67.4074 56.6224 67.2684 57.0194C67.1295 57.4164 66.9106 57.7808 66.6254 58.0899" fill="#444444"/>
<path d="M60.0661 48.3855C59.5145 48.3855 58.9752 48.5491 58.5165 48.8555C58.0579 49.162 57.7004 49.5976 57.4893 50.1073C57.2782 50.6169 57.223 51.1777 57.3306 51.7187C57.4382 52.2598 57.7038 52.7568 58.0939 53.1468C58.484 53.5369 58.9809 53.8025 59.522 53.9101C60.063 54.0178 60.6238 53.9625 61.1335 53.7514C61.6431 53.5403 62.0787 53.1828 62.3852 52.7242C62.6916 52.2655 62.8552 51.7263 62.8552 51.1746C62.8552 50.4349 62.5614 49.7255 62.0383 49.2024C61.5152 48.6793 60.8058 48.3855 60.0661 48.3855ZM60.0661 52.3384C59.8359 52.3384 59.6109 52.2701 59.4196 52.1422C59.2282 52.0144 59.079 51.8326 58.9909 51.62C58.9029 51.4073 58.8798 51.1733 58.9247 50.9476C58.9696 50.7218 59.0805 50.5145 59.2432 50.3517C59.406 50.189 59.6133 50.0781 59.8391 50.0332C60.0648 49.9883 60.2988 50.0114 60.5114 50.0995C60.7241 50.1875 60.9058 50.3367 61.0337 50.5281C61.1616 50.7195 61.2298 50.9445 61.2298 51.1746C61.2298 51.4833 61.1072 51.7793 60.889 51.9975C60.6707 52.2157 60.3747 52.3384 60.0661 52.3384Z" fill="#444444"/>
<path d="M90.8715 47.9526C90.8734 56.2356 88.4188 64.333 83.8183 71.2209C79.2177 78.1087 72.6777 83.4774 65.0256 86.6481C57.3735 89.8187 48.953 90.6488 40.8291 89.0333C32.7052 87.4179 25.2429 83.4294 19.3859 77.5725C13.529 71.7156 9.54054 64.2532 7.92508 56.1293C6.30962 48.0054 7.1397 39.5849 10.3103 31.9328C13.481 24.2807 18.8497 17.7407 25.7376 13.1402C32.6254 8.53958 40.7229 6.08501 49.0058 6.08692C60.1093 6.08692 70.758 10.4977 78.6093 18.3491C86.4607 26.2004 90.8715 36.8491 90.8715 47.9526Z" fill="white"/>
<path d="M77.1663 61.9176L62.8071 39.3834C59.0947 33.6994 54.2474 30.5833 49.1789 30.5833C43.8796 30.5833 38.8784 33.9591 35.089 40.1047L21.1627 61.9561C21.0571 61.9466 20.9509 61.9466 20.8453 61.9561C20.5536 61.9617 20.2702 62.0534 20.0304 62.2196C19.7907 62.3857 19.6053 62.619 19.4976 62.8901C19.3899 63.1612 19.3647 63.458 19.4251 63.7434C19.4854 64.0288 19.6287 64.29 19.837 64.4943C20.0452 64.6985 20.3091 64.8367 20.5956 64.8916C20.8821 64.9464 21.1784 64.9155 21.4474 64.8026C21.7164 64.6897 21.946 64.4999 22.1075 64.257C22.269 64.0141 22.3552 63.7289 22.3552 63.4372C22.353 63.2598 22.3204 63.0842 22.2591 62.9178L31.1746 48.876C29.6297 54.0069 28.855 59.3387 28.876 64.6971C28.8785 64.8842 28.9546 65.0627 29.0878 65.1941C29.221 65.3255 29.4006 65.3992 29.5877 65.3992H68.7316C68.9187 65.3992 69.0983 65.3255 69.2315 65.1941C69.3647 65.0627 69.4408 64.8842 69.4433 64.6971C69.4682 59.3353 68.6935 53.9997 67.1447 48.8664L75.8967 62.6389C75.7413 62.8763 75.6578 63.1535 75.6563 63.4372C75.6506 63.737 75.7342 64.0317 75.8966 64.2838C76.059 64.5359 76.2928 64.7339 76.5682 64.8526C76.8435 64.9713 77.148 65.0054 77.4428 64.9504C77.7375 64.8955 78.0093 64.754 78.2234 64.544C78.4374 64.334 78.5841 64.065 78.6448 63.7714C78.7054 63.4777 78.6772 63.1726 78.5638 62.895C78.4505 62.6174 78.257 62.3799 78.0081 62.2127C77.7592 62.0454 77.4661 61.9561 77.1663 61.9561V61.9176ZM48.3133 64.0046H38.4456L48.3518 39.9605L48.3133 64.0046ZM49.8521 64.0046V40.2682L59.6525 63.9661L49.8521 64.0046ZM67.9814 64.0046H61.1529L49.6694 36.1134C49.6173 35.9826 49.5271 35.8704 49.4105 35.7916C49.2938 35.7127 49.1562 35.6707 49.0154 35.671C48.8732 35.67 48.7341 35.7117 48.6158 35.7905C48.4975 35.8694 48.4056 35.9818 48.3518 36.1134L36.8779 64.0046H30.309C30.4052 55.3487 32.4538 47.2314 36.0796 41.1819L36.2816 40.8549C36.2902 40.8234 36.2902 40.7902 36.2816 40.7587C39.7921 35.1036 44.3508 31.9778 49.1212 31.9778C53.6896 31.9778 58.0945 34.8631 61.5376 40.1047L62.1435 41.0665C65.7886 47.1352 67.8468 55.2622 67.9141 63.9758" fill="#444444"/>
<path d="M90.8715 47.9526C90.8734 56.2356 88.4188 64.333 83.8183 71.2209C79.2177 78.1087 72.6777 83.4774 65.0256 86.6481C57.3735 89.8187 48.953 90.6488 40.8291 89.0333C32.7052 87.4179 25.2429 83.4294 19.3859 77.5725C13.529 71.7156 9.54054 64.2532 7.92508 56.1293C6.30962 48.0054 7.1397 39.5849 10.3103 31.9328C13.481 24.2807 18.8497 17.7407 25.7376 13.1402C32.6254 8.53958 40.7229 6.08501 49.0058 6.08692C60.1093 6.08692 70.758 10.4977 78.6093 18.3491C86.4607 26.2004 90.8715 36.8491 90.8715 47.9526Z" fill="white"/>
<path d="M68.9336 34.2477C68.9282 34.0321 68.8424 33.8263 68.6932 33.6707L63.2784 28.2655C63.1252 28.1128 62.9177 28.0271 62.7014 28.0271C62.485 28.0271 62.2775 28.1128 62.1243 28.2655L34.9929 55.3969L34.0311 56.3587C33.9355 56.4474 33.8657 56.5605 33.8292 56.6857L31.367 64.3798L29.3281 66.515C29.1754 66.6682 29.0897 66.8757 29.0897 67.092C29.0897 67.3083 29.1754 67.5158 29.3281 67.6691C29.4831 67.8181 29.6901 67.9009 29.9052 67.8999C30.0127 67.9013 30.1193 67.8806 30.2185 67.8393C30.3178 67.798 30.4075 67.7368 30.4822 67.6595L32.5596 65.5532L40.2538 63.1007C40.3752 63.0561 40.4865 62.9874 40.5808 62.8987L64.1056 39.4124C64.1755 39.3765 64.2402 39.3312 64.2979 39.2778C64.3544 39.2226 64.4 39.1573 64.4326 39.0854L68.6932 34.8248C68.844 34.6702 68.93 34.4637 68.9336 34.2477ZM40.9751 60.2154L39.4266 58.6573L61.0183 37.1523L62.5379 38.6718L40.9751 60.2154ZM38.2725 57.5128L36.7241 55.9355L58.2869 34.4112L59.8642 35.9981L38.2725 57.5128ZM33.3675 63.6297L35.3488 57.3974L35.57 57.1762L37.6858 59.2921L39.8113 61.408L39.5901 61.6292L33.3675 63.6297ZM63.6535 37.5177L59.4025 33.2571L62.6918 29.9679L66.9524 34.2189L63.6535 37.5177Z" fill="#444444"/>
<path d="M90.8722 47.9526C90.8741 56.2355 88.4195 64.333 83.8189 71.2209C79.2183 78.1087 72.6784 83.4774 65.0263 86.6481C57.3742 89.8187 48.9537 90.6488 40.8298 89.0333C32.7059 87.4179 25.2435 83.4294 19.3866 77.5725C13.5296 71.7156 9.54121 64.2532 7.92575 56.1293C6.31029 48.0054 7.14037 39.5849 10.311 31.9328C13.4816 24.2807 18.8504 17.7407 25.7382 13.1402C32.626 8.53958 40.7235 6.08501 49.0065 6.08692C60.11 6.08692 70.7587 10.4977 78.61 18.3491C86.4613 26.2004 90.8722 36.8491 90.8722 47.9526Z" fill="white"/>
<path d="M61.2296 32.4773C57.296 30.9577 54.1318 31.1405 51.2657 33.0447C50.593 31.98 49.7554 31.0288 48.7844 30.2268L47.9188 29.6016C45.0335 27.755 41.4172 27.4857 37.6856 28.8418C30.6455 31.4001 27.5582 37.9401 29.8183 45.5092C31.915 52.3859 38.3973 57.3101 44.5045 56.8965V56.9831C44.1452 57.7266 44.0179 58.5611 44.139 59.3779C44.4853 60.3397 45.7836 60.3397 46.8608 60.0511C47.0191 60.8219 46.8854 61.6239 46.4857 62.3017C46.0597 63.0839 45.8487 63.965 45.874 64.8554C45.8993 65.7457 46.1602 66.6135 46.63 67.3702C46.6989 67.5016 46.8026 67.6115 46.9299 67.6879C47.0571 67.7642 47.2029 67.804 47.3513 67.803C47.4857 67.8042 47.6181 67.7711 47.736 67.7068C47.8403 67.6545 47.9322 67.5804 48.0055 67.4896C48.0787 67.3988 48.1317 67.2934 48.1609 67.1804C48.1901 67.0675 48.1947 66.9496 48.1745 66.8346C48.1543 66.7197 48.1097 66.6105 48.0438 66.5142C47.6882 65.9766 47.4906 65.3499 47.4736 64.7054C47.4566 64.061 47.6208 63.4248 47.9476 62.8691C48.5285 61.8053 48.6799 60.5595 48.3708 59.3875C49.5345 58.7335 50.025 57.9545 49.7365 57.1658C49.5538 56.6465 48.9767 56.2041 47.813 55.5693C48.1977 55.3289 48.5439 55.0788 48.8805 54.8191L49.1402 55.175C49.966 56.4291 51.125 57.4283 52.4872 58.0603L52.3333 58.2142C51.3715 59.1759 50.9002 59.7241 50.8618 60.3012C50.8137 61.3207 51.9582 61.9747 52.92 62.2824C52.902 62.4962 52.8386 62.7038 52.7341 62.8912C52.6297 63.0785 52.4865 63.2415 52.314 63.3692C51.6748 63.744 51.1677 64.308 50.8628 64.9833C50.5578 65.6587 50.4701 66.412 50.6117 67.1394C50.6308 67.3435 50.725 67.5332 50.876 67.6719C51.0271 67.8105 51.2242 67.888 51.4292 67.8895H51.4869C51.594 67.8823 51.6985 67.8537 51.7944 67.8056C51.8904 67.7575 51.9757 67.6908 52.0456 67.6093C52.1154 67.5278 52.1683 67.4332 52.2012 67.3311C52.2341 67.2289 52.2463 67.1212 52.2371 67.0143C52.1602 66.0526 52.1698 65.3505 53.1989 64.7157C53.2595 64.6827 53.3146 64.6405 53.3624 64.5907C53.6807 64.3386 53.9446 64.0245 54.1381 63.6674C54.3315 63.3103 54.4504 62.9177 54.4876 62.5133C55.8822 62.5133 57.3729 62.6094 57.3729 61.4553C57.3729 60.9937 57.1229 60.4936 56.3246 59.0701L56.113 58.6854C58.2674 58.57 61.2777 57.9737 63.1916 56.2329C65.5289 54.0065 67.2119 51.1826 68.0582 48.0675C70.9435 38.9692 65.0382 33.9777 61.1142 32.4677L61.2296 32.4773ZM48.0823 57.6563C47.7732 57.9035 47.4298 58.1044 47.0628 58.2526C46.6222 58.3927 46.1674 58.483 45.7067 58.5219C45.7836 58.1949 45.9279 57.7429 46.0241 57.4351C46.1203 57.1274 46.2068 56.8581 46.2838 56.5888L46.3992 56.6465C46.8608 56.9062 47.7457 57.4063 48.0823 57.6083V57.6563ZM45.8317 54.8095C45.7315 54.8571 45.6428 54.926 45.5721 55.0115H45.4566C40.4074 56.0406 33.5596 52.2512 31.386 44.9803C28.9624 36.8822 33.3095 32.0926 38.2338 30.3133C39.5335 29.8317 40.9065 29.5779 42.2924 29.5632C43.9597 29.5501 45.5945 30.0248 46.9955 30.9289L47.7937 31.5059C49.6418 33.1278 50.9505 35.2753 51.5446 37.6612C53.2854 43.4895 52.843 51.501 45.8317 54.8961V54.8095ZM54.6511 60.9263H53.9587C53.4872 60.8557 53.0373 60.6816 52.641 60.4166C52.8526 60.1377 53.2662 59.7145 53.5451 59.4548C53.824 59.1952 54.0837 58.8874 54.3145 58.6277C54.4684 58.9643 54.6896 59.3779 55.0262 59.955L55.5937 60.9841H54.6319L54.6511 60.9263ZM66.5867 47.7117C65.8271 50.5416 64.307 53.1094 62.1914 55.1365C60.4794 56.685 57.2479 57.2813 54.9397 57.1658C54.7669 57.1638 54.5982 57.2178 54.4588 57.3197C54.3784 57.228 54.2757 57.1584 54.1606 57.1178C52.6489 56.6546 51.3461 55.6784 50.4771 54.3575L50.1885 53.8189C54.5934 49.3563 54.6896 42.4701 53.0738 37.1515C52.799 36.2252 52.445 35.3242 52.0159 34.4585C54.4684 32.7947 57.1133 32.6504 60.6045 33.9969C64.0957 35.3434 69.0776 39.6425 66.5674 47.6155" fill="#444444"/>
<path d="M49.9684 38.6239C50.1597 38.5578 50.3192 38.4223 50.4154 38.2442C50.5116 38.0661 50.5374 37.8584 50.4878 37.6621C49.8859 35.4729 48.6433 33.5136 46.9196 32.0358L46.458 31.7088C45.581 31.1484 44.601 30.7688 43.5754 30.5921C42.5499 30.4154 41.4993 30.4451 40.4854 30.6797C40.3799 30.6999 40.2795 30.7407 40.1898 30.7997C40.1001 30.8588 40.0229 30.9349 39.9626 31.0237C39.9023 31.1126 39.8601 31.2125 39.8384 31.3176C39.8168 31.4228 39.816 31.5312 39.8362 31.6367C39.8564 31.7421 39.8972 31.8426 39.9562 31.9323C40.0153 32.022 40.0914 32.0992 40.1802 32.1595C40.2691 32.2197 40.369 32.2619 40.4741 32.2836C40.5793 32.3053 40.6877 32.3061 40.7932 32.2859C41.5966 32.087 42.432 32.0535 43.2487 32.1874C44.0655 32.3214 44.8465 32.6199 45.5443 33.0649L45.9194 33.3246C47.3768 34.5959 48.4272 36.2685 48.9393 38.1334C48.994 38.2965 49.0987 38.4383 49.2385 38.5384C49.3784 38.6386 49.5463 38.692 49.7183 38.6912C49.8012 38.7045 49.8856 38.7045 49.9684 38.6912" fill="#444444"/>
<path d="M58.9113 34.4017C58.7057 34.372 58.4965 34.4217 58.3262 34.5406C58.1559 34.6596 58.0373 34.8389 57.9944 35.0422C57.9515 35.2454 57.9877 35.4574 58.0955 35.635C58.2032 35.8126 58.3746 35.9424 58.5747 35.9983C60.534 36.3915 62.2608 37.538 63.3835 39.1913C64.5212 40.857 64.9946 42.8879 64.7107 44.885V45.1735C64.6872 45.2813 64.6862 45.3927 64.7078 45.5009C64.7295 45.6091 64.7733 45.7116 64.8366 45.8019C64.8998 45.8923 64.9811 45.9686 65.0754 46.0259C65.1696 46.0833 65.2747 46.1205 65.384 46.1353H65.5186C65.7107 46.1334 65.896 46.0639 66.042 45.939C66.1879 45.8142 66.2853 45.6419 66.3169 45.4524L66.3746 45.1254C66.7115 42.7237 66.1424 40.2827 64.7781 38.2776C63.4261 36.2956 61.357 34.9162 59.0075 34.4306" fill="#444444"/>
<path d="M90.8702 47.9528C90.8721 56.2358 88.4175 64.3333 83.8169 71.2211C79.2163 78.1089 72.6764 83.4777 65.0243 86.6483C57.3722 89.8189 48.9517 90.649 40.8278 89.0336C32.7039 87.4181 25.2415 83.4297 19.3846 77.5727C13.5276 71.7158 9.5392 64.2534 7.92374 56.1295C6.30828 48.0056 7.13836 39.5851 10.309 31.933C13.4796 24.2809 18.8484 17.741 25.7362 13.1404C32.624 8.53982 40.7215 6.08526 49.0045 6.08716C60.1079 6.08716 70.7566 10.498 78.608 18.3493C86.4593 26.2007 90.8702 36.8494 90.8702 47.9528Z" fill="white"/>
<path d="M70.9137 42.2615L69.284 40.6352C68.8764 40.2259 68.3216 39.9965 67.7434 39.9981H65.865C65.6726 39.9983 65.4878 39.9221 65.3515 39.7865L64.7501 39.1856C64.4663 38.9028 64.466 38.4438 64.7496 38.1606L65.2636 37.6476C65.5472 37.3646 65.5472 36.9058 65.2636 36.6228L60.1436 31.5173C60.1098 31.4838 60.0729 31.4537 60.0332 31.4274C57.8952 30.0004 55.4019 29.1941 52.8315 29.0986L42.6917 28.7239C42.2908 28.7089 41.9536 29.0209 41.9386 29.4209C41.9274 29.717 42.0979 29.99 42.3692 30.1104L51.957 34.381C52.874 34.8401 53.7217 35.4257 54.4752 36.1205L51.9134 38.6768C51.6298 38.9599 51.6298 39.4187 51.9134 39.7017L27.7703 63.7874C26.3769 65.2271 26.4168 67.5213 27.8595 68.9118C29.2669 70.2681 31.4981 70.2681 32.9055 68.9118L57.0457 44.8238C57.3293 45.1068 57.7891 45.1068 58.0727 44.8238L59.614 43.2865C59.9013 43.0125 60.3538 43.0125 60.6411 43.2865L61.2425 43.8867C61.3792 44.0222 61.4559 44.2068 61.4553 44.3991V46.2734C61.4535 46.8505 61.6835 47.4041 62.0938 47.8107L63.7222 49.4365C64.0057 49.7197 64.4657 49.7199 64.7495 49.437L70.9131 43.2865C71.1969 43.0037 71.1972 42.5447 70.9137 42.2615ZM31.8792 67.8869C31.0282 68.7361 29.6483 68.7361 28.7973 67.8869C27.9463 67.0377 27.9463 65.6608 28.7973 64.8116L52.9367 40.7237L56.0186 43.799L31.8792 67.8869ZM64.2358 47.8992L63.1216 46.7859C62.9858 46.6496 62.9094 46.4655 62.9087 46.2734V44.3991C62.9102 43.8222 62.6803 43.2686 62.2703 42.8618L61.6689 42.261C60.8179 41.4121 59.4386 41.4121 58.5877 42.261L57.5599 43.2858L53.451 39.1856L56.0193 36.6228C56.3029 36.3397 56.3029 35.8809 56.0193 35.5979L55.8138 35.3928C54.8667 34.4509 53.7736 33.6678 52.5764 33.0734L46.3814 30.3112L52.7776 30.5475C55.0561 30.6312 57.2675 31.3391 59.1695 32.5936L63.7215 37.1359C62.8724 37.9859 62.8724 39.3612 63.7215 40.2112L64.3237 40.8121C64.7315 41.2209 65.2862 41.4501 65.8642 41.4485H67.7426C67.935 41.4491 68.1195 41.5254 68.2561 41.6608L69.3718 42.7741L64.2358 47.8992Z" fill="#444444"/>
<path d="M90.8722 47.9526C90.8741 56.2355 88.4195 64.333 83.8189 71.2209C79.2183 78.1087 72.6784 83.4774 65.0263 86.6481C57.3742 89.8187 48.9537 90.6488 40.8298 89.0333C32.7059 87.4179 25.2435 83.4294 19.3866 77.5725C13.5296 71.7156 9.54121 64.2532 7.92575 56.1293C6.31029 48.0054 7.14037 39.5849 10.311 31.9328C13.4816 24.2807 18.8504 17.7407 25.7382 13.1402C32.626 8.53958 40.7235 6.08501 49.0065 6.08692C60.11 6.08692 70.7587 10.4977 78.61 18.3491C86.4613 26.2004 90.8722 36.8491 90.8722 47.9526Z" fill="white"/>
<path d="M49.0255 49.4155C53.0553 49.4155 56.3349 47.0111 56.3349 44.0585C56.3151 43.3883 56.148 42.7306 55.8455 42.1323C55.543 41.5339 55.1124 41.0094 54.5845 40.5961C54.8381 40.3194 54.9847 39.9614 54.998 39.5863C54.9912 39.2058 54.8496 38.8402 54.5983 38.5544C54.3471 38.2687 54.0025 38.0814 53.6261 38.026C53.2497 37.9705 52.8658 38.0506 52.5428 38.2518C52.2199 38.453 51.9788 38.7623 51.8627 39.1246C50.0376 38.5731 48.0903 38.5731 46.2652 39.1246C46.155 38.7573 45.9163 38.4419 45.5926 38.2361C45.269 38.0303 44.8821 37.9479 44.5027 38.004C44.1233 38.06 43.7768 38.2507 43.5265 38.5413C43.2761 38.8318 43.1388 39.2028 43.1395 39.5863C43.1496 39.9388 43.2784 40.2777 43.5049 40.548C42.977 40.9613 42.5464 41.4858 42.2439 42.0842C41.9414 42.6826 41.7743 43.3402 41.7545 44.0104C41.7545 46.963 45.0341 49.3674 49.0639 49.3674L49.0255 49.4155ZM49.0639 40.298C52.1416 40.298 54.748 42.0003 54.748 44.0104C54.748 45.8474 52.584 47.4054 49.8814 47.6747V44.5009C50.9682 44.3759 51.9204 43.9527 51.9204 43.0775C51.9204 41.9907 50.4393 41.606 49.0351 41.606C47.6309 41.606 46.1498 41.9907 46.1498 43.0775C46.1498 43.9527 47.1116 44.3759 48.1791 44.5009V47.6747C45.4766 47.4054 43.3703 45.8474 43.3703 44.0104C43.3703 42.0003 45.9671 40.298 49.0447 40.298" fill="#444444"/>
<path d="M65.8373 56.1464C65.0126 55.4756 64.0095 55.0611 62.952 54.9538C63.1307 54.1749 63.1042 53.363 62.875 52.5974C62.4741 51.1838 61.7757 49.8721 60.8265 48.7504C60.4362 48.2832 60.0049 47.8519 59.5377 47.4616C61.3404 45.3991 62.3407 42.7568 62.3557 40.0175C62.3571 39.4478 62.3153 38.8787 62.2306 38.3152C63.048 38.208 63.8256 37.898 64.4926 37.4135C65.1596 36.9291 65.6948 36.2855 66.0496 35.5414C66.4045 34.7973 66.5675 33.9762 66.524 33.153C66.4806 32.3298 66.2319 31.5305 65.8007 30.8279C65.3695 30.1253 64.7694 29.5417 64.055 29.1302C63.3407 28.7187 62.5348 28.4924 61.7107 28.4718C60.8866 28.4513 60.0704 28.6371 59.3365 29.0125C58.6025 29.3879 57.9741 29.9409 57.5084 30.6211C55.0543 28.8281 52.0937 27.8618 49.0544 27.8618C46.0152 27.8618 43.0546 28.8281 40.6005 30.6211C40.1348 29.9409 39.5064 29.3879 38.7724 29.0125C38.0385 28.6371 37.2223 28.4513 36.3982 28.4718C35.5741 28.4924 34.7682 28.7187 34.0538 29.1302C33.3395 29.5417 32.7394 30.1253 32.3082 30.8279C31.877 31.5305 31.6283 32.3298 31.5848 33.153C31.5414 33.9762 31.7044 34.7973 32.0592 35.5414C32.414 36.2855 32.9493 36.9291 33.6163 37.4135C34.2833 37.898 35.0609 38.208 35.8782 38.3152C35.7943 38.8948 35.7557 39.48 35.7628 40.0656C35.7778 42.8049 36.7781 45.4472 38.5808 47.5097C38.1159 47.9024 37.6848 48.3336 37.292 48.7985C36.3465 49.9227 35.6485 51.2335 35.2435 52.6455C35.0098 53.4275 34.9899 54.2577 35.1858 55.0499C34.0514 55.147 32.9771 55.6016 32.1177 56.3483C31.6194 56.8054 31.2243 57.3635 30.9589 57.9855C30.6935 58.6075 30.564 59.2789 30.5789 59.955C30.6414 61.0379 30.9305 62.0957 31.4276 63.0599C31.9246 64.0241 32.6184 64.8732 33.4642 65.5524C35.1504 67.0602 37.3196 67.9163 39.581 67.9665C40.7168 67.9867 41.8358 67.6903 42.8126 67.1105C44.3803 67.8799 46.9578 67.9953 49.0641 67.9953C51.1703 67.9953 53.7671 67.8895 55.3444 67.1201C56.3123 67.7247 57.4349 68.0355 58.5759 68.0145C60.9074 67.9609 63.1356 67.0422 64.8274 65.437C65.6489 64.7235 66.3113 63.8454 66.7719 62.8597C67.2325 61.8739 67.4809 60.8024 67.5011 59.7145C67.4948 59.0382 67.3459 58.3709 67.0642 57.756C66.7825 57.1412 66.3742 56.5927 65.8661 56.1464H65.8373ZM59.5762 49.8468C60.36 50.783 60.9368 51.8745 61.2689 53.0495C61.3978 53.3561 61.4577 53.6874 61.4444 54.0198C61.4311 54.3522 61.3449 54.6776 61.1919 54.973C60.2783 55.0866 59.3868 55.3362 58.5471 55.7136C58.3932 55.1269 58.2105 54.4536 58.1335 54.2132C57.8985 53.4733 57.6058 52.753 57.2583 52.0589C56.9554 51.4465 56.6116 50.8553 56.2292 50.2892C56.9991 49.8418 57.721 49.3165 58.3836 48.7215C58.8122 49.0697 59.2052 49.4595 59.5569 49.8853L59.5762 49.8468ZM37.3498 40.0656C37.3496 39.2904 37.4466 38.5182 37.6383 37.767C37.6676 37.6416 37.6672 37.5111 37.6371 37.3858C37.6071 37.2606 37.5482 37.1441 37.4652 37.0457C37.3874 36.956 37.2914 36.8839 37.1836 36.8341C37.0759 36.7844 36.9587 36.7582 36.84 36.7572H36.7727C36.1619 36.8026 35.5505 36.6775 35.0065 36.396C34.4626 36.1144 34.0075 35.6874 33.6919 35.1625C33.3763 34.6375 33.2126 34.0353 33.2191 33.4228C33.2256 32.8103 33.4019 32.2117 33.7285 31.6936C34.0551 31.1754 34.5192 30.7581 35.069 30.4881C35.6187 30.2181 36.2327 30.106 36.8424 30.1643C37.4521 30.2227 38.0337 30.4491 38.5223 30.8184C39.0109 31.1877 39.3874 31.6854 39.6099 32.2561C39.6579 32.3786 39.7344 32.4878 39.8331 32.5748C39.9318 32.6618 40.0498 32.724 40.1773 32.7562C40.305 32.785 40.4376 32.7835 40.5645 32.7518C40.6915 32.72 40.8092 32.659 40.9083 32.5735C43.1892 30.631 46.0873 29.5642 49.0833 29.5642C52.0793 29.5642 54.9774 30.631 57.2583 32.5735C57.3574 32.659 57.4751 32.72 57.602 32.7518C57.729 32.7835 57.8616 32.785 57.9893 32.7562C58.1168 32.724 58.2348 32.6618 58.3335 32.5748C58.4322 32.4878 58.5087 32.3786 58.5567 32.2561C58.8437 31.5437 59.3689 30.9529 60.0428 30.5845C60.7167 30.216 61.4975 30.0928 62.2522 30.2358C63.0068 30.3788 63.6884 30.7791 64.1808 31.3685C64.6733 31.9579 64.946 32.6999 64.9524 33.4679C64.9459 33.9253 64.8457 34.3765 64.658 34.7936C64.4704 35.2108 64.1991 35.585 63.8612 35.8933C63.5232 36.2015 63.1256 36.4372 62.693 36.5858C62.2604 36.7344 61.8019 36.7927 61.3458 36.7572C61.216 36.7488 61.086 36.7705 60.9659 36.8205C60.8458 36.8705 60.7388 36.9476 60.6533 37.0457C60.5713 37.1446 60.5138 37.2615 60.4853 37.3868C60.4569 37.5121 60.4585 37.6424 60.4898 37.767C60.6737 38.5194 60.7673 39.2911 60.7688 40.0656C60.7688 45.8362 55.5271 50.5585 49.0929 50.5585C42.6587 50.5585 37.3498 45.8555 37.3498 40.0656ZM36.7823 53.0495C37.1267 51.8823 37.7133 50.8008 38.5039 49.8756C38.8581 49.4522 39.2509 49.0627 39.6772 48.7119C40.3417 49.3044 41.0634 49.8295 41.8316 50.2796C41.4492 50.8457 41.1054 51.4369 40.8025 52.0492C40.459 52.7452 40.1665 53.4652 39.9273 54.2036C39.8503 54.4344 39.6676 55.1654 39.5137 55.7136C38.6823 55.3411 37.801 55.0916 36.8977 54.973C36.8977 54.973 36.8977 54.973 36.8977 54.9153C36.7447 54.6199 36.6585 54.2945 36.6452 53.9621C36.6319 53.6297 36.6919 53.2984 36.8208 52.9918L36.7823 53.0495ZM42.399 65.312C40.5813 66.9566 37.042 66.4757 34.5125 64.254C33.8488 63.72 33.3022 63.055 32.9067 62.3005C32.5112 61.546 32.2754 60.7181 32.2139 59.8684C32.1921 59.4249 32.2668 58.982 32.4328 58.5702C32.5989 58.1584 32.8523 57.7875 33.1757 57.4832C33.9685 56.8201 34.9803 56.4771 36.0129 56.5214C37.8803 56.5788 39.6665 57.2981 41.0525 58.5508C41.7151 59.0866 42.2615 59.7519 42.6583 60.5059C43.0552 61.2599 43.2942 62.0869 43.3608 62.9364C43.3777 63.3808 43.3009 63.8237 43.1351 64.2363C42.9694 64.649 42.7186 65.022 42.399 65.3312V65.312ZM49.0737 66.293C47.4094 66.3455 45.7451 66.1871 44.1206 65.8217C44.7243 64.9822 45.0414 63.9704 45.0246 62.9364C44.9621 61.8535 44.673 60.7957 44.176 59.8315C43.679 58.8673 42.9852 58.0181 42.1393 57.3389C41.7824 57.0264 41.4031 56.7403 41.0045 56.483C41.168 55.8482 41.4084 54.9057 41.4853 54.6749C41.702 54.0157 41.9656 53.3729 42.274 52.7513C42.5725 52.1428 42.9165 51.5576 43.3031 51.0009C45.11 51.794 47.0619 52.2034 49.0352 52.2034C51.0085 52.2034 52.9604 51.794 54.7673 51.0009C55.1497 51.5603 55.4935 52.1452 55.7964 52.7513C56.1048 53.3729 56.3684 54.0157 56.5851 54.6749C56.662 54.9057 56.9025 55.8482 57.066 56.483C56.6274 56.77 56.2125 57.0916 55.8253 57.4447C54.9945 58.1469 54.3204 59.0157 53.8466 59.9948C53.3728 60.9739 53.1098 62.0416 53.0746 63.1288C53.0875 64.0972 53.3926 65.0392 53.9498 65.8313C52.329 66.2 50.6679 66.3616 49.0064 66.3122L49.0737 66.293ZM63.654 64.1963C61.1823 66.4853 57.6622 67.0816 55.806 65.4659C55.4675 65.1722 55.1967 64.8086 55.0124 64.4001C54.8281 63.9917 54.7346 63.548 54.7385 63.0999C54.7784 62.2492 54.9928 61.4158 55.3684 60.6514C55.744 59.887 56.2727 59.208 56.9217 58.6566C58.3098 57.3277 60.1372 56.5543 62.0575 56.483C63.0412 56.4463 64.0048 56.7675 64.7697 57.387C65.113 57.683 65.3867 58.0511 65.5713 58.4651C65.7558 58.879 65.8466 59.3287 65.8373 59.7818C65.7918 60.6273 65.5748 61.4546 65.1994 62.2135C64.8241 62.9724 64.2983 63.647 63.654 64.1963Z" fill="#444444"/>
<path d="M90.8715 47.9526C90.8734 56.2356 88.4188 64.333 83.8183 71.2209C79.2177 78.1087 72.6777 83.4774 65.0256 86.6481C57.3735 89.8187 48.953 90.6488 40.8291 89.0333C32.7052 87.4179 25.2429 83.4294 19.3859 77.5725C13.529 71.7156 9.54054 64.2532 7.92508 56.1293C6.30962 48.0054 7.1397 39.5849 10.3103 31.9328C13.481 24.2807 18.8497 17.7407 25.7376 13.1402C32.6254 8.53958 40.7229 6.08501 49.0058 6.08692C60.1093 6.08692 70.758 10.4977 78.6093 18.3491C86.4607 26.2004 90.8715 36.8491 90.8715 47.9526Z" fill="white"/>
<path d="M44.4182 28.3039H53.6416C53.6581 28.202 53.6581 28.098 53.6416 27.9961C53.657 27.8973 53.657 27.7967 53.6416 27.698H44.4182C44.3775 27.792 44.3578 27.8937 44.3605 27.9961C44.357 28.1017 44.3767 28.2068 44.4182 28.3039ZM53.757 29.2656H44.2836C43.7546 29.2656 43.3218 28.7078 43.3218 27.9673C43.3218 27.2267 43.7257 26.6785 44.2836 26.6785H53.7377C54.2667 26.6785 54.6995 27.2363 54.6995 27.9673C54.6995 28.6982 54.3052 29.2656 53.7377 29.2656H53.757ZM39.09 59.7055H58.9216V31.2854H39.09V59.7055ZM59.9123 60.6673H38.0994V30.2947H59.9123V60.6673ZM49.0058 63.7161C48.5976 63.7476 48.2163 63.932 47.9381 64.2324C47.6599 64.5329 47.5054 64.9272 47.5054 65.3367C47.5054 65.7461 47.6599 66.1405 47.9381 66.4409C48.2163 66.7414 48.5976 66.9258 49.0058 66.9572C49.2292 66.9745 49.4536 66.9453 49.6651 66.8717C49.8767 66.7981 50.0707 66.6815 50.235 66.5294C50.3994 66.3772 50.5305 66.1927 50.6202 65.9874C50.7099 65.7822 50.7562 65.5607 50.7562 65.3367C50.7562 65.1127 50.7099 64.8911 50.6202 64.6859C50.5305 64.4807 50.3994 64.2962 50.235 64.144C50.0707 63.9918 49.8767 63.8753 49.6651 63.8016C49.4536 63.728 49.2292 63.6989 49.0058 63.7161ZM49.0058 67.9383C48.4903 67.9383 47.9864 67.7854 47.5578 67.499C47.1292 67.2126 46.7951 66.8055 46.5979 66.3293C46.4006 65.853 46.349 65.329 46.4495 64.8234C46.5501 64.3178 46.7983 63.8534 47.1628 63.4889C47.5274 63.1244 47.9918 62.8761 48.4974 62.7756C49.0029 62.675 49.527 62.7266 50.0033 62.9239C50.4795 63.1212 50.8866 63.4552 51.173 63.8838C51.4594 64.3125 51.6122 64.8164 51.6122 65.3319C51.6122 66.0231 51.3376 66.6861 50.8488 67.1749C50.36 67.6636 49.6971 67.9383 49.0058 67.9383ZM39.3882 25.6783C38.6416 25.6808 37.9263 25.9785 37.3984 26.5064C36.8704 27.0343 36.5727 27.7496 36.5702 28.4962V67.4093C36.5727 68.1559 36.8704 68.8712 37.3984 69.3991C37.9263 69.927 38.6416 70.2247 39.3882 70.2273H58.585C59.3324 70.2273 60.0492 69.9304 60.5776 69.4019C61.1061 68.8734 61.403 68.1567 61.403 67.4093V28.4962C61.403 27.7489 61.1061 27.0321 60.5776 26.5036C60.0492 25.9752 59.3324 25.6783 58.585 25.6783H39.3882ZM58.585 71.2179H39.4267C38.4063 71.2179 37.4278 70.8126 36.7064 70.0911C35.9849 69.3696 35.5796 68.3911 35.5796 67.3708V28.4962C35.5796 27.4759 35.9849 26.4974 36.7064 25.7759C37.4278 25.0545 38.4063 24.6492 39.4267 24.6492H58.585C59.6053 24.6492 60.5838 25.0545 61.3053 25.7759C62.0268 26.4974 62.4321 27.4759 62.4321 28.4962V67.4093C62.4321 68.4296 62.0268 69.4081 61.3053 70.1296C60.5838 70.851 59.6053 71.2563 58.585 71.2563" fill="#444444"/>
<path d="M93.0152 47.99C93.0172 56.6838 90.4372 65.183 85.6015 72.4126C80.7658 79.6421 73.8917 85.2772 65.8486 88.6051C57.8054 91.933 48.9546 92.8043 40.4156 91.1087C31.8765 89.4131 24.0328 85.2268 17.8766 79.0793C11.7203 72.9318 7.52808 65.0993 5.83007 56.5723C4.13206 48.0454 5.00455 39.2071 8.33721 31.1754C11.6699 23.1437 17.313 16.2793 24.5528 11.4505C31.7926 6.62171 40.3039 4.04537 49.0101 4.04736C60.681 4.04736 71.8739 8.67702 80.1264 16.9179C88.379 25.1587 93.0152 36.3357 93.0152 47.99Z" fill="white"/>
<path d="M48.9595 36.603C46.5102 36.603 44.116 37.3283 42.0795 38.6871C40.043 40.0459 38.4558 41.9772 37.5185 44.2368C36.5812 46.4964 36.3359 48.9829 36.8138 51.3816C37.2916 53.7804 38.471 55.9839 40.2029 57.7133C41.9348 59.4427 44.1414 60.6205 46.5436 61.0976C48.9458 61.5748 51.4357 61.3299 53.6985 60.3939C55.9614 59.458 57.8954 57.873 59.2562 55.8394C60.6169 53.8058 61.3432 51.4149 61.3432 48.9691C61.3395 45.6906 60.0336 42.5474 57.712 40.2291C55.3904 37.9108 52.2427 36.6068 48.9595 36.603ZM48.9595 59.7895C46.8164 59.7895 44.7214 59.1549 42.9395 57.9659C41.1576 56.777 39.7687 55.0871 38.9486 53.1099C38.1285 51.1327 37.9139 48.9571 38.332 46.8582C38.7501 44.7593 39.7821 42.8313 41.2975 41.318C42.8129 39.8047 44.7436 38.7742 46.8456 38.3567C48.9475 37.9392 51.1262 38.1535 53.1062 38.9724C55.0861 39.7914 56.7785 41.1783 57.9691 42.9577C59.1597 44.7371 59.7952 46.8291 59.7952 48.9691C59.792 51.8379 58.6493 54.5882 56.6179 56.6167C54.5866 58.6452 51.8323 59.7862 48.9595 59.7895Z" fill="#444444"/>
<path d="M71.4056 28.1013H69.8576C68.0108 28.1034 66.2402 28.8369 64.9343 30.141C63.6284 31.445 62.8939 33.2131 62.8918 35.0573V36.6996C61.2568 34.8481 59.2682 33.3412 57.0424 32.2672C54.8166 31.1931 52.3985 30.5736 49.9298 30.4449C47.4611 30.3163 44.9916 30.681 42.6659 31.5178C40.3402 32.3546 38.2053 33.6466 36.3861 35.3181L35.9722 28.8249C35.9574 28.6216 35.8629 28.4324 35.7091 28.2983C35.5553 28.1643 35.3547 28.0964 35.1509 28.1094C34.9472 28.1223 34.7569 28.2151 34.6214 28.3676C34.4859 28.52 34.4161 28.7197 34.4274 28.9233L34.9189 36.6317C34.5623 36.8822 33.5489 37.2585 31.9326 37.3533V28.8742C31.9326 28.6692 31.851 28.4726 31.7059 28.3277C31.5607 28.1827 31.3638 28.1013 31.1586 28.1013C30.9533 28.1013 30.7564 28.1827 30.6113 28.3277C30.4661 28.4726 30.3846 28.6692 30.3846 28.8742V37.3532C28.8605 37.2622 27.7969 36.9157 27.3984 36.6293L27.8898 28.9234C27.901 28.7198 27.8313 28.5201 27.6958 28.3677C27.5603 28.2152 27.3699 28.1224 27.1662 28.1095C26.9625 28.0965 26.7619 28.1644 26.6081 28.2984C26.4543 28.4324 26.3597 28.6217 26.345 28.825L25.747 38.2022C25.6939 39.1037 25.9822 39.9922 26.5545 40.6915C27.1268 41.3908 27.9413 41.8497 28.8366 41.9773V49.742C28.6314 49.742 28.4345 49.8234 28.2893 49.9684C28.1442 50.1133 28.0626 50.3099 28.0626 50.5149V65.1996C28.0626 66.0196 28.3888 66.8059 28.9694 67.3857C29.55 67.9655 30.3375 68.2912 31.1586 68.2912C31.9797 68.2912 32.7671 67.9655 33.3477 67.3857C33.9283 66.8059 34.2545 66.0196 34.2545 65.1996V60.2994C36.2264 62.849 38.8291 64.8421 41.8064 66.0826C44.7837 67.3231 48.0331 67.7683 51.235 67.3743C54.4369 66.9803 57.4809 65.7608 60.0676 63.8357C62.6543 61.9106 64.6946 59.3462 65.9877 56.3949V65.1996C65.9877 66.0196 66.3139 66.8059 66.8945 67.3857C67.4751 67.9655 68.2626 68.2912 69.0836 68.2912C69.9047 68.2912 70.6922 67.9655 71.2728 67.3857C71.8534 66.8059 72.1796 66.0196 72.1796 65.1996V28.8742C72.1796 28.6692 72.098 28.4726 71.9529 28.3277C71.8077 28.1827 71.6109 28.1013 71.4056 28.1013ZM32.7065 65.1996C32.7065 65.6096 32.5434 66.0028 32.2531 66.2927C31.9628 66.5826 31.5691 66.7454 31.1586 66.7454C30.748 66.7454 30.3543 66.5826 30.064 66.2927C29.7737 66.0028 29.6106 65.6096 29.6106 65.1996V51.2878H32.7065V65.1996ZM30.3846 49.742V42.0132H31.9326V49.742H30.3846ZM32.9715 40.4674H29.3456C29.0661 40.4675 28.7895 40.4106 28.5327 40.3003C28.276 40.1899 28.0444 40.0285 27.8522 39.8258C27.66 39.6232 27.5112 39.3835 27.4149 39.1214C27.3186 38.8594 27.2768 38.5805 27.2921 38.3018C28.1599 38.6583 29.4365 38.9217 31.1586 38.9217C32.5729 38.9217 33.9933 38.7241 35.0249 38.3055C35.0397 38.5839 34.9976 38.8624 34.9011 39.124C34.8046 39.3857 34.6557 39.6249 34.4636 39.8272C34.2715 40.0295 34.0401 40.1906 33.7835 40.3007C33.527 40.4107 33.2507 40.4675 32.9715 40.4674ZM60.5002 61.4722C58.6277 63.1955 56.3921 64.4774 53.9578 65.2237C51.5236 65.97 48.9527 66.1616 46.4345 65.7844C43.9163 65.4073 41.5148 64.471 39.4069 63.0445C37.299 61.6179 35.5383 59.7375 34.2545 57.5415V50.5149C34.2545 50.3099 34.173 50.1133 34.0278 49.9684C33.8827 49.8234 33.6858 49.742 33.4805 49.742V41.9773C34.3765 41.8496 35.1916 41.3901 35.7639 40.6901C36.3362 39.99 36.6239 39.1006 36.5699 38.1984L36.5166 37.3636C38.2454 35.5148 40.3656 34.0745 42.7226 33.1478C45.0796 32.2211 47.6139 31.8312 50.141 32.0067C52.668 32.1821 55.1239 32.9185 57.3298 34.162C59.5357 35.4056 61.4358 37.125 62.8918 39.195V50.5149C62.8918 50.7199 62.9733 50.9165 63.1185 51.0614C63.2636 51.2063 63.4605 51.2878 63.6658 51.2878H65.8299C65.2953 55.1988 63.4103 58.8008 60.5002 61.4722ZM70.6316 65.1996C70.6316 65.6096 70.4685 66.0028 70.1782 66.2927C69.8879 66.5826 69.4942 66.7454 69.0836 66.7454C68.6731 66.7454 68.2794 66.5826 67.9891 66.2927C67.6988 66.0028 67.5357 65.6096 67.5357 65.1996V51.2878H70.6316V65.1996ZM70.6316 49.742H64.4398V35.0573C64.4414 33.6229 65.0127 32.2477 66.0284 31.2335C67.0441 30.2192 68.4212 29.6487 69.8576 29.6471H70.6316V49.742Z" fill="#444444"/>
</svg>
