<svg width="96" height="131" viewBox="0 0 96 131" fill="none" xmlns="http://www.w3.org/2000/svg">
<path d="M20.9045 99.988C20.9045 100.739 20.7855 101.43 20.5475 102.06C20.3095 102.685 19.9735 103.224 19.5395 103.677C19.1055 104.13 18.5828 104.482 17.9715 104.734C17.3648 104.981 16.6928 105.105 15.9555 105.105C15.2181 105.105 14.5461 104.981 13.9395 104.734C13.3328 104.482 12.8125 104.13 12.3785 103.677C11.9445 103.224 11.6085 102.685 11.3705 102.06C11.1325 101.43 11.0135 100.739 11.0135 99.988C11.0135 99.2367 11.1325 98.5483 11.3705 97.923C11.6085 97.293 11.9445 96.7517 12.3785 96.299C12.8125 95.8417 13.3328 95.487 13.9395 95.235C14.5461 94.983 15.2181 94.857 15.9555 94.857C16.6928 94.857 17.3648 94.983 17.9715 95.235C18.5828 95.487 19.1055 95.8417 19.5395 96.299C19.9735 96.7517 20.3095 97.293 20.5475 97.923C20.7855 98.5483 20.9045 99.2367 20.9045 99.988ZM19.5115 99.988C19.5115 99.372 19.4275 98.819 19.2595 98.329C19.0915 97.839 18.8535 97.426 18.5455 97.09C18.2375 96.7493 17.8641 96.488 17.4255 96.306C16.9868 96.124 16.4968 96.033 15.9555 96.033C15.4188 96.033 14.9311 96.124 14.4925 96.306C14.0538 96.488 13.6781 96.7493 13.3655 97.09C13.0575 97.426 12.8195 97.839 12.6515 98.329C12.4835 98.819 12.3995 99.372 12.3995 99.988C12.3995 100.604 12.4835 101.157 12.6515 101.647C12.8195 102.132 13.0575 102.545 13.3655 102.886C13.6781 103.222 14.0538 103.481 14.4925 103.663C14.9311 103.84 15.4188 103.929 15.9555 103.929C16.4968 103.929 16.9868 103.84 17.4255 103.663C17.8641 103.481 18.2375 103.222 18.5455 102.886C18.8535 102.545 19.0915 102.132 19.2595 101.647C19.4275 101.157 19.5115 100.604 19.5115 99.988ZM23.5997 99.33C23.8237 98.8447 24.099 98.4667 24.4257 98.196C24.7524 97.9207 25.1514 97.783 25.6227 97.783C25.772 97.783 25.9144 97.7993 26.0497 97.832C26.1897 97.8647 26.3134 97.916 26.4207 97.986L26.3297 98.917C26.3017 99.0337 26.2317 99.092 26.1197 99.092C26.0544 99.092 25.9587 99.078 25.8327 99.05C25.7067 99.022 25.5644 99.008 25.4057 99.008C25.1817 99.008 24.981 99.0407 24.8037 99.106C24.631 99.1713 24.4747 99.2693 24.3347 99.4C24.1994 99.526 24.0757 99.6847 23.9637 99.876C23.8564 100.063 23.7584 100.277 23.6697 100.52V105H22.4167V97.909H23.1307C23.266 97.909 23.3594 97.9347 23.4107 97.986C23.462 98.0373 23.497 98.126 23.5157 98.252L23.5997 99.33ZM29.8232 101.535C30.0752 101.535 30.2969 101.5 30.4882 101.43C30.6796 101.36 30.8406 101.262 30.9712 101.136C31.1019 101.01 31.1999 100.861 31.2652 100.688C31.3306 100.511 31.3632 100.317 31.3632 100.107C31.3632 99.673 31.2302 99.3277 30.9642 99.071C30.7029 98.8143 30.3226 98.686 29.8232 98.686C29.3192 98.686 28.9342 98.8143 28.6682 99.071C28.4069 99.3277 28.2762 99.673 28.2762 100.107C28.2762 100.317 28.3089 100.511 28.3742 100.688C28.4442 100.861 28.5446 101.01 28.6752 101.136C28.8059 101.262 28.9669 101.36 29.1582 101.43C29.3496 101.5 29.5712 101.535 29.8232 101.535ZM32.0702 105.385C32.0702 105.212 32.0212 105.072 31.9232 104.965C31.8252 104.858 31.6922 104.774 31.5242 104.713C31.3609 104.652 31.1696 104.61 30.9502 104.587C30.7309 104.559 30.4976 104.538 30.2502 104.524C30.0076 104.51 29.7602 104.496 29.5082 104.482C29.2562 104.468 29.0136 104.445 28.7802 104.412C28.5189 104.533 28.3042 104.687 28.1362 104.874C27.9729 105.056 27.8912 105.271 27.8912 105.518C27.8912 105.677 27.9309 105.824 28.0102 105.959C28.0942 106.099 28.2202 106.218 28.3882 106.316C28.5562 106.419 28.7662 106.498 29.0182 106.554C29.2749 106.615 29.5759 106.645 29.9212 106.645C30.2572 106.645 30.5582 106.615 30.8242 106.554C31.0902 106.493 31.3142 106.407 31.4962 106.295C31.6829 106.183 31.8252 106.05 31.9232 105.896C32.0212 105.742 32.0702 105.572 32.0702 105.385ZM33.3372 98.189V98.651C33.3372 98.805 33.2392 98.903 33.0432 98.945L32.2382 99.05C32.3969 99.358 32.4762 99.6987 32.4762 100.072C32.4762 100.417 32.4086 100.732 32.2732 101.017C32.1426 101.297 31.9606 101.537 31.7272 101.738C31.4939 101.939 31.2139 102.093 30.8872 102.2C30.5606 102.307 30.2059 102.361 29.8232 102.361C29.4919 102.361 29.1792 102.321 28.8852 102.242C28.7359 102.335 28.6216 102.436 28.5422 102.543C28.4629 102.646 28.4232 102.751 28.4232 102.858C28.4232 103.026 28.4909 103.154 28.6262 103.243C28.7662 103.327 28.9482 103.388 29.1722 103.425C29.3962 103.462 29.6506 103.486 29.9352 103.495C30.2246 103.504 30.5186 103.521 30.8172 103.544C31.1206 103.563 31.4146 103.598 31.6992 103.649C31.9886 103.7 32.2452 103.784 32.4692 103.901C32.6932 104.018 32.8729 104.179 33.0082 104.384C33.1482 104.589 33.2182 104.855 33.2182 105.182C33.2182 105.485 33.1412 105.779 32.9872 106.064C32.8379 106.349 32.6209 106.601 32.3362 106.82C32.0516 107.044 31.7016 107.221 31.2862 107.352C30.8756 107.487 30.4112 107.555 29.8932 107.555C29.3752 107.555 28.9226 107.504 28.5352 107.401C28.1479 107.298 27.8259 107.161 27.5692 106.988C27.3126 106.815 27.1189 106.615 26.9882 106.386C26.8622 106.162 26.7992 105.926 26.7992 105.679C26.7992 105.329 26.9089 105.033 27.1282 104.79C27.3476 104.547 27.6486 104.354 28.0312 104.209C27.8212 104.116 27.6532 103.992 27.5272 103.838C27.4059 103.679 27.3452 103.467 27.3452 103.201C27.3452 103.098 27.3639 102.993 27.4012 102.886C27.4386 102.774 27.4946 102.664 27.5692 102.557C27.6486 102.445 27.7442 102.34 27.8562 102.242C27.9682 102.144 28.0989 102.058 28.2482 101.983C27.8982 101.787 27.6252 101.528 27.4292 101.206C27.2332 100.879 27.1352 100.501 27.1352 100.072C27.1352 99.7267 27.2006 99.414 27.3312 99.134C27.4666 98.8493 27.6532 98.609 27.8912 98.413C28.1292 98.2123 28.4116 98.0583 28.7382 97.951C29.0696 97.8437 29.4312 97.79 29.8232 97.79C30.1312 97.79 30.4182 97.825 30.6842 97.895C30.9502 97.9603 31.1929 98.0583 31.4122 98.189H33.3372ZM38.4687 101.808C37.8947 101.827 37.4047 101.873 36.9987 101.948C36.5973 102.018 36.2683 102.111 36.0117 102.228C35.7597 102.345 35.5753 102.482 35.4587 102.641C35.3467 102.8 35.2907 102.977 35.2907 103.173C35.2907 103.36 35.321 103.521 35.3817 103.656C35.4423 103.791 35.524 103.903 35.6267 103.992C35.734 104.076 35.8577 104.139 35.9977 104.181C36.1423 104.218 36.2963 104.237 36.4597 104.237C36.679 104.237 36.8797 104.216 37.0617 104.174C37.2437 104.127 37.414 104.062 37.5727 103.978C37.736 103.894 37.89 103.794 38.0347 103.677C38.184 103.56 38.3287 103.427 38.4687 103.278V101.808ZM34.4437 98.91C34.8357 98.532 35.258 98.2497 35.7107 98.063C36.1633 97.8763 36.665 97.783 37.2157 97.783C37.6123 97.783 37.9647 97.8483 38.2727 97.979C38.5807 98.1097 38.8397 98.2917 39.0497 98.525C39.2597 98.7583 39.4183 99.0407 39.5257 99.372C39.633 99.7033 39.6867 100.067 39.6867 100.464V105H39.1337C39.0123 105 38.919 104.981 38.8537 104.944C38.7883 104.902 38.737 104.823 38.6997 104.706L38.5597 104.034C38.373 104.207 38.191 104.361 38.0137 104.496C37.8363 104.627 37.6497 104.739 37.4537 104.832C37.2577 104.921 37.0477 104.988 36.8237 105.035C36.6043 105.086 36.3593 105.112 36.0887 105.112C35.8133 105.112 35.5543 105.075 35.3117 105C35.069 104.921 34.8567 104.804 34.6747 104.65C34.4973 104.496 34.355 104.302 34.2477 104.069C34.145 103.831 34.0937 103.551 34.0937 103.229C34.0937 102.949 34.1707 102.681 34.3247 102.424C34.4787 102.163 34.7283 101.932 35.0737 101.731C35.419 101.53 35.8693 101.367 36.4247 101.241C36.98 101.11 37.6613 101.036 38.4687 101.017V100.464C38.4687 99.9133 38.3497 99.498 38.1117 99.218C37.8737 98.9333 37.526 98.791 37.0687 98.791C36.7607 98.791 36.5017 98.8307 36.2917 98.91C36.0863 98.9847 35.9067 99.071 35.7527 99.169C35.6033 99.2623 35.4727 99.3487 35.3607 99.428C35.2533 99.5027 35.146 99.54 35.0387 99.54C34.9547 99.54 34.8823 99.519 34.8217 99.477C34.761 99.4303 34.7097 99.3743 34.6677 99.309L34.4437 98.91ZM42.7607 98.938C42.9147 98.7653 43.078 98.609 43.2507 98.469C43.4233 98.329 43.6053 98.21 43.7967 98.112C43.9927 98.0093 44.198 97.9323 44.4127 97.881C44.632 97.825 44.8677 97.797 45.1197 97.797C45.507 97.797 45.8477 97.8623 46.1417 97.993C46.4403 98.119 46.6877 98.301 46.8837 98.539C47.0843 98.7723 47.236 99.0547 47.3387 99.386C47.4413 99.7173 47.4927 100.084 47.4927 100.485V105H46.2397V100.485C46.2397 99.9483 46.116 99.533 45.8687 99.239C45.626 98.9403 45.255 98.791 44.7557 98.791C44.387 98.791 44.0417 98.8797 43.7197 99.057C43.4023 99.2343 43.1083 99.4747 42.8377 99.778V105H41.5847V97.909H42.3337C42.511 97.909 42.6207 97.9953 42.6627 98.168L42.7607 98.938ZM50.7073 97.909V105H49.4613V97.909H50.7073ZM50.9733 95.683C50.9733 95.8043 50.9476 95.9187 50.8963 96.026C50.8496 96.1287 50.7843 96.222 50.7003 96.306C50.621 96.3853 50.5253 96.4483 50.4133 96.495C50.306 96.5417 50.1916 96.565 50.0703 96.565C49.949 96.565 49.8346 96.5417 49.7273 96.495C49.6246 96.4483 49.5336 96.3853 49.4543 96.306C49.375 96.222 49.312 96.1287 49.2653 96.026C49.2186 95.9187 49.1953 95.8043 49.1953 95.683C49.1953 95.5617 49.2186 95.4473 49.2653 95.34C49.312 95.228 49.375 95.1323 49.4543 95.053C49.5336 94.969 49.6246 94.9037 49.7273 94.857C49.8346 94.8103 49.949 94.787 50.0703 94.787C50.1916 94.787 50.306 94.8103 50.4133 94.857C50.5253 94.9037 50.621 94.969 50.7003 95.053C50.7843 95.1323 50.8496 95.228 50.8963 95.34C50.9476 95.4473 50.9733 95.5617 50.9733 95.683ZM57.6476 98.441C57.6476 98.5297 57.6312 98.616 57.5986 98.7C57.5706 98.784 57.5309 98.8563 57.4796 98.917L53.6366 104.027H57.5146V105H52.1736V104.482C52.1736 104.421 52.1876 104.351 52.2156 104.272C52.2436 104.188 52.2856 104.109 52.3416 104.034L56.2056 98.889H52.3906V97.909H57.6476V98.441ZM62.9277 101.808C62.3537 101.827 61.8637 101.873 61.4577 101.948C61.0563 102.018 60.7273 102.111 60.4707 102.228C60.2187 102.345 60.0343 102.482 59.9177 102.641C59.8057 102.8 59.7497 102.977 59.7497 103.173C59.7497 103.36 59.78 103.521 59.8407 103.656C59.9013 103.791 59.983 103.903 60.0857 103.992C60.193 104.076 60.3167 104.139 60.4567 104.181C60.6013 104.218 60.7553 104.237 60.9187 104.237C61.138 104.237 61.3387 104.216 61.5207 104.174C61.7027 104.127 61.873 104.062 62.0317 103.978C62.195 103.894 62.349 103.794 62.4937 103.677C62.643 103.56 62.7877 103.427 62.9277 103.278V101.808ZM58.9027 98.91C59.2947 98.532 59.717 98.2497 60.1697 98.063C60.6223 97.8763 61.124 97.783 61.6747 97.783C62.0713 97.783 62.4237 97.8483 62.7317 97.979C63.0397 98.1097 63.2987 98.2917 63.5087 98.525C63.7187 98.7583 63.8773 99.0407 63.9847 99.372C64.092 99.7033 64.1457 100.067 64.1457 100.464V105H63.5927C63.4713 105 63.378 104.981 63.3127 104.944C63.2473 104.902 63.196 104.823 63.1587 104.706L63.0187 104.034C62.832 104.207 62.65 104.361 62.4727 104.496C62.2953 104.627 62.1087 104.739 61.9127 104.832C61.7167 104.921 61.5067 104.988 61.2827 105.035C61.0633 105.086 60.8183 105.112 60.5477 105.112C60.2723 105.112 60.0133 105.075 59.7707 105C59.528 104.921 59.3157 104.804 59.1337 104.65C58.9563 104.496 58.814 104.302 58.7067 104.069C58.604 103.831 58.5527 103.551 58.5527 103.229C58.5527 102.949 58.6297 102.681 58.7837 102.424C58.9377 102.163 59.1873 101.932 59.5327 101.731C59.878 101.53 60.3283 101.367 60.8837 101.241C61.439 101.11 62.1203 101.036 62.9277 101.017V100.464C62.9277 99.9133 62.8087 99.498 62.5707 99.218C62.3327 98.9333 61.985 98.791 61.5277 98.791C61.2197 98.791 60.9607 98.8307 60.7507 98.91C60.5453 98.9847 60.3657 99.071 60.2117 99.169C60.0623 99.2623 59.9317 99.3487 59.8197 99.428C59.7123 99.5027 59.605 99.54 59.4977 99.54C59.4137 99.54 59.3413 99.519 59.2807 99.477C59.22 99.4303 59.1687 99.3743 59.1267 99.309L58.9027 98.91ZM71.3916 104.006C71.1256 104.337 70.799 104.589 70.4116 104.762C70.0243 104.935 69.6113 105.04 69.1726 105.077L69.0466 105.525C69.4806 105.614 69.7933 105.74 69.9846 105.903C70.176 106.066 70.2716 106.274 70.2716 106.526C70.2716 106.675 70.2343 106.811 70.1596 106.932C70.085 107.053 69.98 107.156 69.8446 107.24C69.714 107.324 69.5553 107.387 69.3686 107.429C69.1866 107.476 68.9836 107.499 68.7596 107.499C68.5683 107.499 68.384 107.478 68.2066 107.436C68.034 107.399 67.8776 107.347 67.7376 107.282L67.8496 106.897C67.8776 106.813 67.9313 106.771 68.0106 106.771C68.0386 106.771 68.0713 106.778 68.1086 106.792C68.146 106.811 68.1903 106.829 68.2416 106.848C68.2976 106.871 68.3606 106.89 68.4306 106.904C68.5053 106.923 68.594 106.932 68.6966 106.932C68.8926 106.932 69.0396 106.892 69.1376 106.813C69.2356 106.734 69.2846 106.633 69.2846 106.512C69.2846 106.335 69.1866 106.209 68.9906 106.134C68.7946 106.064 68.5193 106.006 68.1646 105.959L68.4516 105.084C68.0456 105.047 67.67 104.939 67.3246 104.762C66.984 104.58 66.6876 104.335 66.4356 104.027C66.1883 103.714 65.9946 103.343 65.8546 102.914C65.7146 102.48 65.6446 101.992 65.6446 101.451C65.6446 100.924 65.717 100.436 65.8616 99.988C66.011 99.54 66.2256 99.155 66.5056 98.833C66.7903 98.5063 67.138 98.252 67.5486 98.07C67.964 97.888 68.44 97.797 68.9766 97.797C69.476 97.797 69.9146 97.8787 70.2926 98.042C70.6753 98.2007 71.0136 98.427 71.3076 98.721L70.9786 99.169C70.9413 99.2203 70.904 99.26 70.8666 99.288C70.8293 99.316 70.778 99.33 70.7126 99.33C70.6426 99.33 70.5656 99.302 70.4816 99.246C70.3976 99.1853 70.2926 99.12 70.1666 99.05C70.0453 98.98 69.8936 98.917 69.7116 98.861C69.5343 98.8003 69.315 98.77 69.0536 98.77C68.7036 98.77 68.3956 98.833 68.1296 98.959C67.8636 99.0803 67.6396 99.2577 67.4576 99.491C67.2803 99.7243 67.145 100.007 67.0516 100.338C66.963 100.669 66.9186 101.04 66.9186 101.451C66.9186 101.88 66.9676 102.263 67.0656 102.599C67.1636 102.93 67.3013 103.21 67.4786 103.439C67.6606 103.663 67.8776 103.836 68.1296 103.957C68.3863 104.074 68.6733 104.132 68.9906 104.132C69.294 104.132 69.5436 104.097 69.7396 104.027C69.9356 103.952 70.0966 103.871 70.2226 103.782C70.3533 103.693 70.4606 103.614 70.5446 103.544C70.6333 103.469 70.7196 103.432 70.8036 103.432C70.9063 103.432 70.9856 103.472 71.0416 103.551L71.3916 104.006ZM76.5722 101.808C75.9982 101.827 75.5082 101.873 75.1022 101.948C74.7009 102.018 74.3719 102.111 74.1152 102.228C73.8632 102.345 73.6789 102.482 73.5622 102.641C73.4502 102.8 73.3942 102.977 73.3942 103.173C73.3942 103.36 73.4245 103.521 73.4852 103.656C73.5459 103.791 73.6275 103.903 73.7302 103.992C73.8375 104.076 73.9612 104.139 74.1012 104.181C74.2459 104.218 74.3999 104.237 74.5632 104.237C74.7825 104.237 74.9832 104.216 75.1652 104.174C75.3472 104.127 75.5175 104.062 75.6762 103.978C75.8395 103.894 75.9935 103.794 76.1382 103.677C76.2875 103.56 76.4322 103.427 76.5722 103.278V101.808ZM72.5472 98.91C72.9392 98.532 73.3615 98.2497 73.8142 98.063C74.2669 97.8763 74.7685 97.783 75.3192 97.783C75.7159 97.783 76.0682 97.8483 76.3762 97.979C76.6842 98.1097 76.9432 98.2917 77.1532 98.525C77.3632 98.7583 77.5219 99.0407 77.6292 99.372C77.7365 99.7033 77.7902 100.067 77.7902 100.464V105H77.2372C77.1159 105 77.0225 104.981 76.9572 104.944C76.8919 104.902 76.8405 104.823 76.8032 104.706L76.6632 104.034C76.4765 104.207 76.2945 104.361 76.1172 104.496C75.9399 104.627 75.7532 104.739 75.5572 104.832C75.3612 104.921 75.1512 104.988 74.9272 105.035C74.7079 105.086 74.4629 105.112 74.1922 105.112C73.9169 105.112 73.6579 105.075 73.4152 105C73.1725 104.921 72.9602 104.804 72.7782 104.65C72.6009 104.496 72.4585 104.302 72.3512 104.069C72.2485 103.831 72.1972 103.551 72.1972 103.229C72.1972 102.949 72.2742 102.681 72.4282 102.424C72.5822 102.163 72.8319 101.932 73.1772 101.731C73.5225 101.53 73.9729 101.367 74.5282 101.241C75.0835 101.11 75.7649 101.036 76.5722 101.017V100.464C76.5722 99.9133 76.4532 99.498 76.2152 99.218C75.9772 98.9333 75.6295 98.791 75.1722 98.791C74.8642 98.791 74.6052 98.8307 74.3952 98.91C74.1899 98.9847 74.0102 99.071 73.8562 99.169C73.7069 99.2623 73.5762 99.3487 73.4642 99.428C73.3569 99.5027 73.2495 99.54 73.1422 99.54C73.0582 99.54 72.9859 99.519 72.9252 99.477C72.8645 99.4303 72.8132 99.3743 72.7712 99.309L72.5472 98.91ZM75.9352 95.725C76.1032 95.725 76.2315 95.676 76.3202 95.578C76.4135 95.48 76.4625 95.3283 76.4672 95.123H77.2232C77.2232 95.3423 77.1929 95.5453 77.1322 95.732C77.0762 95.914 76.9922 96.0703 76.8802 96.201C76.7729 96.3317 76.6422 96.4343 76.4882 96.509C76.3389 96.579 76.1709 96.614 75.9842 96.614C75.8209 96.614 75.6669 96.5813 75.5222 96.516C75.3822 96.446 75.2492 96.3713 75.1232 96.292C74.9972 96.2127 74.8782 96.1403 74.7662 96.075C74.6542 96.005 74.5445 95.97 74.4372 95.97C74.1012 95.97 73.9285 96.1753 73.9192 96.586H73.1422C73.1422 96.362 73.1725 96.159 73.2332 95.977C73.2939 95.7903 73.3802 95.6317 73.4922 95.501C73.6042 95.3657 73.7372 95.263 73.8912 95.193C74.0452 95.1183 74.2132 95.081 74.3952 95.081C74.5585 95.081 74.7102 95.116 74.8502 95.186C74.9949 95.2513 75.1302 95.3237 75.2562 95.403C75.3822 95.4823 75.4989 95.557 75.6062 95.627C75.7182 95.6923 75.8279 95.725 75.9352 95.725ZM82.6772 97.797C83.1952 97.797 83.6618 97.8833 84.0772 98.056C84.4925 98.2287 84.8472 98.4737 85.1412 98.791C85.4352 99.1083 85.6592 99.4933 85.8132 99.946C85.9718 100.394 86.0512 100.896 86.0512 101.451C86.0512 102.011 85.9718 102.515 85.8132 102.963C85.6592 103.411 85.4352 103.794 85.1412 104.111C84.8472 104.428 84.4925 104.673 84.0772 104.846C83.6618 105.014 83.1952 105.098 82.6772 105.098C82.1545 105.098 81.6832 105.014 81.2632 104.846C80.8478 104.673 80.4932 104.428 80.1992 104.111C79.9052 103.794 79.6788 103.411 79.5202 102.963C79.3662 102.515 79.2892 102.011 79.2892 101.451C79.2892 100.896 79.3662 100.394 79.5202 99.946C79.6788 99.4933 79.9052 99.1083 80.1992 98.791C80.4932 98.4737 80.8478 98.2287 81.2632 98.056C81.6832 97.8833 82.1545 97.797 82.6772 97.797ZM82.6772 104.125C83.3772 104.125 83.8998 103.892 84.2452 103.425C84.5905 102.954 84.7632 102.298 84.7632 101.458C84.7632 100.613 84.5905 99.9553 84.2452 99.484C83.8998 99.0127 83.3772 98.777 82.6772 98.777C82.3225 98.777 82.0122 98.8377 81.7462 98.959C81.4848 99.0803 81.2655 99.2553 81.0882 99.484C80.9155 99.7127 80.7848 99.995 80.6962 100.331C80.6122 100.662 80.5702 101.038 80.5702 101.458C80.5702 102.298 80.7428 102.954 81.0882 103.425C81.4382 103.892 81.9678 104.125 82.6772 104.125Z" fill="#444444"/>
<path d="M93.0152 47.99C93.0172 56.6838 90.4371 65.183 85.6015 72.4126C80.7658 79.6421 73.8916 85.2772 65.8485 88.6051C57.8054 91.933 48.9545 92.8043 40.4155 91.1087C31.8764 89.4131 24.0328 85.2268 17.8765 79.0793C11.7203 72.9318 7.52802 65.0993 5.83001 56.5723C4.13199 48.0454 5.00449 39.2071 8.33715 31.1754C11.6698 23.1437 17.3129 16.2793 24.5527 11.4505C31.7925 6.62171 40.3038 4.04537 49.0101 4.04736C60.6809 4.04736 71.8738 8.67702 80.1264 16.9179C88.3789 25.1587 93.0152 36.3357 93.0152 47.99Z" fill="white"/>
<mask id="path-3-inside-1" fill="white">
<path fill-rule="evenodd" clip-rule="evenodd" d="M26.0521 26.2559C24.4665 26.2559 23.1812 27.5412 23.1812 29.1268C23.1812 30.663 24.3877 31.9174 25.9049 31.994V44.1079C25.9049 45.7648 27.248 47.1079 28.9049 47.1079H61.9445C63.6014 47.1079 64.9445 45.7648 64.9445 44.1079V31.8424C66.0716 31.4548 66.8814 30.3854 66.8814 29.1268C66.8814 27.5412 65.596 26.2559 64.0105 26.2559H26.0521Z"/>
</mask>
<path d="M25.9049 31.994H27.4049V30.5679L25.9805 30.4959L25.9049 31.994ZM64.9445 31.8424L64.4567 30.4239L63.4445 30.772V31.8424H64.9445ZM24.6812 29.1268C24.6812 28.3696 25.2949 27.7559 26.0521 27.7559V24.7559C23.6381 24.7559 21.6812 26.7128 21.6812 29.1268H24.6812ZM25.9805 30.4959C25.2573 30.4594 24.6812 29.8599 24.6812 29.1268H21.6812C21.6812 31.4661 23.5181 33.3754 25.8292 33.4921L25.9805 30.4959ZM27.4049 44.1079V31.994H24.4049V44.1079H27.4049ZM28.9049 45.6079C28.0764 45.6079 27.4049 44.9363 27.4049 44.1079H24.4049C24.4049 46.5932 26.4196 48.6079 28.9049 48.6079V45.6079ZM61.9445 45.6079H28.9049V48.6079H61.9445V45.6079ZM63.4445 44.1079C63.4445 44.9363 62.773 45.6079 61.9445 45.6079V48.6079C64.4298 48.6079 66.4445 46.5932 66.4445 44.1079H63.4445ZM63.4445 31.8424V44.1079H66.4445V31.8424H63.4445ZM65.3814 29.1268C65.3814 29.7255 64.9968 30.2382 64.4567 30.4239L65.4324 33.2608C67.1463 32.6714 68.3814 31.0453 68.3814 29.1268H65.3814ZM64.0105 27.7559C64.7676 27.7559 65.3814 28.3697 65.3814 29.1268H68.3814C68.3814 26.7128 66.4245 24.7559 64.0105 24.7559V27.7559ZM26.0521 27.7559H64.0105V24.7559H26.0521V27.7559Z" fill="#444444" mask="url(#path-3-inside-1)"/>
<mask id="path-5-inside-2" fill="white">
<path fill-rule="evenodd" clip-rule="evenodd" d="M34.5254 46.2014C32.773 46.2014 31.3523 47.6221 31.3523 49.3746C31.3523 50.7798 32.2658 51.9717 33.5313 52.3888V67.7407C33.5313 69.3975 34.8744 70.7407 36.5313 70.7407H69.6315C71.2884 70.7407 72.6315 69.3975 72.6315 67.7407V52.426C73.9594 52.0468 74.9315 50.8242 74.9315 49.3746C74.9315 47.6221 73.5108 46.2014 71.7584 46.2014H34.5254Z"/>
</mask>
<path d="M33.5313 52.3888H35.0313V51.3039L34.0009 50.9642L33.5313 52.3888ZM72.6315 52.426L72.2196 50.9837L71.1315 51.2945V52.426H72.6315ZM32.8523 49.3746C32.8523 48.4505 33.6014 47.7014 34.5254 47.7014V44.7014C31.9445 44.7014 29.8523 46.7937 29.8523 49.3746H32.8523ZM34.0009 50.9642C33.332 50.7437 32.8523 50.1132 32.8523 49.3746H29.8523C29.8523 51.4464 31.1996 53.1996 33.0617 53.8134L34.0009 50.9642ZM35.0313 67.7407V52.3888H32.0313V67.7407H35.0313ZM36.5313 69.2407C35.7029 69.2407 35.0313 68.5691 35.0313 67.7407H32.0313C32.0313 70.2259 34.046 72.2407 36.5313 72.2407V69.2407ZM69.6315 69.2407H36.5313V72.2407H69.6315V69.2407ZM71.1315 67.7407C71.1315 68.5691 70.4599 69.2407 69.6315 69.2407V72.2407C72.1168 72.2407 74.1315 70.2259 74.1315 67.7407H71.1315ZM71.1315 52.426V67.7407H74.1315V52.426H71.1315ZM73.4315 49.3746C73.4315 50.1367 72.9206 50.7835 72.2196 50.9837L73.0434 53.8684C74.9982 53.3101 76.4315 51.5116 76.4315 49.3746H73.4315ZM71.7584 47.7014C72.6824 47.7014 73.4315 48.4505 73.4315 49.3746H76.4315C76.4315 46.7937 74.3393 44.7014 71.7584 44.7014V47.7014ZM34.5254 47.7014H71.7584V44.7014H34.5254V47.7014Z" fill="#444444" mask="url(#path-5-inside-2)"/>
<rect x="46.9314" y="54.2651" width="12.3001" height="3.0935" rx="1.54675" stroke="#444444" stroke-width="1.5"/>
<line x1="37.3813" y1="67.6941" x2="37.3813" y2="64.6006" stroke="#444444" stroke-width="1.5" stroke-linecap="round"/>
<line x1="40.8314" y1="67.6941" x2="40.8314" y2="64.6006" stroke="#444444" stroke-width="1.5" stroke-linecap="round"/>
<line x1="44.2814" y1="67.6941" x2="44.2814" y2="64.6006" stroke="#444444" stroke-width="1.5" stroke-linecap="round"/>
<line x1="47.7314" y1="67.6941" x2="47.7314" y2="64.6006" stroke="#444444" stroke-width="1.5" stroke-linecap="round"/>
<line x1="51.1815" y1="67.6941" x2="51.1815" y2="64.6006" stroke="#444444" stroke-width="1.5" stroke-linecap="round"/>
<line x1="54.6313" y1="67.6941" x2="54.6313" y2="64.6006" stroke="#444444" stroke-width="1.5" stroke-linecap="round"/>
<line x1="58.0814" y1="67.6941" x2="58.0814" y2="64.6006" stroke="#444444" stroke-width="1.5" stroke-linecap="round"/>
<line x1="61.5315" y1="67.6941" x2="61.5315" y2="64.6006" stroke="#444444" stroke-width="1.5" stroke-linecap="round"/>
<line x1="64.9816" y1="67.6941" x2="64.9816" y2="64.6006" stroke="#444444" stroke-width="1.5" stroke-linecap="round"/>
<line x1="68.4316" y1="67.6941" x2="68.4316" y2="64.6006" stroke="#444444" stroke-width="1.5" stroke-linecap="round"/>
<rect x="38.8811" y="33.8962" width="12.3001" height="3.09349" rx="1.54675" stroke="#444444" stroke-width="1.5"/>
<line x1="24.9969" y1="31.0059" x2="64.9445" y2="31.0059" stroke="#444444" stroke-width="1.5"/>
<line x1="34.0759" y1="51.7976" x2="72.2077" y2="51.7976" stroke="#444444" stroke-width="1.5"/>
</svg>
