<svg width="96" height="131" viewBox="0 0 96 131" fill="none" xmlns="http://www.w3.org/2000/svg">
<path d="M24.701 100.17C25.0883 100.17 25.429 100.119 25.723 100.016C26.0217 99.9133 26.2713 99.771 26.472 99.589C26.6773 99.4023 26.8313 99.1807 26.934 98.924C27.0367 98.6673 27.088 98.385 27.088 98.077C27.088 97.4377 26.8897 96.9383 26.493 96.579C26.101 96.2197 25.5037 96.04 24.701 96.04H23.091V100.17H24.701ZM24.701 94.969C25.3357 94.969 25.8863 95.0437 26.353 95.193C26.8243 95.3377 27.214 95.5453 27.522 95.816C27.83 96.0867 28.0587 96.4133 28.208 96.796C28.362 97.1787 28.439 97.6057 28.439 98.077C28.439 98.5437 28.3573 98.9707 28.194 99.358C28.0307 99.7453 27.7903 100.079 27.473 100.359C27.1603 100.639 26.7707 100.858 26.304 101.017C25.842 101.171 25.3077 101.248 24.701 101.248H23.091V105H21.74V94.969H24.701ZM33.4784 101.808C32.9044 101.827 32.4144 101.873 32.0084 101.948C31.6071 102.018 31.2781 102.111 31.0214 102.228C30.7694 102.345 30.5851 102.482 30.4684 102.641C30.3564 102.8 30.3004 102.977 30.3004 103.173C30.3004 103.36 30.3308 103.521 30.3914 103.656C30.4521 103.791 30.5338 103.903 30.6364 103.992C30.7438 104.076 30.8674 104.139 31.0074 104.181C31.1521 104.218 31.3061 104.237 31.4694 104.237C31.6888 104.237 31.8894 104.216 32.0714 104.174C32.2534 104.127 32.4238 104.062 32.5824 103.978C32.7458 103.894 32.8998 103.794 33.0444 103.677C33.1938 103.56 33.3384 103.427 33.4784 103.278V101.808ZM29.4534 98.91C29.8454 98.532 30.2678 98.2497 30.7204 98.063C31.1731 97.8763 31.6748 97.783 32.2254 97.783C32.6221 97.783 32.9744 97.8483 33.2824 97.979C33.5904 98.1097 33.8494 98.2917 34.0594 98.525C34.2694 98.7583 34.4281 99.0407 34.5354 99.372C34.6428 99.7033 34.6964 100.067 34.6964 100.464V105H34.1434C34.0221 105 33.9288 104.981 33.8634 104.944C33.7981 104.902 33.7468 104.823 33.7094 104.706L33.5694 104.034C33.3828 104.207 33.2008 104.361 33.0234 104.496C32.8461 104.627 32.6594 104.739 32.4634 104.832C32.2674 104.921 32.0574 104.988 31.8334 105.035C31.6141 105.086 31.3691 105.112 31.0984 105.112C30.8231 105.112 30.5641 105.075 30.3214 105C30.0788 104.921 29.8664 104.804 29.6844 104.65C29.5071 104.496 29.3648 104.302 29.2574 104.069C29.1548 103.831 29.1034 103.551 29.1034 103.229C29.1034 102.949 29.1804 102.681 29.3344 102.424C29.4884 102.163 29.7381 101.932 30.0834 101.731C30.4288 101.53 30.8791 101.367 31.4344 101.241C31.9898 101.11 32.6711 101.036 33.4784 101.017V100.464C33.4784 99.9133 33.3594 99.498 33.1214 99.218C32.8834 98.9333 32.5358 98.791 32.0784 98.791C31.7704 98.791 31.5114 98.8307 31.3014 98.91C31.0961 98.9847 30.9164 99.071 30.7624 99.169C30.6131 99.2623 30.4824 99.3487 30.3704 99.428C30.2631 99.5027 30.1558 99.54 30.0484 99.54C29.9644 99.54 29.8921 99.519 29.8314 99.477C29.7708 99.4303 29.7194 99.3743 29.6774 99.309L29.4534 98.91ZM37.8474 103.292C38.0761 103.6 38.3258 103.817 38.5964 103.943C38.8671 104.069 39.1704 104.132 39.5064 104.132C40.1691 104.132 40.6778 103.896 41.0324 103.425C41.3871 102.954 41.5644 102.282 41.5644 101.409C41.5644 100.947 41.5224 100.55 41.4384 100.219C41.3591 99.8877 41.2424 99.617 41.0884 99.407C40.9344 99.1923 40.7454 99.036 40.5214 98.938C40.2974 98.84 40.0431 98.791 39.7584 98.791C39.3524 98.791 38.9954 98.8843 38.6874 99.071C38.3841 99.2577 38.1041 99.5213 37.8474 99.862V103.292ZM37.7844 99.008C38.0831 98.6393 38.4284 98.343 38.8204 98.119C39.2124 97.895 39.6604 97.783 40.1644 97.783C40.5751 97.783 40.9461 97.8623 41.2774 98.021C41.6088 98.175 41.8911 98.406 42.1244 98.714C42.3578 99.0173 42.5374 99.3953 42.6634 99.848C42.7894 100.301 42.8524 100.821 42.8524 101.409C42.8524 101.932 42.7824 102.419 42.6424 102.872C42.5024 103.32 42.2994 103.71 42.0334 104.041C41.7721 104.368 41.4501 104.627 41.0674 104.818C40.6894 105.005 40.2624 105.098 39.7864 105.098C39.3524 105.098 38.9791 105.026 38.6664 104.881C38.3584 104.732 38.0854 104.526 37.8474 104.265V107.401H36.5944V97.909H37.3434C37.5208 97.909 37.6304 97.9953 37.6724 98.168L37.7844 99.008ZM49.1881 100.681C49.1881 100.392 49.1461 100.128 49.0621 99.89C48.9827 99.6473 48.8637 99.4397 48.7051 99.267C48.5511 99.0897 48.3621 98.9543 48.1381 98.861C47.9141 98.763 47.6597 98.714 47.3751 98.714C46.7777 98.714 46.3041 98.889 45.9541 99.239C45.6087 99.5843 45.3941 100.065 45.3101 100.681H49.1881ZM50.1961 104.006C50.0421 104.193 49.8577 104.356 49.6431 104.496C49.4284 104.631 49.1974 104.743 48.9501 104.832C48.7074 104.921 48.4554 104.986 48.1941 105.028C47.9327 105.075 47.6737 105.098 47.4171 105.098C46.9271 105.098 46.4744 105.016 46.0591 104.853C45.6484 104.685 45.2914 104.442 44.9881 104.125C44.6894 103.803 44.4561 103.406 44.2881 102.935C44.1201 102.464 44.0361 101.922 44.0361 101.311C44.0361 100.816 44.1107 100.354 44.2601 99.925C44.4141 99.4957 44.6334 99.1247 44.9181 98.812C45.2027 98.4947 45.5504 98.2473 45.9611 98.07C46.3717 97.888 46.8337 97.797 47.3471 97.797C47.7717 97.797 48.1637 97.8693 48.5231 98.014C48.8871 98.154 49.1997 98.3593 49.4611 98.63C49.7271 98.896 49.9347 99.2273 50.0841 99.624C50.2334 100.016 50.3081 100.464 50.3081 100.968C50.3081 101.164 50.2871 101.295 50.2451 101.36C50.2031 101.425 50.1237 101.458 50.0071 101.458H45.2681C45.2821 101.906 45.3427 102.296 45.4501 102.627C45.5621 102.958 45.7161 103.236 45.9121 103.46C46.1081 103.679 46.3414 103.845 46.6121 103.957C46.8827 104.064 47.1861 104.118 47.5221 104.118C47.8347 104.118 48.1031 104.083 48.3271 104.013C48.5557 103.938 48.7517 103.859 48.9151 103.775C49.0784 103.691 49.2137 103.614 49.3211 103.544C49.4331 103.469 49.5287 103.432 49.6081 103.432C49.7107 103.432 49.7901 103.472 49.8461 103.551L50.1961 104.006ZM53.1266 94.689V105H51.8806V94.689H53.1266ZM58.9902 101.808C58.4162 101.827 57.9262 101.873 57.5202 101.948C57.1188 102.018 56.7898 102.111 56.5332 102.228C56.2812 102.345 56.0968 102.482 55.9802 102.641C55.8682 102.8 55.8122 102.977 55.8122 103.173C55.8122 103.36 55.8425 103.521 55.9032 103.656C55.9638 103.791 56.0455 103.903 56.1482 103.992C56.2555 104.076 56.3792 104.139 56.5192 104.181C56.6638 104.218 56.8178 104.237 56.9812 104.237C57.2005 104.237 57.4012 104.216 57.5832 104.174C57.7652 104.127 57.9355 104.062 58.0942 103.978C58.2575 103.894 58.4115 103.794 58.5562 103.677C58.7055 103.56 58.8502 103.427 58.9902 103.278V101.808ZM54.9652 98.91C55.3572 98.532 55.7795 98.2497 56.2322 98.063C56.6848 97.8763 57.1865 97.783 57.7372 97.783C58.1338 97.783 58.4862 97.8483 58.7942 97.979C59.1022 98.1097 59.3612 98.2917 59.5712 98.525C59.7812 98.7583 59.9398 99.0407 60.0472 99.372C60.1545 99.7033 60.2082 100.067 60.2082 100.464V105H59.6552C59.5338 105 59.4405 104.981 59.3752 104.944C59.3098 104.902 59.2585 104.823 59.2212 104.706L59.0812 104.034C58.8945 104.207 58.7125 104.361 58.5352 104.496C58.3578 104.627 58.1712 104.739 57.9752 104.832C57.7792 104.921 57.5692 104.988 57.3452 105.035C57.1258 105.086 56.8808 105.112 56.6102 105.112C56.3348 105.112 56.0758 105.075 55.8332 105C55.5905 104.921 55.3782 104.804 55.1962 104.65C55.0188 104.496 54.8765 104.302 54.7692 104.069C54.6665 103.831 54.6152 103.551 54.6152 103.229C54.6152 102.949 54.6922 102.681 54.8462 102.424C55.0002 102.163 55.2498 101.932 55.5952 101.731C55.9405 101.53 56.3908 101.367 56.9462 101.241C57.5015 101.11 58.1828 101.036 58.9902 101.017V100.464C58.9902 99.9133 58.8712 99.498 58.6332 99.218C58.3952 98.9333 58.0475 98.791 57.5902 98.791C57.2822 98.791 57.0232 98.8307 56.8132 98.91C56.6078 98.9847 56.4282 99.071 56.2742 99.169C56.1248 99.2623 55.9942 99.3487 55.8822 99.428C55.7748 99.5027 55.6675 99.54 55.5602 99.54C55.4762 99.54 55.4038 99.519 55.3432 99.477C55.2825 99.4303 55.2312 99.3743 55.1892 99.309L54.9652 98.91ZM63.2891 99.33C63.5131 98.8447 63.7885 98.4667 64.1151 98.196C64.4418 97.9207 64.8408 97.783 65.3121 97.783C65.4615 97.783 65.6038 97.7993 65.7391 97.832C65.8791 97.8647 66.0028 97.916 66.1101 97.986L66.0191 98.917C65.9911 99.0337 65.9211 99.092 65.8091 99.092C65.7438 99.092 65.6481 99.078 65.5221 99.05C65.3961 99.022 65.2538 99.008 65.0951 99.008C64.8711 99.008 64.6705 99.0407 64.4931 99.106C64.3205 99.1713 64.1641 99.2693 64.0241 99.4C63.8888 99.526 63.7651 99.6847 63.6531 99.876C63.5458 100.063 63.4478 100.277 63.3591 100.52V105H62.1061V97.909H62.8201C62.9555 97.909 63.0488 97.9347 63.1001 97.986C63.1515 98.0373 63.1865 98.126 63.2051 98.252L63.2891 99.33ZM68.5218 97.909V105H67.2758V97.909H68.5218ZM68.7878 95.683C68.7878 95.8043 68.7621 95.9187 68.7108 96.026C68.6641 96.1287 68.5988 96.222 68.5148 96.306C68.4354 96.3853 68.3398 96.4483 68.2278 96.495C68.1204 96.5417 68.0061 96.565 67.8848 96.565C67.7634 96.565 67.6491 96.5417 67.5418 96.495C67.4391 96.4483 67.3481 96.3853 67.2688 96.306C67.1894 96.222 67.1264 96.1287 67.0798 96.026C67.0331 95.9187 67.0098 95.8043 67.0098 95.683C67.0098 95.5617 67.0331 95.4473 67.0798 95.34C67.1264 95.228 67.1894 95.1323 67.2688 95.053C67.3481 94.969 67.4391 94.9037 67.5418 94.857C67.6491 94.8103 67.7634 94.787 67.8848 94.787C68.0061 94.787 68.1204 94.8103 68.2278 94.857C68.3398 94.9037 68.4354 94.969 68.5148 95.053C68.5988 95.1323 68.6641 95.228 68.7108 95.34C68.7621 95.4473 68.7878 95.5617 68.7878 95.683ZM74.412 101.808C73.838 101.827 73.348 101.873 72.942 101.948C72.5407 102.018 72.2117 102.111 71.955 102.228C71.703 102.345 71.5187 102.482 71.402 102.641C71.29 102.8 71.234 102.977 71.234 103.173C71.234 103.36 71.2644 103.521 71.325 103.656C71.3857 103.791 71.4674 103.903 71.57 103.992C71.6774 104.076 71.801 104.139 71.941 104.181C72.0857 104.218 72.2397 104.237 72.403 104.237C72.6224 104.237 72.823 104.216 73.005 104.174C73.187 104.127 73.3574 104.062 73.516 103.978C73.6794 103.894 73.8334 103.794 73.978 103.677C74.1274 103.56 74.272 103.427 74.412 103.278V101.808ZM70.387 98.91C70.779 98.532 71.2014 98.2497 71.654 98.063C72.1067 97.8763 72.6084 97.783 73.159 97.783C73.5557 97.783 73.908 97.8483 74.216 97.979C74.524 98.1097 74.783 98.2917 74.993 98.525C75.203 98.7583 75.3617 99.0407 75.469 99.372C75.5764 99.7033 75.63 100.067 75.63 100.464V105H75.077C74.9557 105 74.8624 104.981 74.797 104.944C74.7317 104.902 74.6804 104.823 74.643 104.706L74.503 104.034C74.3164 104.207 74.1344 104.361 73.957 104.496C73.7797 104.627 73.593 104.739 73.397 104.832C73.201 104.921 72.991 104.988 72.767 105.035C72.5477 105.086 72.3027 105.112 72.032 105.112C71.7567 105.112 71.4977 105.075 71.255 105C71.0124 104.921 70.8 104.804 70.618 104.65C70.4407 104.496 70.2984 104.302 70.191 104.069C70.0884 103.831 70.037 103.551 70.037 103.229C70.037 102.949 70.114 102.681 70.268 102.424C70.422 102.163 70.6717 101.932 71.017 101.731C71.3624 101.53 71.8127 101.367 72.368 101.241C72.9234 101.11 73.6047 101.036 74.412 101.017V100.464C74.412 99.9133 74.293 99.498 74.055 99.218C73.817 98.9333 73.4694 98.791 73.012 98.791C72.704 98.791 72.445 98.8307 72.235 98.91C72.0297 98.9847 71.85 99.071 71.696 99.169C71.5467 99.2623 71.416 99.3487 71.304 99.428C71.1967 99.5027 71.0894 99.54 70.982 99.54C70.898 99.54 70.8257 99.519 70.765 99.477C70.7044 99.4303 70.653 99.3743 70.611 99.309L70.387 98.91Z" fill="#444444"/>
<path d="M90.8714 47.9526C90.8734 56.2356 88.4188 64.333 83.8182 71.2209C79.2176 78.1087 72.6777 83.4774 65.0256 86.6481C57.3735 89.8187 48.953 90.6488 40.829 89.0333C32.7051 87.4179 25.2428 83.4294 19.3859 77.5725C13.5289 71.7156 9.54048 64.2532 7.92502 56.1293C6.30956 48.0054 7.13964 39.5849 10.3103 31.9328C13.4809 24.2807 18.8497 17.7407 25.7375 13.1402C32.6253 8.53958 40.7228 6.08501 49.0058 6.08692C60.1092 6.08692 70.7579 10.4977 78.6093 18.3491C86.4606 26.2004 90.8714 36.8491 90.8714 47.9526Z" fill="white"/>
<path d="M68.9336 34.2477C68.9281 34.0321 68.8423 33.8263 68.6931 33.6707L63.2784 28.2655C63.1251 28.1128 62.9176 28.0271 62.7013 28.0271C62.485 28.0271 62.2775 28.1128 62.1243 28.2655L34.9928 55.3969L34.0311 56.3587C33.9354 56.4474 33.8656 56.5605 33.8291 56.6857L31.367 64.3798L29.328 66.515C29.1753 66.6682 29.0896 66.8757 29.0896 67.092C29.0896 67.3083 29.1753 67.5158 29.328 67.6691C29.4831 67.8181 29.6901 67.9009 29.9051 67.8999C30.0126 67.9013 30.1192 67.8806 30.2185 67.8393C30.3177 67.798 30.4074 67.7368 30.4822 67.6595L32.5596 65.5532L40.2537 63.1007C40.3752 63.0561 40.4864 62.9874 40.5807 62.8987L64.1055 39.4124C64.1754 39.3765 64.2401 39.3312 64.2978 39.2778C64.3543 39.2226 64.4 39.1573 64.4325 39.0854L68.6931 34.8248C68.844 34.6702 68.93 34.4637 68.9336 34.2477ZM40.975 60.2154L39.4266 58.6573L61.0182 37.1523L62.5378 38.6718L40.975 60.2154ZM38.2725 57.5128L36.724 55.9355L58.2868 34.4112L59.8641 35.9981L38.2725 57.5128ZM33.3675 63.6297L35.3487 57.3974L35.5699 57.1762L37.6858 59.2921L39.8113 61.408L39.5901 61.6292L33.3675 63.6297ZM63.6535 37.5177L59.4025 33.2571L62.6917 29.9679L66.9523 34.2189L63.6535 37.5177Z" fill="#444444"/>
</svg>
