<svg width="96" height="131" viewBox="0 0 96 131" fill="none" xmlns="http://www.w3.org/2000/svg">
<path d="M28.8921 96.11H25.6441V105H24.2931V96.11H21.0381V94.969H28.8921V96.11ZM33.1236 100.681C33.1236 100.392 33.0816 100.128 32.9976 99.89C32.9183 99.6473 32.7993 99.4397 32.6406 99.267C32.4866 99.0897 32.2976 98.9543 32.0736 98.861C31.8496 98.763 31.5953 98.714 31.3106 98.714C30.7133 98.714 30.2396 98.889 29.8896 99.239C29.5443 99.5843 29.3296 100.065 29.2456 100.681H33.1236ZM34.1316 104.006C33.9776 104.193 33.7933 104.356 33.5786 104.496C33.364 104.631 33.133 104.743 32.8856 104.832C32.643 104.921 32.391 104.986 32.1296 105.028C31.8683 105.075 31.6093 105.098 31.3526 105.098C30.8626 105.098 30.41 105.016 29.9946 104.853C29.584 104.685 29.227 104.442 28.9236 104.125C28.625 103.803 28.3916 103.406 28.2236 102.935C28.0556 102.464 27.9716 101.922 27.9716 101.311C27.9716 100.816 28.0463 100.354 28.1956 99.925C28.3496 99.4957 28.569 99.1247 28.8536 98.812C29.1383 98.4947 29.486 98.2473 29.8966 98.07C30.3073 97.888 30.7693 97.797 31.2826 97.797C31.7073 97.797 32.0993 97.8693 32.4586 98.014C32.8226 98.154 33.1353 98.3593 33.3966 98.63C33.6626 98.896 33.8703 99.2273 34.0196 99.624C34.169 100.016 34.2436 100.464 34.2436 100.968C34.2436 101.164 34.2226 101.295 34.1806 101.36C34.1386 101.425 34.0593 101.458 33.9426 101.458H29.2036C29.2176 101.906 29.2783 102.296 29.3856 102.627C29.4976 102.958 29.6516 103.236 29.8476 103.46C30.0436 103.679 30.277 103.845 30.5476 103.957C30.8183 104.064 31.1216 104.118 31.4576 104.118C31.7703 104.118 32.0386 104.083 32.2626 104.013C32.4913 103.938 32.6873 103.859 32.8506 103.775C33.014 103.691 33.1493 103.614 33.2566 103.544C33.3686 103.469 33.4643 103.432 33.5436 103.432C33.6463 103.432 33.7256 103.472 33.7816 103.551L34.1316 104.006ZM37.0621 94.689V105H35.8161V94.689H37.0621ZM43.8287 100.681C43.8287 100.392 43.7867 100.128 43.7027 99.89C43.6234 99.6473 43.5044 99.4397 43.3457 99.267C43.1917 99.0897 43.0027 98.9543 42.7787 98.861C42.5547 98.763 42.3004 98.714 42.0157 98.714C41.4184 98.714 40.9447 98.889 40.5947 99.239C40.2494 99.5843 40.0347 100.065 39.9507 100.681H43.8287ZM44.8367 104.006C44.6827 104.193 44.4984 104.356 44.2837 104.496C44.069 104.631 43.838 104.743 43.5907 104.832C43.348 104.921 43.096 104.986 42.8347 105.028C42.5734 105.075 42.3144 105.098 42.0577 105.098C41.5677 105.098 41.115 105.016 40.6997 104.853C40.289 104.685 39.932 104.442 39.6287 104.125C39.33 103.803 39.0967 103.406 38.9287 102.935C38.7607 102.464 38.6767 101.922 38.6767 101.311C38.6767 100.816 38.7514 100.354 38.9007 99.925C39.0547 99.4957 39.274 99.1247 39.5587 98.812C39.8434 98.4947 40.191 98.2473 40.6017 98.07C41.0124 97.888 41.4744 97.797 41.9877 97.797C42.4124 97.797 42.8044 97.8693 43.1637 98.014C43.5277 98.154 43.8404 98.3593 44.1017 98.63C44.3677 98.896 44.5754 99.2273 44.7247 99.624C44.874 100.016 44.9487 100.464 44.9487 100.968C44.9487 101.164 44.9277 101.295 44.8857 101.36C44.8437 101.425 44.7644 101.458 44.6477 101.458H39.9087C39.9227 101.906 39.9834 102.296 40.0907 102.627C40.2027 102.958 40.3567 103.236 40.5527 103.46C40.7487 103.679 40.982 103.845 41.2527 103.957C41.5234 104.064 41.8267 104.118 42.1627 104.118C42.4754 104.118 42.7437 104.083 42.9677 104.013C43.1964 103.938 43.3924 103.859 43.5557 103.775C43.719 103.691 43.8544 103.614 43.9617 103.544C44.0737 103.469 44.1694 103.432 44.2487 103.432C44.3514 103.432 44.4307 103.472 44.4867 103.551L44.8367 104.006ZM46.8728 105V98.973L46.0888 98.882C45.9908 98.8587 45.9092 98.8237 45.8438 98.777C45.7832 98.7257 45.7528 98.6533 45.7528 98.56V98.049H46.8728V97.363C46.8728 96.957 46.9288 96.5977 47.0408 96.285C47.1575 95.9677 47.3208 95.7017 47.5308 95.487C47.7455 95.2677 48.0022 95.102 48.3008 94.99C48.5995 94.878 48.9355 94.822 49.3088 94.822C49.6262 94.822 49.9178 94.8687 50.1838 94.962L50.1558 95.585C50.1465 95.697 50.0835 95.7577 49.9668 95.767C49.8548 95.7763 49.7032 95.781 49.5118 95.781C49.2972 95.781 49.1012 95.809 48.9238 95.865C48.7512 95.921 48.6018 96.012 48.4758 96.138C48.3498 96.264 48.2518 96.4297 48.1818 96.635C48.1165 96.8403 48.0838 97.0947 48.0838 97.398V98.049H50.1278V98.952H48.1258V105H46.8728ZM54.0756 97.797C54.5936 97.797 55.0603 97.8833 55.4756 98.056C55.8909 98.2287 56.2456 98.4737 56.5396 98.791C56.8336 99.1083 57.0576 99.4933 57.2116 99.946C57.3703 100.394 57.4496 100.896 57.4496 101.451C57.4496 102.011 57.3703 102.515 57.2116 102.963C57.0576 103.411 56.8336 103.794 56.5396 104.111C56.2456 104.428 55.8909 104.673 55.4756 104.846C55.0603 105.014 54.5936 105.098 54.0756 105.098C53.5529 105.098 53.0816 105.014 52.6616 104.846C52.2463 104.673 51.8916 104.428 51.5976 104.111C51.3036 103.794 51.0773 103.411 50.9186 102.963C50.7646 102.515 50.6876 102.011 50.6876 101.451C50.6876 100.896 50.7646 100.394 50.9186 99.946C51.0773 99.4933 51.3036 99.1083 51.5976 98.791C51.8916 98.4737 52.2463 98.2287 52.6616 98.056C53.0816 97.8833 53.5529 97.797 54.0756 97.797ZM54.0756 104.125C54.7756 104.125 55.2983 103.892 55.6436 103.425C55.9889 102.954 56.1616 102.298 56.1616 101.458C56.1616 100.613 55.9889 99.9553 55.6436 99.484C55.2983 99.0127 54.7756 98.777 54.0756 98.777C53.7209 98.777 53.4106 98.8377 53.1446 98.959C52.8833 99.0803 52.6639 99.2553 52.4866 99.484C52.3139 99.7127 52.1833 99.995 52.0946 100.331C52.0106 100.662 51.9686 101.038 51.9686 101.458C51.9686 102.298 52.1413 102.954 52.4866 103.425C52.8366 103.892 53.3663 104.125 54.0756 104.125ZM60.206 98.938C60.36 98.7653 60.5233 98.609 60.696 98.469C60.8686 98.329 61.0506 98.21 61.242 98.112C61.438 98.0093 61.6433 97.9323 61.858 97.881C62.0773 97.825 62.313 97.797 62.565 97.797C62.9523 97.797 63.293 97.8623 63.587 97.993C63.8856 98.119 64.133 98.301 64.329 98.539C64.5296 98.7723 64.6813 99.0547 64.784 99.386C64.8866 99.7173 64.938 100.084 64.938 100.485V105H63.685V100.485C63.685 99.9483 63.5613 99.533 63.314 99.239C63.0713 98.9403 62.7003 98.791 62.201 98.791C61.8323 98.791 61.487 98.8797 61.165 99.057C60.8476 99.2343 60.5536 99.4747 60.283 99.778V105H59.03V97.909H59.779C59.9563 97.909 60.066 97.9953 60.108 98.168L60.206 98.938ZM68.1526 97.909V105H66.9066V97.909H68.1526ZM68.4186 95.683C68.4186 95.8043 68.3929 95.9187 68.3416 96.026C68.2949 96.1287 68.2296 96.222 68.1456 96.306C68.0663 96.3853 67.9706 96.4483 67.8586 96.495C67.7513 96.5417 67.6369 96.565 67.5156 96.565C67.3943 96.565 67.2799 96.5417 67.1726 96.495C67.0699 96.4483 66.9789 96.3853 66.8996 96.306C66.8203 96.222 66.7573 96.1287 66.7106 96.026C66.6639 95.9187 66.6406 95.8043 66.6406 95.683C66.6406 95.5617 66.6639 95.4473 66.7106 95.34C66.7573 95.228 66.8203 95.1323 66.8996 95.053C66.9789 94.969 67.0699 94.9037 67.1726 94.857C67.2799 94.8103 67.3943 94.787 67.5156 94.787C67.6369 94.787 67.7513 94.8103 67.8586 94.857C67.9706 94.9037 68.0663 94.969 68.1456 95.053C68.2296 95.1323 68.2949 95.228 68.3416 95.34C68.3929 95.4473 68.4186 95.5617 68.4186 95.683ZM74.0429 101.808C73.4689 101.827 72.9789 101.873 72.5729 101.948C72.1716 102.018 71.8426 102.111 71.5859 102.228C71.3339 102.345 71.1496 102.482 71.0329 102.641C70.9209 102.8 70.8649 102.977 70.8649 103.173C70.8649 103.36 70.8952 103.521 70.9559 103.656C71.0166 103.791 71.0982 103.903 71.2009 103.992C71.3082 104.076 71.4319 104.139 71.5719 104.181C71.7166 104.218 71.8706 104.237 72.0339 104.237C72.2532 104.237 72.4539 104.216 72.6359 104.174C72.8179 104.127 72.9882 104.062 73.1469 103.978C73.3102 103.894 73.4642 103.794 73.6089 103.677C73.7582 103.56 73.9029 103.427 74.0429 103.278V101.808ZM70.0179 98.91C70.4099 98.532 70.8322 98.2497 71.2849 98.063C71.7376 97.8763 72.2392 97.783 72.7899 97.783C73.1866 97.783 73.5389 97.8483 73.8469 97.979C74.1549 98.1097 74.4139 98.2917 74.6239 98.525C74.8339 98.7583 74.9926 99.0407 75.0999 99.372C75.2072 99.7033 75.2609 100.067 75.2609 100.464V105H74.7079C74.5866 105 74.4932 104.981 74.4279 104.944C74.3626 104.902 74.3112 104.823 74.2739 104.706L74.1339 104.034C73.9472 104.207 73.7652 104.361 73.5879 104.496C73.4106 104.627 73.2239 104.739 73.0279 104.832C72.8319 104.921 72.6219 104.988 72.3979 105.035C72.1786 105.086 71.9336 105.112 71.6629 105.112C71.3876 105.112 71.1286 105.075 70.8859 105C70.6432 104.921 70.4309 104.804 70.2489 104.65C70.0716 104.496 69.9292 104.302 69.8219 104.069C69.7192 103.831 69.6679 103.551 69.6679 103.229C69.6679 102.949 69.7449 102.681 69.8989 102.424C70.0529 102.163 70.3026 101.932 70.6479 101.731C70.9932 101.53 71.4436 101.367 71.9989 101.241C72.5542 101.11 73.2356 101.036 74.0429 101.017V100.464C74.0429 99.9133 73.9239 99.498 73.6859 99.218C73.4479 98.9333 73.1002 98.791 72.6429 98.791C72.3349 98.791 72.0759 98.8307 71.8659 98.91C71.6606 98.9847 71.4809 99.071 71.3269 99.169C71.1776 99.2623 71.0469 99.3487 70.9349 99.428C70.8276 99.5027 70.7202 99.54 70.6129 99.54C70.5289 99.54 70.4566 99.519 70.3959 99.477C70.3352 99.4303 70.2839 99.3743 70.2419 99.309L70.0179 98.91Z" fill="#444444"/>
<path d="M90.8714 47.9526C90.8734 56.2356 88.4188 64.333 83.8182 71.2209C79.2176 78.1087 72.6777 83.4774 65.0256 86.6481C57.3735 89.8187 48.953 90.6488 40.829 89.0333C32.7051 87.4179 25.2428 83.4294 19.3859 77.5725C13.5289 71.7156 9.54048 64.2532 7.92502 56.1293C6.30956 48.0054 7.13964 39.5849 10.3103 31.9328C13.4809 24.2807 18.8497 17.7407 25.7375 13.1402C32.6253 8.53958 40.7228 6.08501 49.0058 6.08692C60.1092 6.08692 70.7579 10.4977 78.6093 18.3491C86.4606 26.2004 90.8714 36.8491 90.8714 47.9526Z" fill="white"/>
<path d="M33.6078 33.8627C33.9733 34.8245 34.81 37.075 37.0509 37.075H59.5659C61.8164 37.075 62.6531 34.8245 63.009 33.8627L63.1629 33.4684C63.6822 32.1027 64.2689 30.5831 63.4995 29.4482C63.176 29.0656 62.7618 28.7701 62.2948 28.5887C61.8277 28.4072 61.3227 28.3456 60.8258 28.4095H35.7621C35.2652 28.3456 34.7602 28.4072 34.2931 28.5887C33.8261 28.7701 33.412 29.0656 33.0884 29.4482C32.319 30.5638 32.9057 32.1027 33.4347 33.4684L33.6078 33.8627ZM34.4638 30.3715C34.5311 30.2753 34.8004 30.0349 35.791 30.0349H60.7969C61.7587 30.0349 62.0568 30.2753 62.1241 30.3715C62.4127 30.785 61.951 31.9969 61.6048 32.8817L61.4509 33.2952C60.8739 34.8437 60.3353 35.44 59.5274 35.44H37.0509C36.2526 35.44 35.7141 34.8437 35.1274 33.2952L34.9831 32.8528C34.6465 31.968 34.1849 30.7562 34.4638 30.3426" fill="#444444"/>
<path d="M63.0091 62.0425C62.6917 61.0807 61.8069 58.8206 59.566 58.8206H37.051C34.8005 58.8206 33.9638 61.0615 33.6079 62.0232L33.454 62.4272C32.9347 63.7833 32.348 65.3125 33.1174 66.4377C33.4381 66.8159 33.8475 67.1087 34.3091 67.29C34.7706 67.4713 35.2699 67.5353 35.7623 67.4764H60.7682C61.2659 67.5383 61.7712 67.4748 62.2381 67.2917C62.705 67.1086 63.1188 66.8118 63.4419 66.4281C64.2113 65.3125 63.615 63.7736 63.1053 62.4079L63.0091 62.0425ZM62.1531 65.5529C62.0858 65.6587 61.8165 65.8895 60.8259 65.8895H35.7623C34.8005 65.8895 34.5023 65.6587 34.435 65.5529C34.1465 65.1394 34.6081 63.9275 34.9544 63.0427L35.1083 62.6291C35.6853 61.0903 36.2239 60.4844 37.0318 60.4844H59.566C60.3642 60.4844 60.9028 61.0903 61.4895 62.6291L61.6434 63.0427C61.98 63.9275 62.4416 65.1394 62.1627 65.5529" fill="#444444"/>
<path d="M71.9342 60.3787C71.6302 60.3056 71.3363 60.1958 71.0589 60.0517C69.9524 59.5568 68.9528 58.8512 68.1159 57.9743C67.7506 57.6384 67.4657 57.2244 67.2825 56.7631C67.0993 56.3019 67.0226 55.8052 67.058 55.3102C67.1062 54.9759 67.2068 54.6513 67.3562 54.3484C68.0984 52.7831 68.4765 51.07 68.4622 49.3376C68.4548 47.912 68.0119 46.5227 67.1927 45.3559C66.3951 44.2722 65.3273 43.4166 64.0958 42.8745C62.4524 42.1666 60.6708 41.8379 58.883 41.9128H37.9165C37.8096 41.9115 37.7035 41.9315 37.6044 41.9715C37.5053 42.0115 37.4151 42.0708 37.339 42.146C37.263 42.2211 37.2026 42.3106 37.1614 42.4093C37.1202 42.5079 37.099 42.6138 37.099 42.7207C37.099 42.828 37.1201 42.9343 37.1612 43.0335C37.2023 43.1327 37.2625 43.2228 37.3384 43.2987C37.4144 43.3746 37.5045 43.4348 37.6037 43.4759C37.7028 43.517 37.8091 43.5382 37.9165 43.5382H58.9407C60.4769 43.4596 62.0105 43.736 63.4225 44.346C64.3907 44.763 65.2329 45.4262 65.8654 46.2696C66.4937 47.1799 66.8293 48.2603 66.8272 49.3665C66.8349 50.8413 66.5059 52.2985 65.8654 53.6271C65.651 54.0901 65.5083 54.583 65.4422 55.089C65.3779 55.8187 65.4765 56.5537 65.731 57.2406C65.9855 57.9276 66.3895 58.5494 66.9137 59.0611C67.9024 60.1019 69.0808 60.9441 70.3857 61.5424C70.8107 61.7505 71.2597 61.9056 71.7226 62.0041H71.8284C72.0328 61.9996 72.2282 61.9186 72.3759 61.7771C72.5236 61.6357 72.6129 61.444 72.6262 61.2399C72.6395 61.0358 72.5758 60.8341 72.4477 60.6747C72.3195 60.5153 72.1363 60.4096 71.9342 60.3787Z" fill="#444444"/>
<path d="M37.9165 38.5176C37.6997 38.5176 37.4918 38.6037 37.3384 38.757C37.1851 38.9103 37.099 39.1183 37.099 39.3351C37.099 39.5519 37.1851 39.7598 37.3384 39.9131C37.4918 40.0665 37.6997 40.1526 37.9165 40.1526H58.6906C58.9075 40.1526 59.1154 40.0665 59.2687 39.9131C59.422 39.7598 59.5081 39.5519 59.5081 39.3351C59.5081 39.1183 59.422 38.9103 59.2687 38.757C59.1154 38.6037 58.9075 38.5176 58.6906 38.5176H37.9165Z" fill="#444444"/>
<path d="M58.6907 45.2983H37.9165C37.8024 45.2858 37.6869 45.2976 37.5776 45.3328C37.4683 45.3679 37.3676 45.4257 37.2821 45.5024C37.1967 45.5791 37.1283 45.6729 37.0815 45.7777C37.0347 45.8826 37.0105 45.9961 37.0105 46.111C37.0105 46.2258 37.0347 46.3393 37.0815 46.4442C37.1283 46.549 37.1967 46.6428 37.2821 46.7195C37.3676 46.7962 37.4683 46.854 37.5776 46.8892C37.6869 46.9243 37.8024 46.9361 37.9165 46.9237H58.6907C58.8048 46.9361 58.9203 46.9243 59.0296 46.8892C59.1389 46.854 59.2396 46.7962 59.3251 46.7195C59.4106 46.6428 59.4789 46.549 59.5257 46.4442C59.5725 46.3393 59.5967 46.2258 59.5967 46.111C59.5967 45.9961 59.5725 45.8826 59.5257 45.7777C59.4789 45.6729 59.4106 45.5791 59.3251 45.5024C59.2396 45.4257 59.1389 45.3679 59.0296 45.3328C58.9203 45.2976 58.8048 45.2858 58.6907 45.2983Z" fill="#444444"/>
<path d="M58.6907 48.6835H37.9165C37.8024 48.6711 37.6869 48.6828 37.5776 48.718C37.4683 48.7532 37.3676 48.811 37.2821 48.8877C37.1967 48.9643 37.1283 49.0581 37.0815 49.163C37.0347 49.2679 37.0105 49.3814 37.0105 49.4962C37.0105 49.611 37.0347 49.7246 37.0815 49.8294C37.1283 49.9343 37.1967 50.0281 37.2821 50.1048C37.3676 50.1814 37.4683 50.2393 37.5776 50.2744C37.6869 50.3096 37.8024 50.3213 37.9165 50.3089H58.6907C58.8048 50.3213 58.9203 50.3096 59.0296 50.2744C59.1389 50.2393 59.2396 50.1814 59.3251 50.1048C59.4106 50.0281 59.4789 49.9343 59.5257 49.8294C59.5725 49.7246 59.5967 49.611 59.5967 49.4962C59.5967 49.3814 59.5725 49.2679 59.5257 49.163C59.4789 49.0581 59.4106 48.9643 59.3251 48.8877C59.2396 48.811 59.1389 48.7532 59.0296 48.718C58.9203 48.6828 58.8048 48.6711 58.6907 48.6835Z" fill="#444444"/>
<path d="M58.6907 52.0883H37.9165C37.8024 52.0759 37.6869 52.0876 37.5776 52.1228C37.4683 52.158 37.3676 52.2158 37.2821 52.2924C37.1967 52.3691 37.1283 52.4629 37.0815 52.5678C37.0347 52.6726 37.0105 52.7862 37.0105 52.901C37.0105 53.0158 37.0347 53.1294 37.0815 53.2342C37.1283 53.3391 37.1967 53.4329 37.2821 53.5096C37.3676 53.5862 37.4683 53.644 37.5776 53.6792C37.6869 53.7144 37.8024 53.7261 37.9165 53.7137H58.6907C58.8048 53.7261 58.9203 53.7144 59.0296 53.6792C59.1389 53.644 59.2396 53.5862 59.3251 53.5096C59.4106 53.4329 59.4789 53.3391 59.5257 53.2342C59.5725 53.1294 59.5967 53.0158 59.5967 52.901C59.5967 52.7862 59.5725 52.6726 59.5257 52.5678C59.4789 52.4629 59.4106 52.3691 59.3251 52.2924C59.2396 52.2158 59.1389 52.158 59.0296 52.1228C58.9203 52.0876 58.8048 52.0759 58.6907 52.0883Z" fill="#444444"/>
<path d="M58.6907 55.4545H37.9165C37.8024 55.4421 37.6869 55.4538 37.5776 55.489C37.4683 55.5242 37.3676 55.582 37.2821 55.6586C37.1967 55.7353 37.1283 55.8291 37.0815 55.934C37.0347 56.0388 37.0105 56.1524 37.0105 56.2672C37.0105 56.382 37.0347 56.4956 37.0815 56.6004C37.1283 56.7053 37.1967 56.7991 37.2821 56.8758C37.3676 56.9524 37.4683 57.0102 37.5776 57.0454C37.6869 57.0806 37.8024 57.0923 37.9165 57.0799H58.6907C58.8048 57.0923 58.9203 57.0806 59.0296 57.0454C59.1389 57.0102 59.2396 56.9524 59.3251 56.8758C59.4106 56.7991 59.4789 56.7053 59.5257 56.6004C59.5725 56.4956 59.5967 56.382 59.5967 56.2672C59.5967 56.1524 59.5725 56.0388 59.5257 55.934C59.4789 55.8291 59.4106 55.7353 59.3251 55.6586C59.2396 55.582 59.1389 55.5242 59.0296 55.489C58.9203 55.4538 58.8048 55.4421 58.6907 55.4545Z" fill="#444444"/>
<path d="M90.8714 47.9526C90.8734 56.2356 88.4188 64.333 83.8182 71.2209C79.2176 78.1087 72.6777 83.4774 65.0256 86.6481C57.3735 89.8187 48.953 90.6488 40.829 89.0333C32.7051 87.4179 25.2428 83.4294 19.3859 77.5725C13.5289 71.7156 9.54048 64.2532 7.92502 56.1293C6.30956 48.0054 7.13964 39.5849 10.3103 31.9328C13.4809 24.2807 18.8497 17.7407 25.7375 13.1402C32.6253 8.53958 40.7228 6.08501 49.0058 6.08692C60.1092 6.08692 70.7579 10.4977 78.6093 18.3491C86.4606 26.2004 90.8714 36.8491 90.8714 47.9526Z" fill="white"/>
<path d="M59.9507 37.7678C60.3471 37.4312 60.8402 37.2293 61.3589 37.1913C61.8775 37.1533 62.3948 37.2811 62.836 37.5563C63.5042 37.996 64.2867 38.2301 65.0866 38.2295C66.025 38.2305 66.9314 37.8884 67.6352 37.2677C67.8012 37.1229 67.9034 36.9185 67.9196 36.6988C67.9358 36.4792 67.8647 36.262 67.7218 36.0944C67.5753 35.9278 67.3693 35.8254 67.148 35.8092C66.9268 35.793 66.708 35.8643 66.5388 36.0078C66.1546 36.3385 65.6718 36.5329 65.1656 36.5607C64.6594 36.5885 64.1583 36.4482 63.7401 36.1617C62.9842 35.6806 62.0915 35.4606 61.1986 35.5353C60.3058 35.61 59.462 35.9753 58.7966 36.5752C58.7154 36.6516 58.6502 36.7434 58.6049 36.8453C58.5596 36.9472 58.5352 37.0571 58.533 37.1686C58.5308 37.2801 58.5509 37.3909 58.5922 37.4945C58.6334 37.5981 58.6949 37.6924 58.7731 37.7719C58.8513 37.8513 58.9446 37.9144 59.0475 37.9573C59.1504 38.0002 59.2609 38.0221 59.3724 38.0218C59.4839 38.0214 59.5942 37.9987 59.6968 37.9551C59.7994 37.9115 59.8923 37.8478 59.97 37.7678" fill="#444444"/>
<path d="M56.5556 34.5553C55.3149 34.286 53.4395 33.7763 51.4582 33.2377C46.8417 31.9778 41.6097 30.564 39.1284 30.564C36.973 30.5603 34.8717 31.2387 33.1252 32.5019C31.3787 33.7651 30.0766 35.5484 29.4053 37.5966C28.734 39.6448 28.7278 41.8528 29.3876 43.9048C30.0475 45.9567 31.3395 47.7473 33.0789 49.0203C33.0649 49.0998 33.0649 49.1812 33.0789 49.2607C33.454 50.6937 32.4441 55.4064 31.5689 57.9166C30.7706 60.1768 31.0399 63.5045 32.5884 64.5624C33.454 65.1587 35.4737 65.3799 37.503 65.3799C39.2809 65.4124 41.0564 65.2348 42.7927 64.8509C42.9119 64.8247 43.0279 64.786 43.1389 64.7355C43.2591 64.6828 43.3657 64.6035 43.4507 64.5035C43.5356 64.4035 43.5968 64.2855 43.6294 64.1585C43.9508 62.659 43.7506 61.0949 43.062 59.7247C42.2637 57.6858 41.4366 55.5795 44.5143 50.1551C46.6975 49.6454 49.1404 48.9818 51.4294 48.3566C53.4106 47.8181 55.2764 47.3083 56.5267 47.039C56.7125 46.9975 56.8785 46.8938 56.9974 46.7452C57.1163 46.5966 57.1809 46.4119 57.1807 46.2215V35.3728C57.1809 35.1825 57.1163 34.9978 56.9974 34.8491C56.8785 34.7005 56.7125 34.5969 56.5267 34.5553H56.5556ZM41.5328 60.3114C41.9993 61.2286 42.1992 62.2582 42.1099 63.2832C40.1863 63.7738 34.6273 63.8988 33.5501 63.1582C32.9154 62.7254 32.4826 60.3883 33.1654 58.4456C34.0967 55.741 34.6596 52.9234 34.8389 50.0686C36.1793 50.6945 37.6394 51.0226 39.1188 51.0304C40.2222 50.9915 41.3199 50.8531 42.3984 50.6168C39.7728 55.8392 40.7442 58.3109 41.5328 60.3403V60.3114ZM55.5457 45.5291C54.3339 45.8176 52.7758 46.2408 51.0158 46.7216C46.7263 47.8854 41.3982 49.3376 39.1284 49.3376C36.9091 49.2632 34.8056 48.3293 33.262 46.7331C31.7184 45.1369 30.8556 43.0032 30.8556 40.7827C30.8556 38.5622 31.7184 36.4286 33.262 34.8324C34.8056 33.2362 36.9091 32.3023 39.1284 32.2278C41.3885 32.2278 46.7263 33.6801 51.0158 34.8438C52.7758 35.3247 54.3339 35.7479 55.5457 36.0364V45.5291Z" fill="#444444"/>
<path d="M39.1283 35.1804C38.0189 35.1785 36.9339 35.5058 36.0106 36.1207C35.0872 36.7357 34.367 37.6107 33.9412 38.6351C33.5153 39.6595 33.4029 40.7872 33.6182 41.8755C33.8334 42.9638 34.3667 43.9638 35.1505 44.7489C35.9343 45.5341 36.9333 46.069 38.0213 46.2862C39.1092 46.5033 40.2371 46.3928 41.2622 45.9687C42.2873 45.5446 43.1636 44.8259 43.7801 43.9037C44.3967 42.9814 44.7258 41.8969 44.7258 40.7875C44.7258 39.3021 44.1364 37.8774 43.0869 36.8261C42.0375 35.7748 40.6137 35.183 39.1283 35.1804ZM39.1283 44.7211C38.3503 44.7211 37.5898 44.4904 36.9429 44.0582C36.296 43.626 35.7918 43.0116 35.4941 42.2929C35.1964 41.5741 35.1185 40.7832 35.2703 40.0201C35.4221 39.2571 35.7967 38.5562 36.3468 38.006C36.8969 37.4559 37.5978 37.0813 38.3609 36.9295C39.1239 36.7777 39.9149 36.8556 40.6336 37.1533C41.3524 37.4511 41.9668 37.9552 42.399 38.6021C42.8312 39.249 43.0619 40.0095 43.0619 40.7875C43.0619 41.8308 42.6475 42.8313 41.9098 43.569C41.1721 44.3067 40.1716 44.7211 39.1283 44.7211Z" fill="#444444"/>
<path d="M68.8566 39.768C68.6985 39.6135 68.4862 39.527 68.2651 39.527C68.044 39.527 67.8317 39.6135 67.6736 39.768C67.2588 40.2366 66.6765 40.5234 66.0522 40.5666C65.4279 40.6098 64.8116 40.4059 64.3363 39.9989C63.4943 39.3475 62.4357 39.0416 61.3761 39.1435C60.3165 39.2453 59.3355 39.7473 58.633 40.5471C58.4901 40.7147 58.419 40.9319 58.4353 41.1515C58.4515 41.3712 58.5536 41.5756 58.7196 41.7204C58.8888 41.8639 59.1075 41.9352 59.3288 41.919C59.55 41.9029 59.7561 41.8005 59.9026 41.6339C60.3315 41.1672 60.9189 40.8771 61.5502 40.8202C62.1815 40.7633 62.8113 40.9437 63.3168 41.3261C64.0624 41.9202 64.98 42.2575 65.9328 42.2879C66.4842 42.2816 67.0286 42.1632 67.5329 41.94C68.0372 41.7168 68.4908 41.3934 68.8662 40.9895C69.0207 40.8314 69.1072 40.6191 69.1072 40.398C69.1072 40.1769 69.0207 39.9646 68.8662 39.8065" fill="#444444"/>
<path d="M66.5388 44.0287C66.1556 44.3608 65.6734 44.557 65.1672 44.5865C64.661 44.6161 64.1593 44.4775 63.74 44.1922C62.9852 43.708 62.0919 43.4861 61.1982 43.5608C60.3045 43.6356 59.4604 44.0029 58.7966 44.6058C58.7192 44.6826 58.6578 44.774 58.6159 44.8747C58.5741 44.9754 58.5525 45.0834 58.5525 45.1924C58.5525 45.3015 58.5741 45.4095 58.6159 45.5102C58.6578 45.6108 58.7192 45.7022 58.7966 45.7791C58.9535 45.9359 59.1662 46.024 59.3881 46.024C59.6099 46.024 59.8226 45.9359 59.9795 45.7791C60.3749 45.4398 60.869 45.2369 61.3888 45.2006C61.9085 45.1642 62.4261 45.2962 62.8648 45.5771C63.5398 46.0088 64.3238 46.239 65.125 46.2408C66.0601 46.2394 66.9627 45.8975 67.6641 45.279C67.8299 45.1298 67.9296 44.9208 67.9413 44.6981C67.953 44.4753 67.8758 44.257 67.7266 44.0912C67.5773 43.9254 67.3684 43.8257 67.1456 43.814C66.9229 43.8022 66.7046 43.8795 66.5388 44.0287Z" fill="#444444"/>
<path d="M90.8714 47.9526C90.8734 56.2356 88.4188 64.333 83.8182 71.2209C79.2176 78.1087 72.6777 83.4774 65.0256 86.6481C57.3735 89.8187 48.953 90.6488 40.829 89.0333C32.7051 87.4179 25.2428 83.4294 19.3859 77.5725C13.5289 71.7156 9.54048 64.2532 7.92502 56.1293C6.30956 48.0054 7.13964 39.5849 10.3103 31.9328C13.4809 24.2807 18.8497 17.7407 25.7375 13.1402C32.6253 8.53958 40.7228 6.08501 49.0058 6.08692C60.1092 6.08692 70.7579 10.4977 78.6093 18.3491C86.4606 26.2004 90.8714 36.8491 90.8714 47.9526Z" fill="white"/>
<path d="M44.2162 59.6765C43.706 59.6746 43.2067 59.8242 42.7816 60.1062C42.3564 60.3883 42.0246 60.7902 41.828 61.261C41.6314 61.7318 41.579 62.2504 41.6774 62.751C41.7758 63.2516 42.0205 63.7118 42.3806 64.0732C42.7407 64.4347 43.1999 64.6811 43.7002 64.7813C44.2004 64.8816 44.7192 64.8311 45.1907 64.6363C45.6622 64.4415 46.0654 64.1111 46.349 63.6871C46.6327 63.263 46.7841 62.7643 46.7841 62.2541C46.7841 61.5721 46.5139 60.918 46.0326 60.4349C45.5512 59.9518 44.8981 59.6791 44.2162 59.6765ZM44.2162 63.187C44.026 63.187 43.84 63.1306 43.6818 63.0249C43.5237 62.9192 43.4004 62.769 43.3276 62.5933C43.2548 62.4175 43.2358 62.2241 43.2729 62.0376C43.31 61.851 43.4016 61.6796 43.5361 61.5451C43.6706 61.4106 43.842 61.319 44.0285 61.2819C44.2151 61.2448 44.4085 61.2639 44.5842 61.3367C44.76 61.4095 44.9102 61.5327 45.0159 61.6909C45.1215 61.849 45.1779 62.035 45.1779 62.2252C45.1779 62.4803 45.0766 62.7249 44.8962 62.9053C44.7159 63.0857 44.4713 63.187 44.2162 63.187Z" fill="#444444"/>
<path d="M62.4224 64.822C62.9326 64.8239 63.4319 64.6744 63.857 64.3923C64.2821 64.1103 64.614 63.7084 64.8106 63.2376C65.0071 62.7668 65.0596 62.2482 64.9612 61.7476C64.8628 61.247 64.6181 60.7868 64.258 60.4253C63.8979 60.0639 63.4387 59.8175 62.9384 59.7172C62.4382 59.617 61.9194 59.6675 61.4479 59.8623C60.9763 60.0571 60.5732 60.3874 60.2896 60.8115C60.0059 61.2356 59.8545 61.7343 59.8545 62.2445C59.8545 62.9265 60.1247 63.5806 60.606 64.0637C61.0873 64.5468 61.7405 64.8195 62.4224 64.822ZM62.4224 61.3116C62.6126 61.3116 62.7986 61.368 62.9567 61.4737C63.1149 61.5794 63.2382 61.7296 63.311 61.9053C63.3838 62.0811 63.4028 62.2744 63.3657 62.461C63.3286 62.6476 63.237 62.8189 63.1025 62.9534C62.968 63.0879 62.7966 63.1795 62.61 63.2166C62.4235 63.2538 62.2301 63.2347 62.0544 63.1619C61.8786 63.0891 61.7284 62.9659 61.6227 62.8077C61.517 62.6495 61.4606 62.4636 61.4606 62.2734C61.4606 62.0183 61.562 61.7737 61.7423 61.5933C61.9227 61.4129 62.1673 61.3116 62.4224 61.3116Z" fill="#444444"/>
<path d="M68.9239 44.6057C68.9478 44.4948 68.9478 44.38 68.9239 44.2691C68.948 44.1614 68.948 44.0498 68.9239 43.9421C68.3565 36.1037 63.0668 29.6695 56.0555 28.2846C55.8468 28.2439 55.6304 28.2851 55.4513 28.3997C55.2723 28.5144 55.1442 28.6936 55.0937 28.9001L51.6891 43.7209H39.1861C39.155 42.0151 38.5522 40.3691 37.4742 39.0467C36.575 38.1231 35.4007 37.5157 34.1272 37.3156C34.0225 36.7123 33.7064 36.166 33.2356 35.7745C32.7647 35.383 32.1699 35.172 31.5576 35.1791C30.9454 35.1862 30.3556 35.4111 29.8941 35.8134C29.4325 36.2158 29.1292 36.7693 29.0385 37.3749C28.9479 37.9804 29.0758 38.5985 29.3993 39.1183C29.7228 39.6382 30.2209 40.0259 30.8042 40.212C31.3875 40.3981 32.0181 40.3705 32.5829 40.1341C33.1477 39.8977 33.61 39.4679 33.8868 38.9217C34.7904 39.0682 35.625 39.4955 36.272 40.1431C37.2548 41.3951 37.7564 42.9579 37.6857 44.548V44.7981C37.6712 44.8711 37.6712 44.9463 37.6857 45.0193C37.9495 47.5389 38.8229 49.9564 40.2305 52.0628C41.6381 54.1692 43.5375 55.9011 45.7646 57.1087C44.4802 56.7219 43.0973 56.8328 41.891 57.4193C40.6847 58.0059 39.7435 59.0251 39.2546 60.2742C38.7657 61.5233 38.765 62.9106 39.2526 64.1602C39.7403 65.4098 40.6805 66.43 41.8862 67.0177C43.0919 67.6055 44.4747 67.7178 45.7594 67.3323C47.0442 66.9467 48.1367 66.0916 48.8196 64.9371C49.5024 63.7826 49.7256 62.4133 49.4446 61.1017C49.1637 59.7901 48.3993 58.6324 47.3034 57.8589C49.1934 58.6297 51.2156 59.025 53.2567 59.0226C55.5191 59.0257 57.7547 58.5332 59.8064 57.58C58.6747 58.215 57.8132 59.2405 57.3828 60.4647C56.9525 61.6889 56.9829 63.028 57.4682 64.2314C57.9536 65.4349 58.8607 66.4203 60.0199 67.0034C61.1792 67.5865 62.5112 67.7274 63.7667 67.3996C65.0223 67.0719 66.1155 66.298 66.8418 65.2227C67.5682 64.1474 67.8779 62.8443 67.7132 61.5572C67.5484 60.27 66.9204 59.087 65.9467 58.2293C64.9729 57.3716 63.72 56.898 62.4224 56.8971C61.7639 56.8968 61.1113 57.0208 60.4988 57.2626C62.8465 56.0349 64.8466 54.2351 66.3142 52.0295C67.7817 49.8239 68.6694 47.2838 68.8951 44.6442L68.9239 44.6057ZM31.6555 38.7005C31.4653 38.7005 31.2793 38.6441 31.1211 38.5384C30.963 38.4327 30.8397 38.2825 30.7669 38.1068C30.6941 37.931 30.6751 37.7377 30.7122 37.5511C30.7493 37.3645 30.8409 37.1932 30.9754 37.0587C31.1099 36.9242 31.2813 36.8326 31.4678 36.7954C31.6544 36.7583 31.8478 36.7774 32.0235 36.8502C32.1993 36.923 32.3495 37.0462 32.4552 37.2044C32.5608 37.3626 32.6172 37.5485 32.6172 37.7387C32.6172 37.9938 32.5159 38.2384 32.3355 38.4188C32.1552 38.5992 31.9106 38.7005 31.6555 38.7005ZM56.5075 30.0446C62.2781 31.5642 66.6445 37.0463 67.2601 43.7017H53.3625L56.5075 30.0446ZM47.9766 62.2445C47.9785 62.9887 47.7596 63.7167 47.3476 64.3364C46.9355 64.956 46.3489 65.4395 45.6619 65.7256C44.9749 66.0117 44.2185 66.0876 43.4884 65.9436C42.7583 65.7995 42.0874 65.4422 41.5605 64.9166C41.0336 64.3911 40.6745 63.721 40.5286 62.9913C40.3827 62.2616 40.4566 61.505 40.741 60.8173C41.0253 60.1296 41.5073 59.5417 42.1259 59.1281C42.7445 58.7144 43.472 58.4936 44.2161 58.4936C45.211 58.4962 46.1646 58.8918 46.869 59.5945C47.5734 60.2971 47.9716 61.2496 47.9766 62.2445ZM62.4031 58.4936C63.1473 58.4936 63.8747 58.7144 64.4934 59.1281C65.112 59.5417 65.594 60.1296 65.8783 60.8173C66.1626 61.505 66.2365 62.2616 66.0907 62.9913C65.9448 63.721 65.5857 64.3911 65.0588 64.9166C64.5319 65.4422 63.861 65.7995 63.1309 65.9436C62.4008 66.0876 61.6443 66.0117 60.9574 65.7256C60.2704 65.4395 59.6838 64.956 59.2717 64.3364C58.8597 63.7167 58.6407 62.9887 58.6426 62.2445C58.6452 61.2488 59.0425 60.2948 59.7475 59.5917C60.4524 58.8885 61.4075 58.4936 62.4031 58.4936ZM53.2567 57.3972C49.8766 57.407 46.6072 56.1931 44.0526 53.9797C41.4979 51.7663 39.8308 48.703 39.3592 45.3559H67.1927C66.6941 48.6946 65.0165 51.7444 62.4637 53.9532C59.9109 56.162 56.6517 57.3837 53.276 57.3972" fill="#444444"/>
<path d="M90.8714 47.9526C90.8734 56.2356 88.4188 64.333 83.8182 71.2209C79.2176 78.1087 72.6777 83.4774 65.0256 86.6481C57.3735 89.8187 48.953 90.6488 40.829 89.0333C32.7051 87.4179 25.2428 83.4294 19.3859 77.5725C13.5289 71.7156 9.54048 64.2532 7.92502 56.1293C6.30956 48.0054 7.13964 39.5849 10.3103 31.9328C13.4809 24.2807 18.8497 17.7407 25.7375 13.1402C32.6253 8.53958 40.7228 6.08501 49.0058 6.08692C60.1092 6.08692 70.7579 10.4977 78.6093 18.3491C86.4606 26.2004 90.8714 36.8491 90.8714 47.9526Z" fill="white"/>
<path d="M70.0107 57.7243L65.7404 44.1441C65.6932 43.996 65.6028 43.8654 65.4807 43.769C65.5999 43.626 65.6646 43.4455 65.6635 43.2593V31.093C65.6763 30.1763 65.3251 29.292 64.6869 28.6339C64.0486 27.9758 63.1755 27.5977 62.2588 27.5825H35.7622C34.8456 27.5977 33.9724 27.9758 33.3341 28.6339C32.6959 29.292 32.3447 30.1763 32.3575 31.093V43.2593C32.3558 43.4623 32.4315 43.6583 32.5691 43.8075C32.4703 43.8992 32.3974 44.0153 32.3575 44.1441L28.0007 57.7243C27.9341 57.9309 27.9514 58.1554 28.0488 58.3494C28.0389 58.4325 28.0389 58.5164 28.0488 58.5995V67.4766C28.0488 67.6934 28.135 67.9013 28.2883 68.0546C28.4416 68.2079 28.6495 68.2941 28.8663 68.2941H34.5696C34.7864 68.2941 34.9943 68.2079 35.1477 68.0546C35.301 67.9013 35.3871 67.6934 35.3871 67.4766V63.8122H62.6916V67.4766C62.6916 67.6934 62.7778 67.9013 62.9311 68.0546C63.0844 68.2079 63.2923 68.2941 63.5091 68.2941H69.2124C69.4292 68.2941 69.6371 68.2079 69.7905 68.0546C69.9438 67.9013 70.0299 67.6934 70.0299 67.4766V58.5995C70.0399 58.5164 70.0399 58.4325 70.0299 58.3494C70.1258 58.1553 70.1463 57.9326 70.0876 57.7243H70.0107ZM34.0502 43.2978V31.093C34.0386 30.8501 34.0754 30.6074 34.1583 30.3788C34.2412 30.1503 34.3686 29.9404 34.5332 29.7615C34.6978 29.5826 34.8963 29.4381 35.1172 29.3365C35.3381 29.2348 35.5769 29.1781 35.8199 29.1694H62.2588C62.5018 29.1781 62.7407 29.2348 62.9615 29.3365C63.1824 29.4381 63.3809 29.5826 63.5455 29.7615C63.7101 29.9404 63.8376 30.1503 63.9205 30.3788C64.0034 30.6074 64.0401 30.8501 64.0285 31.093V43.2593C64.0285 43.2593 64.0285 43.3266 64.0285 43.3651C63.4514 43.2497 62.8263 43.1535 62.153 43.0573C62.1676 42.9746 62.1676 42.89 62.153 42.8073V40.3932C62.1659 39.4043 61.7866 38.4504 61.0982 37.7403C60.4097 37.0302 59.468 36.6216 58.4791 36.6039H52.0545C51.4446 36.6062 50.845 36.7614 50.3107 37.0555C49.7764 37.3495 49.3244 37.773 48.9961 38.287C48.6706 37.7725 48.2206 37.3485 47.6876 37.0543C47.1547 36.76 46.5561 36.6051 45.9473 36.6039H39.4746C38.9817 36.6076 38.4943 36.7088 38.0406 36.9015C37.5868 37.0942 37.1757 37.3747 36.8307 37.7268C36.4857 38.079 36.2137 38.4958 36.0303 38.9534C35.847 39.411 35.7558 39.9003 35.7622 40.3932V42.8073C35.7626 42.93 35.7888 43.0512 35.8391 43.1631C35.1851 43.2401 34.5407 43.3362 33.9156 43.4324C33.9203 43.3748 33.9203 43.3169 33.9156 43.2593L34.0502 43.2978ZM60.518 42.865C57.5077 42.5476 53.7857 42.3649 49.9386 42.3552C49.9437 42.3041 49.9437 42.2525 49.9386 42.2014V40.3932C49.9306 39.8367 50.1403 39.299 50.523 38.8948C50.9056 38.4906 51.431 38.2518 51.9872 38.2293H58.4599C59.0177 38.2469 59.546 38.4842 59.9297 38.8895C60.3134 39.2948 60.5214 39.8353 60.5084 40.3932V42.865H60.518ZM47.9381 42.3649C44.3892 42.3649 40.7345 42.6149 37.3587 42.9804C37.3682 42.9231 37.3682 42.8646 37.3587 42.8073V40.3932C37.3458 39.8353 37.5538 39.2948 37.9375 38.8895C38.3212 38.4842 38.8494 38.2469 39.4073 38.2293H45.88C46.4378 38.2469 46.9661 38.4842 47.3498 38.8895C47.7335 39.2948 47.9415 39.8353 47.9285 40.3932V42.2014C47.9234 42.2557 47.9234 42.3105 47.9285 42.3649H47.9381ZM33.7425 45.1155C43.6871 43.4997 58.1906 43.769 64.3266 45.1155L68.116 57.1857H29.8858L33.7425 45.1155ZM68.366 66.6975H64.2882V62.9947C64.2882 62.7779 64.202 62.57 64.0487 62.4167C63.8954 62.2634 63.6875 62.1772 63.4707 62.1772H34.5311C34.3143 62.1772 34.1064 62.2634 33.9531 62.4167C33.7998 62.57 33.7136 62.7779 33.7136 62.9947V66.6975H29.6454V58.8207H68.3564L68.366 66.6975Z" fill="#444444"/>
<path d="M90.8714 47.9526C90.8734 56.2356 88.4188 64.333 83.8182 71.2209C79.2176 78.1087 72.6777 83.4774 65.0256 86.6481C57.3735 89.8187 48.953 90.6488 40.829 89.0333C32.7051 87.4179 25.2428 83.4294 19.3859 77.5725C13.5289 71.7156 9.54048 64.2532 7.92502 56.1293C6.30956 48.0054 7.13964 39.5849 10.3103 31.9328C13.4809 24.2807 18.8497 17.7407 25.7375 13.1402C32.6253 8.53958 40.7228 6.08501 49.0058 6.08692C60.1092 6.08692 70.7579 10.4977 78.6093 18.3491C86.4606 26.2004 90.8714 36.8491 90.8714 47.9526Z" fill="white"/>
<path d="M60.6623 42.8266L56.594 28.6502C56.4948 28.2459 56.2626 27.8867 55.9347 27.6303C55.6068 27.3739 55.2022 27.2352 54.7859 27.2364H43.2447C42.828 27.2335 42.4226 27.3716 42.0943 27.6282C41.766 27.8849 41.5342 28.2451 41.4366 28.6502L37.3395 42.8266C37.2869 43.0201 37.2795 43.223 37.3179 43.4198C37.3562 43.6166 37.4393 43.8019 37.5607 43.9615C37.756 44.194 38.0005 44.3803 38.2767 44.5067C38.5528 44.6331 38.8535 44.6965 39.1572 44.6924H48.1882V67.0439H39.8978C39.6809 67.0439 39.473 67.13 39.3197 67.2833C39.1664 67.4366 39.0803 67.6445 39.0803 67.8614C39.0803 68.0782 39.1664 68.2861 39.3197 68.4394C39.473 68.5927 39.6809 68.6789 39.8978 68.6789H58.104C58.3208 68.6789 58.5287 68.5927 58.6821 68.4394C58.8354 68.2861 58.9215 68.0782 58.9215 67.8614C58.9215 67.6445 58.8354 67.4366 58.6821 67.2833C58.5287 67.13 58.3208 67.0439 58.104 67.0439H49.8232V44.6924H52.4488V52.8097C52.1898 52.9513 51.9737 53.1599 51.8231 53.4137C51.6725 53.6675 51.5929 53.9572 51.5928 54.2524C51.5897 54.5478 51.6649 54.8388 51.8107 55.0957C51.9565 55.3527 52.1677 55.5664 52.4229 55.7153C52.6781 55.8642 52.9681 55.9429 53.2635 55.9434C53.559 55.9438 53.8493 55.8661 54.1049 55.718C54.3606 55.57 54.5725 55.3569 54.7191 55.1004C54.8657 54.8439 54.9418 54.5532 54.9396 54.2577C54.9375 53.9623 54.8572 53.6727 54.7069 53.4184C54.5566 53.1641 54.3416 52.9541 54.0838 52.8097V44.6924H58.8926C59.1958 44.696 59.4958 44.6313 59.7705 44.5031C60.0453 44.3749 60.2876 44.1865 60.4796 43.9519C60.6035 43.7956 60.6883 43.6118 60.7268 43.4161C60.7653 43.2203 60.7563 43.0182 60.7008 42.8266H60.6623ZM58.8446 43.0574H39.1572C39.1 43.0683 39.0413 43.0683 38.9841 43.0574L42.9754 29.0926C43.0427 28.8618 43.1582 28.8618 43.2159 28.8618H54.7571C54.8148 28.8618 54.9398 28.8618 54.9975 29.0926L58.9984 43.0286C58.9412 43.0386 58.8826 43.0386 58.8253 43.0286" fill="#444444"/>
<path d="M90.8714 47.9526C90.8734 56.2356 88.4188 64.333 83.8182 71.2209C79.2176 78.1087 72.6777 83.4774 65.0256 86.6481C57.3735 89.8187 48.953 90.6488 40.829 89.0333C32.7051 87.4179 25.2428 83.4294 19.3859 77.5725C13.5289 71.7156 9.54048 64.2532 7.92502 56.1293C6.30956 48.0054 7.13964 39.5849 10.3103 31.9328C13.4809 24.2807 18.8497 17.7407 25.7375 13.1402C32.6253 8.53958 40.7228 6.08501 49.0058 6.08692C60.1092 6.08692 70.7579 10.4977 78.6093 18.3491C86.4606 26.2004 90.8714 36.8491 90.8714 47.9526Z" fill="white"/>
<path d="M66.7599 62.4465H29.7319C29.5151 62.4465 29.3072 62.5327 29.1539 62.686C29.0006 62.8393 28.9144 63.0472 28.9144 63.264C28.9144 63.4808 29.0006 63.6888 29.1539 63.8421C29.3072 63.9954 29.5151 64.0815 29.7319 64.0815H66.7599C66.9767 64.0815 67.1847 63.9954 67.338 63.8421C67.4913 63.6888 67.5774 63.4808 67.5774 63.264C67.5774 63.0472 67.4913 62.8393 67.338 62.686C67.1847 62.5327 66.9767 62.4465 66.7599 62.4465Z" fill="#444444"/>
<path d="M69.0489 55.6085L68.5391 51.7615L68.0198 47.9144C67.8415 46.7647 67.2597 45.7161 66.3785 44.9565C65.4973 44.197 64.3743 43.776 63.211 43.7692L48.8326 44.8079C48.5683 44.6708 48.3469 44.4637 48.1923 44.2093C48.0377 43.9549 47.9559 43.6629 47.9559 43.3652C47.9559 43.0676 48.0377 42.7756 48.1923 42.5212C48.3469 42.2668 48.5683 42.0597 48.8326 41.9226C50.5734 41.1532 55.1129 40.201 58.7676 39.4316C60.6142 39.0469 62.2011 38.7103 63.2783 38.4699C63.7348 38.4061 64.1736 38.2506 64.5684 38.0126C64.9632 37.7747 65.3057 37.4593 65.5753 37.0855C65.8449 36.7116 66.036 36.2871 66.1371 35.8374C66.2382 35.3877 66.2472 34.9222 66.1636 34.4689C66.0733 34.0382 65.8988 33.6295 65.65 33.2665C65.4012 32.9035 65.083 32.5933 64.7138 32.3537C64.3447 32.1141 63.9317 31.9499 63.4988 31.8706C63.0659 31.7913 62.6216 31.7983 62.1915 31.8914L44.8797 34.7767C42.0906 35.2479 34.9735 47.347 32.0401 52.5213C31.9151 52.7425 30.6552 55.0892 29.9531 56.4164C29.7028 56.8772 29.5629 57.3898 29.5446 57.9139C29.5262 58.438 29.6298 58.9592 29.8473 59.4363C29.993 59.7524 30.2138 60.028 30.4904 60.2392C30.767 60.4504 31.091 60.5908 31.4342 60.6482H31.5689H64.8075C65.392 60.6283 65.9657 60.4852 66.491 60.2283C67.0164 59.9714 67.4816 59.6065 67.8563 59.1574C68.2952 58.6744 68.6281 58.1047 68.8335 57.4852C69.0389 56.8657 69.1122 56.21 69.0489 55.5604V55.6085ZM66.6252 58.0803C66.4082 58.3607 66.1337 58.5916 65.8202 58.7575C65.5068 58.9233 65.1615 59.0204 64.8075 59.042H31.6843C31.6071 59.0164 31.5368 58.9737 31.4785 58.9171C31.4202 58.8605 31.3755 58.7914 31.3477 58.715C31.2467 58.472 31.2012 58.2094 31.2145 57.9465C31.2278 57.6837 31.2996 57.4271 31.4246 57.1954L33.4924 53.3484C39.3207 43.0767 44.0141 36.7002 45.1971 36.4117L62.4608 33.5264C62.6781 33.4706 62.9044 33.4588 63.1263 33.4917C63.3483 33.5247 63.5614 33.6016 63.7532 33.7181C63.9449 33.8346 64.1114 33.9883 64.243 34.1701C64.3745 34.3519 64.4683 34.5581 64.519 34.7767C64.6825 35.5365 64.3266 36.4886 62.8647 36.8637C61.826 37.1234 60.1718 37.4696 58.4214 37.8255C54.507 38.6526 50.0636 39.5855 48.1593 40.4222C47.5801 40.6982 47.0961 41.1402 46.769 41.6922C46.4419 42.2441 46.2865 42.881 46.3226 43.5215C46.3587 44.1621 46.5847 44.7774 46.9717 45.2891C47.3588 45.8008 47.8894 46.1857 48.4959 46.3948C48.5911 46.4148 48.6893 46.4148 48.7845 46.3948L63.3264 45.3561C64.0741 45.3918 64.787 45.6822 65.3469 46.1791C65.9067 46.6759 66.2798 47.3494 66.404 48.0875L67.4331 55.7816C67.4633 56.2012 67.4072 56.6224 67.2683 57.0194C67.1293 57.4164 66.9105 57.7808 66.6252 58.0899" fill="#444444"/>
<path d="M60.066 48.3855C59.5143 48.3855 58.9751 48.5491 58.5164 48.8555C58.0578 49.162 57.7003 49.5976 57.4892 50.1073C57.2781 50.6169 57.2228 51.1777 57.3304 51.7187C57.4381 52.2598 57.7037 52.7568 58.0938 53.1468C58.4838 53.5369 58.9808 53.8025 59.5218 53.9101C60.0629 54.0178 60.6237 53.9625 61.1333 53.7514C61.643 53.5403 62.0786 53.1828 62.385 52.7242C62.6915 52.2655 62.8551 51.7263 62.8551 51.1746C62.8551 50.4349 62.5612 49.7255 62.0382 49.2024C61.5151 48.6793 60.8057 48.3855 60.066 48.3855ZM60.066 52.3384C59.8358 52.3384 59.6108 52.2701 59.4194 52.1422C59.2281 52.0144 59.0789 51.8326 58.9908 51.62C58.9027 51.4073 58.8797 51.1733 58.9246 50.9476C58.9695 50.7218 59.0803 50.5145 59.2431 50.3517C59.4058 50.189 59.6132 50.0781 59.8389 50.0332C60.0647 49.9883 60.2987 50.0114 60.5113 50.0995C60.724 50.1875 60.9057 50.3367 61.0336 50.5281C61.1615 50.7195 61.2297 50.9445 61.2297 51.1746C61.2297 51.4833 61.1071 51.7793 60.8889 51.9975C60.6706 52.2157 60.3746 52.3384 60.066 52.3384Z" fill="#444444"/>
<path d="M90.8714 47.9526C90.8734 56.2356 88.4188 64.333 83.8182 71.2209C79.2176 78.1087 72.6777 83.4774 65.0256 86.6481C57.3735 89.8187 48.953 90.6488 40.829 89.0333C32.7051 87.4179 25.2428 83.4294 19.3859 77.5725C13.5289 71.7156 9.54048 64.2532 7.92502 56.1293C6.30956 48.0054 7.13964 39.5849 10.3103 31.9328C13.4809 24.2807 18.8497 17.7407 25.7375 13.1402C32.6253 8.53958 40.7228 6.08501 49.0058 6.08692C60.1092 6.08692 70.7579 10.4977 78.6093 18.3491C86.4606 26.2004 90.8714 36.8491 90.8714 47.9526Z" fill="white"/>
<path d="M77.1662 61.9176L62.807 39.3834C59.0946 33.6994 54.2473 30.5833 49.1788 30.5833C43.8795 30.5833 38.8783 33.9591 35.089 40.1047L21.1626 61.9561C21.057 61.9466 20.9508 61.9466 20.8452 61.9561C20.5536 61.9617 20.2701 62.0534 20.0304 62.2196C19.7906 62.3857 19.6053 62.619 19.4976 62.8901C19.3899 63.1612 19.3646 63.458 19.425 63.7434C19.4854 64.0288 19.6287 64.29 19.8369 64.4943C20.0451 64.6985 20.3091 64.8367 20.5956 64.8916C20.8821 64.9464 21.1784 64.9155 21.4473 64.8026C21.7163 64.6897 21.9459 64.4999 22.1074 64.257C22.2689 64.0141 22.3551 63.7289 22.3552 63.4372C22.3529 63.2598 22.3204 63.0842 22.259 62.9178L31.1746 48.876C29.6296 54.0069 28.855 59.3387 28.876 64.6971C28.8785 64.8842 28.9546 65.0627 29.0878 65.1941C29.221 65.3255 29.4006 65.3992 29.5877 65.3992H68.7315C68.9186 65.3992 69.0982 65.3255 69.2314 65.1941C69.3646 65.0627 69.4407 64.8842 69.4432 64.6971C69.4682 59.3353 68.6934 53.9997 67.1446 48.8664L75.8967 62.6389C75.7413 62.8763 75.6578 63.1535 75.6562 63.4372C75.6505 63.737 75.7342 64.0317 75.8966 64.2838C76.059 64.5359 76.2927 64.7339 76.5681 64.8526C76.8434 64.9713 77.1479 65.0054 77.4427 64.9504C77.7375 64.8955 78.0092 64.754 78.2233 64.544C78.4374 64.334 78.5841 64.065 78.6447 63.7714C78.7053 63.4777 78.6772 63.1726 78.5638 62.895C78.4504 62.6174 78.2569 62.3799 78.008 62.2127C77.7591 62.0454 77.4661 61.9561 77.1662 61.9561V61.9176ZM48.3132 64.0046H38.4455L48.3517 39.9605L48.3132 64.0046ZM49.8521 64.0046V40.2682L59.6525 63.9661L49.8521 64.0046ZM67.9813 64.0046H61.1528L49.6693 36.1134C49.6172 35.9826 49.527 35.8704 49.4104 35.7916C49.2938 35.7127 49.1561 35.6707 49.0153 35.671C48.8732 35.67 48.734 35.7117 48.6157 35.7905C48.4974 35.8694 48.4055 35.9818 48.3517 36.1134L36.8778 64.0046H30.309C30.4052 55.3487 32.4537 47.2314 36.0796 41.1819L36.2816 40.8549C36.2901 40.8234 36.2901 40.7902 36.2816 40.7587C39.792 35.1036 44.3508 31.9778 49.1211 31.9778C53.6895 31.9778 58.0944 34.8631 61.5375 40.1047L62.1434 41.0665C65.7885 47.1352 67.8467 55.2622 67.914 63.9758" fill="#444444"/>
<path d="M90.8714 47.9526C90.8734 56.2356 88.4188 64.333 83.8182 71.2209C79.2176 78.1087 72.6777 83.4774 65.0256 86.6481C57.3735 89.8187 48.953 90.6488 40.829 89.0333C32.7051 87.4179 25.2428 83.4294 19.3859 77.5725C13.5289 71.7156 9.54048 64.2532 7.92502 56.1293C6.30956 48.0054 7.13964 39.5849 10.3103 31.9328C13.4809 24.2807 18.8497 17.7407 25.7375 13.1402C32.6253 8.53958 40.7228 6.08501 49.0058 6.08692C60.1092 6.08692 70.7579 10.4977 78.6093 18.3491C86.4606 26.2004 90.8714 36.8491 90.8714 47.9526Z" fill="white"/>
<path d="M68.9336 34.2477C68.9281 34.0321 68.8423 33.8263 68.6931 33.6707L63.2784 28.2655C63.1251 28.1128 62.9176 28.0271 62.7013 28.0271C62.485 28.0271 62.2775 28.1128 62.1243 28.2655L34.9928 55.3969L34.0311 56.3587C33.9354 56.4474 33.8656 56.5605 33.8291 56.6857L31.367 64.3798L29.328 66.515C29.1753 66.6682 29.0896 66.8757 29.0896 67.092C29.0896 67.3083 29.1753 67.5158 29.328 67.6691C29.4831 67.8181 29.6901 67.9009 29.9051 67.8999C30.0126 67.9013 30.1192 67.8806 30.2185 67.8393C30.3177 67.798 30.4074 67.7368 30.4822 67.6595L32.5596 65.5532L40.2537 63.1007C40.3752 63.0561 40.4864 62.9874 40.5807 62.8987L64.1055 39.4124C64.1754 39.3765 64.2401 39.3312 64.2978 39.2778C64.3543 39.2226 64.4 39.1573 64.4325 39.0854L68.6931 34.8248C68.844 34.6702 68.93 34.4637 68.9336 34.2477ZM40.975 60.2154L39.4266 58.6573L61.0182 37.1523L62.5378 38.6718L40.975 60.2154ZM38.2725 57.5128L36.724 55.9355L58.2868 34.4112L59.8641 35.9981L38.2725 57.5128ZM33.3675 63.6297L35.3487 57.3974L35.5699 57.1762L37.6858 59.2921L39.8113 61.408L39.5901 61.6292L33.3675 63.6297ZM63.6535 37.5177L59.4025 33.2571L62.6917 29.9679L66.9523 34.2189L63.6535 37.5177Z" fill="#444444"/>
<path d="M90.872 47.9526C90.8739 56.2355 88.4194 64.333 83.8188 71.2209C79.2182 78.1087 72.6783 83.4774 65.0262 86.6481C57.3741 89.8187 48.9536 90.6488 40.8297 89.0333C32.7057 87.4179 25.2434 83.4294 19.3865 77.5725C13.5295 71.7156 9.54109 64.2532 7.92563 56.1293C6.31017 48.0054 7.14025 39.5849 10.3109 31.9328C13.4815 24.2807 18.8503 17.7407 25.7381 13.1402C32.6259 8.53958 40.7234 6.08501 49.0064 6.08692C60.1098 6.08692 70.7585 10.4977 78.6099 18.3491C86.4612 26.2004 90.872 36.8491 90.872 47.9526Z" fill="white"/>
<path d="M61.2295 32.4773C57.2959 30.9577 54.1317 31.1405 51.2656 33.0447C50.5928 31.98 49.7553 31.0288 48.7842 30.2268L47.9186 29.6016C45.0333 27.755 41.4171 27.4857 37.6855 28.8418C30.6453 31.4001 27.5581 37.9401 29.8182 45.5092C31.9149 52.3859 38.3972 57.3101 44.5044 56.8965V56.9831C44.1451 57.7266 44.0178 58.5611 44.1389 59.3779C44.4851 60.3397 45.7835 60.3397 46.8607 60.0511C47.019 60.8219 46.8853 61.6239 46.4856 62.3017C46.0596 63.0839 45.8485 63.965 45.8739 64.8554C45.8992 65.7457 46.1601 66.6135 46.6299 67.3702C46.6988 67.5016 46.8025 67.6115 46.9298 67.6879C47.057 67.7642 47.2028 67.804 47.3512 67.803C47.4855 67.8042 47.618 67.7711 47.7359 67.7068C47.8402 67.6545 47.9321 67.5804 48.0053 67.4896C48.0786 67.3988 48.1316 67.2934 48.1608 67.1804C48.1899 67.0675 48.1946 66.9496 48.1744 66.8346C48.1542 66.7197 48.1096 66.6105 48.0437 66.5142C47.688 65.9766 47.4905 65.3499 47.4735 64.7054C47.4565 64.061 47.6207 63.4248 47.9475 62.8691C48.5284 61.8053 48.6798 60.5595 48.3707 59.3875C49.5344 58.7335 50.0249 57.9545 49.7364 57.1658C49.5536 56.6465 48.9766 56.2041 47.8129 55.5693C48.1976 55.3289 48.5438 55.0788 48.8804 54.8191L49.1401 55.175C49.9659 56.4291 51.1249 57.4283 52.487 58.0603L52.3332 58.2142C51.3714 59.1759 50.9001 59.7241 50.8617 60.3012C50.8136 61.3207 51.9581 61.9747 52.9198 62.2824C52.9018 62.4962 52.8385 62.7038 52.734 62.8912C52.6295 63.0785 52.4863 63.2415 52.3139 63.3692C51.6747 63.744 51.1676 64.308 50.8627 64.9833C50.5577 65.6587 50.47 66.412 50.6116 67.1394C50.6307 67.3435 50.7248 67.5332 50.8759 67.6719C51.0269 67.8105 51.2241 67.888 51.4291 67.8895H51.4868C51.5939 67.8823 51.6984 67.8537 51.7943 67.8056C51.8902 67.7575 51.9756 67.6908 52.0455 67.6093C52.1153 67.5278 52.1682 67.4332 52.2011 67.3311C52.234 67.2289 52.2462 67.1212 52.237 67.0143C52.16 66.0526 52.1697 65.3505 53.1987 64.7157C53.2593 64.6827 53.3145 64.6405 53.3622 64.5907C53.6806 64.3386 53.9445 64.0245 54.1379 63.6674C54.3314 63.3103 54.4503 62.9177 54.4875 62.5133C55.8821 62.5133 57.3728 62.6094 57.3728 61.4553C57.3728 60.9937 57.1227 60.4936 56.3245 59.0701L56.1129 58.6854C58.2673 58.57 61.2776 57.9737 63.1915 56.2329C65.5288 54.0065 67.2118 51.1826 68.058 48.0675C70.9433 38.9692 65.0381 33.9777 61.1141 32.4677L61.2295 32.4773ZM48.0821 57.6563C47.7731 57.9035 47.4296 58.1044 47.0627 58.2526C46.6221 58.3927 46.1672 58.483 45.7066 58.5219C45.7835 58.1949 45.9278 57.7429 46.024 57.4351C46.1201 57.1274 46.2067 56.8581 46.2836 56.5888L46.3991 56.6465C46.8607 56.9062 47.7455 57.4063 48.0821 57.6083V57.6563ZM45.8316 54.8095C45.7313 54.8571 45.6427 54.926 45.5719 55.0115H45.4565C40.4073 56.0406 33.5595 52.2512 31.3859 44.9803C28.9622 36.8822 33.3094 32.0926 38.2337 30.3133C39.5333 29.8317 40.9064 29.5779 42.2923 29.5632C43.9596 29.5501 45.5944 30.0248 46.9954 30.9289L47.7936 31.5059C49.6417 33.1278 50.9503 35.2753 51.5445 37.6612C53.2853 43.4895 52.8429 51.501 45.8316 54.8961V54.8095ZM54.651 60.9263H53.9585C53.4871 60.8557 53.0372 60.6816 52.6409 60.4166C52.8525 60.1377 53.2661 59.7145 53.545 59.4548C53.8239 59.1952 54.0836 58.8874 54.3144 58.6277C54.4683 58.9643 54.6895 59.3779 55.0261 59.955L55.5935 60.9841H54.6318L54.651 60.9263ZM66.5865 47.7117C65.827 50.5416 64.3069 53.1094 62.1913 55.1365C60.4793 56.685 57.2478 57.2813 54.9395 57.1658C54.7668 57.1638 54.5981 57.2178 54.4587 57.3197C54.3782 57.228 54.2756 57.1584 54.1605 57.1178C52.6487 56.6546 51.346 55.6784 50.4769 54.3575L50.1884 53.8189C54.5933 49.3563 54.6895 42.4701 53.0737 37.1515C52.7988 36.2252 52.4449 35.3242 52.0158 34.4585C54.4683 32.7947 57.1131 32.6504 60.6043 33.9969C64.0956 35.3434 69.0775 39.6425 66.5673 47.6155" fill="#444444"/>
<path d="M49.9683 38.6239C50.1596 38.5578 50.3192 38.4223 50.4154 38.2442C50.5115 38.0661 50.5373 37.8584 50.4877 37.6621C49.8858 35.4729 48.6432 33.5136 46.9195 32.0358L46.4579 31.7088C45.5809 31.1484 44.601 30.7688 43.5754 30.5921C42.5498 30.4154 41.4993 30.4451 40.4853 30.6797C40.3799 30.6999 40.2794 30.7407 40.1897 30.7997C40.1 30.8588 40.0228 30.9349 39.9625 31.0237C39.9023 31.1126 39.8601 31.2125 39.8384 31.3176C39.8167 31.4228 39.8159 31.5312 39.8361 31.6367C39.8564 31.7421 39.8971 31.8426 39.9562 31.9323C40.0152 32.022 40.0913 32.0992 40.1802 32.1595C40.269 32.2197 40.3689 32.2619 40.4741 32.2836C40.5792 32.3053 40.6876 32.3061 40.7931 32.2859C41.5965 32.087 42.4319 32.0535 43.2487 32.1874C44.0654 32.3214 44.8464 32.6199 45.5442 33.0649L45.9193 33.3246C47.3767 34.5959 48.4271 36.2685 48.9392 38.1334C48.9939 38.2965 49.0986 38.4383 49.2385 38.5384C49.3783 38.6386 49.5462 38.692 49.7183 38.6912C49.8011 38.7045 49.8855 38.7045 49.9683 38.6912" fill="#444444"/>
<path d="M58.9112 34.4017C58.7056 34.372 58.4964 34.4217 58.3261 34.5406C58.1558 34.6596 58.0371 34.8389 57.9943 35.0422C57.9514 35.2454 57.9875 35.4574 58.0953 35.635C58.2031 35.8126 58.3745 35.9424 58.5745 35.9983C60.5339 36.3915 62.2607 37.538 63.3834 39.1913C64.5211 40.857 64.9945 42.8879 64.7106 44.885V45.1735C64.687 45.2813 64.686 45.3927 64.7077 45.5009C64.7294 45.6091 64.7732 45.7116 64.8365 45.8019C64.8997 45.8923 64.981 45.9686 65.0752 46.0259C65.1694 46.0833 65.2745 46.1205 65.3839 46.1353H65.5185C65.7106 46.1334 65.8959 46.0639 66.0418 45.939C66.1878 45.8142 66.2851 45.6419 66.3168 45.4524L66.3745 45.1254C66.7114 42.7237 66.1422 40.2827 64.7779 38.2776C63.426 36.2956 61.3569 34.9162 59.0073 34.4306" fill="#444444"/>
<path d="M90.8701 47.9528C90.872 56.2358 88.4174 64.3333 83.8168 71.2211C79.2163 78.1089 72.6763 83.4777 65.0242 86.6483C57.3721 89.8189 48.9516 90.649 40.8277 89.0336C32.7038 87.4181 25.2415 83.4297 19.3845 77.5727C13.5276 71.7158 9.53914 64.2534 7.92368 56.1295C6.30822 48.0056 7.1383 39.5851 10.3089 31.933C13.4796 24.2809 18.8483 17.741 25.7361 13.1404C32.624 8.53982 40.7215 6.08526 49.0044 6.08716C60.1079 6.08716 70.7566 10.498 78.6079 18.3493C86.4593 26.2007 90.8701 36.8494 90.8701 47.9528Z" fill="white"/>
<path d="M70.9138 42.2615L69.284 40.6352C68.8765 40.2259 68.3217 39.9965 67.7434 39.9981H65.8651C65.6726 39.9983 65.4879 39.9221 65.3516 39.7865L64.7502 39.1856C64.4663 38.9028 64.4661 38.4438 64.7496 38.1606L65.2637 37.6476C65.5472 37.3646 65.5472 36.9058 65.2637 36.6228L60.1437 31.5173C60.1099 31.4838 60.0729 31.4537 60.0333 31.4274C57.8953 30.0004 55.402 29.1941 52.8315 29.0986L42.6918 28.7239C42.2909 28.7089 41.9537 29.0209 41.9386 29.4209C41.9275 29.717 42.098 29.99 42.3693 30.1104L51.957 34.381C52.874 34.8401 53.7218 35.4257 54.4753 36.1205L51.9134 38.6768C51.6299 38.9599 51.6299 39.4187 51.9134 39.7017L27.7703 63.7874C26.3769 65.2271 26.4169 67.5213 27.8596 68.9118C29.267 70.2681 31.4982 70.2681 32.9056 68.9118L57.0457 44.8238C57.3294 45.1068 57.7891 45.1068 58.0728 44.8238L59.6141 43.2865C59.9014 43.0125 60.3539 43.0125 60.6411 43.2865L61.2425 43.8867C61.3793 44.0222 61.4559 44.2068 61.4554 44.3991V46.2734C61.4536 46.8505 61.6835 47.4041 62.0938 47.8107L63.7223 49.4365C64.0058 49.7197 64.4657 49.7199 64.7495 49.437L70.9131 43.2865C71.1969 43.0037 71.1972 42.5447 70.9138 42.2615ZM31.8793 67.8869C31.0283 68.7361 29.6484 68.7361 28.7974 67.8869C27.9464 67.0377 27.9464 65.6608 28.7974 64.8116L52.9368 40.7237L56.0187 43.799L31.8793 67.8869ZM64.2358 47.8992L63.1216 46.7859C62.9859 46.6496 62.9094 46.4655 62.9088 46.2734V44.3991C62.9102 43.8222 62.6804 43.2686 62.2703 42.8618L61.6689 42.261C60.818 41.4121 59.4387 41.4121 58.5878 42.261L57.56 43.2858L53.451 39.1856L56.0194 36.6228C56.3029 36.3397 56.3029 35.8809 56.0194 35.5979L55.8138 35.3928C54.8668 34.4509 53.7736 33.6678 52.5765 33.0734L46.3815 30.3112L52.7777 30.5475C55.0562 30.6312 57.2675 31.3391 59.1696 32.5936L63.7216 37.1359C62.8725 37.9859 62.8725 39.3612 63.7216 40.2112L64.3237 40.8121C64.7316 41.2209 65.2862 41.4501 65.8643 41.4485H67.7426C67.9351 41.4491 68.1196 41.5254 68.2562 41.6608L69.3718 42.7741L64.2358 47.8992Z" fill="#444444"/>
<path d="M90.872 47.9526C90.8739 56.2355 88.4194 64.333 83.8188 71.2209C79.2182 78.1087 72.6783 83.4774 65.0262 86.6481C57.3741 89.8187 48.9536 90.6488 40.8297 89.0333C32.7057 87.4179 25.2434 83.4294 19.3865 77.5725C13.5295 71.7156 9.54109 64.2532 7.92563 56.1293C6.31017 48.0054 7.14025 39.5849 10.3109 31.9328C13.4815 24.2807 18.8503 17.7407 25.7381 13.1402C32.6259 8.53958 40.7234 6.08501 49.0064 6.08692C60.1098 6.08692 70.7585 10.4977 78.6099 18.3491C86.4612 26.2004 90.872 36.8491 90.872 47.9526Z" fill="white"/>
<path d="M49.0253 49.4155C53.0551 49.4155 56.3348 47.0111 56.3348 44.0585C56.315 43.3883 56.1479 42.7306 55.8454 42.1323C55.5428 41.5339 55.1123 41.0094 54.5844 40.5961C54.838 40.3194 54.9846 39.9614 54.9979 39.5863C54.9911 39.2058 54.8495 38.8402 54.5982 38.5544C54.347 38.2687 54.0024 38.0814 53.626 38.026C53.2495 37.9705 52.8657 38.0506 52.5427 38.2518C52.2198 38.453 51.9787 38.7623 51.8626 39.1246C50.0375 38.5731 48.0901 38.5731 46.2651 39.1246C46.1549 38.7573 45.9161 38.4419 45.5925 38.2361C45.2689 38.0303 44.882 37.9479 44.5026 38.004C44.1232 38.06 43.7767 38.2507 43.5263 38.5413C43.276 38.8318 43.1386 39.2028 43.1393 39.5863C43.1495 39.9388 43.2783 40.2777 43.5048 40.548C42.9768 40.9613 42.5463 41.4858 42.2438 42.0842C41.9413 42.6826 41.7742 43.3402 41.7544 44.0104C41.7544 46.963 45.034 49.3674 49.0638 49.3674L49.0253 49.4155ZM49.0638 40.298C52.1415 40.298 54.7479 42.0003 54.7479 44.0104C54.7479 45.8474 52.5839 47.4054 49.8813 47.6747V44.5009C50.9681 44.3759 51.9203 43.9527 51.9203 43.0775C51.9203 41.9907 50.4391 41.606 49.035 41.606C47.6308 41.606 46.1497 41.9907 46.1497 43.0775C46.1497 43.9527 47.1114 44.3759 48.179 44.5009V47.6747C45.4764 47.4054 43.3702 45.8474 43.3702 44.0104C43.3702 42.0003 45.9669 40.298 49.0446 40.298" fill="#444444"/>
<path d="M65.8371 56.1464C65.0124 55.4756 64.0094 55.0611 62.9518 54.9538C63.1306 54.1749 63.104 53.363 62.8749 52.5974C62.474 51.1838 61.7755 49.8721 60.8263 48.7504C60.4361 48.2832 60.0048 47.8519 59.5376 47.4616C61.3403 45.3991 62.3405 42.7568 62.3555 40.0175C62.357 39.4478 62.3152 38.8787 62.2305 38.3152C63.0479 38.208 63.8255 37.898 64.4925 37.4135C65.1595 36.9291 65.6947 36.2855 66.0495 35.5414C66.4043 34.7973 66.5674 33.9762 66.5239 33.153C66.4804 32.3298 66.2318 31.5305 65.8006 30.8279C65.3693 30.1253 64.7693 29.5417 64.0549 29.1302C63.3406 28.7187 62.5347 28.4924 61.7106 28.4718C60.8865 28.4513 60.0703 28.6371 59.3363 29.0125C58.6024 29.3879 57.974 29.9409 57.5082 30.6211C55.0542 28.8281 52.0936 27.8618 49.0543 27.8618C46.015 27.8618 43.0545 28.8281 40.6004 30.6211C40.1347 29.9409 39.5063 29.3879 38.7723 29.0125C38.0384 28.6371 37.2222 28.4513 36.3981 28.4718C35.5739 28.4924 34.768 28.7187 34.0537 29.1302C33.3394 29.5417 32.7393 30.1253 32.3081 30.8279C31.8769 31.5305 31.6282 32.3298 31.5847 33.153C31.5412 33.9762 31.7043 34.7973 32.0591 35.5414C32.4139 36.2855 32.9492 36.9291 33.6162 37.4135C34.2832 37.898 35.0608 38.208 35.8781 38.3152C35.7942 38.8948 35.7556 39.48 35.7627 40.0656C35.7777 42.8049 36.778 45.4472 38.5807 47.5097C38.1158 47.9024 37.6847 48.3336 37.2919 48.7985C36.3464 49.9227 35.6484 51.2335 35.2434 52.6455C35.0097 53.4275 34.9898 54.2577 35.1857 55.0499C34.0513 55.147 32.977 55.6016 32.1176 56.3483C31.6192 56.8054 31.2242 57.3635 30.9588 57.9855C30.6934 58.6075 30.5639 59.2789 30.5788 59.955C30.6413 61.0379 30.9304 62.0957 31.4274 63.0599C31.9244 64.0241 32.6183 64.8732 33.4641 65.5524C35.1503 67.0602 37.3195 67.9163 39.5809 67.9665C40.7167 67.9867 41.8357 67.6903 42.8125 67.1105C44.3801 67.8799 46.9577 67.9953 49.0639 67.9953C51.1702 67.9953 53.767 67.8895 55.3443 67.1201C56.3122 67.7247 57.4348 68.0355 58.5758 68.0145C60.9073 67.9609 63.1355 67.0422 64.8273 65.437C65.6487 64.7235 66.3112 63.8454 66.7718 62.8597C67.2323 61.8739 67.4808 60.8024 67.501 59.7145C67.4947 59.0382 67.3458 58.3709 67.0641 57.756C66.7824 57.1412 66.3741 56.5927 65.866 56.1464H65.8371ZM59.576 49.8468C60.3598 50.783 60.9367 51.8745 61.2687 53.0495C61.3977 53.3561 61.4576 53.6874 61.4443 54.0198C61.431 54.3522 61.3448 54.6776 61.1918 54.973C60.2782 55.0866 59.3867 55.3362 58.5469 55.7136C58.3931 55.1269 58.2103 54.4536 58.1334 54.2132C57.8983 53.4733 57.6057 52.753 57.2582 52.0589C56.9553 51.4465 56.6115 50.8553 56.2291 50.2892C56.999 49.8418 57.7209 49.3165 58.3835 48.7215C58.8121 49.0697 59.2051 49.4595 59.5568 49.8853L59.576 49.8468ZM37.3496 40.0656C37.3495 39.2904 37.4465 38.5182 37.6382 37.767C37.6675 37.6416 37.6671 37.5111 37.637 37.3858C37.6069 37.2606 37.5481 37.1441 37.465 37.0457C37.3873 36.956 37.2913 36.8839 37.1835 36.8341C37.0757 36.7844 36.9586 36.7582 36.8399 36.7572H36.7726C36.1618 36.8026 35.5503 36.6775 35.0064 36.396C34.4624 36.1144 34.0073 35.6874 33.6917 35.1625C33.3762 34.6375 33.2125 34.0353 33.219 33.4228C33.2254 32.8103 33.4018 32.2117 33.7284 31.6936C34.055 31.1754 34.5191 30.7581 35.0688 30.4881C35.6186 30.2181 36.2326 30.106 36.8423 30.1643C37.452 30.2227 38.0335 30.4491 38.5222 30.8184C39.0108 31.1877 39.3873 31.6854 39.6098 32.2561C39.6578 32.3786 39.7343 32.4878 39.833 32.5748C39.9317 32.6618 40.0497 32.724 40.1772 32.7562C40.3049 32.785 40.4375 32.7835 40.5644 32.7518C40.6914 32.72 40.8091 32.659 40.9082 32.5735C43.1891 30.631 46.0872 29.5642 49.0832 29.5642C52.0792 29.5642 54.9772 30.631 57.2582 32.5735C57.3572 32.659 57.475 32.72 57.6019 32.7518C57.7289 32.7835 57.8615 32.785 57.9891 32.7562C58.1167 32.724 58.2347 32.6618 58.3334 32.5748C58.4321 32.4878 58.5086 32.3786 58.5566 32.2561C58.8435 31.5437 59.3688 30.9529 60.0427 30.5845C60.7166 30.216 61.4974 30.0928 62.252 30.2358C63.0067 30.3788 63.6883 30.7791 64.1807 31.3685C64.6731 31.9579 64.9458 32.6999 64.9523 33.4679C64.9458 33.9253 64.8456 34.3765 64.6579 34.7936C64.4702 35.2108 64.199 35.585 63.861 35.8933C63.5231 36.2015 63.1255 36.4372 62.6929 36.5858C62.2602 36.7344 61.8017 36.7927 61.3457 36.7572C61.2159 36.7488 61.0858 36.7705 60.9657 36.8205C60.8456 36.8705 60.7387 36.9476 60.6532 37.0457C60.5712 37.1446 60.5136 37.2615 60.4852 37.3868C60.4568 37.5121 60.4584 37.6424 60.4897 37.767C60.6736 38.5194 60.7672 39.2911 60.7686 40.0656C60.7686 45.8362 55.527 50.5585 49.0928 50.5585C42.6586 50.5585 37.3496 45.8555 37.3496 40.0656ZM36.7822 53.0495C37.1266 51.8823 37.7132 50.8008 38.5037 49.8756C38.858 49.4522 39.2508 49.0627 39.6771 48.7119C40.3416 49.3044 41.0633 49.8295 41.8315 50.2796C41.449 50.8457 41.1052 51.4369 40.8024 52.0492C40.4589 52.7452 40.1664 53.4652 39.9272 54.2036C39.8502 54.4344 39.6675 55.1654 39.5136 55.7136C38.6822 55.3411 37.8009 55.0916 36.8976 54.973C36.8976 54.973 36.8976 54.973 36.8976 54.9153C36.7446 54.6199 36.6584 54.2945 36.6451 53.9621C36.6318 53.6297 36.6917 53.2984 36.8207 52.9918L36.7822 53.0495ZM42.3989 65.312C40.5812 66.9566 37.0419 66.4757 34.5124 64.254C33.8487 63.72 33.302 63.055 32.9066 62.3005C32.5111 61.546 32.2753 60.7181 32.2138 59.8684C32.192 59.4249 32.2666 58.982 32.4327 58.5702C32.5987 58.1584 32.8522 57.7875 33.1756 57.4832C33.9683 56.8201 34.9802 56.4771 36.0128 56.5214C37.8802 56.5788 39.6664 57.2981 41.0524 58.5508C41.715 59.0866 42.2613 59.7519 42.6582 60.5059C43.0551 61.2599 43.2941 62.0869 43.3607 62.9364C43.3776 63.3808 43.3007 63.8237 43.135 64.2363C42.9693 64.649 42.7185 65.022 42.3989 65.3312V65.312ZM49.0736 66.293C47.4093 66.3455 45.745 66.1871 44.1205 65.8217C44.7242 64.9822 45.0412 63.9704 45.0245 62.9364C44.962 61.8535 44.6729 60.7957 44.1759 59.8315C43.6789 58.8673 42.985 58.0181 42.1392 57.3389C41.7823 57.0264 41.403 56.7403 41.0043 56.483C41.1678 55.8482 41.4083 54.9057 41.4852 54.6749C41.7019 54.0157 41.9655 53.3729 42.2739 52.7513C42.5724 52.1428 42.9164 51.5576 43.303 51.0009C45.1099 51.794 47.0618 52.2034 49.0351 52.2034C51.0084 52.2034 52.9603 51.794 54.7672 51.0009C55.1496 51.5603 55.4934 52.1452 55.7963 52.7513C56.1047 53.3729 56.3683 54.0157 56.5849 54.6749C56.6619 54.9057 56.9023 55.8482 57.0658 56.483C56.6273 56.77 56.2124 57.0916 55.8252 57.4447C54.9944 58.1469 54.3203 59.0157 53.8465 59.9948C53.3726 60.9739 53.1096 62.0416 53.0745 63.1288C53.0874 64.0972 53.3925 65.0392 53.9497 65.8313C52.3288 66.2 50.6678 66.3616 49.0062 66.3122L49.0736 66.293ZM63.6539 64.1963C61.1822 66.4853 57.6621 67.0816 55.8059 65.4659C55.4674 65.1722 55.1966 64.8086 55.0123 64.4001C54.828 63.9917 54.7345 63.548 54.7384 63.0999C54.7783 62.2492 54.9927 61.4158 55.3683 60.6514C55.7438 59.887 56.2726 59.208 56.9216 58.6566C58.3097 57.3277 60.1371 56.5543 62.0574 56.483C63.0411 56.4463 64.0047 56.7675 64.7696 57.387C65.1129 57.683 65.3866 58.0511 65.5711 58.4651C65.7557 58.879 65.8465 59.3287 65.8371 59.7818C65.7916 60.6273 65.5746 61.4546 65.1993 62.2135C64.824 62.9724 64.2982 63.647 63.6539 64.1963Z" fill="#444444"/>
<path d="M90.8714 47.9526C90.8734 56.2356 88.4188 64.333 83.8182 71.2209C79.2176 78.1087 72.6777 83.4774 65.0256 86.6481C57.3735 89.8187 48.953 90.6488 40.829 89.0333C32.7051 87.4179 25.2428 83.4294 19.3859 77.5725C13.5289 71.7156 9.54048 64.2532 7.92502 56.1293C6.30956 48.0054 7.13964 39.5849 10.3103 31.9328C13.4809 24.2807 18.8497 17.7407 25.7375 13.1402C32.6253 8.53958 40.7228 6.08501 49.0058 6.08692C60.1092 6.08692 70.7579 10.4977 78.6093 18.3491C86.4606 26.2004 90.8714 36.8491 90.8714 47.9526Z" fill="white"/>
<path d="M44.4182 28.3039H53.6416C53.6581 28.202 53.6581 28.098 53.6416 27.9961C53.657 27.8973 53.657 27.7967 53.6416 27.698H44.4182C44.3775 27.792 44.3578 27.8937 44.3605 27.9961C44.357 28.1017 44.3767 28.2068 44.4182 28.3039ZM53.757 29.2656H44.2836C43.7546 29.2656 43.3218 28.7078 43.3218 27.9673C43.3218 27.2267 43.7257 26.6785 44.2836 26.6785H53.7377C54.2667 26.6785 54.6995 27.2363 54.6995 27.9673C54.6995 28.6982 54.3052 29.2656 53.7377 29.2656H53.757ZM39.09 59.7055H58.9216V31.2854H39.09V59.7055ZM59.9123 60.6673H38.0994V30.2947H59.9123V60.6673ZM49.0058 63.7161C48.5976 63.7476 48.2163 63.932 47.9381 64.2324C47.6599 64.5329 47.5054 64.9272 47.5054 65.3367C47.5054 65.7461 47.6599 66.1405 47.9381 66.4409C48.2163 66.7414 48.5976 66.9258 49.0058 66.9572C49.2292 66.9745 49.4536 66.9453 49.6651 66.8717C49.8767 66.7981 50.0707 66.6815 50.235 66.5294C50.3994 66.3772 50.5305 66.1927 50.6202 65.9874C50.7099 65.7822 50.7562 65.5607 50.7562 65.3367C50.7562 65.1127 50.7099 64.8911 50.6202 64.6859C50.5305 64.4807 50.3994 64.2962 50.235 64.144C50.0707 63.9918 49.8767 63.8753 49.6651 63.8016C49.4536 63.728 49.2292 63.6989 49.0058 63.7161ZM49.0058 67.9383C48.4903 67.9383 47.9864 67.7854 47.5578 67.499C47.1292 67.2126 46.7951 66.8055 46.5979 66.3293C46.4006 65.853 46.349 65.329 46.4495 64.8234C46.5501 64.3178 46.7983 63.8534 47.1628 63.4889C47.5274 63.1244 47.9918 62.8761 48.4974 62.7756C49.0029 62.675 49.527 62.7266 50.0033 62.9239C50.4795 63.1212 50.8866 63.4552 51.173 63.8838C51.4594 64.3125 51.6122 64.8164 51.6122 65.3319C51.6122 66.0231 51.3376 66.6861 50.8488 67.1749C50.36 67.6636 49.6971 67.9383 49.0058 67.9383ZM39.3882 25.6783C38.6416 25.6808 37.9263 25.9785 37.3984 26.5064C36.8704 27.0343 36.5727 27.7496 36.5702 28.4962V67.4093C36.5727 68.1559 36.8704 68.8712 37.3984 69.3991C37.9263 69.927 38.6416 70.2247 39.3882 70.2273H58.585C59.3324 70.2273 60.0492 69.9304 60.5776 69.4019C61.1061 68.8734 61.403 68.1567 61.403 67.4093V28.4962C61.403 27.7489 61.1061 27.0321 60.5776 26.5036C60.0492 25.9752 59.3324 25.6783 58.585 25.6783H39.3882ZM58.585 71.2179H39.4267C38.4063 71.2179 37.4278 70.8126 36.7064 70.0911C35.9849 69.3696 35.5796 68.3911 35.5796 67.3708V28.4962C35.5796 27.4759 35.9849 26.4974 36.7064 25.7759C37.4278 25.0545 38.4063 24.6492 39.4267 24.6492H58.585C59.6053 24.6492 60.5838 25.0545 61.3053 25.7759C62.0268 26.4974 62.4321 27.4759 62.4321 28.4962V67.4093C62.4321 68.4296 62.0268 69.4081 61.3053 70.1296C60.5838 70.851 59.6053 71.2563 58.585 71.2563" fill="#444444"/>
<path d="M90.8705 48C90.8724 56.2829 88.4178 64.3804 83.8172 71.2682C79.2166 78.1561 72.6767 83.5248 65.0246 86.6954C57.3725 89.8661 48.952 90.6962 40.8281 89.0807C32.7042 87.4652 25.2418 83.4768 19.3849 77.6199C13.5279 71.7629 9.53951 64.3006 7.92404 56.1767C6.30858 48.0528 7.13866 39.6322 10.3093 31.9801C13.4799 24.328 18.8487 17.7881 25.7365 13.1875C32.6243 8.58694 40.7218 6.13238 49.0048 6.13428C60.1083 6.13428 70.757 10.5451 78.6083 18.3964C86.4596 26.2478 90.8705 36.8965 90.8705 48Z" fill="white"/>
<path d="M44.4172 28.3512H53.6406C53.6571 28.2493 53.6571 28.1454 53.6406 28.0435C53.6561 27.9447 53.6561 27.8441 53.6406 27.7453H44.4172C44.3765 27.8393 44.3568 27.9411 44.3595 28.0435C44.356 28.1491 44.3757 28.2541 44.4172 28.3512ZM53.756 29.313H44.2826C43.7536 29.313 43.3208 28.7552 43.3208 28.0146C43.3208 27.2741 43.7248 26.7259 44.2826 26.7259H53.7367C54.2657 26.7259 54.6985 27.2837 54.6985 28.0146C54.6985 28.7456 54.3042 29.313 53.7367 29.313H53.756ZM39.0891 59.7529H58.9207V31.3327H39.0891V59.7529ZM59.9113 60.7147H38.0984V30.3421H59.9113V60.7147ZM49.0049 63.7635C48.5966 63.7949 48.2153 63.9793 47.9371 64.2798C47.659 64.5802 47.5044 64.9746 47.5044 65.384C47.5044 65.7935 47.659 66.1879 47.9371 66.4883C48.2153 66.7887 48.5966 66.9731 49.0049 67.0046C49.2282 67.0218 49.4526 66.9927 49.6642 66.9191C49.8757 66.8454 50.0697 66.7289 50.2341 66.5767C50.3984 66.4245 50.5295 66.2401 50.6192 66.0348C50.7089 65.8296 50.7552 65.608 50.7552 65.384C50.7552 65.1601 50.7089 64.9385 50.6192 64.7333C50.5295 64.528 50.3984 64.3435 50.2341 64.1914C50.0697 64.0392 49.8757 63.9226 49.6642 63.849C49.4526 63.7754 49.2282 63.7462 49.0049 63.7635ZM49.0049 67.9856C48.4894 67.9856 47.9855 67.8328 47.5568 67.5464C47.1282 67.26 46.7941 66.8529 46.5969 66.3767C46.3996 65.9004 46.348 65.3763 46.4486 64.8708C46.5491 64.3652 46.7974 63.9007 47.1619 63.5362C47.5264 63.1717 47.9908 62.9235 48.4964 62.8229C49.002 62.7224 49.526 62.774 50.0023 62.9712C50.4785 63.1685 50.8856 63.5026 51.172 63.9312C51.4584 64.3598 51.6112 64.8637 51.6112 65.3792C51.6112 66.0705 51.3366 66.7334 50.8479 67.2222C50.3591 67.711 49.6961 67.9856 49.0049 67.9856ZM39.3872 25.7256C38.6406 25.7282 37.9253 26.0259 37.3974 26.5538C36.8695 27.0817 36.5718 27.797 36.5692 28.5436V67.4566C36.5718 68.2032 36.8695 68.9185 37.3974 69.4464C37.9253 69.9744 38.6406 70.2721 39.3872 70.2746H58.5841C59.3314 70.2746 60.0482 69.9777 60.5767 69.4492C61.1051 68.9208 61.402 68.204 61.402 67.4566V28.5436C61.402 27.7962 61.1051 27.0795 60.5767 26.551C60.0482 26.0225 59.3314 25.7256 58.5841 25.7256H39.3872ZM58.5841 71.2652H39.4257C38.4054 71.2652 37.4269 70.8599 36.7054 70.1385C35.9839 69.417 35.5786 68.4385 35.5786 67.4182V28.5436C35.5786 27.5233 35.9839 26.5448 36.7054 25.8233C37.4269 25.1018 38.4054 24.6965 39.4257 24.6965H58.5841C59.6044 24.6965 60.5829 25.1018 61.3043 25.8233C62.0258 26.5448 62.4311 27.5233 62.4311 28.5436V67.4566C62.4311 68.4769 62.0258 69.4555 61.3043 70.1769C60.5829 70.8984 59.6044 71.3037 58.5841 71.3037" fill="#444444"/>
<path d="M58.5841 71.2652H39.4257C38.4054 71.2652 37.4269 70.8599 36.7054 70.1385C35.9839 69.417 35.5786 68.4385 35.5786 67.4182V28.5436C35.5786 27.5233 35.9839 26.5448 36.7054 25.8233C37.4269 25.1018 38.4054 24.6965 39.4257 24.6965H58.5841C59.6044 24.6965 60.5829 25.1018 61.3043 25.8233C62.0258 26.5448 62.4311 27.5233 62.4311 28.5436V67.4566C62.4311 68.4769 62.0258 69.4555 61.3043 70.1769C60.5829 70.8984 59.6044 71.3037 58.5841 71.3037M44.4172 28.3512H53.6406C53.6571 28.2493 53.6571 28.1454 53.6406 28.0435C53.6561 27.9447 53.6561 27.8441 53.6406 27.7453H44.4172C44.3765 27.8393 44.3568 27.9411 44.3595 28.0435C44.356 28.1491 44.3757 28.2541 44.4172 28.3512V28.3512ZM53.756 29.313H44.2826C43.7536 29.313 43.3208 28.7552 43.3208 28.0146C43.3208 27.2741 43.7248 26.7259 44.2826 26.7259H53.7368C54.2657 26.7259 54.6985 27.2837 54.6985 28.0146C54.6985 28.7456 54.3042 29.313 53.7368 29.313H53.756ZM39.0891 59.7529H58.9207V31.3327H39.0891V59.7529ZM59.9113 60.7147H38.0984V30.3421H59.9113V60.7147ZM49.0049 63.7635C48.5966 63.7949 48.2153 63.9793 47.9371 64.2798C47.659 64.5802 47.5044 64.9746 47.5044 65.384C47.5044 65.7935 47.659 66.1879 47.9371 66.4883C48.2153 66.7887 48.5966 66.9731 49.0049 67.0046C49.2282 67.0218 49.4526 66.9927 49.6642 66.9191C49.8757 66.8454 50.0697 66.7289 50.2341 66.5767C50.3984 66.4245 50.5295 66.24 50.6192 66.0348C50.7089 65.8296 50.7552 65.608 50.7552 65.384C50.7552 65.1601 50.7089 64.9385 50.6192 64.7333C50.5295 64.528 50.3984 64.3435 50.2341 64.1914C50.0697 64.0392 49.8757 63.9226 49.6642 63.849C49.4526 63.7754 49.2282 63.7462 49.0049 63.7635V63.7635ZM49.0049 67.9856C48.4894 67.9856 47.9855 67.8328 47.5568 67.5464C47.1282 67.26 46.7941 66.8529 46.5969 66.3767C46.3996 65.9004 46.348 65.3763 46.4486 64.8708C46.5491 64.3652 46.7974 63.9007 47.1619 63.5362C47.5264 63.1717 47.9908 62.9235 48.4964 62.8229C49.002 62.7224 49.526 62.774 50.0023 62.9712C50.4785 63.1685 50.8856 63.5026 51.172 63.9312C51.4584 64.3598 51.6112 64.8637 51.6112 65.3792C51.6112 66.0705 51.3366 66.7334 50.8479 67.2222C50.3591 67.711 49.6961 67.9856 49.0049 67.9856V67.9856ZM39.3872 25.7256C38.6406 25.7282 37.9253 26.0259 37.3974 26.5538C36.8695 27.0817 36.5718 27.797 36.5692 28.5436V67.4566C36.5718 68.2032 36.8695 68.9185 37.3974 69.4464C37.9253 69.9744 38.6406 70.2721 39.3872 70.2746H58.5841C59.3314 70.2746 60.0482 69.9777 60.5767 69.4492C61.1051 68.9208 61.402 68.204 61.402 67.4566V28.5436C61.402 27.7962 61.1051 27.0795 60.5767 26.551C60.0482 26.0225 59.3314 25.7256 58.5841 25.7256H39.3872Z" stroke="#444444" stroke-width="0.5"/>
</svg>
